<?xml version="1.0" encoding="UTF-8"?>
<svg width="94px" height="104px" viewBox="0 0 94 104" version="1.1" xmlns="http://www.w3.org/2000/svg" xmlns:xlink="http://www.w3.org/1999/xlink">
    <title>c--4</title>
    <g id="Pictures" stroke="none" stroke-width="1" fill="none" fill-rule="evenodd">
        <g id="c--4" transform="translate(0.727273, 0.181818)" fill-rule="nonzero">
            <path d="M92.1225831,30.4935117 C92.1225831,28.7637685 91.7541127,27.2041202 90.9887532,25.8996142 C90.2518124,24.5952297 89.1462797,23.5176788 87.672398,22.6669615 C75.4270113,15.6059597 63.1533273,8.5450794 50.9079405,1.48407759 C47.5914639,-0.415881914 44.416716,-0.359143131 41.128658,1.56912501 C36.2531653,4.43327933 11.8191076,18.4416839 4.56264503,22.6669615 C1.55792303,24.3967047 0.112338541,27.062334 0.112338541,30.5219418 L0.112338541,73.1711606 C0.112338541,74.8725951 0.480808956,76.3755046 1.18945262,77.6800107 C1.9265149,79.0128253 3.06034475,80.147115 4.56264503,81.0261409 C11.8475262,85.2514185 36.2531653,99.2315144 41.128658,102.123977 C44.416716,104.051881 47.6197611,104.136928 50.9079405,102.209025 C63.1533273,95.1197144 75.4270113,88.0871427 87.672398,81.0261409 C89.2029955,80.147115 90.3085282,79.041134 91.045469,77.6800107 C91.7541127,76.3755046 92.1225831,74.8725951 92.1225831,73.1711606 L92.1225831,30.4935117 Z" id="Path" fill="#9A4993"></path>
            <path d="M46.2308924,51.6763956 L1.13273684,77.6515805 C1.86979911,78.9843952 3.00362897,80.1186849 4.50592925,80.9978322 C11.7908104,85.2229884 36.1964495,99.2030843 41.0719422,102.095547 C44.3600002,104.023937 47.5631667,104.108984 50.8512248,102.180595 C63.0966115,95.0912842 75.3702955,88.0587126 87.6156822,80.9978322 C89.1462797,80.1186849 90.2518124,79.0128253 90.9887532,77.6515805 L46.2308924,51.6763956 Z" id="Path" fill="#6A1577"></path>
            <path d="M32.8799729,59.3611595 C35.5162245,63.955057 40.4483115,67.046045 46.0891636,67.046045 C51.7866101,67.046045 56.7471157,63.9267484 59.3549487,59.2761121 L46.2308924,51.6763956 L32.8799729,59.3611595 Z" id="Path" fill="#6A1577"></path>
            <path d="M92.1227045,30.4935117 C92.1227045,28.7637685 91.7541127,27.2041202 90.9888747,25.8996142 L46.2308924,51.6763956 L91.045469,77.651702 C91.7541127,76.347196 92.1227045,74.8442865 92.1227045,73.142852 L92.1227045,30.4935117 Z" id="Path" fill="#813084"></path>
            <g id="Group" transform="translate(15.423778, 21.140360)" fill="#FFFFFF">
                <path d="M43.9311706,38.1357519 C41.3234591,42.757958 36.3629535,45.9056847 30.6653856,45.9056847 C24.9962363,45.9056847 20.0641492,42.8146968 17.4563163,38.2207993 C16.1807577,35.9806501 15.4436954,33.4284983 15.4436954,30.6778216 C15.4436954,22.2556965 22.2466746,15.4499584 30.6653856,15.4499584 C36.2778191,15.4499584 41.1817304,18.5125163 43.8178605,23.0496749 L57.1119427,15.3932197 C51.8113853,6.26228498 41.9469684,0.108739209 30.6370884,0.108739209 C13.7429506,0.108739209 0.0803979613,13.8052627 0.0803979613,30.6778216 C0.0803979613,36.2074837 1.55427962,41.4252648 4.13381542,45.9056847 C9.40607569,55.0650496 19.327087,61.246904 30.6653856,61.246904 C42.0321028,61.246904 51.953114,55.0367409 57.2253743,45.8206373 L43.9311706,38.1357519 Z M60.740174,23.4467249 L57.7071548,23.4467249 L57.7071548,38.1074432 L60.740174,38.1074432 L60.740174,23.4467249 Z M67.4581402,23.4467249 L64.425121,23.4467249 L64.425121,38.1074432 L67.4581402,38.1074432 L67.4581402,23.4467249 Z" id="Shape"></path>
                <path d="M69.9242444,25.9138293 L55.2694692,25.9138293 L55.2694692,28.9480784 L69.9242444,28.9480784 L69.9242444,25.9138293 Z M69.9242444,32.6060897 L55.2694692,32.6060897 L55.2694692,35.6403389 L69.9242444,35.6403389 L69.9242444,32.6060897 Z" id="Shape"></path>
            </g>
        </g>
    </g>
</svg>