<?xml version="1.0" encoding="UTF-8"?>
<svg width="118px" height="104px" viewBox="0 0 118 104" version="1.1" xmlns="http://www.w3.org/2000/svg" xmlns:xlink="http://www.w3.org/1999/xlink">
    <title>download copy</title>
    <g id="Pictures" stroke="none" stroke-width="1" fill="none" fill-rule="evenodd">
        <g id="download-copy" transform="translate(0.636364, 0.181818)" fill-rule="nonzero">
            <path d="M0.0168991452,51.6375934 C0.0168991452,60.3387117 8.54051905,68.4611139 21.9780651,73.0396726 C19.2946444,86.5054626 21.4974389,97.3593321 28.8540184,101.588307 C36.4154773,105.935469 47.6806655,102.926418 58.373009,93.6094513 C68.7955114,102.550116 79.3288576,106.068601 86.6790772,101.8274 C94.2337219,97.4680112 96.5310062,85.8782937 93.7735382,71.9918252 C107.769846,67.3793043 115.598875,60.4532775 115.598875,51.6375934 C115.598875,43.1384371 107.05981,35.785845 93.8030663,31.2367202 C96.7717736,16.7765167 94.2564358,6.18619394 86.5950357,1.78242736 C79.2089282,-2.46330175 68.5529269,1.23722068 57.9773328,10.4115457 C46.9747173,0.673900816 36.4241086,-2.29892465 28.7708855,2.11706833 C21.3915921,6.37502383 19.2860131,17.426327 21.9780651,31.1411732 C8.99388859,35.6536188 0.0168991452,43.1728522 0.0168991452,51.6375934 Z" id="Path" fill="#FFFFFF"></path>
            <path d="M90.9956276,35.754147 C89.9030745,35.3805751 88.8012519,35.0345036 87.6912088,34.7162618 C87.8752938,33.9706354 88.0455258,33.2216783 88.2018173,32.4697748 C90.7030725,20.3665488 89.0676714,10.6162246 83.4827765,7.40656936 C78.1282006,4.32823463 69.3706274,7.53788991 60.5258329,15.2101796 C59.6542927,15.9679187 58.8020979,16.7474869 57.9700644,17.5481382 C57.4128741,17.0157525 56.8458378,16.4937015 56.2692472,15.9822539 C46.9997026,7.77788953 37.7083527,4.32098936 32.1293634,7.54015406 C26.7797846,10.6270925 25.1952626,19.7937195 27.4471191,31.2638899 C27.6711631,32.3997715 27.9241262,33.5297947 28.2057635,34.6528657 C26.9280084,35.0128338 25.6610907,35.4099841 24.4066358,35.8438072 C13.5393952,39.620405 6.59893447,45.5397918 6.59893447,51.6792537 C6.59893447,58.0206776 14.0490952,64.3811203 25.3687968,68.2374161 C26.2866575,68.5486596 27.2121579,68.8370506 28.144436,69.1023204 C27.8415696,70.3122537 27.5726835,71.5303876 27.3380924,72.7552957 C25.1911741,84.0262212 26.8679145,92.97549 32.2034108,96.0434097 C37.7142584,99.2109518 46.9633604,95.9551079 55.9698779,88.1075732 C56.6817317,87.4871968 57.3963111,86.8292356 58.1117991,86.1395763 C59.013006,87.0063189 59.9382755,87.8478519 60.8865297,88.663195 C69.6104863,96.146202 78.2263246,99.167933 83.5572781,96.0918624 C89.0631286,92.9148109 90.8520757,83.3007884 88.5288976,71.6037504 C88.3517291,70.7103178 88.1450326,69.7978665 87.9133507,68.8686604 C88.5629684,68.6775664 89.2003206,68.4801327 89.8222273,68.2745481 C101.589847,64.3883656 109.245796,58.1053567 109.245796,51.6792537 C109.245796,45.5176031 102.08183,39.5583673 90.9956276,35.754147 L90.9956276,35.754147 Z" id="Path" fill="#53C1DE"></path>
            <path d="M88.443039,64.1257245 C87.8820056,64.3109318 87.3059809,64.4897994 86.7190536,64.6632331 C85.4198183,60.5637679 83.6663048,56.2043786 81.5212037,51.7009896 C83.568635,47.3040154 85.2540068,43.000777 86.5168999,38.9275759 C87.5667366,39.2309716 88.5861366,39.5502164 89.5682859,39.8875744 C99.0672408,43.146588 104.861104,47.9660521 104.861104,51.6792537 C104.861104,55.6347192 98.6034229,60.7698053 88.4434933,64.1257245 L88.443039,64.1257245 Z M84.2273383,72.4528056 C85.2544611,77.6250238 85.4011929,82.3013938 84.7206843,85.9570861 C84.109226,89.241911 82.8799494,91.4317943 81.3599349,92.308925 C78.1250206,94.1754881 71.2068195,91.7492278 63.7466646,85.3498417 C62.8646339,84.591937 62.0038991,83.8097496 61.1654565,83.0041851 C64.0578451,79.8506807 66.9484166,76.1845733 69.7694836,72.1136364 C74.7320175,71.6748446 79.4201675,70.9571099 83.6717562,69.9776398 C83.8807241,70.8199026 84.0669781,71.6454107 84.2273383,72.4528056 L84.2273383,72.4528056 Z M41.593339,91.9865104 C38.4329263,93.0991125 35.9157714,93.1308105 34.394394,92.2563968 C31.1562998,90.3952677 29.810728,83.208864 31.6464658,73.5703888 C31.8647646,72.4313236 32.1147137,71.2985125 32.3960247,70.1732621 C36.6003685,71.100204 41.2544476,71.7672218 46.2287927,72.1693344 C49.0684851,76.1528752 52.0426438,79.8144543 55.0399706,83.0209398 C54.4029589,83.6351864 53.7508722,84.2337064 53.0843034,84.8159558 C49.1016474,88.2864409 45.1108143,90.7480219 41.5937933,91.9865104 L41.593339,91.9865104 Z M26.787053,64.1012717 C21.781817,62.395916 17.6483406,60.1797685 14.8150081,57.7616592 C12.2692337,55.5880777 10.9836267,53.4303453 10.9836267,51.6792537 C10.9836267,47.9538257 16.556256,43.2013804 25.8503316,39.9713478 C27.016872,39.5677035 28.1950169,39.1981873 29.3832524,38.8632741 C30.6679508,43.0279467 32.3528683,47.3823549 34.386217,51.7856687 C32.3265201,56.2546427 30.6175259,60.6783338 29.3210163,64.891912 C28.4699905,64.6491013 27.6250809,64.3854749 26.787053,64.1012717 L26.787053,64.1012717 Z M31.7504955,30.4243441 C29.8211764,20.5965861 31.1022407,13.1833149 34.3262523,11.3230914 C37.7605947,9.34150969 45.3538531,12.1671656 53.3573246,19.250777 C53.8688417,19.7036064 54.3826302,20.1777189 54.8973273,20.6681332 C51.9154459,23.8601281 48.9685439,27.4940846 46.1533825,31.4545312 C41.3257692,31.9005682 36.7043981,32.6169444 32.4559894,33.57649 C32.1942904,32.5316991 31.9590511,31.480499 31.7504955,30.4238913 L31.7504955,30.4243441 Z M76.0276187,41.3225909 C75.0241534,39.5947884 73.9834637,37.888735 72.9062739,36.2056179 C76.1816189,36.6176928 79.3193177,37.1656164 82.2657655,37.8362569 C81.381286,40.6623656 80.2787531,43.6175307 78.9804263,46.6469598 C78.0318105,44.8527543 77.0473451,43.0776108 76.0276187,41.3225909 L76.0276187,41.3225909 Z M57.9714272,23.7917509 C59.9938733,25.9757474 62.0194993,28.4146869 64.011963,31.0605695 C59.9702557,30.870191 55.9218049,30.8692844 51.8800122,31.0578525 C53.874293,28.4364227 55.9171816,26.0011059 57.9714272,23.7917509 L57.9714272,23.7917509 Z M39.7993948,41.3524777 C38.7924357,43.09354 37.8263774,44.8577911 36.9020091,46.64379 C35.6250334,43.624776 34.5324946,40.6564788 33.6402924,37.7900683 C36.5690233,37.1366353 39.6921852,36.6027494 42.9461792,36.197467 C41.8569172,37.891015 40.8076999,39.6098257 39.7993948,41.3524777 L39.7993948,41.3524777 Z M43.0397605,67.47304 C39.6781026,67.0990028 36.5076957,66.5922866 33.5798734,65.9569669 C34.4861582,63.0398395 35.6027738,60.0076933 36.9070062,56.9239246 C37.8352713,58.7112474 38.8055747,60.4765628 39.8171117,62.2184068 C40.8492821,63.9952316 41.9238037,65.7472738 43.0397605,67.47304 L43.0397605,67.47304 Z M58.0927194,79.8755863 C56.0143972,77.6399672 53.9415262,75.1675183 51.9168087,72.5080508 C53.8820158,72.5850318 55.8858365,72.6239752 57.9223652,72.6239752 C60.0147701,72.6239752 62.0830982,72.5773337 64.1187184,72.4867678 C62.1198948,75.1946881 60.1015372,77.6707596 58.0927194,79.8755863 Z M79.0222199,56.7667928 C80.3941397,59.8840709 81.5507317,62.8999152 82.4692821,65.7676842 C79.492852,66.4446642 76.279743,66.9898709 72.8940084,67.3947005 C73.9789841,65.6801586 75.0296343,63.9442707 76.0453355,62.1880672 C77.0778576,60.4032152 78.0703982,58.5956762 79.0222199,56.7667928 L79.0222199,56.7667928 Z M72.2466621,60.0045235 C70.691759,62.6970277 69.049433,65.3384192 67.3222875,67.9245109 C64.2768072,68.1414163 61.1295685,68.2532651 57.9223652,68.2532651 C54.7283359,68.2532651 51.6210737,68.1540955 48.6287439,67.9607373 C46.8568032,65.3806669 45.1834091,62.7347038 43.6121509,60.0285235 C42.0482369,57.3367011 40.5874374,54.5866484 39.23291,51.7843102 C40.5839921,48.9811324 42.0403773,46.2296066 43.5989768,43.5355686 L43.5989768,43.5364742 C45.1570873,40.8418625 46.8173075,38.207213 48.5760476,35.6382226 C54.8041848,35.1703029 61.0588536,35.1712112 67.2868538,35.6409396 C69.0278046,38.2059767 70.6774063,40.8314554 72.2325794,43.5124743 C73.7965385,46.2005186 75.2723599,48.938566 76.6577024,51.7222725 C75.2866103,54.5343406 73.8154826,57.2968418 72.2471163,60.0045235 L72.2466621,60.0045235 Z M81.2927018,11.1931294 C84.7297699,13.1692772 86.0667103,21.1377174 83.9070722,31.587663 C83.7655195,32.2684138 83.6116455,32.946561 83.4455257,33.621773 C79.1871228,32.6423029 74.5625718,31.9132474 69.7208759,31.4604179 C66.9002632,27.4569526 63.9778922,23.8166565 61.0441642,20.6658691 C61.8129223,19.9270995 62.5999748,19.2074824 63.4045932,18.5076838 C70.9828604,11.9335056 78.0655102,9.33788705 81.2927018,11.1931294 L81.2927018,11.1931294 Z" id="Shape" fill="#FFFFFF"></path>
            <path d="M57.9223652,42.5425135 C62.9848403,42.5425135 67.0883343,46.633375 67.0883343,51.6792537 C67.0883343,56.7255853 62.9848403,60.8164468 57.9223652,60.8164468 C52.8603443,60.8164468 48.756396,56.7255853 48.756396,51.6792537 C48.756396,46.633375 52.8603443,42.5425135 57.9223652,42.5425135" id="Path" fill="#53C1DE"></path>
        </g>
    </g>
</svg>