<?xml version="1.0" encoding="UTF-8"?>
<svg width="736px" height="597px" viewBox="0 0 736 597" version="1.1" xmlns="http://www.w3.org/2000/svg" xmlns:xlink="http://www.w3.org/1999/xlink">
    <title>Group 11 Copy</title>
    <g id="Pictures" stroke="none" stroke-width="1" fill="none" fill-rule="evenodd">
        <g id="Group-11-Copy" transform="translate(0.000000, -0.000000)" fill-rule="nonzero">
            <ellipse id="Oval" fill="#F5F5F5" cx="100.726287" cy="584.910569" rx="52.8563686" ry="11.4688347"></ellipse>
            <ellipse id="Oval-Copy-2" fill="#F5F5F5" cx="660.704607" cy="579.425474" rx="75.295393" ry="15.9566396"></ellipse>
            <path d="M60.9427942,478.6152 C62.5499287,481.459169 64.3262353,484.303138 66.2717139,487.026087 C95.2001346,527.628282 153.902836,553.224003 216.496495,557.822761 C266.571423,561.45336 315.292973,549.774934 357.163056,530.714291 C398.948553,511.714158 432.444619,484.968748 478.882347,471.051453 C544.351931,451.50673 627.309515,459.075296 678.653233,417.686471 C737.017591,370.670218 749.557629,276.390854 722.067171,216.243936 C695.337987,157.549257 606.607246,138.549124 537.669635,112.711364 C413.751107,66.1791905 242.126061,35.2585918 113.132372,89.8991018 C-41.4062968,155.310388 -8.04274052,298.640783 40.9325683,401.689275 C52.0979237,425.167146 48.1703044,455.621409 60.9427942,478.6152 Z" id="Path" fill="#FFFFFF"></path>
            <path d="M189.030352,383.249856 C185.798517,374.259546 182.095374,364.137123 186.202497,353.74832 C191.723547,339.763393 180.008147,332.571145 169.706675,326.11144 C160.81913,320.650659 152.470224,315.456258 155.298079,306.865517 C158.395254,297.542232 158.193264,290.349984 154.69211,285.621747 C151.729595,281.626053 146.477864,279.495017 139.475556,279.561612 C133.887176,279.628207 128.904764,272.835528 123.585703,265.709875 C117.324024,257.318918 110.927685,248.661583 102.848099,250.592834 C101.434171,250.925809 100.289563,251.724948 99.6162641,252.990251 C96.7884089,258.251247 101.232181,270.771086 106.012603,284.090064 C111.129674,298.474561 116.987375,314.723714 113.149571,321.649582 C108.975118,329.2414 116.516065,336.167269 124.528322,343.559301 C133.011887,351.350904 142.640061,360.208024 140.081525,371.329371 C137.657649,381.718174 137.11901,385.580677 138.600268,387.844904 C139.744876,389.642966 142.101422,390.042535 145.669906,390.708484 C148.093782,391.174648 151.190956,391.707407 154.96143,392.906115 C171.187932,397.900732 175.901024,408.289535 175.968354,408.422725 L176.170344,408.888889 L176.641653,408.822294 C184.45192,407.623586 189.030352,405.425955 191.184908,401.896425 C191.319568,401.696641 191.386898,401.496856 191.521558,401.297071 C193.810774,396.568834 191.588888,390.375509 189.030352,383.249856 Z" id="Path" fill="#D3D3D3"></path>
            <path d="M149.150535,363.877982 C151.828022,368.023558 153.7692,371.634221 153.568388,376.715896 C153.434514,381.463249 152.698205,386.143739 152.296582,390.824228 C152.229645,391.82719 152.162707,392.763288 152.09577,393.699386 C150.757027,392.562696 149.485221,391.426005 148.146477,390.289315 C147.544043,390.222451 146.941608,390.222451 146.272237,390.222451 C148.146477,391.760326 150.087655,393.431929 151.961896,395.103533 C151.761084,398.379875 151.694147,401.656218 151.694147,404.932561 C151.694147,406.871621 151.62721,408.944409 151.761084,410.883469 C150.020718,409.813643 148.213415,408.743816 146.539985,407.67399 C141.318886,404.464512 136.432473,401.455626 132.683991,399.850886 C129.805693,398.647332 126.592709,397.577506 123.513599,396.574544 C115.481139,393.966843 107.247867,391.292277 104.503443,385.608826 C103.097763,382.666804 103.231637,379.123004 104.905066,374.8437 C109.122108,363.811117 105.172815,361.938922 98.5460351,358.729443 C93.726559,356.389198 87.1667164,353.246584 80.6068739,345.289752 C77.7285756,341.812817 75.1849632,338.803931 72.9090994,336.196229 C66.1484454,328.239397 62.3999639,323.893228 62.8685241,321.352391 C63.0023984,320.750614 63.3370843,320.215701 64.0064559,319.680788 C64.3411418,319.413331 64.7427648,319.145875 65.2782622,318.878418 C67.8218746,317.474271 70.365487,318.544098 73.2437853,319.747652 C77.1261411,321.352391 81.8786801,323.42518 88.5054598,320.015109 C93.726559,317.340543 99.5500927,314.86657 103.030825,316.872494 C105.440564,318.209777 106.846244,321.686712 107.314804,327.370164 C107.448679,329.175495 108.051113,330.445914 109.055171,331.181419 C110.527788,332.251245 112.803652,332.117517 115.414202,331.582604 C115.414202,331.582604 115.414202,331.582604 115.414202,331.582604 C117.221505,334.056577 119.564306,335.260132 122.375667,336.263094 C126.32496,337.66724 129.270196,338.937659 132.148494,342.147137 C138.306714,349.101008 144.264122,356.188606 149.150535,363.877982 Z" id="Path" fill="#3274DC"></path>
            <path d="M127.640777,373.584824 C123.669566,370.925384 120.22785,364.476242 116.918507,358.226558 C112.417801,349.71635 107.718535,340.940199 101.298411,341.139657 C90.9732625,341.405601 81.7732905,329.172177 81.6409168,329.105691 L80.7804878,329.770551 C81.1776089,330.302439 90.4437677,342.535863 101.298411,342.269919 C107.056667,342.136947 111.623559,350.580668 115.925704,358.824932 C119.301234,365.141102 122.809137,371.723216 126.978908,374.582114 C129.494008,376.244264 134.127088,379.63505 139.620596,383.95664 C139.620596,383.491238 139.620596,383.025836 139.620596,382.560434 C134.788956,378.504788 130.486811,375.446432 127.640777,373.584824 Z" id="Path" fill="#FFFFFF"></path>
            <path d="M477.487158,456.186289 C477.487158,456.186289 483.504675,441.238603 472.539422,420.018228 C461.507308,398.797852 452.614756,402.067658 479.15869,385.718627 C505.702625,369.369595 479.292413,317.986924 501.891531,311.447312 C524.49065,304.907699 544.08101,221.694465 561.264363,232.304653 C578.447716,242.914841 555.514291,283.687323 567.81677,295.96578 C580.052387,308.244236 581.72392,323.792499 556.383488,336.404609 C531.043057,349.016719 574.369177,397.196314 540.00247,411.877077 C505.635764,426.55784 515.531236,484.14647 477.487158,456.186289 Z" id="Path" fill="#D3D3D3"></path>
            <path d="M489.268072,472.715447 C489.201583,472.515851 485.544695,453.487641 497.180248,428.870727 C509.015267,403.788087 514.666821,376.37682 512.339711,355.485709 C511.076422,344.175235 518.323709,339.784109 525.305041,335.526048 C532.219884,331.33452 539.334193,326.943395 538.93526,315.832517 C538.602816,305.786155 542.858103,282.233755 542.991081,281.235772 L544.520325,281.501901 C544.453836,281.76803 540.13206,305.919219 540.464504,315.765985 C540.863437,327.808313 533.350195,332.399035 526.102907,336.79016 C519.188065,340.981689 512.738644,344.973621 513.868955,355.286112 C516.262554,376.37682 510.544511,404.120748 498.576514,429.469516 C487.206917,453.620705 490.730827,472.18319 490.797316,472.382786 L489.268072,472.715447 Z" id="Path" fill="#FFFFFF"></path>
            <path d="M579.415597,348.377665 C589.022693,343.811513 599.234431,345.893141 593.927014,355.495489 C588.619598,365.097837 580.692064,365.83648 582.170079,373.424349 C583.648094,381.012219 587.544678,389.271581 575.048735,394.10633 C562.552793,398.873929 556.707916,398.068137 549.116295,412.102338 C541.457492,426.13654 538.837375,436.544679 525.73679,433.187215 C512.636205,429.762601 523.519768,412.505234 530.305199,405.253111 C530.305199,405.253111 539.5092,397.463794 539.374835,383.429593 C539.24047,369.395392 533.462776,359.994492 551.602047,360.934582 C569.741319,361.740373 572.898896,351.466532 579.415597,348.377665 Z" id="Path" fill="#3274DC"></path>
            <path d="M524.574526,443.325366 C525.101649,441.517632 537.48904,398.198968 547.636158,393.51225 C557.980948,388.691626 563.58163,376.104441 566.019574,369.074364 C569.182312,359.901787 582.68984,358.094053 583.216963,358.0271 L583.414634,359.567022 C583.282853,359.567022 570.302449,361.307803 567.469162,369.543036 C564.438205,378.4478 558.639852,390.097641 548.295062,394.918265 C538.806848,399.337171 526.221785,443.325366 526.090004,443.794038 L524.574526,443.325366 Z" id="Path" fill="#FFFFFF"></path>
            <path d="M195.133441,408.888889 C174.473214,403.754253 174.204899,392.684779 173.936584,382.015406 C173.735349,373.279858 173.534113,365.011094 162.331976,359.943142 C147.507592,353.2081 147.172199,340.738271 146.836805,329.73548 C146.568491,321.5334 146.367255,313.798105 140.196018,309.59704 C125.371634,299.527819 112.827924,275.121629 112.693767,274.854895 L113.834104,274.254743 C113.968261,274.521477 126.310735,298.594249 140.933883,308.530102 C147.641749,313.064586 147.910064,321.133299 148.1113,329.668797 C148.446693,340.804955 148.782087,352.407897 162.868605,358.742837 C174.741528,364.144207 175.009843,373.213174 175.211079,381.948723 C175.479394,392.618096 175.747708,402.754 195.468835,407.621901 L195.133441,408.888889 Z" id="Path" fill="#FFFFFF"></path>
            <g id="Group" transform="translate(130.644986, 147.598916)">
                <path d="M36.7597528,249.418556 L373.65756,249.418556 L373.65756,6.38852224 C373.65756,2.92807269 370.860622,0.0665471066 367.331153,0.0665471066 L43.0861595,0.0665471066 C39.6232843,0.0665471066 36.7597528,2.86152559 36.7597528,6.38852224 L36.7597528,249.418556 Z" id="Path" fill="#D3D3D3"></path>
                <rect id="Rectangle" stroke="#FFFFFF" stroke-width="0.5" fill="#212121" transform="translate(204.888407, 108.181173) rotate(-180.000000) translate(-204.888407, -108.181173) " x="48.6594575" y="12.2535184" width="312.457899" height="191.855308"></rect>
                <polygon id="Path" fill="#F2F2F2" points="373.65756 213.416571 205.241953 213.416571 36.8929403 213.416571 0 351.102535 206.374047 351.102535 410.483906 351.102535"></polygon>
                <path d="M49.6123475,237.573171 L70.3230054,237.573171 C71.1887242,237.573171 71.8546617,238.238642 71.6548805,238.97066 L69.6570678,247.954519 C69.5238803,248.486896 68.9911303,248.886179 68.3251927,248.886179 L47.2815661,248.886179 C46.4158473,248.886179 45.7499097,248.220708 45.949691,247.422143 L48.2804724,238.438283 C48.4136599,237.972453 48.94641,237.573171 49.6123475,237.573171 Z" id="Path" fill="#D3D3D3"></path>
                <polygon id="Path" fill="#D3D3D3" points="79.7793186 237.573171 95.428851 237.573171 93.3644446 248.952726 77.3819434 248.952726"></polygon>
                <polygon id="Path" fill="#D3D3D3" points="103.22032 237.573171 118.869853 237.573171 117.271603 248.952726 101.289101 248.952726"></polygon>
                <polygon id="Path" fill="#D3D3D3" points="126.727916 237.573171 142.377448 237.573171 141.178761 248.952726 125.19626 248.952726"></polygon>
                <polygon id="Path" fill="#D3D3D3" points="150.168918 237.573171 165.81845 237.573171 165.085919 248.952726 149.103418 248.952726"></polygon>
                <polygon id="Path" fill="#D3D3D3" points="173.609919 237.573171 189.259452 237.573171 188.993077 248.952726 173.010576 248.952726"></polygon>
                <polygon id="Path" stroke="#FFFFFF" stroke-width="0.5" fill="#0B4870" points="361.404309 237.573171 337.896713 237.573171 340.427276 248.952726 364.334434 248.952726"></polygon>
                <polygon id="Path" stroke="#FFFFFF" stroke-width="0.5" fill="#0B4870" points="330.105244 237.573171 314.455711 237.573171 316.520118 248.952726 332.502619 248.952726"></polygon>
                <polygon id="Path" stroke="#FFFFFF" stroke-width="0.5" fill="#0B4870" points="306.664242 237.573171 291.01471 237.573171 292.61296 248.952726 308.595461 248.952726"></polygon>
                <polygon id="Path" fill="#D3D3D3" points="283.156647 237.573171 267.507114 237.573171 268.705802 248.952726 284.688303 248.952726"></polygon>
                <polygon id="Path" fill="#D3D3D3" points="259.715645 237.573171 244.066112 237.573171 244.798644 248.952726 260.781145 248.952726"></polygon>
                <polygon id="Path" fill="#D3D3D3" points="236.274643 237.573171 220.625111 237.573171 220.891486 248.952726 236.873987 248.952726"></polygon>
                <polygon id="Path" fill="#D3D3D3" points="197.117515 237.573171 212.767047 237.573171 212.966829 248.952726 197.117515 248.952726"></polygon>
                <polygon id="Path" fill="#D3D3D3" points="42.7531908 257.404209 75.3841307 257.404209 73.5195056 269.116499 40.2226281 269.116499"></polygon>
                <polygon id="Path" stroke="#FFFFFF" stroke-width="0.5" fill="#0B4870" points="366.465434 257.404209 326.109619 257.404209 328.373806 269.116499 369.595341 269.116499"></polygon>
                <polygon id="Path" stroke="#FFFFFF" stroke-width="0.5" fill="#0B4870" points="317.985181 257.404209 301.869492 257.404209 303.667523 269.116499 320.182774 269.116499"></polygon>
                <polygon id="Path" stroke="#FFFFFF" stroke-width="0.5" fill="#0B4870" points="293.745054 257.404209 277.629365 257.404209 278.96124 269.116499 295.476491 269.116499"></polygon>
                <polygon id="Path" fill="#D3D3D3" points="269.504927 257.404209 253.389238 257.404209 254.321551 269.116499 270.770208 269.116499"></polygon>
                <polygon id="Path" fill="#D3D3D3" points="245.2648 257.404209 229.149111 257.404209 229.615268 269.116499 246.063925 269.116499"></polygon>
                <polygon id="Path" fill="#D3D3D3" points="37.8252529 278.233453 71.2553179 278.233453 68.791349 289.879197 34.7619402 289.879197"></polygon>
                <polygon id="Path" fill="#D3D3D3" points="79.5795373 278.233453 96.2945698 278.233453 94.3633509 289.879197 77.3153496 289.879197"></polygon>
                <polygon id="Path" fill="#D3D3D3" points="104.685383 278.233453 121.400416 278.233453 229.948236 278.233453 230.414393 289.879197 102.820758 289.879197"></polygon>
                <polygon id="Path" fill="#D3D3D3" points="238.339049 278.233453 255.054082 278.233453 255.986395 289.879197 238.938393 289.879197"></polygon>
                <polygon id="Path" fill="#D3D3D3" points="263.378301 278.233453 280.093334 278.233453 281.491803 289.879197 264.443801 289.879197"></polygon>
                <polygon id="Path" stroke="#FFFFFF" stroke-width="0.5" fill="#0B4870" points="288.484147 278.233453 305.19918 278.233453 306.997211 289.879197 290.015803 289.879197"></polygon>
                <polygon id="Path" stroke="#FFFFFF" stroke-width="0.5" fill="#0B4870" points="313.523399 278.233453 330.238431 278.233453 332.502619 289.879197 315.521212 289.879197"></polygon>
                <polygon id="Path" stroke="#FFFFFF" stroke-width="0.5" fill="#0B4870" points="338.562651 278.233453 371.992716 278.233453 375.056029 289.879197 341.02662 289.879197"></polygon>
                <polygon id="Path" fill="#D3D3D3" points="221.091267 257.404209 205.042172 257.404209 205.042172 269.116499 221.357642 269.116499"></polygon>
                <polygon id="Path" fill="#D3D3D3" points="196.85114 257.404209 180.668858 257.404209 180.202701 269.116499 196.717953 269.116499"></polygon>
                <polygon id="Path" fill="#D3D3D3" points="172.611013 257.404209 156.428731 257.404209 155.496418 269.116499 172.011669 269.116499"></polygon>
                <polygon id="Path" fill="#D3D3D3" points="148.370886 257.404209 132.188604 257.404209 130.790135 269.116499 147.305386 269.116499"></polygon>
                <polygon id="Path" fill="#D3D3D3" points="124.130759 257.404209 107.948477 257.404209 106.083852 269.116499 122.599103 269.116499"></polygon>
                <polygon id="Path" fill="#D3D3D3" points="99.8906326 257.404209 83.7083501 257.404209 81.4441625 269.116499 97.89282 269.116499"></polygon>
                <polygon id="Path" stroke="#FFFFFF" stroke-width="0.5" fill="#0B4870" points="50.3448788 230.45263 53.008629 220.33747 60.6003171 220.33747 58.1363482 230.45263"></polygon>
                <polygon id="Path" fill="#D3D3D3" points="68.1920052 220.33747 83.3753814 220.33747 81.310975 230.45263 65.79463 230.45263"></polygon>
                <polygon id="Path" fill="#D3D3D3" points="91.0336632 220.33747 106.217039 220.33747 104.485602 230.45263 89.0358505 230.45263"></polygon>
                <polygon id="Path" fill="#D3D3D3" points="113.808727 220.33747 128.992104 220.33747 127.660228 230.45263 112.210477 230.45263"></polygon>
                <polygon id="Path" fill="#D3D3D3" points="136.583792 220.33747 151.767168 220.33747 150.834855 230.45263 135.385104 230.45263"></polygon>
                <polygon id="Path" fill="#D3D3D3" points="159.358856 220.33747 174.542232 220.33747 174.009482 230.45263 158.559731 230.45263"></polygon>
                <polygon id="Path" fill="#D3D3D3" points="182.13392 220.33747 197.317296 220.33747 197.184109 230.45263 181.734358 230.45263"></polygon>
                <polygon id="Path" fill="#D3D3D3" points="204.908984 220.33747 220.092361 220.33747 220.358736 230.45263 204.908984 230.45263"></polygon>
                <polygon id="Path" fill="#D3D3D3" points="227.684049 220.33747 242.867425 220.33747 243.533362 230.45263 228.083611 230.45263"></polygon>
                <polygon id="Path" fill="#D3D3D3" points="250.459113 220.33747 265.709083 220.33747 266.707989 230.45263 251.258238 230.45263"></polygon>
                <polygon id="Path" fill="#D3D3D3" points="273.300771 220.33747 288.484147 220.33747 289.94921 230.45263 274.499458 230.45263"></polygon>
                <polygon id="Path" stroke="#FFFFFF" stroke-width="0.5" fill="#0B4870" points="296.075835 220.33747 311.259211 220.33747 313.123836 230.45263 297.674085 230.45263"></polygon>
                <polygon id="Path" stroke="#FFFFFF" stroke-width="0.5" fill="#0B4870" points="318.850899 220.33747 334.034275 220.33747 336.298463 230.45263 320.848712 230.45263"></polygon>
                <polygon id="Path" stroke="#FFFFFF" stroke-width="0.5" fill="#0B4870" points="341.625964 220.33747 356.80934 220.33747 359.47309 230.45263 344.023339 230.45263"></polygon>
                <path d="M399.762312,361.816619 L10.7215946,361.816619 C4.79475037,361.816619 0,357.025227 0,351.102535 L0,351.102535 L410.483906,351.102535 L410.483906,351.102535 C410.483906,357.025227 405.689156,361.816619 399.762312,361.816619 Z" id="Path" fill="#D3D3D3"></path>
                <path d="M252.989676,306.58252 C252.590113,304.186824 250.459113,302.390053 248.061738,302.390053 L205.308547,302.390053 L162.488762,302.390053 C160.024793,302.390053 157.960387,304.186824 157.560825,306.58252 L152.233324,338.857867 C151.700574,341.919034 154.097949,344.714012 157.161262,344.714012 L205.241953,344.714012 L253.322644,344.714012 C256.452551,344.714012 258.783332,341.919034 258.250582,338.857867 L252.989676,306.58252 Z" id="Path" fill="#D3D3D3"></path>
                <g transform="translate(69.257505, 27.949785)" fill="#F7F7F7" id="Rectangle">
                    <rect x="0.466156286" y="0.59892396" width="34.8285339" height="3.59354376"></rect>
                    <rect x="45.0839722" y="27.4174079" width="25.1058457" height="3.59354376"></rect>
                    <rect x="74.1188494" y="27.4174079" width="16.6484388" height="3.59354376"></rect>
                    <rect x="0.865718816" y="94.8961741" width="16.6484388" height="3.59354376"></rect>
                    <rect x="94.0969759" y="27.4174079" width="40.2892218" height="3.59354376"></rect>
                    <rect x="0.865718816" y="81.3871114" width="25.9049707" height="3.59354376"></rect>
                    <rect x="36.9595341" y="108.272143" width="15.78272" height="3.59354376"></rect>
                    <rect x="0.865718816" y="108.272143" width="31.2990649" height="3.59354376"></rect>
                    <rect x="0.865718816" y="121.714658" width="17.2477826" height="3.59354376"></rect>
                    <rect x="42.0872532" y="0.59892396" width="24.7062831" height="3.59354376"></rect>
                    <rect x="42.0872532" y="40.8599235" width="24.7062831" height="3.59354376"></rect>
                    <rect x="29.7008148" y="54.2358919" width="10.5884071" height="3.59354376"></rect>
                    <rect x="19.1790015" y="67.8780488" width="23.7073768" height="3.59354376"></rect>
                    <rect x="46.482441" y="67.8780488" width="32.7641275" height="3.59354376"></rect>
                    <rect x="0.865718816" y="54.3689861" width="24.7062831" height="3.59354376"></rect>
                    <rect x="0.865718816" y="67.8780488" width="14.6506261" height="3.59354376"></rect>
                    <rect x="45.2837535" y="54.3689861" width="13.8515011" height="3.59354376"></rect>
                    <rect x="1.3318751" y="135.090626" width="13.8515011" height="3.59354376"></rect>
                    <rect x="0.799125061" y="27.4174079" width="24.7062831" height="3.59354376"></rect>
                    <rect x="22.6418767" y="94.8961741" width="24.7062831" height="3.59354376"></rect>
                    <rect x="22.9748455" y="121.714658" width="24.7062831" height="3.59354376"></rect>
                    <rect x="66.8601301" y="121.714658" width="24.7062831" height="3.59354376"></rect>
                    <rect x="0.799125061" y="40.8599235" width="35.2280964" height="3.59354376"></rect>
                    <rect x="165.885044" y="0.59892396" width="24.7062831" height="3.59354376"></rect>
                    <rect x="77.8480997" y="135.090626" width="24.7062831" height="3.59354376"></rect>
                    <rect x="198.249609" y="0.59892396" width="16.5152513" height="3.59354376"></rect>
                    <rect x="254.254957" y="14.0414395" width="16.5152513" height="3.59354376"></rect>
                    <rect x="73.4529119" y="0.59892396" width="31.4988462" height="3.59354376"></rect>
                    <rect x="196.118609" y="14.0414395" width="31.4988462" height="3.59354376"></rect>
                    <rect x="157.494231" y="27.4174079" width="31.4988462" height="3.59354376"></rect>
                    <rect x="116.539071" y="40.8599235" width="31.4988462" height="3.59354376"></rect>
                    <rect x="192.922108" y="27.4174079" width="22.3755017" height="3.59354376"></rect>
                    <rect x="128.192979" y="0.59892396" width="31.4988462" height="3.59354376"></rect>
                    <rect x="92.2989445" y="40.8599235" width="18.4464702" height="3.59354376"></rect>
                    <rect x="77.8480997" y="95.0958154" width="18.4464702" height="3.59354376"></rect>
                    <rect x="110.745415" y="0.59892396" width="11.5207196" height="3.59354376"></rect>
                    <rect x="73.4529119" y="40.8599235" width="11.5207196" height="3.59354376"></rect>
                    <rect x="235.209143" y="14.0414395" width="11.5207196" height="3.59354376"></rect>
                    <rect x="0.466156286" y="14.0414395" width="18.0469076" height="3.59354376"></rect>
                    <rect x="48.6134412" y="81.4536585" width="14.2510636" height="3.59354376"></rect>
                    <rect x="22.9748455" y="14.0414395" width="5.79365669" height="3.59354376"></rect>
                    <rect x="142.444042" y="14.0414395" width="48.1472849" height="3.59354376"></rect>
                    <rect x="96.2945698" y="121.714658" width="48.1472849" height="3.59354376"></rect>
                    <rect x="33.0305025" y="14.0414395" width="5.9268442" height="3.59354376"></rect>
                    <rect x="122.266134" y="14.0414395" width="15.7161262" height="3.59354376"></rect>
                    <rect x="138.048854" y="27.4174079" width="15.7161262" height="3.59354376"></rect>
                    <rect x="57.0708481" y="135.090626" width="15.7161262" height="3.59354376"></rect>
                    <rect x="84.6406627" y="14.0414395" width="33.4966588" height="3.59354376"></rect>
                    <rect x="53.4081916" y="95.0958154" width="19.578564" height="3.59354376"></rect>
                    <rect x="52.209504" y="121.714658" width="9.789282" height="3.59354376"></rect>
                    <rect x="68.3251927" y="14.0414395" width="11.5207196" height="3.59354376"></rect>
                    <rect x="29.5676273" y="27.4174079" width="11.5207196" height="3.59354376"></rect>
                    <rect x="31.8318149" y="81.4536585" width="11.5207196" height="3.59354376"></rect>
                    <rect x="43.8852846" y="14.0414395" width="20.111314" height="3.59354376"></rect>
                </g>
            </g>
            <path d="M411.660557,216.298565 C411.660557,216.298565 417.571141,226.225124 420.056273,227.824032 C423.41456,230.022532 421.332422,232.221031 419.720445,232.287653 C418.108467,232.287653 409.914247,232.887243 408.100773,230.821986 C406.287298,228.756729 405.414143,222.6942 403.735,221.095292 C402.055856,219.496383 400.309547,213.167369 404.540989,211.635081 C408.235104,210.236036 411.660557,216.298565 411.660557,216.298565 Z" id="Path" fill="#3274DC"></path>
            <path d="M408.742662,212.68783 C408.742662,212.68783 415.499934,224.284478 416.637297,225.941142 C417.77466,227.664072 414.429475,227.664072 412.355461,226.868873 C410.281446,226.073675 405.062959,217.790355 404.327018,216.266224 C403.45727,214.477027 404.193211,212.422764 404.193211,212.422764 L408.742662,212.68783 Z" id="Path" fill="#FFE3CA"></path>
            <polygon id="Path" fill="#3274DC" points="402.905149 219.403794 404.234869 231.304788 404.899729 231.371274 404.678109 222.79458"></polygon>
            <path d="M353.831518,216.261748 C353.831518,216.261748 359.734112,226.211049 362.215885,227.813621 C365.569632,230.017157 363.490309,232.220693 361.88051,232.287467 C360.270712,232.287467 352.08757,232.888432 350.276547,230.818443 C348.465523,228.748454 347.593549,222.672036 345.916676,221.069464 C344.239803,219.466892 342.428779,212.923056 346.721575,211.587579 C350.477772,210.38565 353.831518,216.261748 353.831518,216.261748 Z" id="Path" fill="#3274DC"></path>
            <path d="M351.234362,212.68783 C351.234362,212.68783 357.590212,224.218211 358.794478,225.941142 C359.931841,227.664072 356.586657,227.664072 354.512642,226.868873 C352.438628,226.073675 347.22014,217.790355 346.4842,216.266224 C345.614452,214.477027 346.350392,212.422764 346.350392,212.422764 L351.234362,212.68783 Z" id="Path" fill="#FFE3CA"></path>
            <polygon id="Path" fill="#3274DC" points="344.065041 219.403794 345.339356 231.304788 346.059621 231.371274 345.838001 222.79458"></polygon>
            <path d="M328.108401,126.954398 L381.285606,151.294217 C381.285606,151.294217 387.231299,153.238721 387.899354,159.876854 C389.970326,180.528822 405.335598,213.250123 405.335598,213.250123 C410.279208,215.663989 409.878375,213.585382 409.878375,213.585382 C406.738515,203.527605 402.997405,162.223668 401.594488,145.661862 C401.327266,142.175166 401.12685,139.7613 401.060044,138.956678 C401.060044,138.420263 400.458794,137.749745 399.456711,136.945123 C392.174908,130.977508 362.112418,118.707021 362.112418,118.707021 C339.732564,118.103554 328.108401,126.954398 328.108401,126.954398 Z" id="Path" fill="#FCD2B1"></path>
            <path d="M317.356221,137.191414 C319.016535,151.590699 339.405191,149.983337 339.405191,149.983337 L364.110663,149.983337 C364.110663,149.983337 357.602232,164.583541 355.078555,176.839676 C352.422053,189.899492 346.112859,212.938347 346.112859,212.938347 C346.112859,212.938347 346.511335,213.742028 351.027389,213.273214 C351.027389,213.273214 370.419856,174.294687 377.858063,164.449595 C379.451964,162.373419 384.034431,150.853991 384.831382,144.022703 C385.097032,141.745607 384.964207,139.937325 384.100844,139.200617 C383.23748,138.463909 381.245104,137.124441 378.655014,135.450106 C370.884744,130.494073 357.469407,122.926077 349.964788,121.251742 C339.936491,118.974645 324.06389,114.688347 324.06389,114.688347 C324.06389,114.688347 315.695907,122.79213 317.356221,137.191414 Z" id="Path" fill="#FCD2B1"></path>
            <path d="M334.536028,27.0338459 C334.536028,27.0338459 330.780159,19.9426852 332.591024,12.4501381 C334.40189,4.89069322 341.444145,-2.60185391 351.705717,0.876828686 C361.967289,4.35551128 370.283857,12.2494449 364.1135,21.4813333 C357.943143,30.646324 369.680236,34.8608817 366.662126,39.209235 C363.644017,43.5575882 364.784191,48.1735324 366.058504,49.1769985 C367.332817,50.1804647 371.424032,53.7929428 370.954548,58.141296 C370.485065,62.4227515 351.035026,45.6314182 351.035026,45.6314182 C351.035026,45.6314182 340.505178,24.2910385 334.536028,27.0338459 Z" id="Path" fill="#212121"></path>
            <path d="M366.00542,117.97253 C366.00542,117.97253 364.483665,125.140269 325.116531,116.116597 C325.116531,116.116597 338.283018,111.892751 366.00542,117.97253 Z" id="Path" fill="#EB4747"></path>
            <path d="M324.185727,117.827204 C323.587353,119.03707 322.988979,120.179721 322.324119,121.389586 C336.751581,121.792875 351.245528,122.263378 365.67299,122.666667 C363.412466,114.936969 364.143812,104.451467 364.542728,96.520125 C365.00813,86.7739847 370.32701,80.0525087 369.795122,70.2391537 C372.65402,70.7096571 373.119422,70.7768718 375.97832,71.2473751 C371.590244,58.6110002 370.127552,52.3600275 356.497922,47.5205648 C352.04336,45.9074105 349.184463,45.6385515 344.397471,46.0418401 C328.640289,47.3861353 323.919783,47.5205648 316.140921,61.9717382 C328.241373,63.9209663 326.246793,68.2899257 329.903523,80.523012 C331.698645,86.4379109 333.560253,93.0921722 332.629449,99.3431449 C331.698645,105.459688 324.185727,112.248379 324.185727,117.827204 Z" id="Path" fill="#FFFFFF"></path>
            <path d="M349.409665,49.6099149 C342.75609,48.4430501 344.196555,44.9424558 344.196555,44.9424558 C344.196555,44.9424558 344.470929,42.9976812 344.608116,40.4694741 C344.608116,39.8212159 344.676709,39.1729577 344.676709,38.4598737 C344.676709,37.4226606 344.608116,36.3854474 344.470929,35.3482343 C343.92218,31.1345559 356.543396,33.6627629 356.543396,33.6627629 C356.543396,33.6627629 355.788866,42.2197713 357.572299,44.7479783 C359.287138,47.3410112 356.063241,50.8416055 349.409665,49.6099149 Z" id="Path" fill="#FFE3CA"></path>
            <path d="M337.084011,45.0870765 C337.084011,45.0870765 350.050608,60.3213315 354.813848,63.8265583 C354.813848,63.8265583 360.304806,58.7709427 356.930844,45.4241175 C356.930844,45.4241175 350.71217,42.1885236 337.084011,45.0870765 Z" id="Path" fill="#FFE3CA"></path>
            <path d="M337.171352,9.3846743 C337.171352,9.3846743 330.288336,22.3553186 337.103871,34.5980187 C343.919407,46.8407187 357.280557,29.2377014 358.090323,27.1862219 C358.967571,25.1347424 363.556248,13.4214565 354.446374,9.91408835 C345.336499,6.34054348 339.128288,5.87730618 337.171352,9.3846743 Z" id="Path" fill="#FFE3CA"></path>
            <path d="M350.04878,35.902439 C350.04878,35.902439 348.810765,38.5304329 344.065041,40.8888889 C344.065041,40.2150443 344.133819,39.5411997 344.133819,38.7999707 C344.133819,38.7999707 347.366414,38.4630484 350.04878,35.902439 Z" id="Path" fill="#FCD2B1"></path>
            <path d="M281.69077,106.190123 C281.69077,106.190123 278.4863,107.623083 276.950825,107.008957 C275.41535,106.326596 273.078757,106.190123 272.344399,106.190123 C271.343002,106.190123 268.205292,105.030108 268.272052,106.326596 C268.338812,107.554847 273.345796,108.441917 274.347193,108.851335 C275.34859,109.260752 271.276243,111.512546 270.875684,112.536089 C270.475125,113.559631 275.148311,120.246778 277.751942,118.336164 C280.355574,116.425551 281.75753,112.604325 282.291608,112.33138 C282.825687,112.058435 284.227642,111.034892 284.227642,111.034892 L281.69077,106.190123 Z" id="Path" fill="#FFE3CA"></path>
            <path d="M271.975745,111.696477 C271.975745,111.696477 264.440619,118.137758 264.307254,119.028574 C264.173889,119.91939 264.573984,120.330535 265.307492,119.713817 C266.041,119.165623 272.775935,113.683681 272.775935,113.683681 C272.775935,113.683681 265.240809,122.865933 264.974079,123.551176 C264.840714,123.962322 265.574222,124.784613 265.974317,124.510516 C266.374412,124.236419 274.442998,115.60236 274.442998,115.60236 C274.442998,115.60236 267.37465,124.167894 267.37465,124.853137 C267.307968,125.401331 268.174841,126.01805 268.774983,125.401331 C269.375126,124.784613 276.376792,117.246943 276.376792,117.246943 C276.376792,117.246943 271.642332,123.825273 271.975745,124.441991 C272.175792,124.784613 272.775935,125.53838 273.909538,123.825273 C275.043141,122.112166 278.243902,118.274807 278.243902,118.274807 L271.975745,111.696477 Z" id="Path" fill="#FFE3CA"></path>
            <path d="M362.044384,150.532268 L339.667991,150.532268 C339.667991,150.532268 319.038703,152.188476 317.358794,137.878833 C315.678885,123.635439 324.145628,115.685637 324.145628,115.685637 C324.145628,115.685637 335.031441,118.534316 344.573326,120.78676 C349.344269,119.793034 355.055961,119.130551 361.775598,119.329296 C361.775598,119.329296 402.093424,132.446469 400.883889,139.402545 C400.883889,139.468794 384.017599,130.591515 362.044384,150.532268 Z" id="Path" fill="#3274DC"></path>
            <polygon id="Path" fill="#F2F2F2" points="349.051491 125.334264 390.937669 124.661247 369.797004 135.631436"></polygon>
            <path d="M360.692986,120.857819 C360.692986,120.857819 351.211825,124.684803 339.609005,121.205726 L339.078591,116.682927 L363.01355,118.074557 L360.692986,120.857819 Z" id="Path" fill="#FFFFFF"></path>
            <polygon id="Path" fill="#D3D3D3" points="368.307987 135.631436 347.056911 127.679189 347.056911 125.658537 369.99458 133.610783"></polygon>
            <g id="Group" transform="translate(278.243902, 43.880759)" fill="#9B9B9B">
                <path d="M82.7297364,78.1988851 C82.5964089,79.7467116 84.1963393,80.8907573 85.6629422,80.285086 L88.1295016,79.2083372 C88.8628031,78.8718532 89.3294494,78.1315883 89.1961219,77.3240267 C88.1961654,70.8635336 85.996261,45.6945293 89.1961219,41.3202371 C90.3960697,39.7051138 91.1293712,38.2918809 91.5293538,37.0805385 C93.6625944,42.5988763 96.2624813,49.7323375 97.3291016,53.5682552 L117.328232,80.4869764 L124.061273,82.2366933 C115.661638,61.845762 108.928597,51.0782735 108.928597,51.0782735 C107.595322,47.511543 103.862151,36.7440545 100.528963,27.1879084 C98.3957219,21.1311962 96.5291364,15.5455615 95.4625161,12.5845022 C94.929206,11.0366757 93.9292495,9.75803644 92.5293103,8.95047481 C89.3961132,7.06616432 84.2630031,4.10510499 79.5965393,1.81701368 C79.5965393,1.81701368 79.5298755,1.81701368 79.5298755,1.81701368 C79.396548,1.74971688 79.2632204,1.68242008 79.0632291,1.61512327 C79.0632291,1.61512327 79.0632291,1.61512327 79.0632291,1.61512327 C79.0632291,1.61512327 79.0632291,1.61512327 79.0632291,1.61512327 C87.9961741,15.1417807 84.5296581,53.5682552 82.7297364,78.1988851 C82.7297364,78.1315883 82.7297364,78.1315883 82.7297364,78.1988851 Z" id="Path"></path>
                <path d="M49.6645073,2.69187212 C46.7979653,3.16294974 39.7316059,10.0945205 35.9984349,17.093388 C31.7319537,25.1017075 27.332145,34.1867759 24.0656203,37.1478353 C18.0658812,42.6661731 1.19994783,62.1149492 0.399982609,61.6438716 C0.0666637682,61.4419812 4.99978262,67.4313967 5.6664203,67.7005839 C5.99973914,67.8351775 33.3318841,43.8775156 35.9984349,40.2434882 C38.4649943,36.8113513 45.1313711,22.2752418 47.1312841,22.6117258 C47.1312841,22.6117258 47.1312841,22.6117258 47.1312841,22.6117258 C47.1312841,22.6117258 47.1312841,22.6117258 47.1312841,22.6117258 C47.2646117,22.9482098 49.7311711,28.2646573 51.9977392,36.0037896 C52.064403,36.1383832 52.064403,36.2729768 52.1310668,36.4075704 C53.7309972,41.7913147 53.5976697,47.7134334 52.7310407,54.3085201 C52.064403,59.2884835 48.3978957,67.4313967 46.1979914,71.401908 C45.9313363,71.8729857 45.9980001,72.8151409 46.2646552,73.4881089 L46.2646552,73.4881089 C46.4646465,73.8918897 46.6646378,74.2283738 46.9979566,74.3629674 L55.0642726,77.3913235 L56.9308581,78.0642915 C58.2641334,78.602666 59.7307363,78.3334787 60.7973566,77.5259171 C61.6639856,76.9202459 62.3306233,75.9107938 62.4639508,74.6994514 C64.2638726,60.83631 66.5304407,46.6366845 68.3303624,41.3202371 C76.2633509,17.9009496 65.2638291,0.269187212 65.2638291,0.269187212 C65.2638291,0.269187212 52.1977305,1.74971688 49.6645073,2.69187212 Z" id="Path"></path>
            </g>
            <polygon id="Path" fill="#D3D3D3" points="368 135.631436 380.518614 101.723577 420.856369 102.380706 408.933879 133.660049"></polygon>
            <path d="M393.702184,116.72451 C392.386802,119.064119 392.802186,121.656659 394.602183,122.415451 C396.402179,123.237476 398.825252,121.972822 400.140634,119.633213 C401.456016,117.293604 401.040632,114.701065 399.240636,113.942273 C397.440639,113.120248 394.948336,114.384901 393.702184,116.72451 Z" id="Path" fill="#F2F0F0"></path>
            <path d="M369.994924,50.6794783 C366.968377,46.1817146 364.816166,42.609961 364.547139,36.1940332 C364.345369,31.9608438 363.403777,26.2063519 360.444487,23.3621778 C363.53829,15.4249476 359.906434,13.0437785 358.426789,10.4641787 C356.610861,7.22314308 343.159541,-0.581799938 337.84627,7.62000459 C332.532998,15.7556655 334.416183,24.288188 334.416183,24.288188 C334.954236,19.7904242 339.662198,13.7052144 339.662198,13.7052144 C340.40202,18.4014089 350.28874,26.0740648 354.593163,29.1828133 C354.525906,29.2489568 354.458649,29.381244 354.458649,29.4473876 C352.037412,32.886854 355.063959,36.3263204 355.602012,39.9642176 C356.140064,43.6021148 345.446265,53.3913653 357.350683,58.2859906 C369.255101,63.2467595 373.021471,55.1110985 369.994924,50.6794783 Z" id="Path" fill="#212121"></path>
            <g id="Group" transform="translate(96.737127, 383.956640)" fill="#0E538C">
                <g transform="translate(0.000000, 52.118374)" id="Path">
                    <path d="M57.9769993,3.87546883 C57.9769993,3.87546883 57.7122641,6.68184282 44.7402414,6.68184282 C31.7682188,6.68184282 12.9058389,3.27410298 12.9058389,3.27410298 L43.0194629,0.334092141 C43.0194629,0.334092141 54.601626,-0.267273713 57.9769993,3.87546883 Z"></path>
                    <path d="M24.9512885,4.87774526 C17.6048879,4.87774526 14.4942498,8.68639566 11.5821631,9.88912737 C8.67007637,11.0918591 5.75798965,12.8959566 5.75798965,12.8291382 C7.41258438,9.55503523 9.729017,9.4882168 10.9203252,8.41912195 C12.1116334,7.3500271 11.7807145,7.88457453 9.19954669,7.68411924 C7.74350333,7.55048238 5.09615176,10.2900379 3.24300567,11.8268618 C1.58841094,13.0964119 0.595654102,13.2300488 0.595654102,13.2300488 C0.595654102,13.2300488 2.51498399,10.4904932 4.89760039,8.28548509 C7.80968712,5.61274797 11.4497955,3.40773984 12.3101848,3.00682927 C13.8985957,2.33864499 18.7961961,2.20500813 22.2377531,2.67273713 C26.2087805,3.20728455 30.2459916,4.87774526 24.9512885,4.87774526 Z"></path>
                    <path d="M12.7734713,3.14046612 C12.7734713,3.14046612 7.14784922,4.61047154 6.15509239,5.41229268 C5.4932545,5.94684011 2.58116778,9.08730623 2.58116778,9.08730623 C2.58116778,9.08730623 4.69904903,8.75321409 5.89035723,7.55048238 C7.14784922,6.28093225 12.7734713,3.14046612 12.7734713,3.14046612 Z"></path>
                </g>
                <path d="M47.3214092,50.247458 C47.3214092,50.247458 61.4847401,51.182916 60.4919832,60.0029485 C59.9625129,65.0143306 56.7195073,66.7516098 52.417561,66.3506992 C44.4755063,65.6825149 35.474511,64.4797832 35.474511,64.4797832 L31.4372998,50.7820054 L47.3214092,50.247458 Z" id="Path"></path>
                <path d="M50.2996797,51.4501897 L64.1982754,6.21411382 C64.1982754,6.21411382 66.2499729,-0.400910569 69.6253461,0.801821138 C74.4567627,2.6059187 72.0741463,8.01821138 71.6770436,11.2254959 C70.8166543,17.7737019 71.4123085,20.6468943 66.9118108,36.4160434 C64.1320916,46.1715339 61.7494752,57.3970298 59.3668588,63.8115989 C57.7122641,68.2216152 54.8663612,61.8738645 50.5644149,60.1365854 C42.4899926,56.8624824 50.2996797,51.4501897 50.2996797,51.4501897 Z" id="Path"></path>
            </g>
            <path d="M147.44819,365.144261 C150.190485,372.893805 158.68491,376.899926 166.510483,374.075939 C174.269171,371.251953 178.416056,362.648645 175.673761,354.8991 C172.931466,347.149555 164.437041,343.143434 156.611468,345.967421 C148.85278,348.791408 144.705896,357.394716 147.44819,365.144261 Z" id="Path" fill="#212121"></path>
            <path d="M132.645771,365.937901 C136.897345,372.304851 145.400494,373.896588 151.578563,369.51931 L150.714962,362.02488 C156.893031,357.58128 158.42094,348.826724 154.169366,342.459775 L151.246408,338.14882 C146.994834,331.78187 138.491685,330.190133 132.313616,334.56741 L129.523521,336.557082 C123.345452,341.000682 121.817542,349.755238 126.069117,356.122187 L132.645771,365.937901 Z" id="Path" fill="#212121"></path>
            <path d="M127.147214,345.062331 C127.878302,346.116635 128.675852,347.105045 129.606327,348.093456 C135.72088,354.682858 143.895772,357.186831 149.079849,354.485176 C151.4725,357.713983 154.197464,360.28385 156.656578,362.260671 C159.514466,364.566962 166.825345,365.489478 166.825345,365.489478 C171.078947,370.10206 155.127939,397.052716 153.998076,396.921409 C151.671888,396.723245 148.681074,381.831196 150.874337,376.427886 C151.871275,373.989807 153.466376,371.09047 153.001138,369.77259 C151.339575,365.225902 149.013387,366.01663 149.013387,366.01663 C149.013387,366.01663 145.95611,369.574908 143.563459,369.44312 C141.104345,369.245437 136.850743,365.423584 136.651356,365.35769 C135.920268,364.764644 135.255643,364.03981 134.65748,363.183187 L128.277077,353.694448 C126.615514,351.058687 126.216738,347.895774 127.147214,345.062331 Z" id="Path" fill="#FFE3CA"></path>
            <path d="M175.523035,460.527029 C175.523035,460.527029 170.426496,466.811561 168.85833,467.480128 C166.767442,468.416122 160.364097,466.410421 160.364097,466.410421 C160.364097,466.410421 158.665251,437.595172 156.705043,426.363242 C154.744836,415.131312 151.869865,412.189616 151.739185,408.646209 C151.543164,402.963388 146.904006,400.690259 147.688089,396.277715 C148.472172,391.865171 149.844317,376.086984 150.301699,378.159542 C154.287454,396.077145 159.187973,381.168095 160.298757,378.828109 C160.886819,377.557832 175.523035,460.527029 175.523035,460.527029 Z" id="Path" fill="#F2F0F0"></path>
            <path d="M152.637514,372.101491 C152.637514,372.101491 146.158062,379.050163 146.635495,381.789544 C147.044724,384.528924 143.8391,393.081137 147.044724,404.974057 C150.659576,418.537332 152.569309,427.757686 153.251357,436.643969 C153.933405,445.530252 150.86419,453.68158 152.091876,464.572288 C153.046743,473.1245 155.024681,473.592199 155.024681,473.592199 C155.024681,473.592199 158.912352,474.527598 161.640543,471.18689 C164.368733,467.912996 160.276448,438.782022 158.912352,431.566093 C157.548257,424.283349 153.183152,407.312553 152.023671,402.301491 C150.591371,396.154588 150.86419,389.874057 150.932395,388.070075 C151.273419,381.72273 152.091876,377.780694 152.773924,375.375384 C152.842128,375.041314 153.183152,371.299721 152.637514,372.101491 Z" id="Path" fill="#0E538C"></path>
            <path d="M163.63313,381.171791 C167.101151,391.256322 177.905369,396.433048 187.775889,392.735386 C197.64641,389.037725 202.848441,377.87751 199.38042,367.792979 C195.912399,357.708448 185.108181,352.531722 175.237661,356.229383 C165.36714,359.859815 160.165109,371.087259 163.63313,381.171791 Z" id="Path" fill="#212121"></path>
            <polygon id="Path" fill="#FCBAA2" points="131.080777 552.498645 134.634146 580.371119 119.213864 587.553388 110.699187 589.398374 125.85129 577.867209 120.889982 552.696322"></polygon>
            <path d="M135.631436,585.026782 L132.279357,585.873906 L129.999943,583.853841 L117.664291,589.848872 L106.736513,592.390244 C106.736513,592.390244 106.602429,591.54312 106.937637,591.086976 C108.278469,589.327565 115.988252,585.482926 115.988252,585.482926 C115.988252,585.482926 116.122335,588.024298 117.195,588.089461 C118.267665,588.154624 127.720529,583.332534 129.932901,582.029267 C133.68723,579.748549 134.424688,578.249791 134.692854,578.445281 C135.497353,578.836261 135.631436,585.026782 135.631436,585.026782 Z" id="Path" fill="#212121"></path>
            <polygon id="Path" fill="#FCBAA2" points="93.7452575 513.545091 81.7084475 537.539295 65.1331681 536.739489 56.8455285 534.273418 75.1967306 531.140841 85.1945181 510.612466"></polygon>
            <path d="M79.5136036,541.528455 L76.166429,540.718626 L75.0953331,537.749251 L59.8991602,537.546794 L50.8617886,535.387249 C50.8617886,535.387249 51.9328845,534.172504 52.6023194,533.835075 C54.6106242,532.95776 61.773578,532.552846 61.773578,532.552846 C61.773578,532.552846 61.0371996,534.644905 61.9744085,535.184791 C62.9116174,535.792163 73.3548023,536.129592 75.898655,535.927135 C80.3169255,535.589706 81.5888519,534.644905 81.7227389,534.914848 C82.1913433,535.859649 79.5136036,541.528455 79.5136036,541.528455 Z" id="Path" fill="#212121"></path>
            <path d="M180.841889,440.802168 L171.709675,444.928259 L171.776824,457.577097 L108.858556,447.228048 C108.858556,447.228048 102.882327,445.266464 99.0548553,455.209667 C93.6158161,469.278962 79.7831978,513.042587 79.7831978,513.042587 L88.51252,522.579946 L115.976311,473.13449 C115.976311,473.13449 172.246865,500.664313 190.779887,494.711919 C197.897642,492.41213 203.336681,479.289807 202.329452,466.032202 C201.523668,455.615512 199.509209,446.078154 199.509209,446.078154 L180.841889,440.802168 Z" id="Path" fill="#9B9B9B"></path>
            <path d="M173.528455,493.712812 L128.776501,490.371766 L132.644777,562.003798 L119.439282,562.471545 L109.701897,478.544462 C109.701897,478.544462 112.302979,466.048949 120.839865,467.919935 C129.443445,469.857742 150.118714,486.29569 173.528455,493.712812 Z" id="Path" fill="#9B9B9B"></path>
            <path d="M203.857164,512.607046 C203.857164,512.607046 180.578219,486.134358 174.560082,471.189018 C167.351546,453.294821 167.946746,430.843301 166.624079,423.404141 C164.177144,409.73217 161.201143,383.192463 160.672076,379.908509 C160.076875,376.624555 162.12701,372.938485 162.12701,372.938485 C162.12701,372.938485 160.605942,363.019604 164.970744,364.091916 C171.253414,365.633363 177.469951,369.118375 179.652352,370.190687 C183.75262,372.067232 192.151558,422.063751 192.614491,424.476452 C194.333959,433.188982 200.616629,441.097279 205.113698,449.206634 C215.695036,468.44122 218.406504,491.160818 218.406504,491.160818 C218.406504,491.160818 217.083837,507.781645 203.857164,512.607046 Z" id="Path" fill="#3274DC"></path>
            <g id="Group" transform="translate(115.685637, 438.807588)" fill="#FFE3CA">
                <path d="M63.6935863,4.9043201 C63.6935863,4.9043201 63.4941283,8.00178543 48.6012647,7.29194963 C33.7084011,6.51758329 11.9009937,1.67779372 11.9009937,1.67779372 L46.4072267,0.129061055 C46.4072267,0.129061055 59.6379404,0.193591583 63.6935863,4.9043201 Z" id="Path"></path>
                <path d="M23.6025294,3.35558744 C16.4885276,3.22652638 13.4301716,6.7757054 10.6377597,7.87272437 C7.84534779,8.96974334 4.98644986,10.5830065 4.98644986,10.5830065 C6.58211382,7.55007174 8.84263776,7.48554121 10.0393857,6.51758329 C11.1696477,5.54962538 10.9037037,6.0658696 8.37723577,5.80774749 C6.91454381,5.67868643 4.38807588,8.19537701 2.59295393,9.61504862 C0.997289973,10.8411286 2.84217094e-14,10.9056592 2.84217094e-14,10.9056592 C2.84217094e-14,10.9056592 1.86160795,8.32443807 4.18861789,6.25946118 C7.04751581,3.80730113 10.5047877,1.74232425 11.3691057,1.41967161 C12.8982836,0.83889686 17.6187895,0.774366332 21.0095754,1.29061055 C24.7992773,1.80685477 28.7219512,3.48464849 23.6025294,3.35558744 Z" id="Path"></path>
                <path d="M11.7015357,1.48420214 C11.7015357,1.48420214 6.24968383,2.77481269 5.31887986,3.48464849 C4.65401987,4.00089271 1.86160795,6.90476646 1.86160795,6.90476646 C1.86160795,6.90476646 3.8561879,6.58211382 5.05293586,5.48509485 C6.24968383,4.45260641 11.7015357,1.48420214 11.7015357,1.48420214 Z" id="Path"></path>
            </g>
            <path d="M167.544715,439.461378 L189.373167,427.837398 C189.373167,427.837398 189.438915,441.919019 189.570412,447.299261 C189.701909,452.679503 191.937353,460.251695 187.729458,461.380881 C183.521564,462.510068 181.351869,461.912263 185.69126,464.50275 C190.03065,467.026814 189.044425,469.683724 187.400717,471.875674 C185.757008,474.067624 192.923578,496.385664 191.214121,497.647696 C184.442041,489.01274 177.143974,478.31868 173.988054,470.547219 C169.977404,460.450963 168.399444,448.893406 167.544715,439.461378 Z" id="Path" fill="#0E538C"></path>
            <path d="M174.344161,434.196924 L173.491119,388.984805 C173.491119,388.984805 173.556738,374.872738 173.819213,370.726065 C174.081687,366.445627 181.234117,371.461765 181.234117,371.461765 C181.234117,371.461765 191.273766,385.306304 191.470622,418.680339 C191.601859,441.018871 190.420724,452.65631 180.315456,451.719965 C170.931993,450.850501 160.236158,449.379101 160.236158,449.379101 L155.577236,437.005961 L174.344161,434.196924 Z" id="Path" fill="#3274DC"></path>
            <g id="Group" transform="translate(78.785908, 403.902439)" fill="#D3D3D3">
                <polygon id="Path" points="94.2050011 53.8596663 17.4030637 44.4094426 17.6046436 42.8233911 94.4065809 52.2736148"></polygon>
                <path d="M60.5411597,48.0441441 C60.4067731,49.2997682 59.3988737,50.2249649 58.323781,50.0927939 L18.9485095,45.2685539 C17.8734167,45.1363829 16.5295508,44.1451007 15.5888447,40.8408267 L0.403159776,2.18082084 C0.604739664,0.594769321 1.88141229,-0.19825644 2.95650503,0.19825644 L43.2052894,6.41029157 C44.2803821,6.80680445 45.0195084,7.73200118 45.4226681,9.45022366 L60.5411597,48.0441441 Z" id="Path"></path>
                <path d="M55.5688558,49.1015117 L55.9720156,49.1675972 L94.4065809,53.9257518 C92.9283284,54.5205211 90.5765631,54.7187775 87.9560245,54.3883501 L55.7704357,50.4232213 L55.3672759,50.3571359 L23.1816871,46.3920071 C20.5611486,46.0615797 18.3437698,45.2685539 16.9999039,44.4094426 L55.5688558,49.1015117 Z" id="Path"></path>
            </g>
            <path d="M174.836144,434.893024 L173.972868,390.113478 C173.972868,390.113478 174.636927,386.337688 175.965044,382.95935 C176.297074,387.861253 178.554874,423.168202 178.820497,427.805138 C179.152527,432.839525 183.269692,433.36946 184.132968,435.025508 C185.062651,436.615315 184.26578,436.946524 181.211109,436.350347 C178.222844,435.687928 179.285339,436.217863 179.949398,437.807669 C180.613456,439.463718 178.953309,439.000024 173.109591,436.880282 C168.859615,435.356718 160.691691,436.880282 156.574526,437.807669 L174.836144,434.893024 Z" id="Path" fill="#0E538C"></path>
            <path d="M438.342383,323.382048 C430.934415,325.330555 417.263346,332.183926 414.367504,343.94216 C410.057414,361.613105 418.677595,387.48122 405.073872,412.879004 C400.696436,420.941793 480.298419,431.826558 480.298419,431.826558 L495.653117,342.598362 C495.653117,342.598362 476.459745,323.247668 472.553726,321.90387 C464.404961,319.216274 453.158318,319.485033 438.342383,323.382048 Z" id="Path" fill="#3274DC"></path>
            <path d="M494.166259,343.253792 C496.899209,350.28988 503.831572,392.174521 496.099321,402.064871 C495.232776,403.193301 500.098761,404.985512 499.232216,410.163011 C499.098901,411.025928 497.63244,415.207754 497.63244,415.207754 L491.366651,416.867209 L477.701897,401.135577 C477.701897,401.135577 483.234456,392.57279 490.500105,360.113853 C492.63314,350.555393 493.566343,341.660715 494.166259,343.253792 Z" id="Path" fill="#3274DC"></path>
            <path d="M442.779896,393.508522 C442.779896,393.508522 449.334666,410.834238 465.158809,415.480981 C467.87341,416.277566 469.594865,419.331141 468.270669,420.326871 C466.549214,421.58813 464.298081,421.853659 460.325493,421.853659 C452.049268,421.853659 440.793602,419.198376 433.047055,411.365294 C421.52655,399.814817 417.885011,394.504253 419.076787,388.729014 C420.136144,382.821011 442.779896,393.508522 442.779896,393.508522 Z" id="Path" fill="#FCD2B1"></path>
            <path d="M416.164383,338.037915 C412.756265,343.810338 410.818316,353.073063 410.885142,366.36306 C410.885142,376.632603 419.438849,393.480023 420.70854,398.648355 C420.909017,399.520931 421.443624,403.212596 421.443624,403.212596 L430.866067,412.878049 L449.777778,399.520931 L444.030756,390.325327 L442.293284,390.52669 C442.293284,390.52669 441.224071,385.425479 441.491374,383.478965 C441.758678,381.53245 436.278959,355.019577 433.5391,338.037915 C432.002106,328.171099 419.505675,332.332613 416.164383,338.037915 Z" id="Path" fill="#3274DC"></path>
            <path d="M433.676794,390.272809 L439.122522,388.544173 L441.353302,387.945799 C441.484524,389.541463 442.796748,390.605239 442.796748,390.605239 L438.532021,391.137127 L433.611182,392.732791 L427.837398,396.921409 L433.676794,390.272809 Z" id="Path" fill="#0E538C"></path>
            <path d="M463.838748,415.533171 L473.438396,412.878049 C473.438396,412.878049 476.171629,416.569317 475.638315,417.475944 C475.105002,418.382571 475.638315,423.822335 475.638315,423.822335 L470.97182,427.837398 L467.171959,426.542217 C467.171959,426.542217 466.905302,424.85848 468.171922,424.728962 C469.505207,424.534685 467.305287,423.628058 466.638645,423.239503 C465.972003,422.786189 460.438872,419.936789 463.838748,415.533171 Z" id="Path" fill="#FCD2B1"></path>
            <path d="M449.109001,322.910568 C448.048148,326.075794 449.639427,329.645092 452.689378,330.722615 L458.126247,332.742972 C461.176198,333.887841 464.491362,332.136865 465.552215,328.971639 L470.392354,314.425069 C471.453207,311.259844 469.861928,307.690546 466.811977,306.545677 L461.375108,304.525321 C458.325157,303.380452 455.009993,305.131428 453.94914,308.296653 L449.109001,322.910568 Z" id="Path" fill="#FF957E"></path>
            <path d="M473.804929,335.198697 C473.269357,337.265266 471.127067,338.531872 469.118671,337.931901 L452.582877,333.198792 C450.574481,332.59882 449.369443,330.465588 449.905016,328.332356 L456.666616,303.066886 C457.202188,301.000317 459.344477,299.73371 461.352873,300.333682 L477.888668,305.000127 C479.897064,305.600099 481.102101,307.733331 480.566529,309.866564 L473.804929,335.198697 Z" id="Path" fill="#FCD2B1"></path>
            <path d="M481.987529,307.62355 C481.987529,307.62355 481.987529,307.62355 481.987529,307.62355 C482.120052,307.492766 480.463518,305.661789 481.324916,302.065228 C482.451358,297.226219 478.806985,295.264459 476.09027,295.199067 C474.499998,295.133675 469.132829,297.683963 466.283591,298.534059 C463.434354,299.384156 463.699399,298.272491 458.531014,297.357003 C455.085425,296.703083 454.290289,298.599451 453.097585,301.215132 C451.90488,303.896205 451.772358,314.097359 451.772358,314.097359 C452.236187,314.751279 452.965062,315.274415 453.428891,314.751279 C453.892721,314.228143 455.748038,306.054141 457.272049,303.634637 C458.729798,301.215132 464.693319,305.073261 467.940125,306.969629 C471.120669,308.865998 473.969907,309.192958 479.07203,308.146686 C479.668382,308.800606 480.198473,309.519918 480.198473,309.846878 C480.198473,310.500798 478.740723,315.143631 478.740723,315.143631 C478.740723,315.143631 481.589961,313.378047 482.385097,312.004815 C482.782665,311.547071 482.915188,309.323742 481.987529,307.62355 Z" id="Path" fill="#FFFFFF"></path>
            <path d="M454.873674,323.175822 C454.670058,323.817573 453.99134,324.266798 453.312622,324.074273 L449.715417,323.111647 C449.036699,322.919122 448.629468,322.213196 448.833083,321.571445 L450.665622,315.089761 C450.869237,314.44801 451.547955,313.998784 452.226673,314.191309 L455.823879,315.153936 C456.502597,315.346461 456.909828,316.052387 456.706212,316.694138 L454.873674,323.175822 Z" id="Path" fill="#FCD2B1"></path>
            <path d="M452.574804,317.138211 C452.574804,317.138211 449.950798,326.884604 449.097996,330.155205 C448.310794,333.098747 447.720393,339.901598 463.792431,344.48044 C473.304454,347.162333 474.878858,339.836186 475.53486,337.481353 C475.994061,335.649816 475.469259,329.697321 474.747658,328.38908 C474.747658,328.323668 473.698055,332.444626 473.698055,332.444626 C473.698055,332.444626 472.779653,327.931196 468.253242,326.688368 C460.971625,324.595183 458.085218,328.585317 454.93641,327.538724 C452.443604,326.688368 451.722002,321.978702 452.574804,317.138211 Z" id="Path" fill="#FFFFFF"></path>
            <path d="M463.728547,331.522542 L468.938511,333.041706 C469.624033,333.248864 470.378106,332.834547 470.515211,332.074965 L470.720867,331.315383 L462.974473,329.105691 L462.768817,329.865273 C462.631713,330.624855 463.043025,331.315383 463.728547,331.522542 Z" id="Path" fill="#FCD2B1"></path>
            <path d="M544.780321,433.844492 C542.460608,440.540713 501.63365,465.137724 487.914202,463.679141 L446.623301,465.734417 C411.562489,461.292369 394.926829,404.805432 394.926829,404.805432 C396.318657,390.617399 430.915527,411.170158 443.243147,417.534883 C462.728741,427.612365 475.122639,428.142759 475.122639,428.142759 C488.179312,429.535042 503.290588,419.059765 519.793693,418.728269 C537.887458,418.264175 548.491863,423.302915 544.780321,433.844492 Z" id="Path" fill="#212121"></path>
            <g id="Group" transform="translate(452.769648, 384.953930)" fill="#D3D3D3">
                <path d="M0.405509642,42.1987623 C0.405509642,42.1317801 0.405509642,42.1317801 0.405509642,42.1987623 L0.405509642,40.3232617 L72.7889807,38.9836185 L72.7889807,40.7921369 C72.7889807,40.7921369 72.7889807,40.859119 72.7889807,40.859119 L72.5862259,41.1940299 C71.7076217,42.8016017 70.0179982,43.0695304 68.1256198,43.1365126 L5.13645546,44.3421915 C3.24407713,44.4091736 1.55445363,44.141245 0.608264463,42.6006553 L0.405509642,42.1987623 Z" id="Path"></path>
                <path d="M17.8424242,42.1317801 C17.8424242,42.1317801 17.8424242,42.1987623 17.8424242,42.1317801 L17.6396694,42.4666909 C17.3693297,42.8685839 17.031405,43.2034947 16.6258953,43.4044412 L5.60955005,43.6053877 C3.78475666,43.6723699 2.16271809,43.4714234 1.21652893,42.1987623 L1.0137741,41.9308336 C1.0137741,41.9308336 1.0137741,41.9308336 0.946189164,41.8638515 L0.946189164,40.9930834 L17.7072544,40.6581726 L17.8424242,42.1317801 Z" id="Path"></path>
                <polygon id="Path" points="27.6422406 41.4619585 63.8001837 40.7921369 63.8001837 39.5194758 27.5746556 40.2562796"></polygon>
                <path d="M18.2479339,39.9213688 L26.9663912,3.21514379 C27.169146,2.27739352 28.1153352,1.47360757 29.0615243,1.40662541 L79.8853994,0.468875137 C80.8315886,0.468875137 81.3722681,1.20567892 81.1695133,2.21041136 L72.451056,38.9166363 L18.2479339,39.9213688 Z" id="Path"></path>
            </g>
            <path d="M439.014255,473.625048 C443.993496,474.503893 447.828857,468.487182 447.828857,468.487182 L460.747967,457.941038 L457.989199,450.775068 L432.823848,462.538075 C432.823848,462.538075 433.967728,472.746202 439.014255,473.625048 Z" id="Path" fill="#FCD2B1"></path>
            <path d="M447.783198,468.362099 C447.783198,468.362099 447.783198,468.960246 446.863192,471.685139 C445.943186,474.410032 444.760322,475.340483 443.577457,475.739248 C438.845999,477.201386 435.494549,476.470317 424.191621,478.729984 C412.888692,480.989652 409.471528,479.261671 406.185793,473.811885 C402.900058,468.362099 406.317222,464.042146 411.837257,463.643382 C419.788736,463.045234 424.257335,463.975686 428.397361,463.311078 C432.734532,462.646469 432.99739,461.583097 435.560264,459.921576 C437.925993,458.392978 440.160293,467.564569 437.925993,469.691315 C435.888837,471.552217 446.14033,471.818061 447.783198,468.362099 Z" id="Path" fill="#FFFFFF"></path>
            <path d="M444.98907,473.430353 C440.258413,474.936266 436.793707,474.183309 425.333523,476.510629 C413.87334,478.837949 410.408633,477.058234 407.077185,471.445285 C405.544718,468.844163 405.478089,466.516843 406.344266,464.737127 C403.812365,466.585293 402.946188,469.802471 405.211573,473.635704 C408.543022,479.248653 412.007729,481.028368 423.467912,478.701048 C434.928095,476.373728 438.392802,477.126685 443.123459,475.620772 C444.056265,475.346969 444.98907,474.662463 445.788618,473.0881 C445.522102,473.225001 445.255586,473.361902 444.98907,473.430353 Z" id="Path" fill="#D3D3D3"></path>
            <path d="M447.384282,468.277507 C447.384282,468.078049 447.384282,468.078049 447.384282,468.078049 C447.384282,468.177778 447.284553,468.277507 447.184824,468.377236 C447.284553,468.277507 447.384282,468.277507 447.384282,468.277507 Z" id="Path" fill="#E9D6B8"></path>
            <path d="M422.277378,472.699444 C421.938049,472.83562 421.598719,472.086649 421.462988,471.065324 C421.25939,468.954587 420.78433,466.911938 420.105671,464.8012 C419.766342,463.779875 419.766342,462.894727 420.173537,462.758551 C420.580732,462.622374 421.25939,463.371346 421.530854,464.39267 C422.209512,466.435319 422.616707,468.546057 422.820304,470.588706 C422.956036,471.610031 422.616707,472.563267 422.277378,472.699444 Z" id="Path" fill="#D3D3D3"></path>
            <path d="M426.240671,471.713617 C425.847733,471.779551 425.520284,471.120219 425.389304,470.197156 C425.192835,468.285095 424.734406,466.373034 424.079509,464.526907 C423.75206,463.603843 423.75206,462.812645 424.210488,462.746712 C424.603427,462.680779 425.258325,463.406043 425.585773,464.329107 C426.175181,466.175235 426.63361,468.087295 426.830079,469.933423 C426.895569,470.856487 426.63361,471.647684 426.240671,471.713617 Z" id="Path" fill="#D3D3D3"></path>
            <path d="M429.313371,471.713697 C428.948166,471.784395 428.582961,471.006715 428.461226,469.946243 C428.156888,467.825298 427.730815,465.775052 427.061273,463.654108 C426.756935,462.593635 426.756935,461.745257 427.12214,461.745257 C427.548213,461.745257 428.156888,462.522937 428.461226,463.583409 C429.130769,465.633656 429.556841,467.7546 429.800311,469.804847 C429.922046,470.794621 429.678576,471.642999 429.313371,471.713697 Z" id="Path" fill="#D3D3D3"></path>
            <path d="M439.804878,458.267914 C439.804878,458.267914 527.693668,420.923682 532.698724,420.857115 C549.649182,420.723981 545.778605,438.430871 537.169908,446.818346 C527.026327,456.6703 449.881725,474.710027 449.881725,474.710027 L439.804878,458.267914 Z" id="Path" fill="#212121"></path>
            <polygon id="Path" fill="#FCD2B1" points="474.447006 464.737127 450.775068 441.247143 460.901397 430.829268 486.677507 459.229589"></polygon>
            <path d="M479.696477,445.468672 C479.696477,445.468672 418.269445,386.995327 414.17431,385.245836 C400.143436,379.324485 391.483231,395.406337 391.953165,400.991248 C392.624498,408.191073 454.991397,466.731707 454.991397,466.731707 L479.696477,445.468672 Z" id="Path" fill="#212121"></path>
            <path d="M514.937784,464.994831 C516.330858,466.344626 516.596206,470.4615 516.596206,470.4615 C516.596206,470.4615 496.363461,478.560271 489.265416,478.69525 C487.407984,478.76274 484.09114,477.952863 480.906971,477.008006 C480.376276,476.873027 479.115875,475.388252 478.58518,475.253273 C477.590127,474.983314 477.391116,475.92817 476.595074,475.658211 C474.472294,474.915824 472.880209,474.308416 472.813873,474.173437 C468.501976,464.589892 469.961387,459.86561 469.961387,459.86561 C469.961387,459.86561 479.248549,462.700179 477.656464,460.473017 C474.273284,455.748735 484.024803,450.956962 486.147583,453.454083 C494.90405,463.510056 510.824898,461.012935 514.937784,464.994831 Z" id="Path" fill="#FFFFFF"></path>
            <path d="M517.058507,466.731707 C510.772381,469.429578 497.598268,474.894497 494.990195,475.102025 C484.223534,475.93214 476.733683,471.850745 471.718157,469.429578 C472.186273,470.813102 472.721262,472.404154 473.456873,474.064383 C473.523746,474.202735 475.061841,474.825321 477.268672,475.586259 C478.13803,475.862963 478.338651,474.825321 479.274882,475.171202 C479.809871,475.309554 481.013598,476.83143 481.615461,476.969782 C484.825397,477.938249 488.16908,478.699187 490.041543,478.699187 C497.197026,478.560835 517.593496,470.259693 517.593496,470.259693 C517.593496,470.259693 517.593496,468.32276 517.058507,466.731707 Z" id="Path" fill="#D3D3D3"></path>
            <g id="Group" transform="translate(482.688347, 456.758808)" fill="#D3D3D3">
                <path d="M19.1479675,4.12213189 C19.3474255,4.52104788 18.5495935,4.91996387 17.4193315,5.18590786 C15.0923216,5.65130985 12.8317977,6.38265583 10.5712737,7.3134598 C9.44101174,7.77886179 8.44372177,7.91183379 8.31074977,7.5129178 C8.17777778,7.11400181 8.90912376,6.38265583 10.0393857,5.91725384 C12.2334237,4.98644986 14.5604336,4.32158988 16.8209575,3.8561879 C17.8847335,3.5237579 18.9485095,3.7232159 19.1479675,4.12213189 Z" id="Path"></path>
                <path d="M14.5604336,2.45998193 C14.7598916,2.85889792 13.9620596,3.39078591 12.8317977,3.7232159 C10.5712737,4.38807588 8.37723577,5.31887986 6.18319783,6.44914182 C5.11942186,6.98102981 4.12213189,7.1804878 3.98915989,6.78157182 C3.8561879,6.38265583 4.58753388,5.51833785 5.65130985,4.98644986 C7.77886179,3.92267389 9.97289973,2.99186992 12.2334237,2.39349593 C13.3636856,1.92809395 14.4274616,2.06106594 14.5604336,2.45998193 Z" id="Path"></path>
                <path d="M10.1723577,0.997289973 C10.3053297,1.39620596 9.57398374,1.99457995 8.51020777,2.39349593 C6.31616983,3.25781391 4.18861789,4.32158988 2.12755194,5.58482385 C1.13026197,6.24968383 0.199457995,6.44914182 0.0664859982,5.98373984 C-0.0664859982,5.58482385 0.598373984,4.65401987 1.66214995,3.98915989 C3.7232159,2.72592593 5.85076784,1.66214995 7.97831978,0.864317977 C9.04209575,0.531887986 10.0393857,0.598373984 10.1723577,0.997289973 Z" id="Path"></path>
            </g>
            <g id="Group-4" transform="translate(555.490515, 267.273713)">
                <path d="M138.073382,18.6746183 C139.603659,24.0670093 141.133937,29.4594004 142.664215,34.8517914 C142.882826,35.5975476 143.101437,36.3433038 143.046784,37.08906 C142.992132,39.3836945 140.969979,41.1620363 138.838521,41.5635973 C136.707062,41.9651583 134.520951,41.3914997 132.444146,40.7604752 C131.897618,43.0551097 129.274285,44.0303294 127.033521,44.4892563 C117.086716,46.4396956 106.538731,45.0629149 97.3570644,40.5883776 C101.292064,34.622328 104.516578,28.1973514 106.9213,21.3708138 C114.736647,21.715009 122.551994,22.11657 130.36734,22.4607652 C131.73366,22.518131 133.154632,22.5754969 134.466299,22.11657 C135.777965,21.6002773 136.925673,20.45296 137.034979,19.0188135" id="Path" fill="#212121"></path>
                <path d="M47.0227998,90.1360731 L44.7358447,87.304924 C44.7358447,87.304924 43.1023053,85.8604601 40.7608988,82.6248611 C40.1619344,81.8159613 39.7263239,80.8337259 39.399616,79.8514905 C39.0184568,78.6381408 38.5828463,77.0203413 38.6372976,76.0381059 C38.6917489,74.8247563 37.3304661,74.2469707 36.6770504,75.113649 C36.0236346,75.9803273 35.914732,79.2737049 37.3304661,82.7981967 C38.7462003,86.3226886 33.6822282,83.549318 31.8308835,82.509304 C29.9795389,81.5270686 24.0987971,78.7536979 23.3364787,79.1003693 C22.2474525,79.6203763 22.5741603,80.949283 24.4799563,81.9315184 C26.3857522,82.9137539 31.7764322,86.1493529 31.2863704,87.1315883 C30.7418573,88.1138237 21.3762315,82.9715324 21.3762315,82.9715324 C21.3762315,82.9715324 19.5248868,81.5270686 18.8714711,82.6826396 C17.6735422,84.7626676 28.0737429,89.500509 29.0538666,89.9049589 C29.7617336,90.1938517 29.2172205,91.3494228 28.4549021,90.9449729 C27.6925837,90.5983016 19.1981789,85.5715674 17.9457987,87.6515953 C17.0201264,89.2693948 26.4402036,91.6383156 27.6381324,93.7183435 C28.8360613,95.7983715 20.6683644,91.1760871 19.7971434,92.7361081 C19.4704355,93.3138936 19.3070816,93.8339006 24.425505,95.7405929 C29.5983797,97.7050638 44.5180394,100.709549 44.5180394,100.709549 L46.9138972,89.8471804" id="Path" fill="#FF957E"></path>
                <path d="M89.8211889,64.6942133 C89.8211889,64.6942133 81.22491,90.6887591 78.5799011,90.9193094 C60.4505693,92.6484367 40.7232113,84.4639012 40.7232113,84.4639012 L35.7638196,99.1038449 C35.7638196,99.1038449 87.1210757,123.138713 98.1419461,99.9684085 C109.879173,75.4148021 109.273025,71.5530846 109.273025,71.5530846 L89.8211889,64.6942133 Z" id="Path" fill="#FCD2B1"></path>
                <path d="M90.7341348,211.188782 C99.9510451,255.206968 160.550851,296.12609 160.550851,296.12609 L170.871582,282.983763 C170.871582,282.983763 122.137859,237.817776 120.095789,217.73125 C117.998528,197.644725 134.169514,166.137575 134.169514,166.137575 L117.391426,158.734255 L90.7341348,211.188782 Z" id="Path" fill="#212121"></path>
                <path d="M110.987547,50.6882496 C111.265216,48.8497639 110.59881,41.2660104 110.59881,41.2660104 C110.59881,41.2660104 103.87921,40.5191256 103.490473,33.6248043 C103.101736,26.7304829 103.490473,10.8735438 103.490473,10.8735438 L115.707927,4.66865457 L129.147126,15.1824946 L127.092373,49.5966487 L110.987547,50.6882496 Z" id="Path" fill="#FFE3CA"></path>
                <path d="M128.298306,20.5655216 C128.298306,20.5655216 117.349195,19.4681956 115.469045,9.13022997 L103.635157,20.5655216 C103.635157,20.5655216 100.040752,12.8842398 106.621279,5.78049808 C113.201805,-1.32324369 117.680986,0.120606264 120.280017,0.120606264 C122.657855,0.120606264 134.823533,2.83504417 138.417938,17.2157897 C138.694431,18.2553617 138.915625,20.8542916 139.081521,22.0093715 L128.298306,20.5655216 Z" id="Path" fill="#212121"></path>
                <path d="M110.602923,41.0461315 C110.602923,41.0461315 114.989052,41.1022416 119.212732,38.0161872 C119.212732,38.0161872 117.263341,42.9538742 110.765373,42.6733238 L110.602923,41.0461315 Z" id="Path" fill="#FCD2B1"></path>
                <path d="M96.7713358,128.176453 C96.7713358,130.640786 97.5971059,134.02208 97.5971059,134.02208 L144.390742,148.063045 C144.390742,148.063045 147.748874,126.055981 139.215916,113.791628 C135.307271,108.175242 136.188093,100.266453 137.784582,93.503866 L143.289715,70.4079111 L135.912836,48.6873977 L106.460371,50.7505599 C106.460371,50.7505599 89.3944567,48.973948 83.4489123,72.4710733 L94.4041283,89.6067818 L94.514231,96.0828188 L96.7713358,128.176453 Z" id="Path" fill="#3274DC"></path>
                <path d="M142.535077,119.384167 C143.029232,119.384167 151.48477,139.196641 143.852823,150.969271 C143.139044,152.060392 141.382049,154.759483 139.021088,158.607123 C127.710434,176.754201 101.904573,219.422804 101.026075,225.682398 C99.9828596,233.262822 79.1185464,312.799856 79.1185464,312.799856 L63.5801237,310.21562 L76.2634299,219.997079 L97.0179309,127.998286 L142.535077,119.384167 Z" id="Path" fill="#212121"></path>
                <path d="M115.901267,8.329604 C115.901267,8.329604 113.514816,13.3180855 114.545329,17.0741187 L104.131722,20.0085196 C104.131722,19.9498316 101.745271,5.68864319 115.901267,8.329604 Z" id="Path" fill="#212121"></path>
                <path d="M138.383571,20.4731819 C138.383571,20.4731819 139.600025,36.5040318 127.82254,39.3500885 L128.596647,20.0085196 L138.383571,20.4731819 Z" id="Path" fill="#212121"></path>
                <path d="M90.0718419,94.8987768 L63.8421297,106.405822 L20.8957875,107.379055 L1.56113719,73.212195 C1.01713651,72.2508745 1.35544104,71.0305706 2.31676151,70.4865699 C2.57606136,70.339835 2.864869,70.2528866 3.16208031,70.2320783 L42.8647089,67.4524284 C43.6505112,67.397413 44.3954184,67.8087789 44.7673786,68.5031546 L63.2922405,103.085381 L63.2922405,103.085381 L89.9068751,92.3225726 L90.0718419,94.8987768 Z" id="Path" fill="#D3D3D3"></path>
                <polygon id="Path" fill="#3274DC" points="85.4559831 67.3620159 78.1505687 86.1473256 94.505974 94.7069927 96.0324785 78.2770277"></polygon>
                <polygon id="Path" fill="#FFE3CA" points="117.130648 47.3534964 111.265216 50.0537722 112.449065 62.6933614 119.875025 48.5025499"></polygon>
                <g id="Group" transform="translate(50.996558, 300.127794)" fill="#3274DC">
                    <path d="M11.2589802,10.5187646 C11.2589802,10.5187646 -2.48359858,14.2917997 0.938248353,15.3779765 C4.36009529,16.4641533 28.1474506,13.7772949 28.1474506,13.7772949 L28.9201257,10.9761022 L11.2589802,10.5187646 Z" id="Path"></path>
                    <polygon id="Path" points="28.1474506 13.7772949 33.0042656 0.228668795 11.9212732 0.228668795 11.2589802 10.5187646"></polygon>
                </g>
                <g id="Group" transform="translate(151.665087, 271.448916)" fill="#3274DC">
                    <path d="M8.33385302,25.2250998 C8.33385302,25.2250998 4.856815,39.5901908 7.45079574,37.0044744 C9.9895854,34.418758 19.3720689,11.4920728 19.3720689,11.4920728 L17.3851901,9.42349969 L8.33385302,25.2250998 Z" id="Path"></path>
                    <polygon id="Path" points="19.3168779 11.4920728 10.2103497 0.459682911 0 19.5939841 8.33385302 25.2250998"></polygon>
                </g>
                <path d="M129.834712,28.8050844 C129.781278,27.6689214 129.781278,26.4759503 130.155314,25.4534037 C130.529349,24.3740489 131.384287,23.4651185 132.45296,23.3515022 C133.681934,23.2378859 134.857473,24.3172407 135.071208,25.56702 C135.284943,26.8736074 134.536872,28.1801948 133.468199,28.8618925 C132.399526,29.4867822 131.063685,29.4867822 129.888145,28.9755088" id="Path" fill="#FFE3CA"></path>
                <path d="M122.354829,128.869792 C122.354829,128.869792 121.739556,65.0777572 123.920979,60.2371692 C123.920979,60.2371692 126.21427,48.2509512 135.107763,48.020447 L131.136455,48.3662033 C131.136455,48.3662033 123.08197,47.7899428 120.732746,64.0981144 C118.439455,80.4062859 118.551323,129.388427 118.551323,129.388427 L122.354829,128.869792 Z" id="Path" fill="#0E538C"></path>
                <path d="M105.30458,131.389279 C105.30458,131.389279 102.92742,58.3795283 104.807035,50.6882496 L102.429875,50.6882496 C102.429875,50.6882496 100.329129,56.9445883 100.716108,74.450857 C100.992522,84.9546183 100.716108,131.389279 100.716108,131.389279 L105.30458,131.389279 Z" id="Path" fill="#0E538C"></path>
                <path d="M77.4882757,98.7086966 C77.4882757,98.7086966 65.9270911,106.201249 63.3702907,106.144487 C60.8690729,106.087725 53.5877499,105.91744 54.3659065,106.939151 C55.1440632,107.960863 63.3702907,109.379907 63.3702907,109.379907 L77.4882757,98.7086966 Z" id="Path" fill="#FCD2B1"></path>
                <path d="M78.491423,114.702229 C78.491423,114.702229 132.890052,129.999183 140.345702,105.293159 C148.243168,79.0863012 148.353622,85.8977752 148.353622,85.8977752 L131.288468,68.6959172 C131.288468,68.6959172 122.12078,98.9434795 119.52511,99.6361718 C105.221308,103.445979 88.9845596,101.021556 83.240948,99.9247935 C82.5782236,99.34755 81.8602722,98.7125821 80.9766396,97.8467168 C80.2586882,97.1540245 79.6511908,96.2881592 79.2093745,95.3645695 C78.6571041,94.2100824 77.9943797,92.7092491 77.8839257,91.7279351 C77.7182446,90.5157236 76.2823417,90.1693775 75.7852983,91.0929672 C75.288255,92.0165568 75.6196172,95.3068451 77.6077905,98.539409 C77.6077905,98.539409 64.6294373,107.255787 63.5801237,109.333863 L78.491423,114.702229 Z" id="Path" fill="#FCD2B1"></path>
                <path d="M136.088915,48.6873977 C136.088915,48.6873977 148.497105,51.1568118 148.993433,71.4864074 C149.48976,91.8160031 141.603666,107.379055 141.603666,107.379055 L120.537318,95.9508361 L136.088915,48.6873977" id="Path" fill="#3274DC"></path>
            </g>
            <path d="M584.184569,354.079524 C582.869187,356.419133 583.284571,359.011672 585.084568,359.770464 C586.884564,360.592489 589.307637,359.327836 590.623019,356.988227 C591.938401,354.648618 591.523017,352.056078 589.723021,351.297286 C587.923024,350.475261 585.430721,351.739915 584.184569,354.079524 Z" id="Path" fill="#F2F0F0" transform="translate(587.403794, 355.533875) scale(-1, 1) translate(-587.403794, -355.533875) "></path>
            <path d="M106.482672,428.876272 C105.16729,431.215881 105.582674,433.80842 107.38267,434.567212 C109.182667,435.389237 111.60574,434.124584 112.921122,431.784975 C114.236504,429.445366 113.82112,426.852826 112.021124,426.094034 C110.221127,425.272009 107.728824,426.536663 106.482672,428.876272 Z" id="Path-Copy" fill="#F2F0F0" transform="translate(109.701897, 430.330623) scale(-1, 1) translate(-109.701897, -430.330623) "></path>
            <path d="M499.414921,404.941312 C498.099539,407.280921 498.514923,409.873461 500.31492,410.632253 C502.114917,411.454278 504.537989,410.189624 505.853371,407.850015 C507.168753,405.510407 506.75337,402.917867 504.953373,402.159075 C503.153376,401.33705 500.661073,402.601704 499.414921,404.941312 Z" id="Path" fill="#F2F0F0"></path>
        </g>
    </g>
</svg>