<?xml version="1.0" encoding="UTF-8"?>
<svg width="425px" height="40px" viewBox="0 0 425 40" version="1.1" xmlns="http://www.w3.org/2000/svg" xmlns:xlink="http://www.w3.org/1999/xlink">
    <title>Group 6 Copy</title>
    <g id="Pictures" stroke="none" stroke-width="1" fill="none" fill-rule="evenodd">
        <g id="Group-6-Copy">
            <g id="PUre-lab" transform="translate(46.195652, 0.000000)" fill="#FFFFFF" fill-rule="nonzero">
                <path d="M16.7134839,0 C20.1334218,0 23.1028395,0.56832765 25.621826,1.705 C28.1408125,2.84167235 30.0805869,4.45498955 31.4412074,6.545 C32.8018278,8.63501045 33.4821278,11.1099857 33.4821278,13.97 C33.4821278,16.7933474 32.8018278,19.2591561 31.4412074,21.3675 C30.0805869,23.4758439 28.1408125,25.0891611 25.621826,26.2075 C23.1028395,27.3258389 20.1334218,27.885 16.7134839,27.885 L8.93592209,27.885 L8.93592209,38.5 L0,38.5 L0,0 L16.7134839,0 Z M16.2170438,20.625 C18.9015112,20.625 20.9424113,20.0475058 22.3398052,18.8925 C23.7371992,17.7374942 24.4358857,16.0966773 24.4358857,13.97 C24.4358857,11.8066558 23.7371992,10.1475058 22.3398052,8.9925 C20.9424113,7.83749422 18.9015112,7.26 16.2170438,7.26 L8.93592209,7.26 L8.93592209,20.625 L16.2170438,20.625 Z" id="P"></path>
                <path d="M63.0829966,39.16 C57.5669677,39.16 53.273723,37.6383485 50.2031336,34.595 C47.1325442,31.5516514 45.5972725,27.2066949 45.5972725,21.56 L45.5972725,0 L54.5331946,0 L54.5331946,21.23 C54.5331946,28.1233678 57.4014866,31.57 63.1381566,31.57 C65.9329446,31.57 68.0657771,30.7358417 69.5367181,29.0675 C71.0076592,27.3991583 71.7431186,24.7866844 71.7431186,21.23 L71.7431186,0 L80.5687207,0 L80.5687207,21.56 C80.5687207,27.2066949 79.033449,31.5516514 75.9628596,34.595 C72.8922702,37.6383485 68.5990255,39.16 63.0829966,39.16 Z" id="U"></path>
                <path d="M120.263872,38.5 L112.81727,27.775 L104.598428,27.775 L104.598428,38.5 L95.6625061,38.5 L95.6625061,0 L112.37599,0 C115.795928,0 118.765346,0.56832765 121.284332,1.705 C123.803319,2.84167235 125.743093,4.45498955 127.103713,6.545 C128.464334,8.63501045 129.144634,11.1099857 129.144634,13.97 C129.144634,16.8300143 128.455141,19.295823 127.076133,21.3675 C125.697126,23.439177 123.738965,25.0249945 121.201592,26.125 L129.861714,38.5 L120.263872,38.5 Z M120.098392,13.97 C120.098392,11.8066558 119.399705,10.1475058 118.002311,8.9925 C116.604917,7.83749422 114.564017,7.26 111.87955,7.26 L104.598428,7.26 L104.598428,20.68 L111.87955,20.68 C114.564017,20.68 116.604917,20.0933392 118.002311,18.92 C119.399705,17.7466608 120.098392,16.0966773 120.098392,13.97 Z M172.370026,31.35 L172.370026,38.5 L142.473299,38.5 L142.473299,0 L171.652946,0 L171.652946,7.15 L151.354061,7.15 L151.354061,15.51 L169.281065,15.51 L169.281065,22.44 L151.354061,22.44 L151.354061,31.35 L172.370026,31.35 Z M212.646864,0 L221.582786,0 L221.582786,31.24 L240.943951,31.24 L240.943951,38.5 L212.646864,38.5 L212.646864,0 Z M277.991422,30.25 L260.064417,30.25 L256.644497,38.5 L247.487934,38.5 L264.697858,0 L273.52346,0 L290.788545,38.5 L281.411342,38.5 L277.991422,30.25 Z M275.178261,23.485 L269.055499,8.745 L262.932738,23.485 L275.178261,23.485 Z M329.435655,18.48 C331.642067,19.1766701 333.370397,20.3408252 334.620697,21.9725 C335.870996,23.6041748 336.496137,25.6116547 336.496137,27.995 C336.496137,31.3683502 335.181503,33.9624909 332.552196,35.7775 C329.922889,37.5925091 326.089306,38.5 321.051333,38.5 L301.083409,38.5 L301.083409,0 L319.948133,0 C324.655144,0 328.268089,0.89832435 330.787076,2.695 C333.306062,4.49167565 334.565537,6.9299846 334.565537,10.01 C334.565537,11.8800093 334.115068,13.548326 333.214116,15.015 C332.313165,16.481674 331.053691,17.6366624 329.435655,18.48 Z M309.964171,6.71 L309.964171,15.785 L318.844933,15.785 C321.051344,15.785 322.724515,15.4000038 323.864494,14.63 C325.004473,13.8599961 325.574455,12.7233408 325.574455,11.22 C325.574455,9.71665915 325.004473,8.58917042 323.864494,7.8375 C322.724515,7.08582957 321.051344,6.71 318.844933,6.71 L309.964171,6.71 Z M320.389413,31.79 C322.742919,31.79 324.517215,31.4050038 325.712355,30.635 C326.907494,29.8649961 327.505055,28.6733414 327.505055,27.06 C327.505055,23.869984 325.133198,22.275 320.389413,22.275 L309.964171,22.275 L309.964171,31.79 L320.389413,31.79 Z" id="RELAB"></path>
            </g>
            <g id="ic_arrow_forward_ios_24px" transform="translate(391.123188, 3.076923)">
                <polygon id="Path" stroke="#FFFFFF" stroke-width="3" fill="#FFFFFF" fill-rule="nonzero" points="8.27623981 5.79375 19.3675272 16.875 8.27623981 27.95625 11.2601902 30.9375 25.335428 16.875 11.2601902 2.8125"></polygon>
                <polygon id="Path" points="0 0 33.7805707 0 33.7805707 33.75 0 33.75"></polygon>
            </g>
            <g id="Group-2" transform="translate(232.518116, 3.076923)" fill="#FFFFFF">
                <ellipse id="Oval" cx="6.25566123" cy="6.25" rx="6.25566123" ry="6.25"></ellipse>
                <ellipse id="Oval-Copy" cx="6.25566123" cy="26.25" rx="6.25566123" ry="6.25"></ellipse>
            </g>
            <g id="ic_arrow_forward_ios_24px-copy" transform="translate(16.938406, 20.000000) scale(-1, 1) translate(-16.938406, -20.000000) translate(0.000000, 3.076923)">
                <polygon id="Path" stroke="#FFFFFF" stroke-width="3" fill="#FFFFFF" fill-rule="nonzero" points="8.27623981 5.79375 19.3675272 16.875 8.27623981 27.95625 11.2601902 30.9375 25.335428 16.875 11.2601902 2.8125"></polygon>
                <polygon id="Path" points="0 0 33.7805707 0 33.7805707 33.75 0 33.75"></polygon>
            </g>
        </g>
    </g>
</svg>