<?xml version="1.0" encoding="UTF-8"?>
<svg width="253px" height="47px" viewBox="0 0 253 47" version="1.1" xmlns="http://www.w3.org/2000/svg" xmlns:xlink="http://www.w3.org/1999/xlink">
    <title>Group Copy 3@1,5x</title>
    <g id="Pictures" stroke="none" stroke-width="1" fill="none" fill-rule="evenodd">
        <g id="Group-Copy-3" transform="translate(0.641266, 0.962485)">
            <path d="M198.026306,37.1843833 L191.209375,37.1843833 L191.209375,12.0855688 L191.006641,12.0855688 L181.072674,36.82362 L176.257742,36.82362 L166.323775,12.0855688 L166.121041,12.0855688 L166.121041,37.1843833 L159.30411,37.1843833 L159.30411,-1.31196343e-13 L168.173723,-1.31196343e-13 L178.563841,26.3614859 L178.766575,26.3614859 L189.156693,-1.31196343e-13 L198.026306,-1.31196343e-13 L198.026306,37.1843833 Z M216.529163,14.6366803 C213.310761,14.6366803 210.953978,17.033179 210.700561,20.4861987 L222.231057,20.4861987 C222.079007,16.9558726 219.798249,14.6366803 216.529163,14.6366803 Z M222.332424,28.7322158 L229.124014,28.7322158 C228.313078,34.1178957 223.396778,37.6739906 216.731897,37.6739906 C208.419803,37.6739906 203.351453,32.2883107 203.351453,23.5011487 C203.351453,14.6882179 208.445145,9.07061879 216.453138,9.07061879 C224.334423,9.07061879 229.352089,14.4047611 229.352089,22.805391 L229.352089,25.0988145 L210.624535,25.0988145 L210.624535,25.562653 C210.624535,29.4537423 213.133369,32.107929 216.858606,32.107929 C219.51949,32.107929 221.648197,30.8194889 222.332424,28.7322158 Z M243.648216,37.6997594 C239.846953,37.6997594 236.84818,34.607503 236.84818,30.7851305 C236.84818,26.9198099 239.846953,23.8705015 243.648216,23.8705015 C247.449479,23.8705015 250.448253,26.9198099 250.448253,30.7851305 C250.448253,34.607503 247.449479,37.6997594 243.648216,37.6997594 Z" id="ExpertMe.-Copy" fill="#008AC6"></path>
            <path d="M24.2332691,30.4211572 L24.2332691,36.7960853 L-1.49938678e-13,36.7960853 L-1.49938678e-13,0 L24.2332691,0 L24.2332691,6.34942845 L7.65527958,6.34942845 L7.65527958,15.2233284 L23.2953706,15.2233284 L23.2953706,21.1392618 L7.65527958,21.1392618 L7.65527958,30.4211572 L24.2332691,30.4211572 Z M41.169519,27.3101922 L41.0174273,27.3101922 L35.9223572,36.7960853 L28.1403345,36.7960853 L36.6574668,23.1792388 L28.1910318,9.46039339 L36.5307237,9.46039339 L41.4230051,18.6912894 L41.5750967,18.6912894 L46.3913322,9.46039339 L54.4521895,9.46039339 L45.9604059,22.9752411 L54.3761437,36.7960853 L46.340635,36.7960853 L41.169519,27.3101922 Z M74.126089,9.12889712 C81.0209104,9.12889712 85.2541279,14.4073376 85.2541279,23.1282394 C85.2541279,31.8236414 81.046259,37.1275816 74.2528321,37.1275816 C70.2984492,37.1275816 67.2819649,35.2916023 65.8117456,32.2061371 L65.659654,32.2061371 L65.659654,45.7209848 L58.2578605,45.7209848 L58.2578605,9.46039339 L65.5582596,9.46039339 L65.5582596,14.1523405 L65.7103512,14.1523405 C67.1552219,11.0413756 70.2984492,9.12889712 74.126089,9.12889712 Z M71.6419255,31.1351491 C75.292125,31.1351491 77.6748941,27.9986845 77.6748941,23.1282394 C77.6748941,18.283294 75.292125,15.1213296 71.6419255,15.1213296 C68.0424231,15.1213296 65.6343054,18.3342934 65.6343054,23.1282394 C65.6343054,27.9731848 68.0170745,31.1351491 71.6419255,31.1351491 Z M102.114332,14.4838368 C98.8950587,14.4838368 96.5376382,16.8553101 96.2841521,20.2722715 L107.817769,20.2722715 C107.665677,16.7788109 105.384302,14.4838368 102.114332,14.4838368 Z M107.919163,28.4321796 L114.71259,28.4321796 C113.901435,33.7616195 108.983805,37.2805799 102.317121,37.2805799 C94.0027774,37.2805799 88.9330558,31.9511399 88.9330558,23.2557379 C88.9330558,14.5348362 94.028126,8.97589885 102.038286,8.97589885 C109.921703,8.97589885 114.940728,14.2543394 114.940728,22.5672457 L114.940728,24.8367201 L96.2081063,24.8367201 L96.2081063,25.2957149 C96.2081063,29.1461715 98.7176185,31.7726419 102.443864,31.7726419 C105.105468,31.7726419 107.234751,30.4976563 107.919163,28.4321796 Z M119.608251,36.7960853 L119.608251,9.46039339 L126.756559,9.46039339 L126.756559,14.3818379 L126.90865,14.3818379 C127.846549,10.9903761 130.178621,9.12889712 133.372545,9.12889712 C134.234398,9.12889712 134.944159,9.23089597 135.47648,9.40939396 L135.47648,15.9628201 C134.868113,15.707823 133.854169,15.529325 132.789527,15.529325 C129.139328,15.529325 127.010045,17.7732997 127.010045,21.6237563 L127.010045,36.7960853 L119.608251,36.7960853 Z M141.335388,3.16196437 L148.737181,3.16196437 L148.737181,9.46039339 L153.756206,9.46039339 L153.756206,15.0703302 L148.737181,15.0703302 L148.737181,28.126183 C148.737181,30.2171595 149.751126,31.237148 151.931106,31.237148 C152.59017,31.237148 153.274582,31.1861486 153.730857,31.1096494 L153.730857,36.5920876 C152.970399,36.7450859 151.702969,36.8980842 150.207401,36.8980842 C143.819551,36.8980842 141.335388,34.7306086 141.335388,29.4011687 L141.335388,15.0703302 L137.507748,15.0703302 L137.507748,9.46039339 L141.335388,9.46039339 L141.335388,3.16196437 Z" id="ExpertMe.-Copy-2" fill-opacity="0.87" fill="#000000"></path>
        </g>
    </g>
</svg>