<?xml version="1.0" encoding="UTF-8"?>
<svg width="268px" height="80px" viewBox="0 0 268 80" version="1.1" xmlns="http://www.w3.org/2000/svg" xmlns:xlink="http://www.w3.org/1999/xlink">
    <title>Group 6</title>
    <defs>
        <path d="M14.6365368,14.1606926 C11.5331602,17.5948052 6.24450216,17.8562771 2.82008658,14.745974 C-0.605367965,11.635671 -0.870649351,6.32796537 2.22614719,2.89281385 C5.32813853,-0.542337662 10.6209524,-0.80034632 14.0450216,2.30926407 C17.4694372,5.4195671 17.7336797,10.7255411 14.6365368,14.1606926" id="path-1"></path>
        <radialGradient cx="33.9971146%" cy="22.1347764%" fx="33.9971146%" fy="22.1347764%" r="70.3739871%" gradientTransform="translate(0.339971,0.221348),scale(1.000000,0.996965),rotate(0.055616),scale(1.000000,1.002906),translate(-0.339971,-0.221348)" id="radialGradient-3">
            <stop stop-color="#478ABD" offset="0%"></stop>
            <stop stop-color="#152154" offset="100%"></stop>
        </radialGradient>
        <path d="M0.0429437229,7.97748918 C15.741645,-3.76103896 38.0439827,-2.51878788 52.3338528,11.7250216 C53.1858009,12.5800866 53.9712554,13.47671 54.7317749,14.3851082 C54.5638095,14.5624242 54.3948052,14.7428571 54.2258009,14.9118615 C49.307013,19.8424242 43.9265801,21.430303 39.7835498,21.8039827 C39.6716883,21.8126407 39.5695238,21.8264935 39.4576623,21.8358442 C39.3336797,21.8445022 39.2221645,21.8445022 39.1006061,21.8514286 C37.2290909,21.9435498 35.2218182,21.8337662 33.0742857,21.4351515 C33.0742857,21.4351515 31.4999134,17.4715152 28.1326407,13.4375758 C27.5449351,12.7338528 26.8976623,12.0277056 26.1932468,11.3381818 C20.8938528,6.12606061 12.3601732,2.00796537 0.0429437229,7.97748918 Z" id="path-4"></path>
        <linearGradient x1="5.0410567%" y1="40.1244265%" x2="11.2060473%" y2="41.2394624%" id="linearGradient-6">
            <stop stop-color="#478ABD" offset="0%"></stop>
            <stop stop-color="#152154" offset="100%"></stop>
        </linearGradient>
        <path d="M2.46787879,0.175584416 C2.70580087,0.233419913 2.94510823,0.288138528 3.17714286,0.35012987 C9.90545455,2.1447619 13.9712554,6.01108225 16.3664069,9.41090909 C16.4294372,9.50233766 16.4938528,9.58649351 16.5565368,9.67757576 C16.6268398,9.78008658 16.6829437,9.87844156 16.7480519,9.98025974 C17.7645022,11.5532468 18.6735931,13.3461472 19.4015584,15.4064069 C19.4015584,15.4064069 18.6969994,16.2974153 17.7661841,17.8379237 L17.6486883,18.0338526 C16.7986862,19.4620028 15.7831029,21.4033124 14.9458009,23.6841558 C14.6316883,24.5475325 14.3425108,25.4600866 14.097316,26.4131602 C12.2341126,33.609697 12.9336797,43.058355 24.2607792,50.7404329 C6.24796537,43.0154113 -3.82753247,23.0791342 1.36138528,3.58199134 C1.67757576,2.41627706 2.06095238,1.28900433 2.46787879,0.175584416 Z" id="path-7"></path>
        <linearGradient x1="2.35523468%" y1="45.2732426%" x2="1.42262998%" y2="42.3177668%" id="linearGradient-9">
            <stop stop-color="#478ABD" offset="0%"></stop>
            <stop stop-color="#152154" offset="100%"></stop>
        </linearGradient>
        <path d="M18.2600866,20.9825108 C17.3104762,21.2464069 16.3764502,21.4517749 15.4732468,21.6117749 C10.2954113,22.5101299 6.07619048,21.8926407 6.07619048,21.8926407 C4.65558442,23.5522078 3.55844156,25.2370563 2.70164502,26.9025108 C2.64935065,27.0105628 2.59220779,27.1089177 2.53748918,27.2200866 C2.49004329,27.3212121 2.44952381,27.4174892 2.4017316,27.5179221 C0.652813853,31.2924675 -0.660779221,36.7463203 1.15012987,43.4715152 C1.21073593,43.7018182 1.28450216,43.9376623 1.35376623,44.1728139 C2.5208658,43.9681385 3.68935065,43.7350649 4.85541126,43.4258009 C24.3355844,38.1724675 36.5645022,19.4784416 34.2455411,0.0148917749 C33.2567965,13.6664935 25.4254545,18.9984416 18.2600866,20.9825108" id="path-10"></path>
        <linearGradient x1="76.6409114%" y1="30.4479789%" x2="24.140685%" y2="83.4625822%" id="linearGradient-12">
            <stop stop-color="#478ABD" offset="0%"></stop>
            <stop stop-color="#152154" offset="100%"></stop>
        </linearGradient>
        <path d="M13.5494372,3.47532468 C31.1068398,-5.41333333 39.6997403,6.83601732 39.6997403,6.83601732 C32.9153247,9.7021645 27.6824242,16.2881385 24.9267532,25.2141991 C22.6469264,32.5984416 19.2547186,35.2779221 18.1492641,35.9830303 C13.6304762,22.5038961 1.50095238,20.0585281 0.30995671,19.8514286 C4.85402597,8.92051948 13.5494372,3.47532468 13.5494372,3.47532468 Z" id="path-13"></path>
        <linearGradient x1="2.57490892%" y1="42.2440644%" x2="5.3460874%" y2="40.334134%" id="linearGradient-15">
            <stop stop-color="#478ABD" offset="0%"></stop>
            <stop stop-color="#152154" offset="100%"></stop>
        </linearGradient>
        <path d="M31.0580087,20.2961039 C31.0555844,15.7714286 32.3120346,9.7821645 37.3381818,4.13991342 L37.3939394,4.05298701 C36.5741991,3.17645022 33.7018182,1.01679654 26.3154978,2.69991342 C17.2083117,4.77714286 7.1591342,4.5361039 1.2834632,0.0928138528 C1.2834632,0.0928138528 -5.02753247,13.6599134 11.4469264,24.4200866 C11.4469264,24.4200866 20.498355,29.2211255 32.2240693,27.7011255 C32.0124675,27.1168831 31.0593939,24.2677056 31.0580087,20.2961039" id="path-16"></path>
        <linearGradient x1="85.1354092%" y1="46.6280081%" x2="8.98930541%" y2="52.4357102%" id="linearGradient-18">
            <stop stop-color="#478ABD" offset="0%"></stop>
            <stop stop-color="#152154" offset="100%"></stop>
        </linearGradient>
        <path d="M23.5719481,0.107359307 C22.2760173,1.67965368 16.1187879,8.13160173 5.8434632,8.13991342 C4.18943723,8.13991342 2.43324675,7.97229437 0.577316017,7.58822511 L0.489004329,7.56779221 C0.14995671,8.81108225 -0.12952381,12.3321212 4.88692641,17.7395671 C11.235671,24.5894372 16.0522944,33.412987 15.1432035,40.7227706 C15.1432035,40.7227706 30.0495238,39.4039827 31.128658,19.7551515 C31.128658,19.7551515 30.7608658,9.50580087 23.5719481,0.107359307" id="path-19"></path>
        <linearGradient x1="47.6405596%" y1="18.5616105%" x2="58.4523905%" y2="90.5248258%" id="linearGradient-21">
            <stop stop-color="#478ABD" offset="0%"></stop>
            <stop stop-color="#152154" offset="100%"></stop>
        </linearGradient>
    </defs>
    <g id="Pictures" stroke="none" stroke-width="1" fill="none" fill-rule="evenodd">
        <g id="Group-6">
            <path d="M106.907013,29.4022511 L108.776797,29.4022511 C109.74684,29.4022511 110.482771,29.2062338 110.984589,28.8135065 C111.4871,28.4211255 111.738182,27.8209524 111.738182,27.0126407 C111.738182,26.1811255 111.4871,25.5812987 110.984589,25.2114286 C110.482771,24.8422511 109.74684,24.6576623 108.776797,24.6576623 L106.907013,24.6576623 L106.907013,29.4022511 Z M106.907013,35.324329 L105.348571,35.324329 L105.348571,23.2031169 L108.915325,23.2031169 C109.607965,23.2031169 110.228571,23.2754978 110.776797,23.4195671 C111.325022,23.5639827 111.795671,23.7918615 112.188398,24.1032035 C112.580433,24.4152381 112.881039,24.807619 113.088831,25.281039 C113.296623,25.7544589 113.400519,26.32 113.400519,26.9780087 C113.400519,28.2361905 112.993593,29.1972294 112.17974,29.8607792 C111.365887,30.5250216 110.231688,30.8564502 108.776797,30.8564502 L106.907013,30.8564502 L106.907013,35.324329 L106.907013,35.324329 Z" id="Fill-1" fill="#343534"></path>
            <path d="M122.508398,34.0425974 C123.651255,34.0425974 124.548571,33.6419048 125.201039,32.8394805 C125.85316,32.0370563 126.179394,30.845368 126.179394,29.2637229 C126.179394,28.4322078 126.090043,27.71671 125.910996,27.1161905 C125.731948,26.5163636 125.474978,26.0200866 125.140433,25.6273593 C124.805541,25.2349784 124.398615,24.9461472 123.919654,24.7615584 C123.440346,24.5766234 122.900779,24.4845022 122.300606,24.4845022 C121.769697,24.4845022 121.273074,24.5825108 120.811429,24.7785281 C120.349437,24.9752381 119.951515,25.2692641 119.616623,25.661645 C119.281732,26.0543723 119.016104,26.5509957 118.820087,27.1511688 C118.623723,27.751342 118.525714,28.4557576 118.525714,29.2637229 C118.525714,30.0599134 118.620952,30.7587879 118.811429,31.3586147 C119.001905,31.9591342 119.270303,32.4581818 119.616623,32.8567965 C119.962944,33.2550649 120.381299,33.5525541 120.872035,33.7485714 C121.362424,33.9449351 121.907879,34.0425974 122.508398,34.0425974 Z M122.352554,35.4974892 C121.509957,35.4974892 120.750823,35.3530736 120.075498,35.0645887 C119.400173,34.7761039 118.822857,34.3629437 118.343896,33.8261472 C117.864935,33.289697 117.498182,32.6344589 117.244329,31.8611255 C116.99013,31.0877922 116.863377,30.2219913 116.863377,29.2637229 C116.863377,28.294026 116.996017,27.4254545 117.261645,26.657316 C117.527273,25.8902165 117.899221,25.2377489 118.378528,24.7009524 C118.857489,24.1641558 119.432035,23.7516883 120.101472,23.4628571 C120.770909,23.1743723 121.504069,23.0299567 122.300606,23.0299567 C123.201039,23.0299567 123.994459,23.1830303 124.681558,23.4888312 C125.368312,23.7949784 125.945628,24.2219913 126.41316,24.7702165 C126.880693,25.3184416 127.235671,25.9764502 127.478095,26.7438961 C127.720519,27.5120346 127.841732,28.3518615 127.841732,29.2637229 C127.841732,30.2909091 127.703203,31.1944589 127.426147,31.9736797 C127.149091,32.7529004 126.768139,33.4022511 126.28329,33.9217316 C125.798442,34.4412121 125.221126,34.8339394 124.551688,35.0988745 C123.882251,35.3645022 123.149091,35.4974892 122.352554,35.4974892 L122.352554,35.4974892 Z" id="Fill-2" fill="#343534"></path>
            <path d="M140.343896,34.9953247 C140.009004,35.1570563 139.616623,35.281039 139.166407,35.367619 C138.71619,35.4541991 138.225455,35.4974892 137.694545,35.4974892 C136.747706,35.4974892 135.902338,35.3561905 135.157749,35.0732468 C134.41316,34.7906494 133.781126,34.3833766 133.261645,33.8524675 C132.742165,33.3212121 132.343896,32.6836364 132.06684,31.9387013 C131.789784,31.1944589 131.651255,30.354632 131.651255,29.4195671 C131.651255,28.3920346 131.789784,27.4798268 132.06684,26.68329 C132.343896,25.8870996 132.742165,25.2176623 133.261645,24.6749784 C133.781126,24.1322944 134.407273,23.7225974 135.140433,23.4455411 C135.873247,23.1684848 136.690216,23.0299567 137.590649,23.0299567 C138.28329,23.0299567 138.846061,23.0791342 139.278961,23.1767965 C139.711861,23.2754978 140.072381,23.3821645 140.361212,23.4971429 L140.06684,24.8651082 C139.685887,24.7269264 139.299048,24.6289177 138.906667,24.5710823 C138.513939,24.5132468 138.127446,24.4845022 137.746494,24.4845022 C136.30303,24.4845022 135.20381,24.888658 134.447792,25.6966234 C133.691429,26.5045887 133.313593,27.6935065 133.313593,29.2637229 C133.313593,30.0141991 133.42026,30.6864069 133.633939,31.281039 C133.847273,31.875671 134.150303,32.3778355 134.54303,32.7871861 C134.935411,33.1972294 135.414372,33.5089177 135.98026,33.7225974 C136.545801,33.9362771 137.186494,34.0425974 137.902338,34.0425974 C138.28329,34.0425974 138.667013,34.0083117 139.053853,33.9390476 C139.440346,33.8694372 139.783896,33.76 140.084156,33.609697 L140.343896,34.9953247" id="Fill-3" fill="#343534"></path>
            <path d="M145.572987,28.3283117 L150.64658,28.3283117 C150.611948,27.6706494 150.487619,27.1019913 150.274286,26.6230303 C150.060606,26.1440693 149.769351,25.7454545 149.399827,25.4278788 C149.030303,25.1109957 148.594632,24.8741126 148.092468,24.7182684 C147.590303,24.5620779 147.038961,24.4845022 146.438788,24.4845022 C146.092468,24.4845022 145.682424,24.5132468 145.209351,24.5710823 C144.735931,24.6289177 144.285714,24.7442424 143.858701,24.9174026 L143.564329,23.652987 C143.864242,23.4919481 144.30026,23.3475325 144.871688,23.2200866 C145.443117,23.0933333 146.040519,23.0299567 146.663896,23.0299567 C147.529697,23.0299567 148.314459,23.1480519 149.018874,23.3849351 C149.722944,23.6218182 150.320346,23.9882251 150.811082,24.4845022 C151.301472,24.9811255 151.679654,25.6131602 151.945281,26.3802597 C152.210563,27.1483983 152.34355,28.0574892 152.34355,29.1075325 C152.34355,30.1007792 152.21645,30.9925541 151.962597,31.7832035 C151.708745,32.5738528 151.324675,33.2436364 150.811082,33.7918615 C150.297489,34.3400866 149.659567,34.7615584 148.897662,35.0555844 C148.135758,35.350303 147.246753,35.4974892 146.230996,35.4974892 C145.595844,35.4974892 145.070823,35.4510823 144.655238,35.3586147 C144.239654,35.2668398 143.887446,35.1743723 143.598961,35.0819048 L143.893333,33.7135931 C144.262857,33.8406926 144.661126,33.9272727 145.088139,33.9733333 C145.515152,34.0197403 145.896104,34.0425974 146.230996,34.0425974 C147.558442,34.0425974 148.620606,33.6907359 149.417143,32.9866667 C150.21368,32.2822511 150.629264,31.2027706 150.663896,29.7485714 L145.572987,29.7485714 L145.572987,28.3283117" id="Fill-4" fill="#343534"></path>
            <polyline id="Fill-5" fill="#343534" points="165.919307 35.324329 164.360866 35.324329 164.360866 29.7485714 158.230996 29.7485714 158.230996 35.324329 156.672554 35.324329 156.672554 23.2031169 158.230996 23.2031169 158.230996 28.3283117 164.360866 28.3283117 164.360866 23.2031169 165.919307 23.2031169 165.919307 35.324329"></polyline>
            <polyline id="Fill-6" fill="#343534" points="177.538009 35.324329 170.767446 35.324329 170.767446 23.2031169 177.538009 23.2031169 177.538009 24.6576623 172.325887 24.6576623 172.325887 28.3283117 177.087792 28.3283117 177.087792 29.7485714 172.325887 29.7485714 172.325887 33.8694372 177.538009 33.8694372 177.538009 35.324329"></polyline>
            <path d="M183.512035,29.4022511 L185.382165,29.4022511 C186.351861,29.4022511 187.087792,29.2062338 187.589957,28.8135065 C188.092121,28.4211255 188.343203,27.8209524 188.343203,27.0126407 C188.343203,26.1811255 188.092121,25.5812987 187.589957,25.2114286 C187.087792,24.8422511 186.351861,24.6576623 185.382165,24.6576623 L183.512035,24.6576623 L183.512035,29.4022511 Z M183.512035,35.324329 L181.953593,35.324329 L181.953593,23.2031169 L185.520693,23.2031169 C186.213333,23.2031169 186.833593,23.2754978 187.382165,23.4195671 C187.93039,23.5639827 188.400693,23.7918615 188.79342,24.1032035 C189.185801,24.4152381 189.486061,24.807619 189.693853,25.281039 C189.901645,25.7544589 190.005541,26.32 190.005541,26.9780087 C190.005541,28.2361905 189.598615,29.1972294 188.784762,29.8607792 C187.970909,30.5250216 186.83671,30.8564502 185.382165,30.8564502 L183.512035,30.8564502 L183.512035,35.324329 L183.512035,35.324329 Z" id="Fill-7" fill="#343534"></path>
            <polyline id="Fill-8" fill="#343534" points="195.54632 35.324329 193.987879 35.324329 193.987879 23.2031169 200.412121 23.2031169 200.412121 24.6576623 195.54632 24.6576623 195.54632 35.324329"></polyline>
            <path d="M208.567965,34.0425974 C209.710823,34.0425974 210.608485,33.6419048 211.260606,32.8394805 C211.912727,32.0370563 212.238961,30.845368 212.238961,29.2637229 C212.238961,28.4322078 212.14961,27.71671 211.970563,27.1161905 C211.791515,26.5163636 211.534545,26.0200866 211.2,25.6273593 C210.865108,25.2349784 210.458182,24.9461472 209.979221,24.7615584 C209.499913,24.5766234 208.960346,24.4845022 208.360173,24.4845022 C207.829264,24.4845022 207.332641,24.5825108 206.870996,24.7785281 C206.409351,24.9752381 206.011082,25.2692641 205.67619,25.661645 C205.341299,26.0543723 205.075671,26.5509957 204.879654,27.1511688 C204.68329,27.751342 204.585281,28.4557576 204.585281,29.2637229 C204.585281,30.0599134 204.680519,30.7587879 204.870996,31.3586147 C205.061472,31.9591342 205.32987,32.4581818 205.67619,32.8567965 C206.022511,33.2550649 206.440866,33.5525541 206.931602,33.7485714 C207.421991,33.9449351 207.967792,34.0425974 208.567965,34.0425974 Z M208.412121,35.4974892 C207.569524,35.4974892 206.81039,35.3530736 206.135065,35.0645887 C205.45974,34.7761039 204.882424,34.3629437 204.403463,33.8261472 C203.924502,33.289697 203.557749,32.6344589 203.303896,31.8611255 C203.049697,31.0877922 202.922944,30.2219913 202.922944,29.2637229 C202.922944,28.294026 203.055584,27.4254545 203.321212,26.657316 C203.58684,25.8902165 203.958788,25.2377489 204.438095,24.7009524 C204.917056,24.1641558 205.491602,23.7516883 206.161039,23.4628571 C206.830476,23.1743723 207.563636,23.0299567 208.360173,23.0299567 C209.260606,23.0299567 210.054026,23.1830303 210.741126,23.4888312 C211.427879,23.7949784 212.005195,24.2219913 212.472727,24.7702165 C212.94026,25.3184416 213.295238,25.9764502 213.537662,26.7438961 C213.780087,27.5120346 213.901299,28.3518615 213.901299,29.2637229 C213.901299,30.2909091 213.762771,31.1944589 213.485714,31.9736797 C213.208658,32.7529004 212.827706,33.4022511 212.342857,33.9217316 C211.858009,34.4412121 211.280693,34.8339394 210.611255,35.0988745 C209.941818,35.3645022 209.208658,35.4974892 208.412121,35.4974892 L208.412121,35.4974892 Z" id="Fill-9" fill="#343534"></path>
            <path d="M219.927273,30.665974 L224.100779,30.665974 L222.074459,24.9690043 L222.005195,24.9690043 L219.927273,30.665974 Z M224.602597,32.0862338 L219.425455,32.0862338 L218.247619,35.324329 L216.671861,35.324329 L221.295238,23.2031169 L222.85368,23.2031169 L227.390823,35.324329 L225.762771,35.324329 L224.602597,32.0862338 L224.602597,32.0862338 Z" id="Fill-10" fill="#343534"></path>
            <polyline id="Fill-11" fill="#343534" points="233.918961 35.324329 232.360519 35.324329 232.360519 24.6576623 228.776104 24.6576623 228.776104 23.2031169 237.503377 23.2031169 237.503377 24.6576623 233.918961 24.6576623 233.918961 35.324329"></polyline>
            <path d="M245.918961,34.0425974 C247.061818,34.0425974 247.959134,33.6419048 248.611602,32.8394805 C249.263723,32.0370563 249.589957,30.845368 249.589957,29.2637229 C249.589957,28.4322078 249.50026,27.71671 249.321558,27.1161905 C249.142511,26.5163636 248.885541,26.0200866 248.550996,25.6273593 C248.215758,25.2349784 247.809177,24.9461472 247.330216,24.7615584 C246.850909,24.5766234 246.310996,24.4845022 245.711169,24.4845022 C245.179913,24.4845022 244.683636,24.5825108 244.221991,24.7785281 C243.76,24.9752381 243.361732,25.2692641 243.027186,25.661645 C242.692294,26.0543723 242.426667,26.5509957 242.230649,27.1511688 C242.034286,27.751342 241.936277,28.4557576 241.936277,29.2637229 C241.936277,30.0599134 242.031515,30.7587879 242.221991,31.3586147 C242.412468,31.9591342 242.680866,32.4581818 243.027186,32.8567965 C243.373506,33.2550649 243.791515,33.5525541 244.282597,33.7485714 C244.772987,33.9449351 245.318442,34.0425974 245.918961,34.0425974 Z M245.763117,35.4974892 C244.920173,35.4974892 244.161385,35.3530736 243.486061,35.0645887 C242.810736,34.7761039 242.233074,34.3629437 241.754459,33.8261472 C241.275152,33.289697 240.908745,32.6344589 240.654892,31.8611255 C240.400693,31.0877922 240.273939,30.2219913 240.273939,29.2637229 C240.273939,28.294026 240.40658,27.4254545 240.672208,26.657316 C240.937489,25.8902165 241.309784,25.2377489 241.789091,24.7009524 C242.268052,24.1641558 242.842251,23.7516883 243.512035,23.4628571 C244.181126,23.1743723 244.914632,23.0299567 245.711169,23.0299567 C246.611602,23.0299567 247.405022,23.1830303 248.092121,23.4888312 C248.778528,23.7949784 249.35619,24.2219913 249.823723,24.7702165 C250.291255,25.3184416 250.646234,25.9764502 250.888658,26.7438961 C251.131082,27.5120346 251.252294,28.3518615 251.252294,29.2637229 C251.252294,30.2909091 251.113766,31.1944589 250.83671,31.9736797 C250.559654,32.7529004 250.178701,33.4022511 249.693853,33.9217316 C249.209004,34.4412121 248.631688,34.8339394 247.962251,35.0988745 C247.292468,35.3645022 246.559654,35.4974892 245.763117,35.4974892 L245.763117,35.4974892 Z" id="Fill-12" fill="#343534"></path>
            <polyline id="Fill-13" fill="#343534" points="267.425455 35.324329 265.867013 35.324329 265.122078 25.8524675 262.057489 35.324329 260.429437 35.324329 257.382165 25.8870996 256.619913 35.324329 255.061472 35.324329 256.100433 23.2031169 258.005195 23.2031169 261.278268 33.627013 264.481732 23.2031169 266.386494 23.2031169 267.425455 35.324329"></polyline>
            <polygon id="Fill-14" fill="#343534" points="92.232381 73.5245022 93.0618182 73.5245022 93.0618182 6.55930736 92.232381 6.55930736"></polygon>
            <path d="M106.59671,53.287619 L108.094545,53.287619 C108.870996,53.287619 109.460779,53.1307359 109.862857,52.8162771 C110.264935,52.5021645 110.466494,52.0214719 110.466494,51.3738528 C110.466494,50.7078788 110.264935,50.2275325 109.862857,49.9310823 C109.460779,49.635671 108.870996,49.4877922 108.094545,49.4877922 L106.59671,49.4877922 L106.59671,53.287619 Z M106.59671,58.0311688 L105.348571,58.0311688 L105.348571,48.3224242 L108.205368,48.3224242 C108.760519,48.3224242 109.257143,48.3802597 109.696623,48.4959307 C110.135411,48.6116017 110.512554,48.7944589 110.826667,49.0434632 C111.141126,49.2935065 111.381472,49.6079654 111.547706,49.9871861 C111.714632,50.3664069 111.797749,50.8190476 111.797749,51.3461472 C111.797749,52.3539394 111.471861,53.1238095 110.81974,53.6554113 C110.168312,54.187013 109.259567,54.452987 108.094545,54.452987 L106.59671,54.452987 L106.59671,58.0311688 L106.59671,58.0311688 Z" id="Fill-15" fill="#1C558D"></path>
            <path d="M118.954113,57.0046753 C119.869784,57.0046753 120.588398,56.6836364 121.110996,56.0412121 C121.633247,55.3984416 121.894372,54.4436364 121.894372,53.1767965 C121.894372,52.5111688 121.82303,51.9380087 121.679307,51.4569697 C121.535931,50.9762771 121.330563,50.5790476 121.062511,50.2642424 C120.794113,49.9504762 120.468225,49.7187879 120.084502,49.5709091 C119.700779,49.4230303 119.268571,49.3489177 118.787879,49.3489177 C118.362597,49.3489177 117.965022,49.4275325 117.595152,49.5844156 C117.224935,49.7419913 116.90632,49.9778355 116.637922,50.2919481 C116.369524,50.6064069 116.157229,51.004329 116,51.4850216 C115.842771,51.9657143 115.764502,52.5295238 115.764502,53.1767965 C115.764502,53.8150649 115.840693,54.3747186 115.993074,54.8550649 C116.145801,55.3357576 116.360866,55.7357576 116.637922,56.0550649 C116.915671,56.3736797 117.250563,56.6119481 117.643636,56.7691775 C118.036364,56.9264069 118.473074,57.0046753 118.954113,57.0046753 Z M118.829784,58.1700433 C118.154805,58.1700433 117.54632,58.054026 117.005714,57.8230303 C116.465108,57.592381 116.002424,57.2612987 115.618701,56.8318615 C115.234978,56.4017316 114.941299,55.87671 114.738009,55.2571429 C114.534372,54.6379221 114.4329,53.9445887 114.4329,53.1767965 C114.4329,52.4 114.539221,51.7049351 114.751861,51.0898701 C114.964502,50.4748052 115.262684,49.9522078 115.646407,49.5224242 C116.03013,49.0922944 116.489697,48.7615584 117.026494,48.5305628 C117.562597,48.2995671 118.149957,48.1842424 118.787879,48.1842424 C119.508918,48.1842424 120.144762,48.3068398 120.695065,48.5516883 C121.244675,48.7965368 121.707359,49.1390476 122.082078,49.5778355 C122.456104,50.0169697 122.740433,50.5440693 122.934719,51.1587879 C123.129004,51.7741991 123.225974,52.4467532 123.225974,53.1767965 C123.225974,54 123.115152,54.7234632 122.893506,55.3471861 C122.671169,55.9716017 122.366061,56.4917749 121.977835,56.9077056 C121.589264,57.3239827 121.127273,57.6384416 120.590823,57.8510823 C120.054372,58.0633766 119.467706,58.1700433 118.829784,58.1700433 L118.829784,58.1700433 Z" id="Fill-16" fill="#1C558D"></path>
            <path d="M133.101299,57.767619 C132.8329,57.8974892 132.518442,57.9965368 132.157922,58.0658009 C131.797056,58.1354113 131.404329,58.1700433 130.979048,58.1700433 C130.220952,58.1700433 129.54355,58.0564502 128.947186,57.830303 C128.350823,57.6038095 127.844848,57.2779221 127.428571,56.8522944 C127.012294,56.427013 126.693333,55.9161905 126.471688,55.3198268 C126.249351,54.7234632 126.138528,54.0509091 126.138528,53.3018182 C126.138528,52.478961 126.249351,51.7485714 126.471688,51.1106494 C126.693333,50.4720346 127.012294,49.9362771 127.428571,49.501645 C127.844848,49.067013 128.345974,48.7387013 128.933333,48.51671 C129.520346,48.2950649 130.174892,48.1842424 130.895931,48.1842424 C131.45039,48.1842424 131.901299,48.2233766 132.247965,48.301645 C132.594978,48.3802597 132.883463,48.4658009 133.114805,48.5582684 L132.878961,49.654026 C132.573853,49.5432035 132.263896,49.4649351 131.95013,49.4181818 C131.635325,49.3721212 131.325714,49.3489177 131.02026,49.3489177 C129.864589,49.3489177 128.984242,49.6727273 128.378528,50.32 C127.772814,50.9669264 127.47013,51.9196537 127.47013,53.1767965 C127.47013,53.7780087 127.555671,54.3168831 127.726753,54.7930736 C127.897489,55.2689177 128.14026,55.6709957 128.454719,55.998961 C128.769177,56.327619 129.152554,56.577316 129.605887,56.7483983 C130.058874,56.9194805 130.572121,57.0046753 131.145281,57.0046753 C131.45039,57.0046753 131.757576,56.977316 132.067532,56.9219048 C132.377489,56.8658009 132.652468,56.7781818 132.892814,56.6580087 L133.101299,57.767619" id="Fill-17" fill="#1C558D"></path>
            <path d="M138.079654,54.3002597 L141.421991,54.3002597 L139.799134,49.7374892 L139.743723,49.7374892 L138.079654,54.3002597 Z M141.824069,55.4375758 L137.677576,55.4375758 L136.734199,58.0311688 L135.472208,58.0311688 L139.175411,48.3224242 L140.42355,48.3224242 L144.057489,58.0311688 L142.753593,58.0311688 L141.824069,55.4375758 L141.824069,55.4375758 Z" id="Fill-18" fill="#1C558D"></path>
            <polyline id="Fill-19" fill="#1C558D" points="149.147359 58.0311688 147.899221 58.0311688 147.899221 49.4877922 145.028225 49.4877922 145.028225 48.3224242 152.018355 48.3224242 152.018355 49.4877922 149.147359 49.4877922 149.147359 58.0311688"></polyline>
            <path d="M158.62026,57.0046753 C159.535931,57.0046753 160.254545,56.6836364 160.777143,56.0412121 C161.29974,55.3984416 161.560866,54.4436364 161.560866,53.1767965 C161.560866,52.5111688 161.489177,51.9380087 161.345801,51.4569697 C161.202078,50.9762771 160.997056,50.5790476 160.728658,50.2642424 C160.46026,49.9504762 160.134372,49.7187879 159.750996,49.5709091 C159.366926,49.4230303 158.934719,49.3489177 158.454026,49.3489177 C158.028745,49.3489177 157.631169,49.4275325 157.261299,49.5844156 C156.891429,49.7419913 156.572814,49.9778355 156.304416,50.2919481 C156.036017,50.6064069 155.823377,51.004329 155.666494,51.4850216 C155.508918,51.9657143 155.430649,52.5295238 155.430649,53.1767965 C155.430649,53.8150649 155.50684,54.3747186 155.659221,54.8550649 C155.811948,55.3357576 156.027013,55.7357576 156.304416,56.0550649 C156.582165,56.3736797 156.91671,56.6119481 157.31013,56.7691775 C157.702857,56.9264069 158.139567,57.0046753 158.62026,57.0046753 Z M158.495931,58.1700433 C157.820952,58.1700433 157.212468,58.054026 156.672208,57.8230303 C156.131255,57.592381 155.668571,57.2612987 155.284848,56.8318615 C154.901126,56.4017316 154.607446,55.87671 154.404156,55.2571429 C154.200866,54.6379221 154.099048,53.9445887 154.099048,53.1767965 C154.099048,52.4 154.205368,51.7049351 154.418355,51.0898701 C154.630649,50.4748052 154.929177,49.9522078 155.312554,49.5224242 C155.696277,49.0922944 156.15619,48.7615584 156.692987,48.5305628 C157.228745,48.2995671 157.816104,48.1842424 158.454026,48.1842424 C159.175411,48.1842424 159.810909,48.3068398 160.361212,48.5516883 C160.911169,48.7965368 161.373506,49.1390476 161.748225,49.5778355 C162.122597,50.0169697 162.406926,50.5440693 162.601212,51.1587879 C162.795498,51.7741991 162.892468,52.4467532 162.892468,53.1767965 C162.892468,54 162.781299,54.7234632 162.559654,55.3471861 C162.337316,55.9716017 162.032208,56.4917749 161.643983,56.9077056 C161.255758,57.3239827 160.79342,57.6384416 160.25697,57.8510823 C159.720866,58.0633766 159.133853,58.1700433 158.495931,58.1700433 L158.495931,58.1700433 Z" id="Fill-20" fill="#1C558D"></path>
            <polyline id="Fill-21" fill="#1C558D" points="175.707359 58.0311688 174.459567 58.0311688 173.862857 50.4446753 171.407792 58.0311688 170.104242 58.0311688 167.66303 50.4720346 167.053506 58.0311688 165.804675 58.0311688 166.636883 48.3224242 168.162424 48.3224242 170.784069 56.6722078 173.349957 48.3224242 174.875152 48.3224242 175.707359 58.0311688"></polyline>
            <g id="Group-24" transform="translate(31.861472, 31.515152)">
                <mask id="mask-2" fill="white">
                    <use xlink:href="#path-1"></use>
                </mask>
                <g id="Clip-23"></g>
                <path d="M14.6365368,14.1606926 C11.5331602,17.5948052 6.24450216,17.8562771 2.82008658,14.745974 C-0.605367965,11.635671 -0.870649351,6.32796537 2.22614719,2.89281385 C5.32813853,-0.542337662 10.6209524,-0.80034632 14.0450216,2.30926407 C17.4694372,5.4195671 17.7336797,10.7255411 14.6365368,14.1606926" id="Fill-22" fill="url(#radialGradient-3)" mask="url(#mask-2)"></path>
            </g>
            <g id="Group-27" transform="translate(16.277056, 0.000000)">
                <mask id="mask-5" fill="white">
                    <use xlink:href="#path-4"></use>
                </mask>
                <g id="Clip-26"></g>
                <polygon id="Fill-25" fill="url(#linearGradient-6)" mask="url(#mask-5)" points="-16.2770563 256.623377 555.037229 256.623377 555.037229 0.018008658 -16.2770563 0.018008658"></polygon>
            </g>
            <g id="Group-30" transform="translate(0.000000, 25.627706)">
                <mask id="mask-8" fill="white">
                    <use xlink:href="#path-7"></use>
                </mask>
                <g id="Clip-29"></g>
                <polygon id="Fill-28" fill="url(#linearGradient-9)" mask="url(#mask-8)" points="0 230.995671 571.314286 230.995671 571.314286 -25.609697 0 -25.609697"></polygon>
            </g>
            <g id="Group-33" transform="translate(45.367965, 35.324675)">
                <mask id="mask-11" fill="white">
                    <use xlink:href="#path-10"></use>
                </mask>
                <g id="Clip-32"></g>
                <path d="M18.2600866,20.9825108 C17.3104762,21.2464069 16.3764502,21.4517749 15.4732468,21.6117749 C10.2954113,22.5101299 6.07619048,21.8926407 6.07619048,21.8926407 C4.65558442,23.5522078 3.55844156,25.2370563 2.70164502,26.9025108 C2.64935065,27.0105628 2.59220779,27.1089177 2.53748918,27.2200866 C2.49004329,27.3212121 2.44952381,27.4174892 2.4017316,27.5179221 C0.652813853,31.2924675 -0.660779221,36.7463203 1.15012987,43.4715152 C1.21073593,43.7018182 1.28450216,43.9376623 1.35376623,44.1728139 C2.5208658,43.9681385 3.68935065,43.7350649 4.85541126,43.4258009 C24.3355844,38.1724675 36.5645022,19.4784416 34.2455411,0.0148917749 C33.2567965,13.6664935 25.4254545,18.9984416 18.2600866,20.9825108" id="Fill-31" fill="url(#linearGradient-12)" mask="url(#mask-11)"></path>
            </g>
            <g id="Group-36" transform="translate(2.770563, 4.502165)">
                <mask id="mask-14" fill="white">
                    <use xlink:href="#path-13"></use>
                </mask>
                <g id="Clip-35"></g>
                <polygon id="Fill-34" fill="url(#linearGradient-15)" mask="url(#mask-14)" points="-2.77056277 252.121212 568.543723 252.121212 568.543723 -4.48415584 -2.77056277 -4.48415584"></polygon>
            </g>
            <g id="Group-39" transform="translate(12.813853, 51.948052)">
                <mask id="mask-17" fill="white">
                    <use xlink:href="#path-16"></use>
                </mask>
                <g id="Clip-38"></g>
                <path d="M31.0580087,20.2961039 C31.0555844,15.7714286 32.3120346,9.7821645 37.3381818,4.13991342 L37.3939394,4.05298701 C36.5741991,3.17645022 33.7018182,1.01679654 26.3154978,2.69991342 C17.2083117,4.77714286 7.1591342,4.5361039 1.2834632,0.0928138528 C1.2834632,0.0928138528 -5.02753247,13.6599134 11.4469264,24.4200866 C11.4469264,24.4200866 20.498355,29.2211255 32.2240693,27.7011255 C32.0124675,27.1168831 31.0593939,24.2677056 31.0580087,20.2961039" id="Fill-37" fill="url(#linearGradient-18)" mask="url(#mask-17)"></path>
            </g>
            <g id="Group-42" transform="translate(48.484848, 15.584416)">
                <mask id="mask-20" fill="white">
                    <use xlink:href="#path-19"></use>
                </mask>
                <g id="Clip-41"></g>
                <path d="M23.5719481,0.107359307 C22.2760173,1.67965368 16.1187879,8.13160173 5.8434632,8.13991342 C4.18943723,8.13991342 2.43324675,7.97229437 0.577316017,7.58822511 L0.489004329,7.56779221 C0.14995671,8.81108225 -0.12952381,12.3321212 4.88692641,17.7395671 C11.235671,24.5894372 16.0522944,33.412987 15.1432035,40.7227706 C15.1432035,40.7227706 30.0495238,39.4039827 31.128658,19.7551515 C31.128658,19.7551515 30.7608658,9.50580087 23.5719481,0.107359307" id="Fill-40" fill="url(#linearGradient-21)" mask="url(#mask-20)"></path>
            </g>
        </g>
    </g>
</svg>