<?xml version="1.0" encoding="UTF-8"?>
<svg width="164px" height="136px" viewBox="0 0 164 136" version="1.1" xmlns="http://www.w3.org/2000/svg" xmlns:xlink="http://www.w3.org/1999/xlink">
    <title>Group 5@1,5x</title>
    <defs>
        <linearGradient x1="53.5488531%" y1="11.9534938%" x2="49.2529147%" y2="96.2451122%" id="linearGradient-1">
            <stop stop-color="#1CE486" offset="0%"></stop>
            <stop stop-color="#1966DF" offset="100%"></stop>
        </linearGradient>
        <linearGradient x1="55.8493884%" y1="59.1158134%" x2="14.8596404%" y2="-18.960996%" id="linearGradient-2">
            <stop stop-color="#FF9500" offset="0%"></stop>
            <stop stop-color="#FFC33F" offset="100%"></stop>
        </linearGradient>
        <linearGradient x1="57.9598294%" y1="25.5544736%" x2="35.8696736%" y2="66.1950073%" id="linearGradient-3">
            <stop stop-color="#240070" offset="0%"></stop>
            <stop stop-color="#7100BB" offset="19.0297361%"></stop>
            <stop stop-color="#4400AB" offset="80.240041%"></stop>
            <stop stop-color="#040162" offset="100%"></stop>
        </linearGradient>
        <linearGradient x1="60.8915096%" y1="27.4121273%" x2="50%" y2="66.4055334%" id="linearGradient-4">
            <stop stop-color="#000384" offset="0%"></stop>
            <stop stop-color="#006ED8" offset="100%"></stop>
        </linearGradient>
        <linearGradient x1="79.5044936%" y1="53.6644103%" x2="55.9031831%" y2="62.5057986%" id="linearGradient-5">
            <stop stop-color="#2E018E" offset="0%"></stop>
            <stop stop-color="#FF0159" offset="100%"></stop>
        </linearGradient>
        <linearGradient x1="64.9319339%" y1="41.08102%" x2="42.2943216%" y2="50%" id="linearGradient-6">
            <stop stop-color="#B00008" offset="0%"></stop>
            <stop stop-color="#F5003E" offset="100%"></stop>
        </linearGradient>
    </defs>
    <g id="Pictures" stroke="none" stroke-width="1" fill="none" fill-rule="evenodd">
        <g id="Group-5" transform="translate(0.131301, 0.000000)">
            <path d="M120.562016,20.9012393 C113.954158,11.9819861 123.310058,9.01249584 128.73227,7.03040796 C130.871341,6.24847111 141.058793,3.88497705 146.215638,6.49093292 C151.372482,9.09688878 163.215762,25.2461636 163.215762,55.588849 C163.215762,74.9868393 156.077856,91.2647249 137.508939,107.539353 C137.209801,107.801531 136.736798,108.162951 136.08993,108.623611 C136.208314,108.139451 136.341284,107.778031 136.488839,107.539353 C146.107735,91.9803708 149.702931,76.2483689 146.712737,61.019636 C141.365766,33.7880981 127.169875,29.8204925 120.562016,20.9012393 Z" id="Rectangle-Copy-4" fill="url(#linearGradient-1)"></path>
            <path d="M76.0963721,24.0633343 C75.5247126,18.5720259 77.5150019,1.92270772 82.7529429,0.327375892 C88.3338668,-1.37241902 95.1917697,3.95584486 98.8546481,6.91240926 C102.527756,9.87723044 105.127432,12.4031342 104.341821,18.1308535 C103.556211,23.8585728 101.760775,23.336045 101.792599,28.8074593 C101.840347,37.0165087 106.392685,43.7452078 109.952115,49.4969288 C114.4766,56.8080945 121.647156,58.3010712 120.788349,61.196034 C119.229152,66.4519496 110.32374,74.4812227 96.2309997,62.4578818 C82.1382596,50.4345409 77.1933818,34.6011079 76.0963721,24.0633343 Z" id="Rectangle" fill="#FFC33F"></path>
            <path d="M76.0963721,24.0633343 C76.0016358,20.7008341 76.0752474,18.6301777 76.3836788,16.0288948 C76.8457456,15.8148778 76.621111,20.1974028 76.999381,24.5910318 C78.1909815,38.4315442 90.4011981,54.2420465 93.3550386,57.5140319 C97.7688123,62.4031935 107.143585,69.5080314 111.581415,66.3621262 C112.492204,65.7164827 114.666285,67.2479321 113.314248,68.1174063 C111.375258,69.3643413 104.534087,69.5417312 96.2309997,62.4578818 C82.1382596,50.4345409 76.3953521,34.6751164 76.0963721,24.0633343 Z" id="Rectangle-Copy" fill="#FF9500"></path>
            <path d="M111.581415,66.3621262 C113.710592,64.5869756 110.632583,63.0691028 109.695631,60.7329076 C107.077998,54.2061077 111.631097,51.8957751 112.535513,52.8631657 C116.756991,57.3785839 121.495627,58.8118604 120.788349,61.196034 C119.922384,64.1151272 116.790403,67.889691 111.76226,68.6092636 C111.445699,68.6545663 111.854747,67.1735648 111.581415,67.21417 C108.379231,67.6898741 109.988868,67.6898741 111.581415,66.3621262 Z" id="Rectangle-Copy-2" fill="url(#linearGradient-2)"></path>
            <path d="M126.218203,56.6043054 C126.3456,53.0383283 126.959973,50.4732231 131.699639,47.2640063 C134.553924,45.3313761 136.535189,44.1109478 137.649185,43.7680728 C137.768415,43.7313752 137.892582,43.6682507 137.979849,43.7680728 C142.100222,50.565717 146.292814,63.6398305 146.02504,66.1990372 C145.824818,68.112627 139.09908,75.6767691 134.604618,80.1035291 C132.619622,82.0586237 130.067549,83.7975213 130.067549,83.3967322 C130.067549,82.4487091 134.857975,75.6173137 132.992145,69.4734066 C131.126314,63.3294995 126.090807,60.1702825 126.218203,56.6043054 Z" id="Rectangle-Copy-5" fill="url(#linearGradient-3)"></path>
            <path d="M105.054969,114.07971 C110.80414,112.247543 110.316492,113.327168 120.29249,110.658 C130.268487,107.988832 143.246957,95.2902094 143.392108,95.3772752 C143.537258,95.4643409 136.66318,110.063204 132.490386,115.132719 C128.317593,120.202234 124.119318,124.225988 115.503977,128.653645 C106.888636,133.081302 101.292915,134.083186 97.1746512,133.726283 C93.0563871,133.36938 91.0514461,132.098226 90.5564173,128.795907 C90.0613885,125.493587 99.3057984,115.911878 105.054969,114.07971 Z" id="Rectangle-Copy-6" fill="url(#linearGradient-4)"></path>
            <path d="M53.7834087,52.3659351 C56.524619,49.7522584 65.0265032,46.2510198 70.2802069,48.5698799 C73.50195,49.9918808 80.2595614,58.8579872 89.3222669,67.2088189 C98.3849724,75.5596507 111.853774,80.816982 119.002257,81.8215138 C125.926903,82.7945912 129.671901,80.1952022 130.097025,80.4762212 C130.52215,80.7572402 123.140546,91.6417933 107.400698,91.3477119 C91.6608501,91.0536305 74.2940993,91.3161668 58.3041546,77.2180759 C42.31421,63.1199851 49.0525604,56.8766826 53.7834087,52.3659351 Z" id="Rectangle-Copy-7" fill="url(#linearGradient-5)"></path>
            <path d="M53.8857201,52.2711312 C56.6269305,49.6574545 65.2421961,46.2510198 70.4958997,48.5698799 C73.2386601,49.7804692 78.5401644,56.6218141 85.6488352,63.7117736 C86.8902601,64.9499307 80.0967722,64.3132912 78.0446355,63.3115954 C66.0247672,57.4444171 69.8136583,51.0577875 61.746392,49.7559785 C59.687809,49.4237865 52.4938937,53.5982035 53.8857201,52.2711312 Z" id="Rectangle-Copy-8" fill="url(#linearGradient-6)"></path>
            <path d="M77.8286371,96.7359615 C78.3652737,97.291629 78.6450815,98.0379823 78.6027271,98.8007528 L78.6027271,132.564452 C78.6482329,133.290911 78.3904364,134.004378 77.8881825,134.541998 C77.3709858,135.031043 76.6723545,135.29351 75.9529574,135.269037 C75.257479,135.307503 74.5806841,135.040936 74.1070504,134.541998 C73.626672,133.993505 73.3813915,133.285162 73.4222785,132.564452 L73.4222785,107.001755 L62.3766092,127.504259 C61.6620645,128.783848 60.739111,129.423643 59.6077487,129.423643 C58.4763863,129.423643 57.5534328,128.783848 56.8388882,127.504259 L45.7336735,107.205326 L45.7336735,132.564452 C45.7745604,133.285162 45.5292799,133.993505 45.0489015,134.541998 C44.5467991,135.035471 43.855044,135.299415 43.1434491,135.269037 C42.4350965,135.297103 41.7496809,135.020799 41.2677695,134.512917 C40.7750978,133.981324 40.5181617,133.280695 40.5532248,132.564452 L40.5532248,98.8007528 C40.52466,98.0400566 40.8025781,97.2987437 41.3273148,96.7359615 C41.8603935,96.2096993 42.5943947,95.925023 43.351858,95.9507592 C44.5129931,95.9507592 45.4657192,96.6196353 46.1802639,97.9283058 L59.6375214,123.054779 L72.975688,97.9283058 C73.6902327,96.6196353 74.6131862,95.9507592 75.7445485,95.9507592 C76.5223975,95.9083322 77.2814311,96.1943061 77.8286371,96.7359615 L77.8286371,96.7359615 Z" id="Path" fill="#212121" fill-rule="nonzero"></path>
            <path d="M28.7036928,118.401729 C29.9541459,120.001215 30.5793725,122.036925 30.5793725,124.450695 C30.5793725,127.795075 29.4182374,130.383334 27.0661947,132.244554 C24.7141519,134.105775 21.4391556,135.036385 17.2412058,135.036385 L2.89076752,135.036385 C2.11034301,135.074685 1.34744824,134.8018 0.776906279,134.280264 C0.248357747,133.743207 -0.0314612291,133.017849 0.00281624746,132.273636 L0.00281624746,98.9752422 C-0.0314612291,98.2310291 0.248357747,97.5056708 0.776906279,96.9686141 C1.34744824,96.447078 2.11034301,96.1741932 2.89076752,96.2124933 L16.6159792,96.2124933 C20.6948382,96.2124933 23.9102891,97.1140219 26.2027865,98.8879975 C28.4952839,100.661973 29.656419,103.162988 29.656419,106.332879 C29.702785,108.236064 29.1179414,110.102884 27.9891482,111.654805 C26.8268398,113.206634 25.2060406,114.373718 23.344608,114.999185 C25.6668781,115.668061 27.423467,116.773161 28.7036928,118.401729 Z M5.68940071,112.992557 L15.7227984,112.992557 C21.2902921,112.992557 24.0591526,110.927766 24.0591526,106.827265 C24.0591526,104.762474 23.3743807,103.250232 22.0048368,102.261459 C20.6352929,101.272686 18.5512043,100.778299 15.7227984,100.778299 L5.68940071,100.778299 L5.68940071,112.992557 Z M22.9873356,128.900174 C24.3271068,127.882319 25.0118788,126.282833 25.0118788,124.101716 C25.0118788,121.920598 24.3271068,120.262949 22.9575629,119.186931 C21.588019,118.110913 19.4741578,117.558363 16.6159792,117.558363 L5.68940071,117.558363 L5.68940071,130.441497 L16.6159792,130.441497 C19.5039305,130.441497 21.6177917,129.918029 22.9873356,128.900174 Z" id="Shape" fill="#212121" fill-rule="nonzero"></path>
        </g>
    </g>
</svg>