<?xml version="1.0" encoding="UTF-8"?>
<svg width="228px" height="38px" viewBox="0 0 228 38" version="1.1" xmlns="http://www.w3.org/2000/svg" xmlns:xlink="http://www.w3.org/1999/xlink">
    <title>Group 22 Copy</title>
    <defs>
        <polygon id="path-1" points="16.0724545 35.0442215 16.0724545 0.0400167357 0.115033856 0.0400167357 0.115033856 35.0442215"></polygon>
        <polygon id="path-3" points="17.3946215 0.0354185395 0.0964540732 0.0354185395 0.0964540732 35.0443083 17.3946215 35.0443083"></polygon>
        <polygon id="path-5" points="17.2981046 0.0354185395 0 0.0354185395 0 35.0456879 17.2981046 35.0456879"></polygon>
    </defs>
    <g id="Pictures" stroke="none" stroke-width="1" fill="none" fill-rule="evenodd">
        <g id="runmates-logo-copy" transform="translate(0.742087, 0.501758)">
            <polygon id="Fill-1" fill="#B042D8" fill-rule="nonzero" points="155.449457 0.127370039 155.449457 5.29599128 161.847611 5.29599128 161.847611 35.1330659 167.070552 35.1330659 167.070552 5.29599128 173.46858 5.29599128 173.46858 0.127370039"></polygon>
            <polygon id="Fill-2" fill="#B042D8" fill-rule="nonzero" points="183.575103 0.127370039 183.575103 35.1330659 198.440939 35.1330659 198.440939 29.9659361 188.799551 29.9659361 188.799551 20.2145286 196.864233 20.2145286 196.864233 15.0473987 188.799551 15.0473987 188.799551 5.29599128 198.440939 5.29599128 198.440939 0.127370039"></polygon>
            <polygon id="Fill-3" fill="#B042D8" fill-rule="nonzero" points="71.6523116 0.127370039 71.6523116 19.4980799 64.801786 0.128985621 58.7866596 0.127370039 58.7866596 35.1330659 64.010355 35.1330659 64.010355 13.5272599 71.6523116 35.1330659 76.8752531 35.1330659 76.8752531 0.127370039"></polygon>
            <polygon id="Fill-4" fill="#B042D8" fill-rule="nonzero" points="109.336973 0.127370039 102.724254 24.0695571 96.108645 0.127370039 90.8858291 0.127370039 90.8858291 35.1330659 96.108645 35.1330659 96.108645 19.7620412 100.34682 35.1330659 105.101562 35.1330659 109.336973 19.7685035 109.336973 35.1330659 114.559664 35.1330659 114.559664 0.127370039"></polygon>
            <g id="Group-16" transform="translate(0.000000, 0.088857)">
                <g id="Fill-5-Clipped" transform="translate(208.912639, 0.000000)">
                    <mask id="mask-2" fill="white">
                        <use xlink:href="#path-1"></use>
                    </mask>
                    <g id="path-1"></g>
                    <path d="M7.89517668,20.6867882 C10.3528838,21.8720045 10.8496009,22.3581705 10.8496009,23.5769411 L10.8496009,28.2380209 C10.8496009,29.1431198 10.1075402,29.8770914 9.19249527,29.8770914 L6.99445292,29.8770914 C6.08041302,29.8770914 5.33835231,29.1431198 5.33835231,28.2380209 L5.33835231,23.6091285 L0.115033856,23.6091285 L0.116038848,28.231807 C0.116038848,31.9935046 3.19834822,35.0442215 7.00161349,35.0442215 L9.18621407,35.0442215 C12.9899818,35.0442215 16.0725424,31.9935046 16.0725424,28.231807 L16.0725424,23.5769411 C16.0725424,18.8962257 12.4088454,17.1147354 10.2045219,16.0519306 L8.29189713,14.9585541 C5.83519505,13.7719709 5.33835231,12.7259434 5.33835231,11.507297 L5.33835231,6.84634154 C5.33835231,5.94111823 6.08041302,5.2070224 6.99445292,5.2070224 L9.19249527,5.2070224 C10.1075402,5.2070224 10.8496009,5.94111823 10.8496009,6.84634154 L10.8496009,11.4751097 L16.0725424,11.4751097 L16.0725424,6.85243104 C16.0725424,3.09060932 12.9899818,0.0400167357 9.18621407,0.0400167357 L7.00161349,0.0400167357 C3.19834822,0.0400167357 0.116038848,3.09060932 0.116038848,6.85243104 L0.115033856,11.507297 C0.115033856,16.1865211 3.77835403,18.5765889 5.98242634,19.640885 L7.89517668,20.6867882 Z" id="Fill-5" fill="#B042D8" fill-rule="nonzero" mask="url(#mask-2)"></path>
                </g>
                <g id="Fill-8-Clipped" transform="translate(28.516638, 0.000000)">
                    <mask id="mask-4" fill="white">
                        <use xlink:href="#path-3"></use>
                    </mask>
                    <g id="path-3"></g>
                    <path d="M12.1709262,28.2379836 C12.1709262,29.1430825 11.4289911,29.8770542 10.5139462,29.8770542 L6.97650126,29.8770542 C6.06208449,29.8770542 5.3201494,29.1430825 5.3201494,28.2379836 L5.31939566,0.0353812567 L0.0964540732,0.0353812567 L0.0974590648,28.2317698 C0.0974590648,31.9935914 3.18014531,35.0443083 6.98341057,35.0443083 L10.507665,35.0443083 C14.3113072,35.0443083 17.3936165,31.9935914 17.3936165,28.2317698 L17.3946215,0.0353812567 L12.1709262,0.0353812567 L12.1709262,28.2379836 Z" id="Fill-8" fill="#B042D8" fill-rule="nonzero" mask="url(#mask-4)"></path>
                </g>
                <g id="Fill-11-Clipped">
                    <mask id="mask-6" fill="white">
                        <use xlink:href="#path-5"></use>
                    </mask>
                    <g id="path-5"></g>
                    <path d="M5.22363252,17.4879101 L5.22363252,5.20401492 L10.4184343,5.20401492 C11.3328511,5.20401492 12.0747862,5.93798648 12.0747862,6.84171848 L12.0747862,15.8485909 C12.0747862,16.7539385 11.3328511,17.4879101 10.4184343,17.4879101 L10.4122788,17.4879101 L5.22363252,17.4879101 Z M10.4122788,0.0368849912 L-6.28119778e-05,0.0353936843 L-6.28119778e-05,35.0412139 L5.22363252,35.0412139 L5.22363252,22.6549157 L10.4122788,22.6549157 L10.4184343,22.6549157 C11.3328511,22.6549157 12.0747862,23.3888873 12.0747862,24.2942349 L12.0747862,35.0456879 L17.2981046,35.0456879 L17.2981046,24.1376476 C17.2981046,22.3390073 16.2260298,20.7887937 14.6798502,20.0758247 C16.2260298,19.36298 17.2981046,17.8130149 17.2981046,16.0147474 L17.2981046,6.84942357 C17.2981046,3.08598628 14.2147903,0.0368849912 10.4122788,0.0368849912 L10.4122788,0.0368849912 Z" id="Fill-11" fill="#B042D8" fill-rule="nonzero" mask="url(#mask-6)"></path>
                </g>
                <path d="M135.179843,22.4163315 L137.906888,9.17365027 L140.634059,22.4163315 L135.179843,22.4163315 Z M143.2346,35.0442215 L148.565327,35.0442215 L141.356271,0.0385254288 L134.457631,0.0385254288 L127.249329,35.0442215 L132.579428,35.0442215 L134.115808,27.5833372 L141.698094,27.5833372 L143.2346,35.0442215 Z" id="Fill-14" fill="#B042D8" fill-rule="nonzero"></path>
            </g>
        </g>
    </g>
</svg>