<?xml version="1.0" encoding="UTF-8"?>
<svg width="237px" height="127px" viewBox="0 0 237 127" version="1.1" xmlns="http://www.w3.org/2000/svg" xmlns:xlink="http://www.w3.org/1999/xlink">
    <title>NLMK_Logo</title>
    <g id="Pictures" stroke="none" stroke-width="1" fill="none" fill-rule="evenodd">
        <g id="g11" fill="#004696" transform="translate(117.946781, 62.922541) scale(-1, 1) rotate(90.000000) translate(-117.946781, -62.922541) translate(55.118912, -54.772131)">
            <path d="M0.0817622951,117.75145 L0.0817622951,123.851386 L0.335926844,129.697158 C11.3285189,270.520976 114.137875,270.516741 125.130467,129.697158 L125.384631,123.851386 L125.384631,111.651513 C124.918664,76.24646 110.914224,14.0355781 72.264348,1.34432189 L69.2143777,0.581829959 L65.9102471,0.0735017213 C24.0706131,-2.43001371 3.83067971,61.4498773 1.35258074,94.1141939 L0.335926844,105.805737 L0.0817622951,111.651513 L0.0817622951,117.75145 Z M5.41920492,117.75145 L5.41920492,123.343057 L5.67336947,128.934668 C15.5391738,261.447323 110.126315,261.447323 119.793024,128.934668 L120.047189,123.343057 L120.047189,112.159838 C119.924339,79.57601 107.080584,20.2456525 71.5018543,8.20675094 L68.7060529,7.44425902 L65.6560826,7.1900949 C27.0189141,4.3900543 9.01139262,65.770666 6.43586311,95.3850123 L5.92753402,100.976624 L5.67336947,106.568231 L5.41920492,112.159838 L5.41920492,117.75145 Z M12.5357994,117.75145 L12.7899639,123.088892 L12.7899639,128.426339 C21.914451,251.894991 103.725618,251.933114 112.67643,128.426339 L112.930594,123.088892 L112.930594,112.414003 C112.714552,83.8840912 101.882929,26.4896152 70.4852004,15.5775074 L67.9435592,14.8150137 L65.401918,14.5608492 C30.5179057,11.9895588 15.721323,71.061517 13.5524576,96.9099996 L13.298293,101.993278 L12.7899639,107.07656 L12.7899639,112.414003 L12.5357994,117.75145 Z M10.2483227,117.75145 L10.2483227,123.088892 L10.5024873,128.426339 C19.4405908,254.618782 106.148648,254.623016 114.963906,128.426339 L115.218208,123.088892 L115.218208,112.414003 C115.264667,82.8335447 103.420624,24.3038035 70.739365,13.5441957 L68.1977238,12.7817034 L65.401918,12.2733756 C28.9590344,10.7441551 13.658357,68.6977906 11.2649809,96.4016705 L10.7566518,101.739113 L10.5024873,107.07656 L10.2483227,112.414003 L10.2483227,117.75145 Z M83.9558957,33.1148268 L41.7646623,33.1148268 L41.7646623,45.5688639 L66.6727408,61.3270316 L41.7646623,61.3270316 L41.7646623,72.7644148 L83.9558957,72.7644148 L83.9558957,60.5645422 L58.5394881,44.5522057 L83.9558957,44.5522057 L83.9558957,33.1148268 Z M83.9558957,80.6434986 L41.7646623,80.6434986 L41.7646623,92.5892109 L73.7893309,92.5892109 L73.7893309,105.297412 L83.9558957,105.297412 L83.9558957,80.6434986 Z M83.9558957,107.07656 L41.7646623,113.430661 L41.7646623,125.376369 L67.4352301,132.747128 L41.7646623,140.372047 L41.7646623,152.317759 L83.9558957,158.67186 L83.9558957,146.980312 L59.5561463,143.930342 L83.9558957,136.559587 L83.9558957,128.934668 L59.5561463,121.818074 L83.9558957,118.513939 L83.9558957,107.07656 Z M83.9558957,163.246809 L41.7646623,163.246809 L41.7646623,175.192522 L59.5561463,175.192522 L41.7646623,188.154888 L41.7646623,202.133908 L62.0977875,185.867411 L83.9558957,202.642237 L83.9558957,187.646559 L65.9102471,175.192522 L83.9558957,175.192522" id="path1181"></path>
        </g>
    </g>
</svg>