<?xml version="1.0" encoding="UTF-8"?>
<svg width="255px" height="113px" viewBox="0 0 255 113" version="1.1" xmlns="http://www.w3.org/2000/svg" xmlns:xlink="http://www.w3.org/1999/xlink">
    <title>Norilsk_Nickel_logo</title>
    <g id="Pictures" stroke="none" stroke-width="1" fill="none" fill-rule="evenodd">
        <g id="Norilsk_Nickel_logo">
            <path d="M130.015021,15.0157942 C130.015021,15.0157942 130.015021,14.8399771 56.8714621,64.0712323 C202.10366,64.2470582 202.10366,64.2470582 202.10366,64.2470582 L201.927845,64.2470582 L130.015021,15.0157942" id="path4209" stroke="#0000AA" fill="#0000AA"></path>
            <path d="M21.9138708,112.742373 C19.5125816,112.135939 17.73548,110.667041 16.7120862,108.442692 C15.8707973,106.614182 15.8486409,102.748543 16.6693132,100.973102 C17.4681945,99.2447397 18.9063484,97.769539 20.484747,97.0593771 C22.4584107,96.1713876 26.2097759,96.1734518 28.1888678,97.0636178 C31.010162,98.332587 32.7798777,101.260263 32.7798777,104.658624 C32.7798777,108.064674 30.9913722,111.021028 28.2059352,112.219295 C26.6671779,112.881251 23.5047699,113.144149 21.9138708,112.742373 Z M26.1085978,108.305839 C28.34605,106.941705 28.5802967,103.083527 26.5347096,101.287485 C24.7433334,99.7146239 21.9965461,100.442983 21.0342715,102.746025 C19.4923826,106.436289 22.9540449,110.22913 26.1085978,108.305839 Z M101.766247,112.741387 C99.568332,112.186898 97.9560595,110.803452 96.9086043,108.573177 C96.001577,106.641889 95.9395967,102.840337 96.7850089,100.991785 C97.5452927,99.3293252 98.8252461,97.9593268 100.381149,97.1426395 C101.515586,96.5471661 102.033272,96.444858 103.927731,96.4416839 C105.629396,96.4389236 106.38908,96.559617 107.189866,96.9600101 L108.233746,97.4819501 L108.308775,99.8959224 C108.35006,101.223607 108.308279,102.309895 108.215974,102.309895 C108.123643,102.309895 107.702881,102.019393 107.280919,101.664333 C106.203243,100.757528 104.649574,100.376653 103.532335,100.745374 C101.038298,101.568479 99.9673812,105.290691 101.620078,107.391771 C102.839878,108.942501 104.877792,109.25447 106.759814,108.178577 C107.384472,107.821474 108.001013,107.529297 108.129906,107.529297 C108.258773,107.529297 108.364231,108.533499 108.364231,109.760859 L108.364231,111.992418 L107.40227,112.394357 C106.223364,112.886927 103.104397,113.078975 101.766247,112.741387 Z M64.6301151,112.394996 C64.5554777,112.200461 64.5297983,111.291897 64.5730671,110.375963 L64.6517495,108.710627 L65.6436442,108.550342 C66.189202,108.462184 66.7763844,108.249537 66.9484941,108.077793 C67.1625417,107.864213 67.3026826,106.058123 67.3919343,102.362767 L67.5224193,96.9600101 L73.5247288,96.9600101 L79.5270382,96.9600101 L79.5270382,104.658624 L79.5270382,112.357241 L77.3087934,112.357241 L75.0905486,112.357241 L74.9600636,106.615899 L74.8295786,100.87456 L73.5247288,100.87456 L72.2198789,100.87456 L72.0893939,105.311049 C72.00711,108.108264 71.8405329,109.954105 71.6385682,110.306576 C71.1329911,111.188923 69.8122221,112.182324 68.7539105,112.476241 C67.3146089,112.875979 64.7956484,112.826351 64.6301151,112.394996 Z M224.604677,112.394996 C224.530014,112.200461 224.50436,111.291508 224.547629,110.375101 C224.615351,108.940672 224.698887,108.698051 225.148225,108.63088 C227.443952,108.287696 227.469214,108.220651 227.62744,102.048925 L227.757925,96.9600101 L233.499265,96.9600101 L239.240604,96.9600101 L239.240604,104.658624 L239.240604,112.357241 L237.152844,112.357241 L235.065084,112.357241 L234.934599,106.615899 L234.804114,100.87456 L233.499265,100.87456 L232.194415,100.87456 L232.06393,105.180564 C231.927234,109.69232 231.747217,110.443927 230.542109,111.534518 C229.719297,112.279154 228.177408,112.724679 226.379664,112.737242 C225.232623,112.745257 224.699644,112.642489 224.604677,112.394996 Z M0.184048554,112.169215 C0.112151326,111.98188 0.0845667991,108.483173 0.122746707,104.394306 L0.192164721,96.9600101 L2.27992454,96.9600101 L4.36768435,96.9600101 L4.49816934,99.5697099 L4.62865433,102.17941 L6.97738412,102.17941 L9.32611391,102.17941 L9.4565989,99.5697099 L9.58708389,96.9600101 L11.8053287,96.9600101 L14.0235735,96.9600101 L14.0235735,104.658624 L14.0235735,112.357241 L11.8053287,112.357241 L9.58708389,112.357241 L9.4565989,109.486572 L9.32611391,106.615899 L6.97738412,106.615899 L4.62865433,106.615899 L4.49816934,109.486572 L4.36768435,112.357241 L2.34120029,112.433533 C0.85852546,112.489352 0.279667954,112.418426 0.184048554,112.169215 Z M34.893056,112.169215 C34.8211588,111.98188 34.7935742,108.483173 34.8317542,104.394306 L34.9011722,96.9600101 L38.9538532,96.9600101 C42.7869281,96.9600101 43.0768396,96.9961284 44.3037378,97.6264988 C46.0716789,98.5348517 46.9050082,100.008831 46.8842089,102.190856 C46.8534666,105.416844 44.9922809,107.200227 41.3471828,107.496467 L39.3376618,107.659782 L39.2071768,110.008512 L39.0766918,112.357241 L37.0502077,112.433533 C35.5675329,112.489352 34.9886754,112.418426 34.893056,112.169215 Z M41.1476712,103.508084 C41.631614,103.305887 42.10731,102.889107 42.2048345,102.581912 C42.5591796,101.46544 41.1688881,100.270328 39.815002,100.527585 C39.4446856,100.597947 39.3195244,100.902891 39.2568133,101.887627 C39.1241622,103.970295 39.4247997,104.227948 41.1476712,103.508084 Z M48.9852521,112.168787 C48.9134592,111.981687 48.885953,108.483173 48.9241329,104.394306 L48.9935509,96.9600101 L50.9508258,96.9600101 L52.9081006,96.9600101 L53.0385856,101.005045 C53.1209738,103.559335 53.265238,105.007137 53.4300405,104.933559 C53.573574,104.869475 54.8653754,103.04921 56.3007103,100.888524 L58.91041,96.9600101 L61.1286548,96.9600101 L63.3468997,96.9600101 L63.3468997,104.658624 L63.3468997,112.357241 L61.1286548,112.357241 L58.91041,112.357241 L58.8380692,108.488549 C58.7865798,105.733894 58.6799997,104.648436 58.4679615,104.719112 C58.3042029,104.773704 57.0902749,106.514617 55.7703932,108.587809 L53.3705916,112.357241 L51.2431904,112.433105 C49.6792234,112.488877 49.0812368,112.418875 48.9852521,112.168787 Z M82.1307096,112.174662 C82.0576641,111.984331 82.0291401,108.483173 82.06732,104.394306 L82.136738,96.9600101 L84.3549828,96.9600101 L86.5732276,96.9600101 L86.7037126,99.8306799 L86.8341976,102.70135 L89.2101987,102.851788 C91.9646846,103.026189 93.2980064,103.581622 94.2285209,104.942296 C94.7621523,105.722604 94.8266902,106.081459 94.7493387,107.837891 C94.6474038,110.15217 94.2063385,110.954126 92.5607401,111.817394 C91.6540521,112.29303 90.9804625,112.366963 86.8975872,112.438977 C83.2312461,112.503646 82.2357761,112.448448 82.1307096,112.174662 Z M89.8353523,108.573177 C90.499286,107.909243 90.4955281,107.406568 89.8215992,106.732647 C89.4031338,106.314176 89.0177073,106.214251 88.0600518,106.275949 C86.8416874,106.354447 86.8336756,106.36108 86.7515745,107.361013 C86.6265177,108.883342 86.7949738,109.095117 88.130853,109.095117 C88.9654611,109.095117 89.4669932,108.941538 89.8353523,108.573177 Z M110.313207,112.168787 C110.241414,111.981687 110.213908,108.483173 110.252088,104.394306 L110.321506,96.9600101 L112.539751,96.9600101 L114.757996,96.9600101 L114.832372,99.6349524 C114.873266,101.106171 114.99754,102.309895 115.108557,102.309895 C115.219547,102.309895 116.216896,101.076812 117.324844,99.5697099 L119.33935,96.8295252 L121.811362,96.8295252 C123.732675,96.8295252 124.2834,96.9093193 124.2834,97.1877064 C124.2834,97.3847075 123.109035,99.0150574 121.6737,100.810706 C120.238365,102.606357 119.064,104.231915 119.064,104.423057 C119.064,104.6142 120.297083,106.386019 121.804185,108.360437 C123.311287,110.334849 124.54437,112.071205 124.54437,112.219003 C124.54437,112.386222 123.511529,112.487726 121.810031,112.487726 L119.075666,112.487726 L117.23721,109.747542 C116.226056,108.24044 115.288052,107.007354 115.152739,107.007354 C115.017426,107.007354 114.873266,108.211081 114.832372,109.682299 L114.757996,112.357241 L112.60087,112.433105 C111.012502,112.488966 110.409348,112.419277 110.313207,112.168787 Z M125.710436,112.168787 C125.638643,111.981687 125.611137,108.483173 125.649317,104.394306 L125.718735,96.9600101 L127.806476,96.9600101 L129.894228,96.9600101 L129.966204,101.089792 C130.012134,103.725816 130.13359,105.18777 130.301994,105.13164 C130.447067,105.083275 131.7652,103.224874 133.231173,101.001858 L135.896538,96.9600101 L138.114756,96.9600101 L140.333001,96.9600101 L140.333001,104.658624 L140.333001,112.357241 L138.114756,112.357241 L135.896538,112.357241 L135.824327,108.507934 C135.780745,106.184406 135.649477,104.658624 135.493182,104.658624 C135.350771,104.658624 134.09146,106.390813 132.694723,108.507934 L130.155198,112.357241 L127.998106,112.433105 C126.409739,112.488966 125.806577,112.419277 125.710436,112.168787 Z M142.930357,112.158166 C142.860808,111.976909 142.835129,108.483173 142.873309,104.394306 L142.942701,96.9600101 L145.030461,96.9600101 L147.11822,96.9600101 L147.190092,101.070287 C147.229629,103.33094 147.350693,105.180564 147.459126,105.180564 C147.641752,105.180564 148.162257,104.40706 151.724602,98.8417759 L153.025772,96.8089946 L155.160924,96.8845011 L157.29605,96.9600101 L157.29605,104.658624 L157.29605,112.357241 L155.20829,112.357241 L153.12053,112.357241 L153.048398,108.358002 C152.9967,105.492872 152.891346,104.387059 152.676881,104.458554 C152.512209,104.513439 151.353111,106.169001 150.101055,108.137581 C148.848999,110.106159 147.680663,111.89027 147.504717,112.102271 C147.083746,112.60949 143.122118,112.6579 142.930357,112.158166 Z M165.377984,112.169215 C165.306113,111.98188 165.278529,108.483173 165.316709,104.394306 L165.386101,96.9600101 L167.47386,96.9600101 L169.56162,96.9600101 L169.692105,99.5697099 L169.82259,102.17941 L172.17132,102.17941 L174.52005,102.17941 L174.650535,99.5697099 L174.78102,96.9600101 L176.999265,96.9600101 L179.217509,96.9600101 L179.217509,104.658624 L179.217509,112.357241 L176.999265,112.357241 L174.78102,112.357241 L174.650535,109.486572 L174.52005,106.615899 L172.17132,106.615899 L169.82259,106.615899 L169.692105,109.486572 L169.56162,112.357241 L167.535162,112.433533 C166.052461,112.489352 165.47363,112.418426 165.377984,112.169215 Z M181.814865,112.158166 C181.745317,111.976909 181.719637,108.483173 181.757817,104.394306 L181.827209,96.9600101 L183.914969,96.9600101 L186.002729,96.9600101 L186.074783,100.939802 C186.127759,103.867327 186.231286,104.918785 186.466238,104.916536 C186.641923,104.914853 187.946068,103.090085 189.364335,100.861498 L191.943006,96.8095218 L194.061795,96.8847673 L196.180558,96.9600101 L196.180558,104.658624 L196.180558,112.357241 L194.092798,112.357241 L192.005038,112.357241 L191.932828,108.507934 C191.879903,105.686483 191.775359,104.658705 191.541373,104.658927 C191.365792,104.659092 190.400073,105.970813 189.395338,107.573863 C188.390604,109.17691 187.244868,110.938322 186.849263,111.48811 L186.129952,112.487726 L184.035641,112.487726 C182.589581,112.487726 181.902186,112.385716 181.814865,112.158166 Z M199.043111,112.169215 C198.97124,111.98188 198.943656,108.483173 198.981836,104.394306 L199.051228,96.9600101 L201.138987,96.9600101 L203.226747,96.9600101 L203.301124,99.6349524 C203.344262,101.186442 203.484612,102.309895 203.635296,102.309895 C203.778203,102.309895 204.798961,101.076812 205.903699,99.5697099 L207.912281,96.8295252 L210.462688,96.8295252 C212.041661,96.8295252 213.013121,96.9321072 213.013121,97.0988331 C213.013121,97.2469545 211.780038,98.9037928 210.272937,100.780699 C208.765835,102.657603 207.532752,104.289242 207.532752,104.406559 C207.532752,104.602432 210.987446,109.281073 212.406627,111.007173 C213.508521,112.347374 213.309557,112.487726 210.307933,112.487726 L207.602718,112.487726 L205.806201,109.75215 C204.818116,108.247585 203.866985,107.0145 203.692579,107.011963 C203.468875,107.008711 203.353605,107.795001 203.301124,109.682299 L203.226747,112.357241 L201.200289,112.433533 C199.717588,112.489352 199.138757,112.418426 199.043111,112.169215 Z M214.438435,112.164212 C214.367608,111.979631 214.340884,108.483173 214.379064,104.394306 L214.448456,96.9600101 L219.145916,96.9600101 L223.843375,96.9600101 L223.843375,98.7868 L223.843375,100.61359 L221.364161,100.744075 L218.884946,100.87456 L218.884946,101.65747 L218.884946,102.44038 L220.972706,102.570865 L223.060465,102.70135 L223.060465,104.528139 L223.060465,106.354929 L220.972706,106.485414 L218.884946,106.615899 L218.884946,107.529297 L218.884946,108.442692 L221.364161,108.573177 L223.843375,108.703662 L223.843375,110.530452 L223.843375,112.357241 L219.205287,112.428531 C215.614105,112.483726 214.538152,112.424068 214.438435,112.164212 Z M242.105245,112.174662 C242.032226,111.984331 242.003702,108.483173 242.041882,104.394306 L242.111274,96.9600101 L244.329519,96.9600101 L246.547763,96.9600101 L246.678248,99.8306799 L246.808733,102.70135 L249.157463,102.853884 C252.085677,103.04405 253.481156,103.680632 254.242823,105.17368 C255.425722,107.492351 254.590905,110.770186 252.550073,111.820181 C251.634042,112.291467 250.938662,112.367252 246.872123,112.438977 C243.205808,112.503646 242.210312,112.448448 242.105245,112.174662 Z M249.809888,108.573177 C250.473822,107.909243 250.47009,107.406568 249.796161,106.732647 C249.377696,106.314176 248.992269,106.214251 248.034614,106.275949 C246.816249,106.354447 246.808238,106.36108 246.72611,107.361013 C246.60108,108.883342 246.769536,109.095117 248.105415,109.095117 C248.939997,109.095117 249.441529,108.941538 249.809888,108.573177 Z M147.870466,95.8081539 C146.837652,95.3391361 145.943856,94.4161583 145.943856,93.8186388 C145.943856,93.5299252 147.547281,92.6540055 148.075798,92.6540055 C148.233893,92.6540055 148.635317,92.9475967 148.967871,93.3064305 C149.760489,94.1616839 150.717231,94.1459526 151.409193,93.2662881 C151.922182,92.6141345 152.012843,92.5913623 152.962982,92.8760336 C154.404737,93.3079937 154.731863,93.7818917 154.174953,94.6318422 C153.168079,96.1685065 149.975685,96.7641574 147.870466,95.8081539 Z M107.759746,74.999491 C107.661622,74.9013532 107.581321,65.5044298 107.581321,54.1174407 C107.581321,35.846977 107.627539,33.4138208 107.974525,33.4138208 C108.19079,33.4138208 114.910506,37.7767168 122.907201,43.1091477 C130.903895,48.4415785 137.654275,52.8587799 137.908094,52.9251524 C138.342687,53.0388048 138.373534,52.455563 138.437889,42.9036103 L138.506211,32.7613958 L145.030461,32.7613958 L151.55471,32.7613958 L151.685195,50.2463869 C151.841594,71.2007285 151.80057,73.8362773 151.315244,74.0225185 C150.981568,74.1505609 148.317404,72.4034269 129.324278,59.6010279 C124.991855,56.6807426 121.323296,54.2914215 121.171959,54.2914215 C120.984791,54.2914215 120.874949,57.6093442 120.828549,64.6649755 L120.760305,75.0385321 L114.349238,75.1082293 C110.823169,75.1465632 107.857897,75.0976313 107.759746,74.999491 Z M88.4479576,42.6392138 C88.1295221,42.3207757 88.2356064,1.1053065 88.5553729,0.907679155 C88.7126073,0.810512203 95.5362676,5.21859523 103.719059,10.7034169 C112.32098,16.4691445 118.694101,20.5786362 118.8273,20.4454345 C118.954027,20.3187205 119.088479,15.6981949 119.126085,10.1775963 L119.194485,0.140148185 L125.718735,0.140148185 L132.242958,0.140148185 L132.309792,20.983351 C132.375113,41.3689138 132.365666,41.8237009 131.879427,41.6965459 C131.606008,41.6250401 124.779243,37.1398405 116.708824,31.7294318 C108.487044,26.2175319 101.9364,21.9912875 101.810299,22.1173961 C101.686521,22.2411819 101.55447,26.9180145 101.516864,32.5103584 L101.448516,42.6782549 L95.0374495,42.7479522 C91.5113798,42.7862861 88.5461084,42.7373542 88.4479576,42.6392138 Z" id="path4206" fill="#A6A6A6" fill-rule="nonzero"></path>
            <path d="M21.9297012,112.783578 C18.4161058,111.896235 16.305092,109.219161 16.0533813,105.331541 C15.8459023,102.12707 17.1358221,99.1960087 19.4003019,97.726385 C19.8966172,97.4042828 20.4201282,97.050632 20.5636617,96.9404974 C20.9756524,96.6243688 21.6930954,96.5433637 24.3477264,96.5132504 C27.4433288,96.4781369 29.0115574,97.0895139 30.730778,99.0017009 C32.1243211,100.551656 32.7957186,102.40435 32.7957186,104.699832 C32.7957186,108.105879 31.0072261,111.062233 28.2217787,112.2605 C26.6830214,112.922455 23.5206133,113.185357 21.9297012,112.783578 Z M26.6809885,107.976774 C27.637386,107.060488 28.1195463,105.354091 27.8777185,103.741472 C27.7355473,102.793409 27.4595011,102.269833 26.7029308,101.513263 C25.8198893,100.630221 25.5730979,100.524312 24.3984511,100.524312 C23.3495815,100.524312 22.9129761,100.667313 22.2445041,101.229795 C19.9140944,103.190705 20.3015356,107.489679 22.9123915,108.640567 C23.9270115,109.08782 25.8804448,108.743747 26.6809885,107.976774 Z M101.782085,112.782591 C99.5841624,112.228103 97.9718925,110.844657 96.9244452,108.614381 C96.0174179,106.683096 95.9554401,102.881547 96.8008419,101.032995 C97.5622062,99.3681993 98.8427076,97.9990151 100.396982,97.1877926 C101.506146,96.6088907 102.06981,96.4932392 103.813084,96.4867621 C105.217515,96.4817696 106.300822,96.633628 107.122893,96.9508553 L108.344943,97.4224307 L108.427743,99.9096598 C108.473283,101.277636 108.464284,102.442632 108.407745,102.498542 C108.351206,102.55445 107.912362,102.255498 107.432534,101.834204 C106.952707,101.41291 106.08119,100.939252 105.495829,100.781631 C101.57391,99.725569 99.1225666,105.220921 102.234657,108.092441 C102.831647,108.643284 103.195585,108.744866 104.572092,108.744866 C105.948578,108.744866 106.348953,108.633116 107.143354,108.027199 C107.660854,107.632482 108.150818,107.309531 108.232162,107.309531 C108.313506,107.309531 108.380059,108.372452 108.380059,109.671578 L108.380059,112.033623 L107.41809,112.435561 C106.2392,112.928131 103.120238,113.120179 101.782085,112.782591 Z M64.7110837,112.61592 C64.6153938,112.520233 64.5371028,111.580741 64.5371028,110.52816 L64.5371028,108.614381 L65.5661857,108.614381 C67.31291,108.614381 67.4077726,108.282044 67.4077726,102.162551 L67.4077726,96.8707349 L73.540567,96.8707349 L79.6733615,96.8707349 L79.6733615,104.699832 L79.6733615,112.528931 L77.3246317,112.528931 L74.9759019,112.528931 L74.9759019,106.657106 L74.9759019,100.785282 L73.540567,100.785282 L72.1052321,100.785282 L72.1052321,104.969184 C72.1052321,107.912469 71.9996802,109.40571 71.7492613,110.005041 C71.2954188,111.091242 70.0137979,112.171945 68.7697618,112.517448 C67.6844529,112.818866 64.9796531,112.884492 64.7110837,112.61592 Z M224.68568,112.61592 C224.58999,112.520233 224.511699,111.580741 224.511699,110.52816 L224.511699,108.614381 L225.515131,108.614381 C226.203256,108.614381 226.674777,108.441966 227.015708,108.065695 C227.464211,107.570679 227.520685,106.996307 227.593026,102.19387 L227.673196,96.8707349 L233.530093,96.8707349 L239.38699,96.8707349 L239.38699,104.699832 L239.38699,112.528931 L237.168745,112.528931 L234.9505,112.528931 L234.9505,106.657106 L234.9505,100.785282 L233.515165,100.785282 L232.079831,100.785282 L232.074089,104.895559 C232.066626,110.253646 231.557682,111.510571 229.03071,112.411805 C227.998338,112.779997 224.991027,112.921271 224.68568,112.61592 Z M0.0775169561,104.699832 L0.0775169561,96.8707349 L2.29576176,96.8707349 L4.51400656,96.8707349 L4.51400656,99.6109197 L4.51400656,102.351102 L6.99322134,102.351102 L9.47243612,102.351102 L9.47243612,99.6109197 L9.47243612,96.8707349 L11.8211659,96.8707349 L14.1698957,96.8707349 L14.1698957,104.699832 L14.1698957,112.528931 L11.8211659,112.528931 L9.47243612,112.528931 L9.47243612,109.527776 L9.47243612,106.526621 L6.99322134,106.526621 L4.51400656,106.526621 L4.51400656,109.527776 L4.51400656,112.528931 L2.29576176,112.528931 L0.0775169561,112.528931 L0.0775169561,104.699832 Z M34.7865255,104.672487 L34.7865255,96.8160461 L38.9040602,96.908633 C42.7086031,96.9941815 43.1202285,97.051882 44.3191872,97.6677059 C46.0875354,98.575991 46.9208412,100.04973 46.9000419,102.232063 C46.8688404,105.506085 44.9542889,107.305786 41.2760137,107.518717 L39.2230151,107.637563 L39.2230151,110.083248 L39.2230151,112.528931 L37.0047703,112.528931 L34.7865255,112.528931 L34.7865255,104.672487 Z M41.9140148,103.079456 C42.2346895,102.6963 42.3336885,102.299404 42.221761,101.845663 C41.9874387,100.895761 41.7685136,100.743347 40.4200739,100.591358 L39.2230151,100.456434 L39.2230151,102.220032 L39.2230151,103.983631 L40.3321375,103.813977 C40.9927673,103.712924 41.6324282,103.415906 41.9140148,103.079456 Z M48.8789042,104.709991 L48.8789042,96.8707349 L50.966664,96.8707349 L53.0544238,96.8707349 L53.0554129,101.372464 L53.0564046,105.874197 L55.9913252,101.373618 L58.9262483,96.8730393 L61.2097356,96.8718858 L63.4932229,96.8707349 L63.4932229,104.699832 L63.4932229,112.528931 L61.1509573,112.528931 L58.8086918,112.528931 L58.7369851,108.30569 L58.6652783,104.08245 L56.0291319,108.240448 L53.392988,112.398446 L51.1359448,112.473848 L48.8789042,112.549253 L48.8789042,104.709991 Z M82.0220913,104.71597 L82.0220913,96.8707349 L84.3708211,96.8707349 L86.7195509,96.8707349 L86.7195509,99.8407585 L86.7195509,102.810785 L89.1406946,102.916679 C91.9490656,103.039507 93.2848848,103.580471 94.2443696,104.983503 C94.7779958,105.763811 94.8425389,106.122666 94.7651743,107.879098 C94.6632395,110.193375 94.2221898,110.99533 92.5765809,111.858598 C91.6660724,112.336244 90.9987147,112.407823 86.7847933,112.479827 L82.0220913,112.56121 L82.0220913,104.71597 Z M89.8958843,108.704419 C90.5447496,108.117205 90.4965902,107.164633 89.7931221,106.671906 C89.4646601,106.44184 88.672397,106.265651 87.9663323,106.265651 L86.7195509,106.265651 L86.7195509,107.700986 L86.7195509,109.136321 L88.0690945,109.136321 C88.9586341,109.136321 89.5813111,108.989103 89.8958843,108.704419 Z M110.206849,104.699832 L110.206849,96.8707349 L112.555579,96.8707349 L114.904308,96.8707349 L114.904308,99.9015985 L114.904308,102.932467 L117.079989,99.966841 L119.25567,97.0012199 L121.907934,96.9268461 C123.366677,96.8859416 124.560198,96.945495 124.560198,97.0591892 C124.560198,97.1728807 123.263174,98.8831892 121.677922,100.859872 L118.795647,104.453844 L121.628842,108.165176 C123.187096,110.206408 124.549769,112.023302 124.657002,112.202718 C124.808557,112.456295 124.194816,112.525494 121.900658,112.513489 L118.949343,112.498045 L116.992068,109.456388 L115.034793,106.414731 L114.961268,109.471832 L114.887745,112.528931 L112.547295,112.528931 L110.206849,112.528931 L110.206849,104.699832 Z M125.604077,104.699832 L125.604077,96.8707349 L127.822322,96.8707349 L130.040567,96.8707349 L130.047222,101.372464 L130.053876,105.874197 L132.983134,101.37677 L135.912392,96.8793443 L138.195879,96.8750409 L140.479366,96.8707349 L140.479366,104.699832 L140.479366,112.528931 L138.137101,112.528931 L135.794835,112.528931 L135.723128,108.288469 L135.651422,104.048004 L132.911237,108.283114 L130.171052,112.518221 L127.887565,112.523576 L125.604077,112.528931 L125.604077,104.699832 Z M142.828096,104.699832 L142.828096,96.8707349 L145.040179,96.8707349 L147.25226,96.8707349 L147.323666,101.296185 L147.39507,105.721641 L150.162524,101.361428 L152.929978,97.0012199 L155.186196,96.9258152 L157.442415,96.8504132 L157.442415,104.689672 L157.442415,112.528931 L155.23048,112.528931 L153.018545,112.528931 L152.946993,108.169991 L152.87544,103.811051 L150.135255,108.164936 L147.39507,112.518824 L145.111583,112.523876 L142.828096,112.528931 L142.828096,104.699832 Z M165.271514,104.699832 L165.271514,96.8707349 L167.489759,96.8707349 L169.708004,96.8707349 L169.708004,99.6109197 L169.708004,102.351102 L172.187218,102.351102 L174.666433,102.351102 L174.666433,99.6109197 L174.666433,96.8707349 L177.015163,96.8707349 L179.363893,96.8707349 L179.363893,104.699832 L179.363893,112.528931 L177.015163,112.528931 L174.666433,112.528931 L174.666433,109.527776 L174.666433,106.526621 L172.187218,106.526621 L169.708004,106.526621 L169.708004,109.527776 L169.708004,112.528931 L167.489759,112.528931 L165.271514,112.528931 L165.271514,104.699832 Z M181.712622,104.699832 L181.712622,96.8707349 L183.924706,96.8707349 L186.136786,96.8707349 L186.208193,101.303049 L186.279597,105.735366 L189.115221,101.303049 L191.950848,96.8707349 L194.138893,96.8707349 L196.326941,96.8707349 L196.326941,104.699832 L196.326941,112.528931 L194.115007,112.528931 L191.903072,112.528931 L191.831519,108.22408 L191.759967,103.919229 L189.019782,108.223639 L186.279597,112.528049 L183.99611,112.52849 L181.712622,112.528931 L181.712622,104.699832 Z M198.936641,104.699832 L198.936641,96.8707349 L201.146603,96.8707349 L203.356567,96.8707349 L203.43009,99.9025928 L203.503616,102.934451 L205.711628,99.9025928 L207.91964,96.8707349 L210.604815,96.8707349 C212.081662,96.8707349 213.28999,96.9148728 213.28999,96.9688205 C213.28999,97.0227656 211.998188,98.6814568 210.41932,100.654797 C208.840452,102.62814 207.54865,104.348681 207.54865,104.478226 C207.54865,104.607769 208.837518,106.384098 210.412798,108.425619 C211.988081,110.46714 213.279882,112.225553 213.283468,112.333203 C213.287056,112.440854 212.015464,112.528931 210.457714,112.528931 L207.625438,112.528931 L205.500519,109.332049 L203.375602,106.135166 L203.374365,109.332049 L203.373131,112.528931 L201.154886,112.528931 L198.936641,112.528931 L198.936641,104.699832 Z M214.33387,104.699832 L214.33387,96.8707349 L219.161814,96.8707349 L223.989759,96.8707349 L223.989759,98.8280097 L223.989759,100.785282 L221.380059,100.785282 L218.770359,100.785282 L218.770359,101.698677 L218.770359,102.612072 L220.988604,102.612072 L223.206849,102.612072 L223.206849,104.569347 L223.206849,106.526621 L220.988604,106.526621 L218.770359,106.526621 L218.770359,107.570501 L218.770359,108.614381 L221.380059,108.614381 L223.989759,108.614381 L223.989759,110.571656 L223.989759,112.528931 L219.161814,112.528931 L214.33387,112.528931 L214.33387,104.699832 Z M241.99669,104.71597 L241.99669,96.8707349 L244.34542,96.8707349 L246.694149,96.8707349 L246.694149,99.8407585 L246.694149,102.810785 L249.108122,102.92409 C252.096097,103.064341 253.474371,103.677333 254.258742,105.214887 C255.441641,107.533558 254.606824,110.811391 252.565974,111.861385 C251.646002,112.334699 250.956781,112.408107 246.759392,112.479827 L241.99669,112.56121 L241.99669,104.71597 Z M249.870467,108.704419 C250.519343,108.117205 250.471194,107.164633 249.767723,106.671906 C249.439266,106.44184 248.646988,106.265651 247.940933,106.265651 L246.694149,106.265651 L246.694149,107.700986 L246.694149,109.136321 L248.043677,109.136321 C248.93322,109.136321 249.555894,108.989103 249.870467,108.704419 Z M147.891193,95.8515323 C146.984661,95.4398365 145.441021,93.8563829 145.735539,93.6402815 C145.78708,93.6024644 146.416433,93.3235814 147.134101,93.0205431 L148.43895,92.469565 L148.77176,93.1010132 C149.385515,94.2655056 151.259318,94.2485791 151.705699,93.0745091 L151.941392,92.4545879 L153.256568,93.0011504 C154.679893,93.5926571 154.79697,93.8233467 154.145711,94.7531462 C153.114136,96.2259277 149.942164,96.7829733 147.891193,95.8515323 Z" id="path2196" fill="#000000" fill-rule="nonzero"></path>
        </g>
    </g>
</svg>