<?xml version="1.0" encoding="UTF-8"?>
<svg width="309px" height="160px" viewBox="0 0 309 160" version="1.1" xmlns="http://www.w3.org/2000/svg" xmlns:xlink="http://www.w3.org/1999/xlink">
    <title>Rosneft_Logo</title>
    <g id="Pictures" stroke="none" stroke-width="1" fill="none" fill-rule="evenodd">
        <g id="Rosneft_Logo">
            <polygon id="polygon4" points="0 0 308.4096 0 308.4096 158.8096 0 158.8096"></polygon>
            <polygon id="polygon6" fill="#201C26" points="117.5616 118.6256 117.5616 115.896 110.6176 115.896 110.6176 118.6256 109.8064 118.6256 109.8064 112.7696 110.6176 112.7696 110.6176 115.3088 117.5616 115.3088 117.5616 112.7696 118.3632 112.7696 118.3632 118.6256"></polygon>
            <polygon id="polygon8" fill="#201C26" points="121.0944 118.6256 121.0944 112.7696 128.0112 112.7696 128.0112 113.3536 121.8928 113.3536 121.8928 115.3088 127.8496 115.3088 127.8496 115.888 121.8928 115.888 121.8928 118.0384 128.0112 118.0384 128.0112 118.6256"></polygon>
            <path d="M142.048,116.0432 L142.048,115.3136 C142.048,113.9216 141.3568,113.2208 139.1664,113.2208 L136.7824,113.2208 L136.7824,112.7008 L135.9696,112.7008 L135.9696,113.2208 L133.6144,113.2208 C131.4096,113.2208 130.7184,113.8048 130.7184,115.3136 L130.7184,116.0432 C130.7184,117.5328 131.4992,118.048 133.6144,118.048 L135.9696,118.048 L135.9696,118.624 L136.7824,118.624 L136.7824,118.048 L139.1664,118.048 C141.2688,118.048 142.048,117.56 142.048,116.0432 Z M141.2336,116.0432 C141.2336,117.1712 140.688,117.4688 139.1664,117.4688 L136.7824,117.4688 L136.7824,113.8064 L139.1664,113.8064 C140.6112,113.8064 141.2336,114.1456 141.2336,115.2816 L141.2336,116.0432 Z M135.9696,117.4688 L133.6144,117.4688 C132.0912,117.4688 131.5104,117.1712 131.5104,116.0352 L131.5104,115.256 C131.5104,114.136 132.1472,113.8064 133.6144,113.8064 L135.9696,113.8064 L135.9696,117.4688 Z" id="path10" fill="#201C26"></path>
            <polygon id="polygon12" fill="#201C26" points="148.2272 113.3536 148.2272 118.6256 149.0352 118.6256 149.0352 113.3536 152.8544 113.3536 152.8544 112.7696 144.4368 112.7696 144.4368 113.3536"></polygon>
            <path d="M163.048,118.6256 L163.048,112.7712 L157.784,112.7712 C155.84,112.7712 155.0384,113.2528 155.0384,114.584 C155.0384,115.6848 155.84,116.1984 157.3728,116.1984 L154.7152,118.6272 L155.84,118.6272 L158.3408,116.1984 L162.2336,116.1984 L162.2336,118.6272 L163.048,118.6272 L163.048,118.6256 Z M162.2336,115.6192 L157.5296,115.6192 C156.2784,115.6192 155.8416,115.456 155.8416,114.584 C155.8416,113.6752 156.2992,113.3536 157.4496,113.3536 L162.2336,113.3536 L162.2336,115.6192 Z" id="path14" fill="#201C26"></path>
            <polygon id="polygon16" fill="#201C26" points="173.7424 118.6256 173.7424 115.896 166.8032 115.896 166.8032 118.6256 165.9952 118.6256 165.9952 112.7696 166.8032 112.7696 166.8032 115.3088 173.7424 115.3088 173.7424 112.7696 174.5536 112.7696 174.5536 118.6256"></polygon>
            <path d="M186.0352,118.6256 L181.9872,112.7712 L180.744,112.7712 L176.6992,118.6256 L177.592,118.6256 L178.5968,117.1568 L184.0912,117.1568 L185.0864,118.6256 L186.0352,118.6256 Z M183.6688,116.5584 L179.0352,116.5584 L181.3456,113.1904 L183.6688,116.5584 Z" id="path18" fill="#201C26"></path>
            <path d="M195.2656,118.6256 L195.2656,116.1968 L191.3744,116.1968 L188.8608,118.6256 L187.752,118.6256 L190.3904,116.1968 C188.8608,116.1968 188.0688,115.6832 188.0688,114.5824 C188.0688,113.2512 188.8608,112.7696 190.8048,112.7696 L196.08,112.7696 L196.08,118.624 L195.2656,118.624 L195.2656,118.6256 Z M195.2656,113.3536 L190.4832,113.3536 C189.336,113.3536 188.8608,113.6736 188.8608,114.584 C188.8608,115.4576 189.3024,115.6192 190.56,115.6192 L195.2656,115.6192 L195.2656,113.3536 Z" id="path20" fill="#201C26"></path>
            <polygon id="polygon22" fill="#201C26" points="211.072 118.6256 212.4912 118.6256 206.84 115.5568 212.3648 112.7696 210.9328 112.7696 206 115.2816 204.688 115.2816 204.688 112.7696 203.8768 112.7696 203.8768 118.6256 204.688 118.6256 204.688 115.8704 206.0336 115.8704"></polygon>
            <path d="M223.0064,116.6176 C223.0064,117.7632 222.624,118.04 220.9824,118.04 L217.5632,118.04 C216.0416,118.04 215.4736,117.7456 215.4736,116.6176 L215.4736,114.7488 C215.4736,113.6096 216.096,113.3008 217.5632,113.3008 L220.9824,113.3008 C222.5408,113.3008 223.0064,113.5904 223.0064,114.7488 L223.0064,116.6176 Z M223.808,116.6176 L223.808,114.7856 C223.808,113.0832 222.8768,112.7008 220.9824,112.7008 L217.5712,112.7008 C215.352,112.7008 214.6624,113.2992 214.6624,114.7856 L214.6624,116.6176 C214.6624,118.1216 215.4496,118.6256 217.5712,118.6256 L220.9824,118.6256 C223.0592,118.6256 223.808,118.2848 223.808,116.6176 Z" id="path24" fill="#201C26"></path>
            <polygon id="polygon26" fill="#201C26" points="236.0976 112.7696 237.8368 112.7696 237.8368 118.6256 237.0256 118.6256 237.0256 113.2448 236.576 113.2448 232.3584 118.6256 231.944 118.6256 227.7328 113.2448 227.2768 113.2448 227.2768 118.6256 226.472 118.6256 226.472 112.7696 228.2 112.7696 232.1616 117.7632"></polygon>
            <polygon id="polygon28" fill="#201C26" points="241.5536 118.6256 241.5536 113.3536 248.4752 113.3536 248.4752 118.6256 249.2928 118.6256 249.2928 112.7696 240.7328 112.7696 240.7328 118.6256"></polygon>
            <path d="M259.8288,118.6256 L258.8352,117.1568 L253.3408,117.1568 L252.3216,118.6256 L251.4288,118.6256 L255.4832,112.7712 L256.712,112.7712 L260.76,118.6256 L259.8288,118.6256 Z M256.096,113.1888 L253.7696,116.5568 L258.4112,116.5568 L256.096,113.1888 Z" id="path30" fill="#201C26"></path>
            <polygon id="polygon32" fill="#201C26" points="271.6336 118.6256 271.6336 112.7696 270.8288 112.7696 270.8288 115.3088 263.8992 115.3088 263.8992 112.7696 263.0784 112.7696 263.0784 118.6256 263.8992 118.6256 263.8992 115.896 270.8288 115.896 270.8288 118.6256"></polygon>
            <polygon id="polygon34" fill="#201C26" points="282.9712 118.6256 282.9712 112.7696 281.3936 112.7696 275.2176 118.1696 275.1472 118.1696 275.1472 112.7696 274.3488 112.7696 274.3488 118.6256 275.6624 118.6256 281.8544 113.2224 282.1536 113.2224 282.1536 118.6256"></polygon>
            <path d="M292.744,115.6192 L288.0288,115.6192 C286.7712,115.6192 286.3488,115.456 286.3488,114.584 C286.3488,113.6752 286.7936,113.3536 287.9408,113.3536 L292.744,113.3536 L292.744,115.6192 Z M293.5392,118.6256 L293.5392,112.7712 L288.28,112.7712 C286.3488,112.7712 285.5376,113.2528 285.5376,114.584 C285.5376,115.6848 286.3488,116.1984 287.8768,116.1984 L285.2096,118.6272 L286.3488,118.6272 L288.8368,116.1984 L292.744,116.1984 L292.744,118.6272 L293.5392,118.6272 L293.5392,118.6256 Z" id="path36" fill="#201C26"></path>
            <path d="M109.736,127.3008 C109.736,127.3008 127.3296,127.064 128.7392,128.008 C130.1472,128.9392 131.5536,129.8896 131.7888,131.7568 C132.0224,133.6352 130.8512,139.4912 126.392,139.7296 C121.9392,139.9632 116.7856,139.4912 116.7856,139.4912 L116.5552,144.184 L109.5184,143.9504 L109.736,127.3008 Z" id="path38" fill="#201C26"></path>
            <path d="M117.0128,131.9872 L116.7856,134.8064 C116.7856,134.8064 122.408,135.9744 123.5792,134.8064 C124.752,133.6368 123.8112,131.7584 121.9408,131.7584 C120.0688,131.7584 117.0128,131.9872 117.0128,131.9872 Z" id="path40" fill="#FFFFFF"></path>
            <path d="M131.7904,131.7584 C133.6752,129.6512 136.9552,126.3648 144.4464,126.8304 C151.952,127.3024 155.9472,130.3424 155.9472,133.88 C155.9472,137.3856 156.1696,142.0736 151.7152,143.4736 C147.2656,144.888 142.8032,144.888 139.7584,144.4272 C136.7088,143.952 131.7904,141.1328 131.0896,137.3872 C130.384,133.6352 131.7904,131.7584 131.7904,131.7584 Z" id="path42" fill="#241C24"></path>
            <path d="M138.8288,136.2096 C138.4,133.1808 140.9312,131.2832 143.0416,131.2832 C145.1488,131.2832 148.6576,131.5216 148.4256,135.5104 C148.1968,139.4928 147.9712,139.2576 145.8624,139.9648 C143.7504,140.6672 139.528,141.3776 138.8288,136.2096 L138.8288,136.2096 Z" id="path44" fill="#FFFFFF"></path>
            <path d="M181.0192,133.88 C179.8528,131.7584 177.2816,127.7648 173.2864,127.5392 C169.3024,127.3024 163.9056,126.8304 161.3296,127.7648 C158.744,128.712 156.6512,131.048 156.176,133.1584 C155.7104,135.2752 155.2272,139.9648 158.2832,142.0736 C161.328,144.184 166.264,145.8304 170.9456,144.888 C175.6256,143.952 180.0848,142.0736 180.7888,138.0864 C178.4496,138.0864 172.8224,138.0864 172.8224,138.0864 C172.8224,138.0864 170.7024,140.904 168.1328,140.6672 C168.1328,140.6672 165.7728,141.3776 164.1376,139.0368 C162.5056,136.68 162.7344,134.5728 164.3712,132.4592 C166.0272,130.3424 170.472,131.0464 170.944,131.9872 C171.4096,132.928 172.1136,134.3312 172.1136,134.3312 L181.0192,133.88 Z" id="path46" fill="#241C24"></path>
            <polygon id="polygon48" fill="#241C24" points="180.3232 127.7648 187.5952 127.7648 187.5952 133.4 194.8512 133.4 194.8512 127.3008 202.3616 127.3008 202.3616 144.184 195.3216 144.184 195.3216 138.5568 187.8304 138.5568 187.8304 144.184 180.0864 144.184"></polygon>
            <polygon id="polygon50" fill="#241C24" points="204.7136 127.3008 225.5792 127.5392 225.5792 131.7584 212.9216 131.7584 212.9216 133.4 223.4736 133.4 223.4736 138.0864 212.4464 138.0864 212.4464 140.2064 226.0448 140.2064 226.0448 144.6544 204.944 144.6544"></polygon>
            <path d="M236.3616,127.3008 L243.632,127.3008 C243.632,127.3008 243.168,128.4768 244.1152,128.2448 C245.0384,128.0096 251.3696,127.7632 253.2528,130.12 C255.1232,132.4592 255.832,135.5088 253.9488,137.6208 C252.0656,139.7328 250.4272,140.6672 249.2672,140.6672 C248.0832,140.6672 244.1152,140.9024 244.1152,140.9024 L244.1152,144.6544 L236.3616,144.6544 L236.3616,140.6672 C236.3616,140.6672 231.4352,140.432 229.7952,139.9648 C228.1616,139.4928 225.1056,137.6208 225.1056,134.5744 C225.1056,131.5232 226.7472,128.9408 229.1008,128.712 C231.4352,128.4784 235.8928,128.4784 235.8928,128.4784 L236.3616,127.3008 Z" id="path52" fill="#241C24"></path>
            <path d="M236.3616,132.4592 L236.128,135.9744 C236.128,135.9744 232.3792,136.4464 232.3792,135.048 C232.3792,133.6352 233.0864,132.2272 236.3616,132.4592 L236.3616,132.4592 Z" id="path54" fill="#FFFFFF"></path>
            <path d="M244.1136,132.6928 L244.336,135.976 C244.336,135.976 246.4464,136.9184 247.6272,135.2752 C248.7856,133.6352 246.6768,132.4592 244.1136,132.6928 Z" id="path56" fill="#FFFFFF"></path>
            <path d="M258.8688,132.4592 L258.8688,144.888 L266.3696,144.888 L266.3696,132.4592 L273.1648,132.4592 L274.584,130.5888 L272.4752,128.0096 L252.7792,128.0096 C252.784,128.0096 251.8368,131.7584 253.9456,131.9872 C256.0544,132.2272 258.8688,132.4592 258.8688,132.4592 L258.8688,132.4592 Z" id="path58" fill="#241C24"></path>
            <path d="M280.672,128.0096 L280.672,132.6928 C280.672,132.6928 289.5904,132.2272 291.2336,133.1584 C292.8736,134.0992 294.5136,135.5104 294.7472,137.1424 C294.9808,138.7936 294.5136,141.3776 292.8736,142.7776 C291.2336,144.184 289.3632,145.12 287.472,145.12 C285.6016,145.12 273.8848,145.12 273.8848,145.12 L273.8848,128.2448 L280.672,128.0096 Z" id="path60" fill="#241C24"></path>
            <path d="M281.3872,137.6208 L281.3872,140.432 C281.3872,140.432 284.8992,140.432 286.0688,140.432 C287.2352,140.432 288.8848,137.8544 286.7696,137.3872 C284.664,136.9168 281.3872,137.6208 281.3872,137.6208 L281.3872,137.6208 Z" id="path62" fill="#FFFFFF"></path>
            <polygon id="polygon64" fill="#241C24" points="13.6064 49.9248 25.5696 49.9248 25.5696 90.4928 13.6064 79.936"></polygon>
            <polygon id="polygon66" fill="#241C24" points="27.9168 36.5616 39.4048 36.5616 39.4048 103.6256 27.9168 92.5904"></polygon>
            <polygon id="polygon68" fill="#241C24" points="41.7536 23.1984 53.4784 23.1984 53.4784 86.7376 41.7536 86.7376"></polygon>
            <polygon id="polygon70" fill="#241C24" points="55.8144 9.8336 68.008 9.8336 68.008 73.608 55.8144 73.608"></polygon>
            <polygon id="polygon72" fill="#241C24" points="69.6496 22.488 81.3776 22.488 81.3776 86.7376 69.6496 86.7376"></polygon>
            <polygon id="polygon74" fill="#241C24" points="84.192 36.3152 95.68 36.3152 95.68 92.3584 84.192 103.6256"></polygon>
            <polygon id="polygon76" fill="#241C24" points="97.784 49.688 109.5184 49.688 109.5184 79.0016 97.784 90.4928"></polygon>
            <polygon id="polygon78" fill="#B3B31C" points="41.7536 88.1552 53.4784 88.1552 53.4784 146.9888 41.7536 146.9888"></polygon>
            <polygon id="polygon80" fill="#B3B31C" points="55.8144 75.4928 67.2992 75.4928 67.2992 146.9888 55.8144 146.9888"></polygon>
            <polygon id="polygon82" fill="#B3B31C" points="69.6496 88.3792 81.3776 88.3792 81.3776 146.9888 69.6496 146.9888"></polygon>
        </g>
    </g>
</svg>