<?xml version="1.0" encoding="UTF-8"?>
<svg width="297px" height="47px" viewBox="0 0 297 47" version="1.1" xmlns="http://www.w3.org/2000/svg" xmlns:xlink="http://www.w3.org/1999/xlink">
    <title>Sberbank_Logo_2020</title>
    <defs>
        <linearGradient x1="59.1084148%" y1="96.1916998%" x2="37.9653966%" y2="0.0500985811%" id="linearGradient-1">
            <stop stop-color="#F1E813" offset="14%"></stop>
            <stop stop-color="#E6E418" offset="30%"></stop>
            <stop stop-color="#C9DA26" offset="58%"></stop>
            <stop stop-color="#A2CC39" offset="89%"></stop>
        </linearGradient>
        <linearGradient x1="8.71276577%" y1="58.6249351%" x2="94.8737844%" y2="38.8241114%" id="linearGradient-2">
            <stop stop-color="#0FA7DF" offset="6%"></stop>
            <stop stop-color="#0098F8" offset="54%"></stop>
            <stop stop-color="#0290EA" offset="92%"></stop>
        </linearGradient>
        <linearGradient x1="-2.01267543%" y1="57.269064%" x2="95.2573572%" y2="44.022986%" id="linearGradient-3">
            <stop stop-color="#A2CC39" offset="12%"></stop>
            <stop stop-color="#86C239" offset="28%"></stop>
            <stop stop-color="#219F38" offset="87%"></stop>
        </linearGradient>
        <linearGradient x1="-7.64936231%" y1="39.6259187%" x2="92.6297827%" y2="58.2867448%" id="linearGradient-4">
            <stop stop-color="#0290EA" offset="6%"></stop>
            <stop stop-color="#0C89CA" offset="79%"></stop>
        </linearGradient>
        <linearGradient x1="7.81525765%" y1="38.1592847%" x2="100.373536%" y2="63.8556636%" id="linearGradient-5">
            <stop stop-color="#F1E813" offset="13%"></stop>
            <stop stop-color="#EAE616" offset="30%"></stop>
            <stop stop-color="#D8DF1F" offset="53%"></stop>
            <stop stop-color="#BAD52D" offset="80%"></stop>
            <stop stop-color="#A2CC39" offset="98%"></stop>
        </linearGradient>
        <linearGradient x1="37.9631859%" y1="103.769876%" x2="59.6347595%" y2="7.76906129%" id="linearGradient-6">
            <stop stop-color="#A2CC39" offset="7%"></stop>
            <stop stop-color="#81C45E" offset="26%"></stop>
            <stop stop-color="#0FA7DF" offset="92%"></stop>
        </linearGradient>
    </defs>
    <g id="Pictures" stroke="none" stroke-width="1" fill="none" fill-rule="evenodd">
        <g id="Sberbank_Logo_2020" fill-rule="nonzero">
            <path d="M41.3095034,9 C42.3760742,10.4819166 43.2790282,12.0918924 44,13.7976028 L23.5476067,30 L15,24.2417613 L15,17.3143184 L23.5476067,23.0725571 L41.3095034,9 Z" id="Path" fill="#21A038"></path>
            <path d="M5.56622099,23.1824881 C5.56622099,22.8760303 5.57379038,22.5716086 5.58892917,22.2689324 L0.0302733912,22 C0.0113535518,22.3922719 0,22.7883254 0,23.1880151 C-0.00235833619,26.3110637 0.619815332,29.4037138 1.8308525,32.2886648 C3.04188072,35.1737613 4.81792604,37.7942888 7.05710772,40 L11,36.1089887 C9.27635817,34.414089 7.90898541,32.3994958 6.97647204,30.1811306 C6.04395867,27.9627654 5.56469815,25.5842626 5.56622099,23.1824881 Z" id="Path" fill="url(#linearGradient-1)"></path>
            <path d="M23.8126791,5.56339542 C24.1188279,5.56339542 24.4230613,5.57475535 24.7255269,5.58988719 L25,0.0284012908 C24.6067801,0.00947825049 24.2109082,0 23.8126791,0 C20.6897555,-0.00384197074 17.5970343,0.617539937 14.7118401,1.82848227 C11.8266311,3.03942754 9.2058622,4.81608569 7,7.05643833 L10.8908885,11 C12.5850049,9.2755003 14.5987507,7.90740192 16.8163402,6.97439928 C19.0339298,6.04139664 21.4115181,5.56186308 23.8126791,5.56339542 Z" id="Path" fill="url(#linearGradient-2)"></path>
            <path d="M22.1897221,41.4346483 C21.8834482,41.4346483 21.5789431,41.4346483 21.2745853,41.4100424 L21,46.9696353 C21.3947071,46.9898209 21.7913303,47 22.1897221,47 C25.3125952,47.0032289 28.4051062,46.3814527 31.2899464,45.1701678 C34.1747867,43.9588829 36.7949167,42.1819584 39,39.9416486 L35.1149796,36 C33.4198615,37.7235872 31.4054992,39.0909055 29.1874458,40.0235699 C26.9693923,40.9562342 24.5912746,41.435827 22.1897221,41.4346483 Z" id="Path" fill="url(#linearGradient-3)"></path>
            <path d="M32.3575621,9 L37,5.46775239 C32.7567493,1.92091687 27.4600468,-0.00984563152 22,0 L22,5.69226751 C25.6972904,5.68753548 29.3087659,6.84091446 32.3575621,9 Z" id="Path" fill="url(#linearGradient-4)"></path>
            <path d="M46,22.2817792 C46.0027664,20.8462407 45.8834097,19.4131858 45.6431482,18 L40.7541715,21.7901664 C40.7541715,21.9535017 40.7541715,22.1166908 40.7541715,22.2817792 C40.7554383,24.8491228 40.2438093,27.3881237 39.2526427,29.734132 C38.2613353,32.0801403 36.8124472,34.1808535 35,35.9001102 L38.5263689,40 C40.8826769,37.7622488 42.7656402,35.0286481 44.0530872,31.9764121 C45.3406749,28.9240301 46.0038924,25.6210936 46,22.2817792 Z" id="Path" fill="#21A038"></path>
            <path d="M23,41.277329 C20.5365263,41.278238 18.1003282,40.7199266 15.8490932,39.6386055 C13.5979717,38.5572844 11.5820033,36.976892 9.93178415,35 L6,38.8450003 C8.14674949,41.4159599 10.7694732,43.4704246 13.6981103,44.8753693 C16.6267331,46.2801626 19.7958221,47.0040735 23,47 L23,41.277329 Z" id="Path" fill="url(#linearGradient-5)"></path>
            <path d="M11,10.1650005 L7.47600893,6 C5.11937772,8.27287899 3.2360317,11.0498231 1.94810944,14.150739 C0.660204057,17.2516252 -0.00351128329,20.6072601 0,24 L5.24676548,24 C5.24568186,21.3919583 5.75727344,18.8125616 6.74835635,16.4292282 C7.73945333,14.0459691 9.18794721,11.911774 11,10.1650005 Z" id="Path" fill="url(#linearGradient-6)"></path>
            <g id="Group" transform="translate(58.000000, 8.000000)" fill="#21A038">
                <polygon id="Path" points="74.7725885 5.15939472 81.3561877 0.36135132 59.3222679 0.36135132 59.3222679 29.1934311 81.3561877 29.1934311 81.3561877 24.3954018 65.6094447 24.3954018 65.6094447 17.0100176 79.0421257 17.0100176 79.0421257 12.2119883 65.6094447 12.2119883 65.6094447 5.15939472"></polygon>
                <path d="M44.4964446,11.5933372 L36.84678,11.5933372 L36.84678,5.15749443 L49.0554177,5.15749443 L55.6350246,0.344868035 L30.5633103,0.344868035 L30.5633103,29.1769619 L43.6873071,29.1769619 C51.0452544,29.1769619 55.2680255,25.8780528 55.2680255,20.1248094 C55.2680255,14.6208563 51.4431932,11.5933372 44.4964446,11.5933372 Z M43.4042871,24.3773842 L36.84678,24.3773842 L36.84678,16.3884106 L43.4042871,16.3884106 C47.3839606,16.3884106 49.2498959,17.7272023 49.2498959,20.3829677 C49.2498959,23.0385924 47.2644791,24.3773842 43.4042871,24.3773842 Z" id="Shape"></path>
                <path d="M97.5527684,0.357226979 L85.5589977,0.357226979 L85.5589977,29.1892082 L91.845319,29.1892082 L91.845319,21.021607 L97.5527684,21.021607 C105.204999,21.021607 109.938632,17.0384516 109.938632,10.6740176 C109.938632,4.30976657 105.204999,0.357226979 97.5527684,0.357226979 Z M97.4201697,16.2199179 L91.845319,16.2199179 L91.845319,5.15893021 L97.4201697,5.15893021 C101.445183,5.15893021 103.666569,7.12426979 103.666569,10.6916129 C103.666569,14.258956 101.445183,16.2199179 97.4201697,16.2199179 Z" id="Shape"></path>
                <path d="M21.1294083,22.3850323 C19.5054301,23.2549443 17.6859757,23.7053842 15.8394311,23.6946862 C10.3124872,23.6946862 6.30301469,19.7914839 6.30301469,14.4167507 C6.30301469,9.04187683 10.3124872,5.13021466 15.8394311,5.13021466 C17.8325472,5.09672727 19.7843152,5.69458768 21.4095766,6.83655132 L25.8070074,3.63293842 L25.509587,3.42392023 C22.9444428,1.1929478 19.516979,0.0113454545 15.593767,0.0113454545 C11.3384878,0.0113454545 7.48000681,1.4275566 4.72508958,4.00405865 C3.33208982,5.33066041 2.23052216,6.92706158 1.48868206,8.6936305 C0.746984543,10.4601994 0.38098348,12.3589443 0.413919299,14.2716246 C0.384405384,16.2037302 0.748695494,18.1219003 1.484975,19.911695 C2.2212545,21.7014897 3.31440999,23.3260293 4.69928273,24.68861 C7.46703209,27.3674604 11.3169583,28.8433548 15.5420107,28.8433548 C19.9566936,28.8433548 23.8153172,27.3204457 26.4279403,24.5478475 L22.4917535,21.6471554 L21.1294083,22.3850323 Z" id="Path"></path>
                <path d="M134.865771,11.5933372 L127.219243,11.5933372 L127.219243,5.15749443 L143.651508,5.15749443 L143.651508,0.344868035 L120.931496,0.344868035 L120.931496,29.1769619 L134.038811,29.1769619 C141.395903,29.1769619 145.619159,25.8780528 145.619159,20.1248094 C145.636211,14.6208563 141.812235,11.5933372 134.865771,11.5933372 Z M133.773614,24.3773842 L127.219243,24.3773842 L127.219243,16.3884106 L133.773614,16.3884106 C137.753002,16.3884106 139.617939,17.7272023 139.617939,20.3829677 C139.617939,23.0385924 137.650345,24.3773842 133.773614,24.3773842 Z" id="Shape"></path>
                <polygon id="Path" points="217.091253 29.1357185 210.717959 29.1357185 210.717959 0.303624633 217.091253 0.303624633 217.091253 12.4132786 220.560208 12.4132786 229.927668 0.303624633 237.150735 0.303624633 226.03953 14.0193783 238.941531 29.1357185 230.485153 29.1357185 221.002203 17.7963167 217.091253 17.7963167"></polygon>
                <path d="M168.77398,23.6563988 L155.291682,23.6563988 L153.006135,29.2552258 L146.223638,29.2552258 L158.868996,0.423216422 L165.650068,0.423216422 L178.090112,29.2552258 L171.059526,29.2552258 L168.77398,23.6563988 Z M166.662381,18.4322815 L162.072753,7.2344868 L157.457461,18.4322815 L166.662381,18.4322815 Z" id="Shape"></path>
                <polygon id="Path" points="186.670534 0.423216422 186.670534 12.4629677 199.859119 12.4629677 199.859119 0.423216422 206.430599 0.423216422 206.430599 29.2552258 199.859119 29.2552258 199.859119 17.8944282 186.670534 17.8944282 186.670534 29.2552258 180.099054 29.2552258 180.099054 0.423216422"></polygon>
            </g>
        </g>
    </g>
</svg>