<?xml version="1.0" encoding="UTF-8"?>
<svg width="186px" height="70px" viewBox="0 0 186 70" version="1.1" xmlns="http://www.w3.org/2000/svg" xmlns:xlink="http://www.w3.org/1999/xlink">
    <title>VTB_Logo_2018 Copy</title>
    <defs>
        <polygon id="path-1" points="1.01818166 54.8862534 119.505731 54.8862534 119.505731 1.03857728 1.01818166 1.03857728"></polygon>
    </defs>
    <g id="Pictures" stroke="none" stroke-width="1" fill="none" fill-rule="evenodd">
        <g id="VTB_Logo_2018-Copy" transform="translate(0.788980, 0.675264)">
            <path d="M12.6916254,0 L9.51673848,8.55805824 L53.5135809,8.55805824 L56.6884679,0 L12.6916254,0 Z M7.9283047,12.8351441 L4.75341776,21.3912591 L48.7502602,21.3912591 L51.9251473,12.8351441 L7.9283047,12.8351441 Z M3.17488694,25.6702883 L0,34.2264032 L43.9968425,34.2264032 L47.169749,25.6702883 L3.17488694,25.6702883 Z" id="Fill-1" fill="#009FDF" fill-rule="nonzero"></path>
            <g id="Fill-2-Clipped" transform="translate(64.786821, 11.408801)">
                <mask id="mask-2" fill="white">
                    <use xlink:href="#path-1"></use>
                </mask>
                <g id="path-1"></g>
                <path d="M28.0980132,26.1918423 L28.0980132,26.3773174 C30.0761519,27.1232938 31.965717,28.4277335 32.9557704,29.2654284 C36.0145041,31.8743075 37.364756,35.3208817 37.364756,39.7926639 C37.364756,47.1545951 33.5856254,52.464072 27.3776164,54.1415 C25.4880512,54.6999632 23.5099126,54.8874764 19.8193555,54.8874764 L1.01818166,54.8874764 L1.01818166,1.03857728 L17.6621018,1.03857728 C21.0810341,1.03857728 23.419371,1.22405229 25.4880512,1.78251552 C31.5169452,3.45994336 35.4751908,7.74625051 35.4751908,14.5456422 C35.4751908,18.1797295 34.2154805,21.2553537 32.1468003,23.3037315 C31.2472885,24.2351829 29.9875784,25.3541476 28.0980132,26.1918423 Z M11.4540928,31.8743075 L11.4540928,46.0356304 L18.6521554,46.0356304 C20.8094091,46.0356304 22.789516,45.8501554 24.2303094,44.4519591 C25.6691345,43.053763 26.2989896,41.2846167 26.2989896,38.954969 C26.2989896,37.1858228 25.8482495,35.5083948 24.9487379,34.2977119 C23.419371,32.3410525 21.5298057,31.8743075 18.2919571,31.8743075 L11.4540928,31.8743075 Z M11.3635513,22.5577551 L17.2113618,22.5577551 C19.0103855,22.5577551 19.9098973,22.5577551 20.8094091,22.2785235 C23.240256,21.5325471 24.7696227,19.2986941 24.7696227,16.22307 C24.7696227,12.5910208 23.1497143,11.0053115 20.8094091,10.2613731 C19.8193555,9.98214149 18.8312704,9.88838501 16.8511635,9.88838501 L11.3635513,9.88838501 L11.3635513,22.5577551 Z M53.0186228,54.8874764 L53.0186228,10.07386 L37.994611,10.07386 L37.994611,1.03857728 L79.7402243,1.03857728 L76.7720323,10.07386 L63.4545342,10.07386 L63.4545342,54.8874764 L53.0186228,54.8874764 Z M82.9780731,54.8874764 L82.9780731,1.03857728 L116.807195,1.03857728 L113.839003,10.07386 L93.3254109,10.07386 L93.3254109,21.9992919 L101.692642,21.9992919 C108.439964,21.9992919 111.949438,23.6767196 114.378317,25.8188542 C116.267882,27.4962819 119.505731,31.2220877 119.505731,38.5840189 C119.505731,45.8501554 116.17734,49.8551927 113.388263,51.9056088 C110.150415,54.2332182 106.731483,54.8874764 99.8030767,54.8874764 L82.9780731,54.8874764 Z M93.3254109,45.8501554 L101.153329,45.8501554 C104.121521,45.8501554 105.920544,45.104179 107.180254,43.4267511 C107.810109,42.5890564 108.709621,41.0971036 108.709621,38.3027491 C108.709621,35.5083948 107.810109,33.5517354 106.011086,32.1535391 C104.932459,31.3158444 103.491666,30.8511377 101.062787,30.8511377 L93.3254109,30.8511377 L93.3254109,45.8501554 Z" id="Fill-2" fill="#0A2973" fill-rule="nonzero" mask="url(#mask-2)"></path>
            </g>
        </g>
    </g>
</svg>