<?xml version="1.0" encoding="UTF-8"?>
<svg width="321px" height="72px" viewBox="0 0 321 72" version="1.1" xmlns="http://www.w3.org/2000/svg" xmlns:xlink="http://www.w3.org/1999/xlink">
    <title>CS_Logo_Black</title>
    <g id="Pictures" stroke="none" stroke-width="1" fill="none" fill-rule="evenodd">
        <g id="CS_Logo_Black" fill="#212121" fill-rule="nonzero">
            <g id="Group" transform="translate(0.000000, 9.000000)">
                <path d="M28.7955663,21.6716957 L29.8398614,21.6716957 L29.8398614,33.4760543 L28.7955663,33.4760543 C28.5055465,32.1335761 27.9769416,30.9498152 27.2226663,29.9247717 C24.334786,33.271 20.6410465,34.9441522 16.154437,34.9441522 C11.4099077,34.9441522 7.52931628,33.4033152 4.51885884,30.3215652 C1.50843872,27.2398913 0,23.1662717 0,18.1006304 C0,14.7742609 0.696187786,11.6397065 2.08214037,8.69681522 C3.46809893,5.754 5.40844688,3.57175 7.8967493,2.14991304 C10.3850219,0.728076087 13.1118049,0.0138478261 16.0835184,0.0138478261 C18.5395416,0.0138478261 20.7635491,0.529717391 22.7553914,1.56792391 C24.7473084,2.60620652 26.2364498,3.75025 27.2226663,5.00675 C27.9189377,3.59815217 28.3379547,2.14329348 28.4797172,0.635478261 L29.5434216,0.635478261 L29.8334414,13.4053804 L28.7891463,13.4053804 C28.0607002,8.86877174 26.5781281,5.7143587 24.3477007,3.94206522 C22.1107786,2.16977174 19.5902567,1.28358696 16.7797151,1.28358696 C13.3438207,1.28358696 10.604123,2.71866304 8.5800314,5.58211957 C6.55588005,8.44557609 5.54379691,12.5456739 5.54379691,17.882413 C5.54379691,22.9348152 6.6461333,26.8034565 8.86363116,29.4949565 C11.074724,32.1864565 13.8273363,33.5355543 17.1213935,33.5355543 C18.88122,33.5355543 20.6797158,33.0991196 22.5233756,32.2195543 C24.3605407,31.3399891 25.8238528,29.8521087 26.8939026,27.7623043 C27.970447,25.6527935 28.6022198,23.6291848 28.7955663,21.6716957 Z" id="Path"></path>
                <path d="M117.9996,34.3216087 L109.161649,34.3216087 C107.595467,33.1974239 105.196926,30.2479891 101.967516,25.4733043 C100.935837,23.9523261 99.8593674,22.4908478 98.7440791,21.0888696 C97.6295372,19.6868913 96.8621233,18.8338043 96.4433302,18.5296087 C96.0237907,18.225413 95.3668605,18.0733152 94.4837372,18.0733152 L93.1751023,18.0733152 L93.1751023,25.552663 C93.1751023,28.2045217 93.2325837,29.9371739 93.3550116,30.757163 C93.4774395,31.5772283 93.7999326,32.1856196 94.3224907,32.582413 C94.8443023,32.9792065 95.8498535,33.1775652 97.3391442,33.1775652 L98.9120442,33.1775652 L98.9120442,34.3216087 L83.1957349,34.3216087 L83.1957349,33.1775652 L84.259514,33.1775652 C85.6651953,33.1775652 86.6386465,32.9923696 87.1798674,32.6286739 C87.7210884,32.2649783 88.0629907,31.6962283 88.2108,30.9291196 C88.3593558,30.1620109 88.4302744,28.3632391 88.4302744,25.552663 L88.4302744,9.03327174 C88.4302744,6.34831522 88.3593558,4.6223587 88.2108,3.84201087 C88.0629907,3.06166304 87.7404977,2.52601087 87.2440674,2.2283587 C86.7476372,1.93078261 85.6584767,1.77868478 84.0019674,1.77868478 L83.4473093,1.77868478 L83.4473093,0.634641304 L88.1466,0.383326087 C91.2797093,0.231228261 93.7678326,0.15848913 95.6049977,0.15848913 C98.738107,0.15848913 101.284458,0.456065217 103.244051,1.05129348 C105.203644,1.64644565 106.789235,2.62515217 108.00157,3.98086957 C109.213158,5.33651087 109.819326,6.96332609 109.819326,8.84807609 C109.819326,11.0502609 109.02653,12.9283152 107.446912,14.4890109 C105.861321,16.043087 103.540416,17.01525 100.472253,17.3988043 C101.845088,18.0799348 104.056256,20.5267391 107.105009,24.7525326 C109.593879,28.1781196 111.546753,30.4264891 112.965126,31.4846304 C114.383498,32.5426957 116.065388,33.1114457 117.9996,33.1775652 L117.9996,34.3216087 Z M93.1751023,16.9292717 C94.3866907,16.8961739 95.6370977,16.8432935 96.9263233,16.7771739 C98.2155488,16.7110543 99.3375558,16.5258587 100.291598,16.2282826 C101.24564,15.9307065 102.013053,15.4941957 102.605784,14.9255217 C103.192542,14.3567717 103.656872,13.6029022 103.998028,12.6770761 C104.33993,11.75125 104.507149,10.6071304 104.507149,9.25148913 C104.507149,6.88396739 103.927109,4.98605435 102.773002,3.56421739 C101.619642,2.14238043 99.1053907,1.42822826 95.2309953,1.42822826 C94.6315465,1.42822826 93.9484884,1.46125 93.1751023,1.52744565 L93.1751023,16.9292717 L93.1751023,16.9292717 Z" id="Shape"></path>
                <path d="M146.370028,23.8598043 L147.530853,23.8598043 L146.82764,34.3415435 L119.630728,34.3415435 L119.630728,33.1974239 L120.307814,33.1974239 C121.938942,33.1974239 122.989284,32.972587 123.466305,32.5295326 C123.943326,32.0798587 124.246409,31.5177283 124.375556,30.8299783 C124.504702,30.1422283 124.568902,28.3897174 124.568902,25.5725978 L124.568902,9.05313043 C124.568902,6.48725 124.497984,4.79431522 124.362865,3.98748913 C124.227,3.17411957 123.911226,2.61198913 123.414795,2.28793478 C122.925084,1.96395652 121.887433,1.80516304 120.301095,1.80516304 L120.301095,0.661119565 L143.772167,0.661119565 L144.5463,9.05975 L143.404884,9.05975 C142.889044,6.70546739 142.257495,5.03901087 141.503519,4.05368478 C140.748795,3.06828261 139.8597,2.44665217 138.828021,2.18879348 C137.796342,1.9308587 136.13386,1.80516304 133.838337,1.80516304 L129.287602,1.80516304 L129.287602,15.9439457 L132.775305,15.9439457 C134.373586,15.9439457 135.488874,15.805087 136.127142,15.52075 C136.765409,15.236337 137.184202,14.8131413 137.384267,14.2377717 C137.584333,13.6690217 137.687351,12.5514565 137.687351,10.898163 L138.828021,10.898163 L138.828021,22.4247283 L137.687351,22.4247283 C137.687351,20.5532935 137.532077,19.2967935 137.22974,18.6619239 C136.919937,18.0270543 136.475016,17.6104783 135.882286,17.418663 C135.295528,17.2268478 134.296695,17.1343261 132.891014,17.1343261 L129.280884,17.1343261 L129.280884,25.1096848 C129.280884,29.1039457 129.532458,31.4516087 130.035607,32.1525978 C130.538009,32.853587 131.885463,33.210663 134.077221,33.210663 L136.520553,33.210663 C138.247981,33.210663 139.666353,32.9858261 140.781642,32.5295326 C141.896184,32.0732391 142.959963,31.1407935 143.965514,29.7189565 C144.971065,28.2971957 145.789988,26.3463261 146.370028,23.8598043 Z" id="Path"></path>
                <path d="M164.354986,33.9713043 L164.354986,23.1391087 L165.566574,23.1391087 C166.939409,30.1952609 170.194947,33.7200652 175.326467,33.7200652 C177.633935,33.7200652 179.426309,33.0454783 180.689407,31.6964565 C181.959223,30.3473587 182.591519,28.833 182.591519,27.1598478 C182.591519,25.4735326 182.03686,24.0516957 180.921572,22.9142717 C179.806284,21.790087 177.775772,20.5798478 174.817347,19.2837065 C172.18664,18.1264239 170.201665,17.108 168.86093,16.2416739 C167.519449,15.3753478 166.475826,14.2445435 165.721102,12.8491848 C164.973844,11.4604457 164.593123,9.97248913 164.593123,8.39855435 C164.593123,5.99801087 165.405328,3.99426087 167.029737,2.40054348 C168.654147,0.800130435 170.704067,0 173.192191,0 C174.578463,0 175.887098,0.231456522 177.118095,0.694369565 C178.343121,1.15728261 179.606219,2.11613043 180.896191,3.57768478 C181.637477,2.66502174 182.05627,1.67969565 182.15257,0.621630435 L183.216349,0.621630435 L183.216349,9.44345652 L182.15257,9.44345652 C181.54043,6.87757609 180.45127,4.85396739 178.897779,3.37925 C177.33757,1.90453261 175.532505,1.17052174 173.482584,1.17052174 C171.529709,1.17052174 170.098647,1.71279348 169.182677,2.79733696 C168.267453,3.88188043 167.81656,5.07218478 167.81656,6.36178261 C167.81656,7.9158587 168.389881,9.23847826 169.53727,10.3097826 C170.665249,11.4009457 172.709198,12.6309674 175.661651,13.9866087 C178.484958,15.2762065 180.541598,16.3210326 181.824105,17.108 C183.106612,17.8949674 184.138291,18.9861304 184.911677,20.3748696 C185.685809,21.7636087 186.072502,23.3705652 186.072502,25.1958152 C186.072502,28.0790543 185.13787,30.4200978 183.261886,32.2254891 C181.385902,34.0308804 178.884342,34.9368478 175.751979,34.9368478 C172.148567,34.9368478 169.150577,33.5216304 166.740091,30.6912717 C166.204842,31.4716196 165.81143,32.5627826 165.553884,33.9713043 L164.354986,33.9713043 L164.354986,33.9713043 Z" id="Path"></path>
                <path d="M199.765019,18.470413 L199.765019,25.5530435 C199.765019,28.2048261 199.823247,29.9374783 199.945674,30.7575435 C200.068102,31.5775326 200.390595,32.1859239 200.925098,32.5827174 C201.460347,32.9795109 202.459926,33.1778696 203.92906,33.1778696 L205.018967,33.1778696 L205.018967,34.3219891 L189.979744,34.3219891 L189.979744,33.1778696 L190.84943,33.1778696 C192.255112,33.1778696 193.228563,32.99275 193.769784,32.6289783 C194.311751,32.2652826 194.652907,31.6965326 194.801463,30.9294239 C194.949272,30.1623152 195.020191,28.3635435 195.020191,25.5530435 L195.020191,9.03357609 C195.020191,6.34861957 194.949272,4.62266304 194.801463,3.84231522 C194.659626,3.06196739 194.33116,2.52631522 193.83473,2.22873913 C193.331581,1.93108696 192.248393,1.77898913 190.585165,1.77898913 L189.979744,1.77898913 L189.979744,0.634945652 L194.098995,0.482847826 C197.392605,0.370467391 199.958365,0.310891304 201.802249,0.310891304 C205.192905,0.310891304 207.803456,0.582065217 209.634649,1.13095652 C211.465095,1.67984783 212.967077,2.64531522 214.140593,4.04067391 C215.313363,5.42941304 215.893402,7.18854348 215.893402,9.30467391 C215.893402,11.143163 215.494019,12.7633587 214.694505,14.1719565 C213.894991,15.5804783 212.747602,16.6452391 211.259058,17.37925 C209.763049,18.1067174 207.139807,18.470413 203.375149,18.470413 L199.765019,18.470413 L199.765019,18.470413 Z M199.765019,17.2271522 L202.111305,17.2271522 C203.999979,17.2271522 205.528088,17.035413 206.688167,16.6452391 C207.848993,16.2550652 208.822444,15.4416196 209.59583,14.1983587 C210.369216,12.9550978 210.755909,11.4275 210.755909,9.60225 C210.755909,6.81815217 210.09226,4.78138043 208.757498,3.47861957 C207.423481,2.17578261 205.263823,1.52775 202.27927,1.52775 C201.183391,1.52775 200.345058,1.56077174 199.7583,1.6268913 L199.7583,17.2271522 L199.765019,17.2271522 Z" id="Shape"></path>
                <path d="M217.543193,1.77221739 L217.543193,0.628173913 L232.557035,0.628173913 L232.557035,1.77221739 L231.853821,1.77221739 C230.242102,1.77221739 229.17907,1.91107609 228.68264,2.18225 C228.179491,2.45334783 227.844307,2.96259783 227.677088,3.70984783 C227.509123,4.45709783 227.425514,6.22946739 227.425514,9.02680435 L227.425514,25.5461957 C227.425514,28.1980543 227.483742,29.9307065 227.60617,30.7506957 C227.728598,31.5707609 228.051091,32.1791522 228.572902,32.5759457 C229.094714,32.9727391 230.101012,33.1710978 231.589556,33.1710978 L232.557035,33.1710978 L232.557035,34.3151413 L217.543193,34.3151413 L217.543193,33.1710978 L218.509926,33.1710978 C219.915607,33.1710978 220.889058,32.9859022 221.430279,32.6222065 C221.9715,32.2585109 222.313402,31.6897609 222.461958,30.9226522 C222.609767,30.1555435 222.680686,28.3567717 222.680686,25.5461957 L222.680686,9.02680435 C222.680686,6.34184783 222.609767,4.61581522 222.461958,3.83546739 C222.313402,3.05519565 221.990909,2.51946739 221.494479,2.2218913 C220.998795,1.92431522 219.908888,1.77221739 218.252379,1.77221739 L217.543193,1.77221739 Z" id="Path"></path>
                <path d="M269.875151,34.3216087 L261.0372,34.3216087 C259.470272,33.1974239 257.072477,30.2479891 253.843067,25.4733043 C252.811388,23.9523261 251.734919,22.4908478 250.61963,21.0888696 C249.504342,19.6868913 248.737674,18.8338043 248.318135,18.5296087 C247.899342,18.225413 247.241665,18.0733152 246.358542,18.0733152 L245.049907,18.0733152 L245.049907,25.552663 C245.049907,28.2045217 245.108135,29.9371739 245.230563,30.757163 C245.352991,31.5772283 245.675484,32.1856196 246.197295,32.582413 C246.719853,32.9792065 247.725405,33.1775652 249.214695,33.1775652 L250.787595,33.1775652 L250.787595,34.3216087 L235.071286,34.3216087 L235.071286,33.1775652 L236.135065,33.1775652 C237.54,33.1775652 238.513451,32.9923696 239.055419,32.6286739 C239.59664,32.2649783 239.938542,31.6962283 240.086351,30.9291196 C240.234907,30.1620109 240.305826,28.3632391 240.305826,25.552663 L240.305826,9.03327174 C240.305826,6.34831522 240.234907,4.6223587 240.086351,3.84201087 C239.938542,3.06166304 239.616049,2.52601087 239.119619,2.2283587 C238.623188,1.93078261 237.534028,1.77868478 235.876772,1.77868478 L235.32286,1.77868478 L235.32286,0.634641304 L240.022151,0.383326087 C243.15526,0.231228261 245.643384,0.15848913 247.480549,0.15848913 C250.613658,0.15848913 253.160009,0.456065217 255.119602,1.05129348 C257.079195,1.64644565 258.664786,2.62515217 259.876374,3.98086957 C261.088709,5.33651087 261.694877,6.96332609 261.694877,8.84807609 C261.694877,11.0502609 260.901335,12.9283152 259.322463,14.4890109 C257.736872,16.043087 255.415967,17.01525 252.347058,17.3988043 C253.72064,18.0799348 255.931807,20.5267391 258.98056,24.7525326 C261.468684,28.1781196 263.422305,30.4264891 264.840677,31.4846304 C266.258302,32.5426957 267.94094,33.1114457 269.875151,33.1775652 L269.875151,34.3216087 L269.875151,34.3216087 Z M245.056626,16.9292717 C246.268214,16.8961739 247.519367,16.8432935 248.808593,16.7771739 C250.097819,16.7110543 251.219079,16.5258587 252.173121,16.2282826 C253.127163,15.9307065 253.894577,15.4941957 254.487307,14.9255217 C255.074065,14.3567717 255.538395,13.6029022 255.880298,12.6770761 C256.221453,11.75125 256.389419,10.6071304 256.389419,9.25148913 C256.389419,6.88396739 255.809379,4.98605435 254.655272,3.56421739 C253.501165,2.14238043 250.986914,1.42822826 247.113265,1.42822826 C246.513816,1.42822826 245.830012,1.46125 245.056626,1.52744565 L245.056626,16.9292717 Z" id="Shape"></path>
                <path d="M271.25993,1.77221739 L271.25993,0.628173913 L286.273772,0.628173913 L286.273772,1.77221739 L285.570558,1.77221739 C283.959586,1.77221739 282.895807,1.91107609 282.399377,2.18225 C281.896228,2.45334783 281.561044,2.96259783 281.393826,3.70984783 C281.22586,4.45709783 281.142251,6.22946739 281.142251,9.02680435 L281.142251,25.5461957 C281.142251,28.1980543 281.200479,29.9307065 281.322907,30.7506957 C281.445335,31.5707609 281.767828,32.1791522 282.28964,32.5759457 C282.811451,32.9727391 283.817749,33.1710978 285.306293,33.1710978 L286.273772,33.1710978 L286.273772,34.3151413 L271.25993,34.3151413 L271.25993,33.1710978 L272.226663,33.1710978 C273.632344,33.1710978 274.605795,32.9859022 275.147016,32.6222065 C275.688984,32.2585109 276.03014,31.6897609 276.178695,30.9226522 C276.326505,30.1555435 276.397423,28.3567717 276.397423,25.5461957 L276.397423,9.02680435 C276.397423,6.34184783 276.326505,4.61581522 276.178695,3.83546739 C276.03014,3.05519565 275.707647,2.51946739 275.211963,2.2218913 C274.715533,1.92431522 273.625626,1.77221739 271.969116,1.77221739 L271.25993,1.77221739 Z" id="Path"></path>
                <path d="M289.909284,8.72915217 L288.793995,8.72915217 L288.96196,0.628173913 L320.832035,0.628173913 L321,8.72915217 L319.95563,8.72915217 C319.581628,6.50718478 319.072507,4.90684783 318.428267,3.92144565 C317.783281,2.93611957 317.086786,2.33434783 316.3455,2.10951087 C315.604214,1.88467391 314.334398,1.77221739 312.54277,1.77221739 L307.262693,1.77221739 L307.262693,25.5461957 C307.262693,28.1781957 307.320921,29.9108478 307.443349,30.7374565 C307.565777,31.5641413 307.894988,32.1791522 308.423519,32.5759457 C308.958021,32.9727391 309.9576,33.1710978 311.427481,33.1710978 L313.025763,33.1710978 L313.025763,34.3151413 L296.652523,34.3151413 L296.652523,33.1710978 L298.347851,33.1710978 C299.752786,33.1710978 300.726237,32.9859022 301.268205,32.6222065 C301.809426,32.2585109 302.1573,31.6897609 302.311828,30.9226522 C302.467102,30.1555435 302.543993,28.3567717 302.543993,25.5461957 L302.543993,1.77221739 L297.677484,1.77221739 C295.562616,1.77221739 294.138272,1.87805435 293.416395,2.08303261 C292.6878,2.28801087 292.004742,2.91626087 291.372447,3.96116304 C290.734926,4.99936957 290.244467,6.59316304 289.909284,8.72915217 Z" id="Path"></path>
            </g>
            <path d="M1.81002761,68.7890969 L1.81002761,62.6855727 L9.02214794,62.6855727 L9.02214794,68.7890969 L10.8321756,68.7890969 L10.8321756,55.3744493 L9.02214794,55.3744493 L9.02214794,61.3562775 L1.81002761,61.3562775 L1.81002761,55.3744493 L0,55.3744493 L0,68.7890969 L1.81002761,68.7890969 Z M18.4361575,68.9388767 C19.0954803,68.9388767 19.6801628,68.8000184 20.1902049,68.5223018 C20.7002471,68.2445852 21.160529,67.8779369 21.5710507,67.4223568 L21.5710507,67.4223568 L21.7016713,68.4427313 C21.7638715,68.6736417 21.9131522,68.7890969 22.1495132,68.7890969 L22.1495132,68.7890969 L23.1384973,68.7890969 L23.1384973,59.3061674 L21.4777503,59.3061674 L21.4777503,66.2896476 C21.1169888,66.7015419 20.7235722,67.0245044 20.2975004,67.2585352 C19.8714286,67.4925661 19.4127016,67.6095815 18.9213196,67.6095815 C18.2495568,67.6095815 17.7503997,67.4129956 17.4238483,67.0198238 C17.0972969,66.626652 16.9340212,66.0712188 16.9340212,65.3535242 L16.9340212,65.3535242 L16.9340212,59.3061674 L15.2732742,59.3061674 L15.2732742,65.3535242 C15.2732742,65.8902349 15.3401395,66.3801395 15.4738701,66.8232379 C15.6076006,67.2663363 15.8081965,67.643906 16.0756576,67.9559471 C16.3431187,68.2679883 16.6743351,68.5098201 17.0693068,68.6814427 C17.4642784,68.8530653 17.9198954,68.9388767 18.4361575,68.9388767 Z M29.1190525,68.7890969 L29.1190525,61.7213656 C29.4113937,61.3406755 29.731725,61.0395558 30.0800465,60.8180066 C30.428368,60.5964574 30.8077896,60.4856828 31.2183113,60.4856828 C31.8029938,60.4856828 32.2477256,60.6729075 32.5525069,61.0473568 C32.8572882,61.4218062 33.0096788,61.989721 33.0096788,62.7511013 L33.0096788,62.7511013 L33.0096788,68.7890969 L34.6797558,68.7890969 L34.6797558,62.7511013 C34.6797558,62.376652 34.7341811,62.0474486 34.8430315,61.7634912 C34.951882,61.4795338 35.0996076,61.2439427 35.2862084,61.0567181 C35.4728092,60.8694934 35.6889551,60.7275147 35.9346461,60.6307819 C36.1803372,60.5340492 36.4400233,60.4856828 36.7137044,60.4856828 C37.323267,60.4856828 37.7897689,60.6775881 38.1132103,61.0613987 C38.4366516,61.4452093 38.5983723,62.0084435 38.5983723,62.7511013 L38.5983723,62.7511013 L38.5983723,68.7890969 L40.2684494,68.7890969 L40.2684494,62.7511013 C40.2684494,62.1769457 40.1969191,61.6667584 40.0538585,61.2205396 C39.9107978,60.7743209 39.703982,60.3983113 39.4334108,60.092511 C39.1628397,59.7867107 38.8331783,59.5542401 38.4444267,59.3950991 C38.055675,59.2359581 37.6124982,59.1563877 37.1148961,59.1563877 C36.8038948,59.1563877 36.4975585,59.1938326 36.1958872,59.2687225 C35.894216,59.3436123 35.6096498,59.462188 35.3421886,59.6244493 C35.0747275,59.7867107 34.8337015,59.9926579 34.6191106,60.2422907 C34.4045197,60.4919236 34.228804,60.7883627 34.0919634,61.1316079 C33.9178026,60.5262482 33.6332364,60.0457048 33.2382648,59.689978 C32.8432931,59.3342511 32.328586,59.1563877 31.6941433,59.1563877 C31.1219009,59.1563877 30.6180788,59.2936858 30.1826769,59.5682819 C29.7472751,59.8428781 29.3554135,60.1954846 29.007092,60.6261013 L29.007092,60.6261013 L28.8858015,59.652533 C28.8298212,59.4216226 28.6836506,59.3061674 28.4472896,59.3061674 L28.4472896,59.3061674 L27.4489754,59.3061674 L27.4489754,68.7890969 L29.1190525,68.7890969 Z M46.4262753,68.9388767 C46.7870368,68.9388767 47.1151431,68.9061123 47.4105944,68.8405837 C47.7060456,68.7750551 47.9843918,68.6814427 48.2456329,68.5597467 C48.506874,68.4380507 48.755675,68.2882709 48.992036,68.1104075 C49.228397,67.9325441 49.4709781,67.7281571 49.7197791,67.4972467 L49.7197791,67.4972467 L49.9063799,68.3959251 C49.9561401,68.5519457 50.0245604,68.6564794 50.1116407,68.7095264 C50.1987211,68.7625734 50.3231216,68.7890969 50.4848423,68.7890969 L50.4848423,68.7890969 L51.2219154,68.7890969 L51.2219154,62.7230176 C51.2219154,62.1925477 51.1503851,61.7057636 51.0073245,61.2626652 C50.8642639,60.8195668 50.652783,60.4419971 50.3728818,60.1299559 C50.0929807,59.8179148 49.7477692,59.5745228 49.3372475,59.3997797 C48.9267258,59.2250367 48.4571138,59.1376652 47.9284116,59.1376652 C47.1944485,59.1376652 46.5257957,59.2624816 45.9224531,59.5121145 C45.3191106,59.7617474 44.7561982,60.1393172 44.233716,60.6448238 L44.233716,60.6448238 L44.5322773,61.1784141 C44.5882575,61.2657856 44.6566778,61.3391153 44.7375381,61.3984031 C44.8183985,61.4576909 44.9148089,61.4873348 45.0267694,61.4873348 C45.16983,61.4873348 45.3144456,61.435848 45.4606162,61.3328744 C45.6067868,61.2299009 45.7809475,61.1144457 45.9830984,60.9865088 C46.1852492,60.858572 46.4247202,60.7431167 46.7015114,60.6401432 C46.9783026,60.5371696 47.321959,60.4856828 47.7324807,60.4856828 C48.3420433,60.4856828 48.8054353,60.6744677 49.1226566,61.0520374 C49.4398779,61.4296072 49.5984886,61.9866006 49.5984886,62.7230176 L49.5984886,62.7230176 L49.5984886,63.4625551 C48.5224241,63.4875184 47.6143002,63.5858113 46.8741171,63.7574339 C46.133934,63.9290565 45.5337015,64.1490455 45.0734196,64.4174009 C44.6131376,64.6857562 44.2803662,64.9931167 44.0751054,65.3394824 C43.8698445,65.685848 43.7672141,66.0462555 43.7672141,66.4207048 C43.7672141,66.8513216 43.8371894,67.2242107 43.97714,67.5393722 C44.1170905,67.8545338 44.3068013,68.1150881 44.5462723,68.3210352 C44.7857434,68.5269824 45.0671995,68.6814427 45.3906409,68.7844163 C45.7140823,68.8873899 46.0592937,68.9388767 46.4262753,68.9388767 Z M46.9207673,67.7687225 C46.7030664,67.7687225 46.4993606,67.742199 46.3096498,67.689152 C46.119939,67.636105 45.9551083,67.5518539 45.8151577,67.4363987 C45.6752071,67.3209435 45.5648016,67.1727239 45.4839413,66.9917401 C45.4030809,66.8107562 45.3626508,66.5954479 45.3626508,66.345815 C45.3626508,66.0837004 45.4388461,65.8465492 45.5912367,65.6343612 C45.7436274,65.4221733 45.9893184,65.238069 46.3283098,65.0820485 C46.6673013,64.9260279 47.1058131,64.7996512 47.6438454,64.7029185 C48.1818776,64.6061858 48.8334254,64.5453377 49.5984886,64.5203744 L49.5984886,64.5203744 L49.5984886,66.4862335 C49.4118878,66.6859398 49.220622,66.8638032 49.0246912,67.0198238 C48.8287604,67.1758443 48.6234995,67.310022 48.4089086,67.4223568 C48.1943177,67.5346916 47.9657317,67.6205029 47.7231507,67.6797907 C47.4805697,67.7390786 47.2131086,67.7687225 46.9207673,67.7687225 Z M57.0998401,68.7890969 L57.0998401,61.8056167 C57.4606017,61.3999633 57.8540183,61.0785609 58.2800901,60.8414097 C58.7061619,60.6042584 59.1648888,60.4856828 59.6562709,60.4856828 C60.3218137,60.4856828 60.8178608,60.6838289 61.1444121,61.0801211 C61.4709635,61.4764134 61.6342392,62.0334068 61.6342392,62.7511013 L61.6342392,62.7511013 L61.6342392,68.7890969 L63.3043162,68.7890969 L63.3043162,62.7511013 C63.3043162,62.2143906 63.2358959,61.724486 63.0990554,61.2813877 C62.9622148,60.8382893 62.761619,60.4591593 62.4972678,60.1439978 C62.2329167,59.8288363 61.9032553,59.5854442 61.5082837,59.4138216 C61.113312,59.242199 60.6576951,59.1563877 60.1414329,59.1563877 C59.8055515,59.1563877 59.4929952,59.1922724 59.203764,59.2640419 C58.9145328,59.3358113 58.6408516,59.4387849 58.3827205,59.5729626 C58.1245894,59.7071402 57.8804534,59.8678414 57.6503125,60.0550661 C57.4201715,60.2422907 57.2024706,60.4513583 56.9972097,60.6822687 L56.9972097,60.6822687 L56.8665892,59.652533 C56.8106089,59.4216226 56.6644383,59.3061674 56.4280773,59.3061674 L56.4280773,59.3061674 L55.4297631,59.3061674 L55.4297631,68.7890969 L57.0998401,68.7890969 Z M77.4859759,68.9388767 C78.4003197,68.9388767 79.2384682,68.7719347 80.0004215,68.4380507 C80.7623747,68.1041667 81.4356925,67.6532673 82.0203749,67.0853524 L82.0203749,67.0853524 L83.3732306,68.4520925 C83.5038512,68.5893906 83.6251417,68.6798825 83.7371022,68.7235683 C83.8490626,68.767254 83.9952333,68.7890969 84.175614,68.7890969 L84.175614,68.7890969 L85.7897108,68.7890969 L82.990699,65.9339207 C83.4012208,65.3285609 83.7153321,64.6810756 83.933033,63.9914648 C84.1507339,63.3018539 84.2626944,62.5982012 84.2689144,61.8805066 L84.2689144,61.8805066 L83.2519401,61.8805066 C83.1399797,61.8805066 83.0528993,61.9148311 82.990699,61.9834802 C82.9284988,62.0521292 82.8911786,62.1457416 82.8787386,62.2643172 C82.8351984,62.7198972 82.741898,63.1770374 82.5988374,63.6357379 C82.4557768,64.0944383 82.266066,64.5359765 82.029705,64.9603524 L82.029705,64.9603524 L78.1857288,61.0379956 C77.9493678,60.8008443 77.747217,60.5761747 77.5792763,60.3639868 C77.4113356,60.1517988 77.27294,59.9427313 77.1640895,59.7367841 C77.0552391,59.530837 76.9759337,59.3280103 76.9261735,59.128304 C76.8764133,58.9285977 76.8515332,58.7195301 76.8515332,58.5011013 C76.8515332,58.2202643 76.8981834,57.95971 76.9914838,57.7194383 C77.0847842,57.4791667 77.2200698,57.2700991 77.3973405,57.0922357 C77.5746112,56.9143722 77.7892022,56.775514 78.0411132,56.6756608 C78.2930243,56.5758076 78.5744805,56.5258811 78.8854818,56.5258811 C79.171603,56.5258811 79.421959,56.5726872 79.6365499,56.6662996 C79.8511408,56.7599119 80.0346316,56.8784875 80.1870222,57.0220264 C80.3394129,57.1655653 80.4638134,57.3247063 80.5602238,57.4994493 C80.6566342,57.6741924 80.7266095,57.8426946 80.7701497,58.0049559 C80.8696701,58.248348 81.0220607,58.3450808 81.2273216,58.2951542 L81.2273216,58.2951542 L82.262956,58.089207 C82.2380759,57.7147577 82.1401104,57.3543502 81.9690597,57.0079846 C81.798009,56.6616189 81.566313,56.3573789 81.2739718,56.0952643 C80.9816306,55.8331498 80.6333091,55.622522 80.2290074,55.4633811 C79.8247057,55.3042401 79.3768638,55.2246696 78.8854818,55.2246696 C78.3318994,55.2246696 77.8327423,55.3104809 77.3880105,55.4821035 C76.9432786,55.6537261 76.565412,55.887757 76.2544107,56.184196 C75.9434094,56.4806351 75.7054934,56.8285609 75.5406627,57.2279736 C75.375832,57.6273862 75.2934167,58.0548825 75.2934167,58.5104626 C75.2934167,58.9972467 75.383607,59.4668686 75.5639878,59.9193282 C75.7443686,60.3717878 76.0242697,60.8414097 76.4036913,61.3281938 C75.9807295,61.5154185 75.5919779,61.7400881 75.2374364,62.0022026 C74.8828949,62.2643172 74.5750036,62.5607562 74.3137625,62.8915198 C74.0525214,63.2222834 73.8488156,63.5826909 73.702645,63.9727423 C73.5564743,64.3627937 73.483389,64.7762482 73.483389,65.2131057 C73.483389,65.7935022 73.5984595,66.3146109 73.8286005,66.7764317 C74.0587415,67.2382526 74.3635227,67.6298642 74.7429443,67.9512665 C75.1223659,68.2726689 75.5499927,68.5176211 76.0258247,68.6861233 C76.5016567,68.8546256 76.9883738,68.9388767 77.4859759,68.9388767 Z M77.7752071,67.5814978 C77.4517657,67.5814978 77.1345444,67.5268906 76.8235431,67.4176762 C76.5125418,67.3084618 76.2357506,67.1477606 75.9931696,66.9355727 C75.7505886,66.7233847 75.5546578,66.4628304 75.4053771,66.1539097 C75.2560965,65.844989 75.1814562,65.4877019 75.1814562,65.0820485 C75.1814562,64.4954112 75.3478419,63.9524596 75.6806133,63.4531938 C76.0133847,62.953928 76.5094318,62.5295521 77.1687545,62.1800661 L77.1687545,62.1800661 L81.1153611,66.1679515 C80.6986194,66.5985683 80.2119023,66.9418135 79.65521,67.1976872 C79.0985177,67.4535609 78.47185,67.5814978 77.7752071,67.5814978 Z M97.5922104,68.7890969 L97.5922104,63.7714758 L99.7381195,63.7714758 C100.546723,63.7714758 101.260471,63.666942 101.879363,63.4578744 C102.498256,63.2488069 103.017628,62.9570485 103.43748,62.5825991 C103.857332,62.2081498 104.176108,61.761931 104.393809,61.2439427 C104.61151,60.7259545 104.72036,60.1549192 104.72036,59.530837 C104.72036,58.900514 104.619285,58.3294787 104.417134,57.8177313 C104.214983,57.3059838 103.908647,56.8691263 103.498125,56.5071586 C103.087604,56.1451909 102.569786,55.8659141 101.944674,55.6693282 C101.319561,55.4727423 100.584043,55.3744493 99.7381195,55.3744493 L99.7381195,55.3744493 L95.7915129,55.3744493 L95.7915129,68.7890969 L97.5922104,68.7890969 Z M99.7381195,62.3298458 L97.5922104,62.3298458 L97.5922104,56.8067181 L99.7381195,56.8067181 C100.807964,56.8067181 101.605682,57.0469897 102.131275,57.527533 C102.656867,58.0080764 102.919663,58.6758443 102.919663,59.530837 C102.919663,59.9427313 102.851243,60.320301 102.714402,60.6635463 C102.577561,61.0067915 102.373856,61.3016703 102.103284,61.5481828 C101.832713,61.7946953 101.499942,61.9866006 101.10497,62.1238987 C100.709999,62.2611968 100.254382,62.3298458 99.7381195,62.3298458 L99.7381195,62.3298458 Z M109.945182,68.7890969 L109.945182,55 L108.284435,55 L108.284435,68.7890969 L109.945182,68.7890969 Z M116.261619,68.9388767 C116.62238,68.9388767 116.950487,68.9061123 117.245938,68.8405837 C117.541389,68.7750551 117.819736,68.6814427 118.080977,68.5597467 C118.342218,68.4380507 118.591019,68.2882709 118.82738,68.1104075 C119.063741,67.9325441 119.306322,67.7281571 119.555123,67.4972467 L119.555123,67.4972467 L119.741724,68.3959251 C119.791484,68.5519457 119.859904,68.6564794 119.946984,68.7095264 C120.034065,68.7625734 120.158465,68.7890969 120.320186,68.7890969 L120.320186,68.7890969 L121.057259,68.7890969 L121.057259,62.7230176 C121.057259,62.1925477 120.985729,61.7057636 120.842668,61.2626652 C120.699608,60.8195668 120.488127,60.4419971 120.208226,60.1299559 C119.928324,59.8179148 119.583113,59.5745228 119.172591,59.3997797 C118.762069,59.2250367 118.292457,59.1376652 117.763755,59.1376652 C117.029792,59.1376652 116.361139,59.2624816 115.757797,59.5121145 C115.154454,59.7617474 114.591542,60.1393172 114.06906,60.6448238 L114.06906,60.6448238 L114.367621,61.1784141 C114.423601,61.2657856 114.492022,61.3391153 114.572882,61.3984031 C114.653742,61.4576909 114.750153,61.4873348 114.862113,61.4873348 C115.005174,61.4873348 115.149789,61.435848 115.29596,61.3328744 C115.442131,61.2299009 115.616291,61.1144457 115.818442,60.9865088 C116.020593,60.858572 116.260064,60.7431167 116.536855,60.6401432 C116.813646,60.5371696 117.157303,60.4856828 117.567824,60.4856828 C118.177387,60.4856828 118.640779,60.6744677 118.958,61.0520374 C119.275222,61.4296072 119.433832,61.9866006 119.433832,62.7230176 L119.433832,62.7230176 L119.433832,63.4625551 C118.357768,63.4875184 117.449644,63.5858113 116.709461,63.7574339 C115.969278,63.9290565 115.369045,64.1490455 114.908763,64.4174009 C114.448481,64.6857562 114.11571,64.9931167 113.910449,65.3394824 C113.705188,65.685848 113.602558,66.0462555 113.602558,66.4207048 C113.602558,66.8513216 113.672533,67.2242107 113.812484,67.5393722 C113.952434,67.8545338 114.142145,68.1150881 114.381616,68.3210352 C114.621087,68.5269824 114.902543,68.6814427 115.225985,68.7844163 C115.549426,68.8873899 115.894637,68.9388767 116.261619,68.9388767 Z M116.756111,67.7687225 C116.53841,67.7687225 116.334704,67.742199 116.144993,67.689152 C115.955283,67.636105 115.790452,67.5518539 115.650501,67.4363987 C115.510551,67.3209435 115.400145,67.1727239 115.319285,66.9917401 C115.238425,66.8107562 115.197994,66.5954479 115.197994,66.345815 C115.197994,66.0837004 115.27419,65.8465492 115.42658,65.6343612 C115.578971,65.4221733 115.824662,65.238069 116.163654,65.0820485 C116.502645,64.9260279 116.941157,64.7996512 117.479189,64.7029185 C118.017221,64.6061858 118.668769,64.5453377 119.433832,64.5203744 L119.433832,64.5203744 L119.433832,66.4862335 C119.247232,66.6859398 119.055966,66.8638032 118.860035,67.0198238 C118.664104,67.1758443 118.458843,67.310022 118.244252,67.4223568 C118.029661,67.5346916 117.801075,67.6205029 117.558494,67.6797907 C117.315913,67.7390786 117.048452,67.7687225 116.756111,67.7687225 Z M126.935184,68.7890969 L126.935184,61.8056167 C127.295945,61.3999633 127.689362,61.0785609 128.115434,60.8414097 C128.541506,60.6042584 129.000233,60.4856828 129.491615,60.4856828 C130.157157,60.4856828 130.653204,60.6838289 130.979756,61.0801211 C131.306307,61.4764134 131.469583,62.0334068 131.469583,62.7511013 L131.469583,62.7511013 L131.469583,68.7890969 L133.13966,68.7890969 L133.13966,62.7511013 C133.13966,62.2143906 133.07124,61.724486 132.934399,61.2813877 C132.797558,60.8382893 132.596963,60.4591593 132.332612,60.1439978 C132.06826,59.8288363 131.738599,59.5854442 131.343627,59.4138216 C130.948656,59.242199 130.493039,59.1563877 129.976777,59.1563877 C129.640895,59.1563877 129.328339,59.1922724 129.039108,59.2640419 C128.749876,59.3358113 128.476195,59.4387849 128.218064,59.5729626 C127.959933,59.7071402 127.715797,59.8678414 127.485656,60.0550661 C127.255515,60.2422907 127.037814,60.4513583 126.832553,60.6822687 L126.832553,60.6822687 L126.701933,59.652533 C126.645953,59.4216226 126.499782,59.3061674 126.263421,59.3061674 L126.263421,59.3061674 L125.265107,59.3061674 L125.265107,68.7890969 L126.935184,68.7890969 Z M141.322104,68.9201542 C141.664206,68.9201542 142.009417,68.8905103 142.357739,68.8312225 C142.70606,68.7719347 143.043497,68.6830029 143.370048,68.5644273 C143.696599,68.4458517 144.002936,68.2945117 144.289057,68.1104075 C144.575178,67.9263032 144.820869,67.7094347 145.02613,67.4598018 L145.02613,67.4598018 L144.559628,66.8513216 C144.484988,66.7452276 144.379247,66.6921806 144.242407,66.6921806 C144.136666,66.6921806 144.010711,66.740547 143.86454,66.8372797 C143.718369,66.9340125 143.536434,67.0385463 143.318733,67.1508811 C143.101032,67.2632159 142.841346,67.3677496 142.539674,67.4644824 C142.238003,67.5612151 141.878797,67.6095815 141.462055,67.6095815 C141.014213,67.6095815 140.609911,67.5362518 140.24915,67.3895925 C139.888388,67.2429332 139.577387,67.021384 139.316146,66.7249449 C139.054905,66.4285059 138.851199,66.0587372 138.705028,65.6156388 C138.558858,65.1725404 138.476442,64.6514317 138.457782,64.0523128 L138.457782,64.0523128 L144.774219,64.0523128 C144.92972,64.0523128 145.03546,64.008627 145.09144,63.9212555 C145.14742,63.833884 145.175411,63.659141 145.175411,63.3970264 C145.175411,62.7230176 145.07589,62.1223385 144.876849,61.594989 C144.677808,61.0676395 144.402572,60.6245411 144.051141,60.2656938 C143.699709,59.9068465 143.282968,59.6322504 142.800916,59.4419053 C142.318864,59.2515602 141.794826,59.1563877 141.228804,59.1563877 C140.544601,59.1563877 139.928818,59.2765235 139.381456,59.5167952 C138.834094,59.7570668 138.370702,60.0878304 137.99128,60.5090859 C137.611859,60.9303414 137.321073,61.428047 137.118922,62.0022026 C136.916771,62.5763583 136.815695,63.1941997 136.815695,63.8557269 C136.815695,64.6732746 136.927656,65.39721 137.151577,66.027533 C137.375498,66.6578561 137.688054,67.1867658 138.089246,67.6142621 C138.490437,68.0417584 138.966269,68.3662812 139.516742,68.5878304 C140.067214,68.8093796 140.669002,68.9201542 141.322104,68.9201542 Z M143.682604,63.0132159 L138.513763,63.0132159 C138.625723,62.1894273 138.913399,61.5450624 139.376791,61.0801211 C139.840183,60.6151799 140.469961,60.3827093 141.266124,60.3827093 C141.645546,60.3827093 141.984537,60.4466777 142.283098,60.5746145 C142.58166,60.7025514 142.835126,60.8835352 143.043497,61.1175661 C143.251867,61.3515969 143.410478,61.6293135 143.519329,61.9507159 C143.628179,62.2721182 143.682604,62.6262849 143.682604,63.0132159 L143.682604,63.0132159 Z M151.725098,68.9388767 C152.15428,68.9388767 152.571022,68.8624266 152.975323,68.7095264 C153.379625,68.5566263 153.724837,68.3459985 154.010958,68.0776432 L154.010958,68.0776432 L153.525796,67.2819383 C153.457375,67.1758443 153.379625,67.1227974 153.292545,67.1227974 C153.242784,67.1227974 153.185249,67.1462004 153.119939,67.1930066 C153.054629,67.2398128 152.975323,67.2912996 152.882023,67.347467 C152.788723,67.4036344 152.678317,67.4551211 152.550807,67.5019273 C152.423296,67.5487335 152.27246,67.5721366 152.0983,67.5721366 C151.793518,67.5721366 151.544717,67.4754038 151.351897,67.2819383 C151.159076,67.0884728 151.062665,66.7920338 151.062665,66.3926211 L151.062665,66.3926211 L151.062665,60.7009912 L153.796367,60.7009912 L153.796367,59.4933921 L151.062665,59.4933921 L151.062665,56.2263216 L150.222962,56.2263216 C150.117221,56.2263216 150.031696,56.2559655 149.966386,56.3152533 C149.901075,56.3745411 149.85909,56.4509912 149.84043,56.5446035 L149.84043,56.5446035 L149.457899,59.4746696 L147.909112,59.6712555 L147.909112,60.3359031 C147.909112,60.4607195 147.943322,60.5527717 148.011742,60.6120595 C148.080163,60.6713473 148.164133,60.7009912 148.263654,60.7009912 L148.263654,60.7009912 L149.401918,60.7009912 L149.401918,66.5049559 C149.401918,67.2912996 149.602514,67.8935389 150.003706,68.311674 C150.404898,68.7298091 150.978695,68.9388767 151.725098,68.9388767 Z M159.142479,68.9388767 C159.503241,68.9388767 159.831347,68.9061123 160.126798,68.8405837 C160.42225,68.7750551 160.700596,68.6814427 160.961837,68.5597467 C161.223078,68.4380507 161.471879,68.2882709 161.70824,68.1104075 C161.944601,67.9325441 162.187182,67.7281571 162.435983,67.4972467 L162.435983,67.4972467 L162.622584,68.3959251 C162.672344,68.5519457 162.740764,68.6564794 162.827845,68.7095264 C162.914925,68.7625734 163.039326,68.7890969 163.201046,68.7890969 L163.201046,68.7890969 L163.938119,68.7890969 L163.938119,62.7230176 C163.938119,62.1925477 163.866589,61.7057636 163.723529,61.2626652 C163.580468,60.8195668 163.368987,60.4419971 163.089086,60.1299559 C162.809185,59.8179148 162.463973,59.5745228 162.053452,59.3997797 C161.64293,59.2250367 161.173318,59.1376652 160.644616,59.1376652 C159.910653,59.1376652 159.242,59.2624816 158.638657,59.5121145 C158.035315,59.7617474 157.472402,60.1393172 156.94992,60.6448238 L156.94992,60.6448238 L157.248481,61.1784141 C157.304462,61.2657856 157.372882,61.3391153 157.453742,61.3984031 C157.534603,61.4576909 157.631013,61.4873348 157.742973,61.4873348 C157.886034,61.4873348 158.03065,61.435848 158.17682,61.3328744 C158.322991,61.2299009 158.497152,61.1144457 158.699302,60.9865088 C158.901453,60.858572 159.140924,60.7431167 159.417715,60.6401432 C159.694507,60.5371696 160.038163,60.4856828 160.448685,60.4856828 C161.058247,60.4856828 161.521639,60.6744677 161.838861,61.0520374 C162.156082,61.4296072 162.314693,61.9866006 162.314693,62.7230176 L162.314693,62.7230176 L162.314693,63.4625551 C161.238628,63.4875184 160.330504,63.5858113 159.590321,63.7574339 C158.850138,63.9290565 158.249906,64.1490455 157.789624,64.4174009 C157.329342,64.6857562 156.99657,64.9931167 156.791309,65.3394824 C156.586049,65.685848 156.483418,66.0462555 156.483418,66.4207048 C156.483418,66.8513216 156.553393,67.2242107 156.693344,67.5393722 C156.833295,67.8545338 157.023005,68.1150881 157.262476,68.3210352 C157.501947,68.5269824 157.783404,68.6814427 158.106845,68.7844163 C158.430286,68.8873899 158.775498,68.9388767 159.142479,68.9388767 Z M159.636971,67.7687225 C159.41927,67.7687225 159.215565,67.742199 159.025854,67.689152 C158.836143,67.636105 158.671312,67.5518539 158.531362,67.4363987 C158.391411,67.3209435 158.281006,67.1727239 158.200145,66.9917401 C158.119285,66.8107562 158.078855,66.5954479 158.078855,66.345815 C158.078855,66.0837004 158.15505,65.8465492 158.307441,65.6343612 C158.459831,65.4221733 158.705522,65.238069 159.044514,65.0820485 C159.383505,64.9260279 159.822017,64.7996512 160.360049,64.7029185 C160.898082,64.6061858 161.549629,64.5453377 162.314693,64.5203744 L162.314693,64.5203744 L162.314693,66.4862335 C162.128092,66.6859398 161.936826,66.8638032 161.740895,67.0198238 C161.544964,67.1758443 161.339704,67.310022 161.125113,67.4223568 C160.910522,67.5346916 160.681936,67.6205029 160.439355,67.6797907 C160.196774,67.7390786 159.929313,67.7687225 159.636971,67.7687225 Z M169.816044,68.7890969 L169.816044,62.7979075 C169.934225,62.4733847 170.0664,62.1847467 170.212571,61.9319934 C170.358741,61.6792401 170.523572,61.4670521 170.707063,61.2954295 C170.890554,61.1238069 171.098925,60.9943098 171.332176,60.9069383 C171.565427,60.8195668 171.831333,60.7758811 172.129894,60.7758811 C172.341375,60.7758811 172.531086,60.7946035 172.699026,60.8320485 C172.866967,60.8694934 172.994478,60.8882159 173.081558,60.8882159 C173.230839,60.8882159 173.324139,60.8102056 173.361459,60.654185 L173.361459,60.654185 L173.48275,59.409141 C173.339689,59.3155286 173.176413,59.2468796 172.992923,59.2031938 C172.809432,59.1595081 172.618166,59.1376652 172.419125,59.1376652 C171.790902,59.1376652 171.25909,59.3202093 170.823688,59.6852974 C170.388287,60.0503855 170.021305,60.5574523 169.722744,61.2064978 L169.722744,61.2064978 L169.610783,59.7648678 C169.585903,59.5963656 169.539253,59.47779 169.470833,59.409141 C169.402412,59.3404919 169.278012,59.3061674 169.097631,59.3061674 L169.097631,59.3061674 L168.145967,59.3061674 L168.145967,68.7890969 L169.816044,68.7890969 Z M178.903502,72 C179.077663,72 179.206729,71.9625551 179.290699,71.8876652 C179.374669,71.8127753 179.444645,71.7129222 179.500625,71.5881057 L179.500625,71.5881057 L184.772097,59.3061674 L183.456562,59.3061674 C183.344601,59.3061674 183.243526,59.3389317 183.153335,59.4044604 C183.063145,59.469989 182.99939,59.5526799 182.962069,59.652533 L182.962069,59.652533 L180.508269,65.6156388 C180.408749,65.8777533 180.315448,66.1554699 180.228368,66.4487885 C180.159948,66.1617107 180.075977,65.8871145 179.976457,65.625 L179.976457,65.625 L177.448016,59.652533 C177.416916,59.5651615 177.359381,59.485591 177.275411,59.4138216 C177.19144,59.3420521 177.077925,59.3061674 176.934864,59.3061674 L176.934864,59.3061674 L175.498038,59.3061674 L179.397994,68.2367841 L177.671937,72 L178.903502,72 Z M202.545822,68.7890969 L202.555152,67.310022 L196.117425,67.310022 L196.117425,62.7323789 L201.323587,62.7323789 L201.323587,61.3094714 L196.117425,61.3094714 L196.117425,56.8535242 L202.545822,56.8535242 L202.545822,55.3744493 L194.307397,55.3744493 L194.307397,68.7890969 L202.545822,68.7890969 Z M207.779974,68.7890969 L207.779974,61.8056167 C208.140735,61.3999633 208.534152,61.0785609 208.960224,60.8414097 C209.386296,60.6042584 209.845023,60.4856828 210.336405,60.4856828 C211.001947,60.4856828 211.497994,60.6838289 211.824546,61.0801211 C212.151097,61.4764134 212.314373,62.0334068 212.314373,62.7511013 L212.314373,62.7511013 L212.314373,68.7890969 L213.98445,68.7890969 L213.98445,62.7511013 C213.98445,62.2143906 213.91603,61.724486 213.779189,61.2813877 C213.642348,60.8382893 213.441753,60.4591593 213.177402,60.1439978 C212.91305,59.8288363 212.583389,59.5854442 212.188417,59.4138216 C211.793446,59.242199 211.337829,59.1563877 210.821567,59.1563877 C210.485685,59.1563877 210.173129,59.1922724 209.883898,59.2640419 C209.594666,59.3358113 209.320985,59.4387849 209.062854,59.5729626 C208.804723,59.7071402 208.560587,59.8678414 208.330446,60.0550661 C208.100305,60.2422907 207.882604,60.4513583 207.677343,60.6822687 L207.677343,60.6822687 L207.546723,59.652533 C207.490743,59.4216226 207.344572,59.3061674 207.108211,59.3061674 L207.108211,59.3061674 L206.109897,59.3061674 L206.109897,68.7890969 L207.779974,68.7890969 Z M219.871705,68.7890969 L219.871705,61.8056167 C220.232466,61.3999633 220.625883,61.0785609 221.051955,60.8414097 C221.478026,60.6042584 221.936753,60.4856828 222.428135,60.4856828 C223.093678,60.4856828 223.589725,60.6838289 223.916277,61.0801211 C224.242828,61.4764134 224.406104,62.0334068 224.406104,62.7511013 L224.406104,62.7511013 L224.406104,68.7890969 L226.076181,68.7890969 L226.076181,62.7511013 C226.076181,62.2143906 226.00776,61.724486 225.87092,61.2813877 C225.734079,60.8382893 225.533484,60.4591593 225.269132,60.1439978 C225.004781,59.8288363 224.67512,59.5854442 224.280148,59.4138216 C223.885177,59.242199 223.42956,59.1563877 222.913297,59.1563877 C222.272635,59.1563877 221.706612,59.2843245 221.21523,59.5401982 C220.723848,59.796072 220.276006,60.1393172 219.871705,60.5699339 L219.871705,60.5699339 L219.871705,55 L218.201628,55 L218.201628,68.7890969 L219.871705,68.7890969 Z M232.243337,68.9388767 C232.604098,68.9388767 232.932205,68.9061123 233.227656,68.8405837 C233.523107,68.7750551 233.801453,68.6814427 234.062694,68.5597467 C234.323935,68.4380507 234.572737,68.2882709 234.809098,68.1104075 C235.045459,67.9325441 235.28804,67.7281571 235.536841,67.4972467 L235.536841,67.4972467 L235.723441,68.3959251 C235.773202,68.5519457 235.841622,68.6564794 235.928702,68.7095264 C236.015783,68.7625734 236.140183,68.7890969 236.301904,68.7890969 L236.301904,68.7890969 L237.038977,68.7890969 L237.038977,62.7230176 C237.038977,62.1925477 236.967447,61.7057636 236.824386,61.2626652 C236.681325,60.8195668 236.469844,60.4419971 236.189943,60.1299559 C235.910042,59.8179148 235.564831,59.5745228 235.154309,59.3997797 C234.743787,59.2250367 234.274175,59.1376652 233.745473,59.1376652 C233.01151,59.1376652 232.342857,59.2624816 231.739515,59.5121145 C231.136172,59.7617474 230.57326,60.1393172 230.050778,60.6448238 L230.050778,60.6448238 L230.349339,61.1784141 C230.405319,61.2657856 230.473739,61.3391153 230.5546,61.3984031 C230.63546,61.4576909 230.73187,61.4873348 230.843831,61.4873348 C230.986891,61.4873348 231.131507,61.435848 231.277678,61.3328744 C231.423848,61.2299009 231.598009,61.1144457 231.80016,60.9865088 C232.002311,60.858572 232.241782,60.7431167 232.518573,60.6401432 C232.795364,60.5371696 233.13902,60.4856828 233.549542,60.4856828 C234.159105,60.4856828 234.622497,60.6744677 234.939718,61.0520374 C235.256939,61.4296072 235.41555,61.9866006 235.41555,62.7230176 L235.41555,62.7230176 L235.41555,63.4625551 C234.339486,63.4875184 233.431362,63.5858113 232.691179,63.7574339 C231.950995,63.9290565 231.350763,64.1490455 230.890481,64.4174009 C230.430199,64.6857562 230.097428,64.9931167 229.892167,65.3394824 C229.686906,65.685848 229.584276,66.0462555 229.584276,66.4207048 C229.584276,66.8513216 229.654251,67.2242107 229.794201,67.5393722 C229.934152,67.8545338 230.123863,68.1150881 230.363334,68.3210352 C230.602805,68.5269824 230.884261,68.6814427 231.207702,68.7844163 C231.531144,68.8873899 231.876355,68.9388767 232.243337,68.9388767 Z M232.737829,67.7687225 C232.520128,67.7687225 232.316422,67.742199 232.126711,67.689152 C231.937,67.636105 231.77217,67.5518539 231.632219,67.4363987 C231.492269,67.3209435 231.381863,67.1727239 231.301003,66.9917401 C231.220142,66.8107562 231.179712,66.5954479 231.179712,66.345815 C231.179712,66.0837004 231.255908,65.8465492 231.408298,65.6343612 C231.560689,65.4221733 231.80638,65.238069 232.145371,65.0820485 C232.484363,64.9260279 232.922875,64.7996512 233.460907,64.7029185 C233.998939,64.6061858 234.650487,64.5453377 235.41555,64.5203744 L235.41555,64.5203744 L235.41555,66.4862335 C235.228949,66.6859398 235.037683,66.8638032 234.841753,67.0198238 C234.645822,67.1758443 234.440561,67.310022 234.22597,67.4223568 C234.011379,67.5346916 233.782793,67.6205029 233.540212,67.6797907 C233.297631,67.7390786 233.03017,67.7687225 232.737829,67.7687225 Z M242.916902,68.7890969 L242.916902,61.8056167 C243.277663,61.3999633 243.67108,61.0785609 244.097152,60.8414097 C244.523223,60.6042584 244.98195,60.4856828 245.473332,60.4856828 C246.138875,60.4856828 246.634922,60.6838289 246.961474,61.0801211 C247.288025,61.4764134 247.451301,62.0334068 247.451301,62.7511013 L247.451301,62.7511013 L247.451301,68.7890969 L249.121378,68.7890969 L249.121378,62.7511013 C249.121378,62.2143906 249.052957,61.724486 248.916117,61.2813877 C248.779276,60.8382893 248.57868,60.4591593 248.314329,60.1439978 C248.049978,59.8288363 247.720317,59.5854442 247.325345,59.4138216 C246.930373,59.242199 246.474757,59.1563877 245.958494,59.1563877 C245.622613,59.1563877 245.310057,59.1922724 245.020825,59.2640419 C244.731594,59.3358113 244.457913,59.4387849 244.199782,59.5729626 C243.941651,59.7071402 243.697515,59.8678414 243.467374,60.0550661 C243.237233,60.2422907 243.019532,60.4513583 242.814271,60.6822687 L242.814271,60.6822687 L242.683651,59.652533 C242.62767,59.4216226 242.4815,59.3061674 242.245139,59.3061674 L242.245139,59.3061674 L241.246825,59.3061674 L241.246825,68.7890969 L242.916902,68.7890969 Z M256.967941,68.9201542 C257.310042,68.9201542 257.645924,68.8920705 257.975585,68.8359031 C258.305246,68.7797357 258.620913,68.690804 258.922584,68.5691079 C259.224255,68.4474119 259.505711,68.296072 259.766952,68.1150881 C260.028194,67.9341043 260.261445,67.7156755 260.466705,67.4598018 L260.466705,67.4598018 L260.000203,66.8513216 C259.925563,66.7452276 259.819823,66.6921806 259.682982,66.6921806 C259.571022,66.6921806 259.457506,66.740547 259.342436,66.8372797 C259.227365,66.9340125 259.084305,67.0416667 258.913254,67.1602423 C258.742203,67.2788179 258.526057,67.3864721 258.264816,67.4832048 C258.003575,67.5799376 257.670804,67.628304 257.266502,67.628304 C256.84354,67.628304 256.462564,67.5487335 256.123572,67.3895925 C255.784581,67.2304515 255.49535,66.9995411 255.255879,66.6968612 C255.016407,66.3941814 254.831362,66.019732 254.700741,65.5735132 C254.570121,65.1272944 254.50481,64.6171072 254.50481,64.0429515 C254.50481,63.4937592 254.565456,62.9976138 254.686746,62.5545154 C254.808037,62.111417 254.988417,61.7338473 255.227888,61.4218062 C255.467359,61.1097651 255.764366,60.8710536 256.118907,60.7056718 C256.473449,60.54029 256.88397,60.4575991 257.350472,60.4575991 C257.698794,60.4575991 257.99269,60.4966043 258.232161,60.5746145 C258.471632,60.6526248 258.673783,60.7384361 258.838614,60.8320485 C259.003444,60.9256608 259.14184,61.0114721 259.2538,61.0894824 C259.365761,61.1674927 259.468391,61.2064978 259.561692,61.2064978 C259.648772,61.2064978 259.717192,61.1877753 259.766952,61.1503304 C259.816713,61.1128855 259.866473,61.0598385 259.916233,60.9911894 L259.916233,60.9911894 L260.354745,60.3920705 C259.962883,59.9988987 259.513486,59.6946586 259.006554,59.4793502 C258.499622,59.2640419 257.913385,59.1563877 257.247842,59.1563877 C256.532539,59.1563877 255.899651,59.2780837 255.349179,59.5214758 C254.798707,59.7648678 254.335315,60.1034325 253.959003,60.5371696 C253.582691,60.9709068 253.29657,61.4873348 253.100639,62.0864537 C252.904709,62.6855727 252.806743,63.3377386 252.806743,64.0429515 C252.806743,64.8168135 252.912484,65.5064244 253.123965,66.1117841 C253.335445,66.7171439 253.627787,67.2273311 254.000988,67.6423458 C254.37419,68.0573605 254.814257,68.3740822 255.321189,68.592511 C255.828121,68.8109398 256.377038,68.9201542 256.967941,68.9201542 Z M267.725476,68.9201542 C268.067577,68.9201542 268.412789,68.8905103 268.76111,68.8312225 C269.109432,68.7719347 269.446868,68.6830029 269.77342,68.5644273 C270.099971,68.4458517 270.406307,68.2945117 270.692428,68.1104075 C270.97855,67.9263032 271.224241,67.7094347 271.429502,67.4598018 L271.429502,67.4598018 L270.963,66.8513216 C270.888359,66.7452276 270.782619,66.6921806 270.645778,66.6921806 C270.540038,66.6921806 270.414082,66.740547 270.267912,66.8372797 C270.121741,66.9340125 269.939805,67.0385463 269.722104,67.1508811 C269.504403,67.2632159 269.244717,67.3677496 268.943046,67.4644824 C268.641375,67.5612151 268.282168,67.6095815 267.865427,67.6095815 C267.417585,67.6095815 267.013283,67.5362518 266.652521,67.3895925 C266.29176,67.2429332 265.980759,67.021384 265.719518,66.7249449 C265.458276,66.4285059 265.254571,66.0587372 265.1084,65.6156388 C264.962229,65.1725404 264.879814,64.6514317 264.861154,64.0523128 L264.861154,64.0523128 L271.17759,64.0523128 C271.333091,64.0523128 271.438832,64.008627 271.494812,63.9212555 C271.550792,63.833884 271.578782,63.659141 271.578782,63.3970264 C271.578782,62.7230176 271.479262,62.1223385 271.280221,61.594989 C271.08118,61.0676395 270.805944,60.6245411 270.454512,60.2656938 C270.103081,59.9068465 269.686339,59.6322504 269.204287,59.4419053 C268.722235,59.2515602 268.198198,59.1563877 267.632176,59.1563877 C266.947973,59.1563877 266.33219,59.2765235 265.784828,59.5167952 C265.237465,59.7570668 264.774074,60.0878304 264.394652,60.5090859 C264.01523,60.9303414 263.724444,61.428047 263.522293,62.0022026 C263.320142,62.5763583 263.219067,63.1941997 263.219067,63.8557269 C263.219067,64.6732746 263.331027,65.39721 263.554948,66.027533 C263.778869,66.6578561 264.091426,67.1867658 264.492617,67.6142621 C264.893809,68.0417584 265.369641,68.3662812 265.920113,68.5878304 C266.470586,68.8093796 267.072373,68.9201542 267.725476,68.9201542 Z M270.085976,63.0132159 L264.917134,63.0132159 C265.029095,62.1894273 265.316771,61.5450624 265.780163,61.0801211 C266.243555,60.6151799 266.873332,60.3827093 267.669496,60.3827093 C268.048917,60.3827093 268.387909,60.4466777 268.68647,60.5746145 C268.985031,60.7025514 269.238497,60.8835352 269.446868,61.1175661 C269.655239,61.3515969 269.81385,61.6293135 269.9227,61.9507159 C270.031551,62.2721182 270.085976,62.6262849 270.085976,63.0132159 L270.085976,63.0132159 Z M276.962215,68.7890969 L276.962215,61.7213656 C277.254556,61.3406755 277.574887,61.0395558 277.923209,60.8180066 C278.27153,60.5964574 278.650952,60.4856828 279.061474,60.4856828 C279.646156,60.4856828 280.090888,60.6729075 280.395669,61.0473568 C280.700451,61.4218062 280.852841,61.989721 280.852841,62.7511013 L280.852841,62.7511013 L280.852841,68.7890969 L282.522918,68.7890969 L282.522918,62.7511013 C282.522918,62.376652 282.577343,62.0474486 282.686194,61.7634912 C282.795044,61.4795338 282.94277,61.2439427 283.129371,61.0567181 C283.315972,60.8694934 283.532117,60.7275147 283.777808,60.6307819 C284.023499,60.5340492 284.283186,60.4856828 284.556867,60.4856828 C285.166429,60.4856828 285.632931,60.6775881 285.956373,61.0613987 C286.279814,61.4452093 286.441535,62.0084435 286.441535,62.7511013 L286.441535,62.7511013 L286.441535,68.7890969 L288.111612,68.7890969 L288.111612,62.7511013 C288.111612,62.1769457 288.040081,61.6667584 287.897021,61.2205396 C287.75396,60.7743209 287.547144,60.3983113 287.276573,60.092511 C287.006002,59.7867107 286.676341,59.5542401 286.287589,59.3950991 C285.898837,59.2359581 285.455661,59.1563877 284.958058,59.1563877 C284.647057,59.1563877 284.340721,59.1938326 284.03905,59.2687225 C283.737378,59.3436123 283.452812,59.462188 283.185351,59.6244493 C282.91789,59.7867107 282.676864,59.9926579 282.462273,60.2422907 C282.247682,60.4919236 282.071966,60.7883627 281.935126,61.1316079 C281.760965,60.5262482 281.476399,60.0457048 281.081427,59.689978 C280.686455,59.3342511 280.171748,59.1563877 279.537306,59.1563877 C278.965063,59.1563877 278.461241,59.2936858 278.025839,59.5682819 C277.590437,59.8428781 277.198576,60.1954846 276.850254,60.6261013 L276.850254,60.6261013 L276.728964,59.652533 C276.672984,59.4216226 276.526813,59.3061674 276.290452,59.3061674 L276.290452,59.3061674 L275.292138,59.3061674 L275.292138,68.7890969 L276.962215,68.7890969 Z M296.284726,68.9201542 C296.626827,68.9201542 296.972039,68.8905103 297.32036,68.8312225 C297.668682,68.7719347 298.006118,68.6830029 298.33267,68.5644273 C298.659221,68.4458517 298.965557,68.2945117 299.251679,68.1104075 C299.5378,67.9263032 299.783491,67.7094347 299.988752,67.4598018 L299.988752,67.4598018 L299.52225,66.8513216 C299.447609,66.7452276 299.341869,66.6921806 299.205028,66.6921806 C299.099288,66.6921806 298.973332,66.740547 298.827162,66.8372797 C298.680991,66.9340125 298.499055,67.0385463 298.281354,67.1508811 C298.063654,67.2632159 297.803967,67.3677496 297.502296,67.4644824 C297.200625,67.5612151 296.841418,67.6095815 296.424677,67.6095815 C295.976835,67.6095815 295.572533,67.5362518 295.211772,67.3895925 C294.85101,67.2429332 294.540009,67.021384 294.278768,66.7249449 C294.017527,66.4285059 293.813821,66.0587372 293.66765,65.6156388 C293.521479,65.1725404 293.439064,64.6514317 293.420404,64.0523128 L293.420404,64.0523128 L299.736841,64.0523128 C299.892341,64.0523128 299.998082,64.008627 300.054062,63.9212555 C300.110042,63.833884 300.138032,63.659141 300.138032,63.3970264 C300.138032,62.7230176 300.038512,62.1223385 299.839471,61.594989 C299.64043,61.0676395 299.365194,60.6245411 299.013763,60.2656938 C298.662331,59.9068465 298.245589,59.6322504 297.763537,59.4419053 C297.281485,59.2515602 296.757448,59.1563877 296.191426,59.1563877 C295.507223,59.1563877 294.89144,59.2765235 294.344078,59.5167952 C293.796716,59.7570668 293.333324,60.0878304 292.953902,60.5090859 C292.57448,60.9303414 292.283694,61.428047 292.081543,62.0022026 C291.879393,62.5763583 291.778317,63.1941997 291.778317,63.8557269 C291.778317,64.6732746 291.890278,65.39721 292.114199,66.027533 C292.338119,66.6578561 292.650676,67.1867658 293.051867,67.6142621 C293.453059,68.0417584 293.928891,68.3662812 294.479363,68.5878304 C295.029836,68.8093796 295.631623,68.9201542 296.284726,68.9201542 Z M298.645226,63.0132159 L293.476384,63.0132159 C293.588345,62.1894273 293.876021,61.5450624 294.339413,61.0801211 C294.802805,60.6151799 295.432582,60.3827093 296.228746,60.3827093 C296.608167,60.3827093 296.947159,60.4466777 297.24572,60.5746145 C297.544281,60.7025514 297.797747,60.8835352 298.006118,61.1175661 C298.214489,61.3515969 298.3731,61.6293135 298.48195,61.9507159 C298.590801,62.2721182 298.645226,62.6262849 298.645226,63.0132159 L298.645226,63.0132159 Z M305.521465,68.7890969 L305.521465,61.8056167 C305.882226,61.3999633 306.275643,61.0785609 306.701715,60.8414097 C307.127787,60.6042584 307.586514,60.4856828 308.077896,60.4856828 C308.743438,60.4856828 309.239486,60.6838289 309.566037,61.0801211 C309.892588,61.4764134 310.055864,62.0334068 310.055864,62.7511013 L310.055864,62.7511013 L310.055864,68.7890969 L311.725941,68.7890969 L311.725941,62.7511013 C311.725941,62.2143906 311.657521,61.724486 311.52068,61.2813877 C311.38384,60.8382893 311.183244,60.4591593 310.918893,60.1439978 C310.654541,59.8288363 310.32488,59.5854442 309.929908,59.4138216 C309.534937,59.242199 309.07932,59.1563877 308.563058,59.1563877 C308.227176,59.1563877 307.91462,59.1922724 307.625389,59.2640419 C307.336158,59.3358113 307.062476,59.4387849 306.804345,59.5729626 C306.546214,59.7071402 306.302078,59.8678414 306.071937,60.0550661 C305.841796,60.2422907 305.624095,60.4513583 305.418834,60.6822687 L305.418834,60.6822687 L305.288214,59.652533 C305.232234,59.4216226 305.086063,59.3061674 304.849702,59.3061674 L304.849702,59.3061674 L303.851388,59.3061674 L303.851388,68.7890969 L305.521465,68.7890969 Z M318.71414,68.9388767 C319.143322,68.9388767 319.560064,68.8624266 319.964366,68.7095264 C320.368667,68.5566263 320.713879,68.3459985 321,68.0776432 L321,68.0776432 L320.514838,67.2819383 C320.446418,67.1758443 320.368667,67.1227974 320.281587,67.1227974 C320.231827,67.1227974 320.174292,67.1462004 320.108981,67.1930066 C320.043671,67.2398128 319.964366,67.2912996 319.871065,67.347467 C319.777765,67.4036344 319.667359,67.4551211 319.539849,67.5019273 C319.412338,67.5487335 319.261503,67.5721366 319.087342,67.5721366 C318.782561,67.5721366 318.53376,67.4754038 318.340939,67.2819383 C318.148118,67.0884728 318.051708,66.7920338 318.051708,66.3926211 L318.051708,66.3926211 L318.051708,60.7009912 L320.785409,60.7009912 L320.785409,59.4933921 L318.051708,59.4933921 L318.051708,56.2263216 L317.212004,56.2263216 C317.106264,56.2263216 317.020738,56.2559655 316.955428,56.3152533 C316.890118,56.3745411 316.848133,56.4509912 316.829472,56.5446035 L316.829472,56.5446035 L316.446941,59.4746696 L314.898154,59.6712555 L314.898154,60.3359031 C314.898154,60.4607195 314.932364,60.5527717 315.000785,60.6120595 C315.069205,60.6713473 315.153175,60.7009912 315.252696,60.7009912 L315.252696,60.7009912 L316.390961,60.7009912 L316.390961,66.5049559 C316.390961,67.2912996 316.591556,67.8935389 316.992748,68.311674 C317.39394,68.7298091 317.967737,68.9388767 318.71414,68.9388767 Z" id="Human&amp;PlanetaryEnhancement" fill-opacity="0.87"></path>
            <g id="atom-(2)" transform="translate(35.000000, 0.000000)">
                <path d="M39.0647916,25.9093461 C42.5952765,22.6319247 45.0110301,19.3881859 45.7202621,16.7300911 C46.1298611,15.4812967 46.0142883,14.1193815 45.4001913,12.9576912 C44.9901101,12.271482 44.395426,11.7146313 43.6841442,11.3509428 C43.6841442,11.3103184 43.6962018,11.273195 43.6962018,11.2325705 C43.7007837,9.32756742 42.1621048,7.77949208 40.2594653,7.77490447 C38.5695832,7.77079978 37.1262202,8.99460386 36.8517877,10.66413 C34.876983,10.9262875 32.9287051,11.3598766 31.0288991,11.9598871 C29.3128519,4.34772185 26.4079187,0 22.9895701,0 C19.5712215,0 16.6636959,4.35122292 14.9476488,11.9634485 C7.50101442,9.64749253 2.2829384,9.99385673 0.578104849,12.9577516 C-0.0871166448,14.1075503 -0.45204194,16.1349701 1.39428834,19.3683867 C0.151444299,20.7981502 0.301501966,22.9660351 1.72949148,24.2104231 C2.79918742,25.1426124 4.33171691,25.3189937 5.58480996,24.6542739 C5.9929017,25.0672187 6.4311979,25.4896406 6.90831979,25.9284209 C3.3812713,29.2040918 0.968110092,32.445235 0.258878113,35.1024243 C-0.150781127,36.3504944 -0.0358112713,37.7116248 0.577260813,38.873134 C1.57292267,40.6008503 3.71171166,41.3523725 6.5304325,41.3523725 C9.39244037,41.257723 12.2256304,40.7482573 14.9416199,39.8397908 C16.6568231,47.4692802 19.566097,51.8308252 22.9895701,51.8308252 C24.5580917,51.8308252 26.0153211,50.9151754 27.3310537,49.125285 C29.1707523,49.5940658 31.0417405,48.4807868 31.5098794,46.6388029 C31.8570799,45.2728434 31.3372739,43.832939 30.1980655,43.0049366 C30.5000498,42.0417206 30.7796068,40.9938753 31.0332398,39.8700327 C33.7319869,40.7818193 36.5494417,41.2931562 39.3961363,41.3878057 C42.3606343,41.3878057 44.4390747,40.5464027 45.4010354,38.8740395 C47.1162385,35.9101446 44.8005636,31.2090564 39.0647916,25.9093461 Z M4.00851114,23.3238683 C3.05553342,23.3238683 2.2829384,22.5503739 2.2829384,21.596152 C2.2829384,20.6419301 3.05547313,19.8684357 4.00851114,19.8684357 C4.96154915,19.8684357 5.73408388,20.6419301 5.73408388,21.596152 C5.73408388,22.5503739 4.96148886,23.3238683 4.00851114,23.3238683 Z M2.0715675,38.0092759 C1.69603145,37.240852 1.64382176,36.353754 1.92663434,35.5464562 C2.57286501,33.1277016 4.84537353,30.1258383 8.18866317,27.05999 C9.9406422,28.5764953 11.7813054,29.9870632 13.7009463,31.2842087 C13.8695727,33.5913516 14.1685426,35.8871462 14.5965295,38.1604254 C8.05235125,40.1965374 3.24930013,40.0522693 2.0715675,38.0092759 Z M13.577536,29.0969471 C12.1131324,28.0568887 10.7519423,26.9929264 9.49402621,25.9050603 C10.7415727,24.8416413 12.1090931,23.7791278 13.577536,22.7356287 C13.5309332,23.8119654 13.4990406,24.8788251 13.4990406,25.9154428 C13.4990406,26.9520605 13.5309934,28.0188598 13.577536,29.0969471 Z M13.7001022,20.5518078 C11.789384,21.8524543 9.95366448,23.2601248 8.20162516,24.7682397 C7.72365924,24.3328397 7.28307208,23.912772 6.8798637,23.5079158 C7.94461599,21.9372043 7.53598165,19.7996216 5.96715858,18.733607 C5.03950197,18.1032339 3.86279423,17.9660886 2.8152844,18.3662968 C1.74890433,16.4433658 1.47887287,14.8460944 2.07241153,13.8216097 C3.2975308,11.6939267 8.17829358,11.6473263 14.5981573,13.6643635 C14.1692661,15.9413248 13.8693919,18.240862 13.7001022,20.5518078 Z M30.4448257,19.3424306 C29.5768545,18.7895638 28.6821756,18.2358519 27.734865,17.6890214 C26.8142621,17.1569195 25.8825059,16.6524037 24.9498453,16.1660571 C26.5744351,15.4231669 28.177502,14.7717873 29.7296252,14.2224216 C30.032152,15.8464339 30.2705924,17.5522383 30.444886,19.3398349 L30.444886,19.3424306 L30.4448257,19.3424306 Z M22.9895701,1.72771631 C25.4441494,1.72771631 27.9220603,5.93636128 29.3853185,12.5093735 C27.2042071,13.2743567 25.0687942,14.1641711 22.9895701,15.1743497 C20.909502,14.1641711 18.7731848,13.2743567 16.5912294,12.5093735 C18.0570799,5.93720637 20.5341468,1.72771631 22.9895701,1.72771631 Z M16.2495754,14.2197656 C17.8293106,14.7786687 19.4280367,15.4231065 21.0293552,16.1565198 C20.1018794,16.6420212 19.1726553,17.1490723 18.2443355,17.6863654 C17.3160157,18.2236585 16.4169961,18.7782758 15.5343748,19.3406197 C15.7051717,17.5559808 15.945903,15.8455284 16.2495754,14.2197656 Z M15.5343145,32.4910507 C16.4022857,33.0439175 17.2969646,33.5976294 18.2442752,34.1444598 C19.1665662,34.6774671 20.1001311,35.1810776 21.0344797,35.6700197 C19.3736566,36.4293287 17.7723381,37.0755171 16.2495151,37.6110597 C15.9470485,35.9852968 15.7086081,34.2785869 15.5343145,32.4910507 Z M25.8031062,48.2890732 C25.1815937,49.2827727 24.1503014,49.947734 22.9895701,50.1031693 C20.5314941,50.1031693 18.0518952,45.8849869 16.589481,39.299057 C18.7650459,38.5354018 20.89654,37.6511408 22.9740157,36.6504996 C25.0584246,37.6632738 27.199384,38.5550802 29.3861625,39.3215121 C29.1445872,40.4168632 28.8779921,41.4379676 28.5889699,42.3717263 C28.4491612,42.3481243 28.3079056,42.3336975 28.166228,42.3285063 C26.2655177,42.3228925 24.7200865,43.8611286 24.71454,45.7642605 C24.7117064,46.7206555 25.1060524,47.6351584 25.8031062,48.2890732 Z M28.166228,47.5115948 C27.2132503,47.5115948 26.4406553,46.7381004 26.4406553,45.7838785 C26.4406553,44.829717 27.21319,44.0561622 28.166228,44.0561622 C29.1192058,44.0561622 29.8918008,44.8296566 29.8918008,45.7838785 C29.8918008,46.7381004 29.1192058,47.5115948 28.166228,47.5115948 Z M29.7295649,37.6110597 C28.1480813,37.0513114 26.5493552,36.4016824 24.9463486,35.672555 C25.8856409,35.1853633 26.8151062,34.6759581 27.734865,34.1443995 C28.6631848,33.6079515 29.5631088,33.052489 30.4448257,32.4901452 C30.2739685,34.2748444 30.0332975,35.9852968 29.7295649,37.6110597 Z M30.6130904,30.321053 C29.4146789,31.1157952 28.1688204,31.8949638 26.8720786,32.6447958 C25.555502,33.4061572 24.2612923,34.1012398 22.9895701,34.7301039 C21.6954207,34.0822254 20.3874653,33.3859355 19.1070616,32.6447958 C17.7749305,31.8759494 16.528228,31.0985314 15.3660498,30.321053 C15.2763408,28.8239846 15.2245531,27.3416448 15.2245531,25.9154428 C15.2245531,24.4892408 15.2763408,23.0034 15.3660498,21.5098326 C16.5644613,20.7142453 17.8111638,19.9350164 19.1079056,19.1852447 C20.4046474,18.4354731 21.6962045,17.7443745 22.9904142,17.1007817 C24.2845636,17.7486603 25.592519,18.4449501 26.8729227,19.1860898 C28.2050537,19.9557813 29.4517562,20.7409862 30.6139345,21.5132733 C30.7002071,23.0103417 30.7554312,24.4926815 30.7554312,25.9188835 C30.7554312,27.3450855 30.7027995,28.8274253 30.6130904,30.321053 Z M40.2451166,9.50231897 C41.1980944,9.50231897 41.9706894,10.2758134 41.9706894,11.2300353 C41.9706894,12.1842572 41.1981547,12.9577516 40.2451166,12.9577516 C39.2921389,12.9577516 38.5195439,12.1842572 38.5195439,11.2300353 C38.5195439,10.2758134 39.2920786,9.50231897 40.2451166,9.50231897 Z M37.0019056,12.367701 C37.6170878,14.1607907 39.5675963,15.1151333 41.3584613,14.499187 C42.1103775,14.2405909 42.7491927,13.7283485 43.1655439,13.0501677 C43.4674076,13.2488231 43.7209803,13.5127311 43.9075125,13.8224548 C44.2830485,14.5908787 44.3352582,15.4779767 44.0524456,16.2852745 C43.4062149,18.7040291 41.1337064,21.7058924 37.7904168,24.7717407 C36.0384377,23.2552353 34.1977746,21.8446674 32.2781337,20.547522 C32.1094469,18.2377231 31.8098742,15.9393329 31.3808624,13.6635184 C33.2139292,13.0706912 35.0945636,12.6371625 37.0019056,12.367701 Z M32.4016042,22.7338782 C33.8660079,23.7739366 35.2274993,24.8393475 36.4859581,25.9301111 C35.2375072,26.9935301 33.8700472,28.0560436 32.4016042,29.0995427 C32.4482071,28.0188598 32.4800996,26.9520001 32.4800996,25.9153824 C32.4800996,24.8787647 32.4482071,23.8119654 32.4016042,22.7338782 Z M37.7741389,27.0652416 C42.7324928,31.625442 45.1378768,35.8807477 43.9067287,38.0092759 C42.6816094,40.1369589 37.8008467,40.1827142 31.3809227,38.1665221 C31.8099345,35.8892589 32.1098087,33.58942 32.2790983,31.2782327 C34.1884902,29.978552 36.0230642,28.5719681 37.7741389,27.0652416 Z M22.9895701,21.5962124 C25.3708991,21.5990495 27.3006081,23.5311557 27.3034417,25.9154428 C27.3034417,28.3008768 25.3720446,30.2346732 22.9895701,30.2346732 C20.6070957,30.2346732 18.6756986,28.3008768 18.6756986,25.9154428 C18.6756986,23.5300088 20.6070957,21.5962124 22.9895701,21.5962124 Z M22.9895701,23.3239287 C21.5600734,23.3239287 20.4012713,24.4841703 20.4012713,25.9154428 C20.4012713,27.3466549 21.5600734,28.5069569 22.9895701,28.5069569 C24.4190668,28.5069569 25.5779292,27.3467153 25.5778689,25.9154428 C25.5778689,24.4842307 24.4190668,23.3239287 22.9895701,23.3239287 Z" id="Shape"></path>
            </g>
        </g>
    </g>
</svg>