<?xml version="1.0" encoding="UTF-8"?>
<svg width="115px" height="104px" viewBox="0 0 115 104" version="1.1" xmlns="http://www.w3.org/2000/svg" xmlns:xlink="http://www.w3.org/1999/xlink">
    <title>download</title>
    <g id="Pictures" stroke="none" stroke-width="1" fill="none" fill-rule="evenodd">
        <g id="download" transform="translate(0.272727, 0.181818)" fill-rule="nonzero">
            <path d="M0.0166790172,51.6375934 C0.0166790172,60.3387117 8.42927039,68.4611139 21.6917792,73.0396726 C19.0433127,86.5054626 21.2174136,97.3593321 28.4781664,101.588307 C35.9411299,105.935469 47.0595779,102.926418 57.6126432,93.6094513 C67.8993822,102.550116 78.2955212,106.068601 85.5499969,101.8274 C93.006235,97.4680112 95.2735949,85.8782937 92.5520456,71.9918252 C106.366038,67.3793043 114.093086,60.4532775 114.093086,51.6375934 C114.093086,43.1384371 105.66525,35.785845 92.581189,31.2367202 C95.5112261,16.7765167 93.028653,6.18619394 85.4670502,1.78242736 C78.1771539,-2.46330175 67.6599576,1.23722068 57.222121,10.4115457 C46.3628254,0.673900816 35.9496487,-2.29892465 28.3961164,2.11706833 C21.1129456,6.37502383 19.0347938,17.426327 21.6917792,31.1411732 C8.87673435,35.6536188 0.0166790172,43.1728522 0.0166790172,51.6375934 Z" id="Path" fill="#FFFFFF"></path>
            <path d="M89.8103201,35.754147 C88.7319985,35.3805751 87.6445282,35.0345036 86.5489445,34.7162618 C86.7306317,33.9706354 86.8986462,33.2216783 87.0529019,32.4697748 C89.5215758,20.3665488 87.9074773,10.6162246 82.3953312,7.40656936 C77.1105039,4.32823463 68.4670068,7.53788991 59.7374244,15.2101796 C58.8772369,15.9679187 58.0361428,16.7474869 57.2149472,17.5481382 C56.6650149,17.0157525 56.1053648,16.4937015 55.5362849,15.9822539 C46.3874853,7.77788953 37.2171643,4.32098936 31.7108469,7.54015406 C26.4309516,10.6270925 24.8670695,19.7937195 27.0895934,31.2638899 C27.310719,32.3997715 27.560387,33.5297947 27.8383557,34.6528657 C26.5772446,35.0128338 25.3268297,35.4099841 24.0887154,35.8438072 C13.3630313,39.620405 6.51297686,45.5397918 6.51297686,51.6792537 C6.51297686,58.0206776 13.866092,64.3811203 25.0383433,68.2374161 C25.9442479,68.5486596 26.8576928,68.8370506 27.777827,69.1023204 C27.4789058,70.3122537 27.2135221,71.5303876 26.9819868,72.7552957 C24.8630343,84.0262212 26.5179335,92.97549 31.7839297,96.0434097 C37.222993,99.2109518 46.3516164,95.9551079 55.2408152,88.1075732 C55.9433964,87.4871968 56.6486677,86.8292356 57.3548358,86.1395763 C58.2443035,87.0063189 59.1575205,87.8478519 60.0934228,88.663195 C68.7037412,96.146202 77.2073498,99.167933 82.4688623,96.0918624 C87.9029937,92.9148109 89.6686381,83.3007884 87.3757216,71.6037504 C87.2008609,70.7103178 86.9968568,69.7978665 86.7681929,68.8686604 C87.4093486,68.6775664 88.0383987,68.4801327 88.6522044,68.2745481 C100.266539,64.3883656 107.822762,58.1053567 107.822762,51.6792537 C107.822762,45.5176031 100.752114,39.5583673 89.8103201,35.754147 L89.8103201,35.754147 Z" id="Path" fill="#53C1DE"></path>
            <path d="M87.2909814,64.1257245 C86.737256,64.3109318 86.1687346,64.4897994 85.5894527,64.6632331 C84.3071411,60.5637679 82.5764689,56.2043786 80.4593098,51.7009896 C82.4800714,47.3040154 84.1434895,43.000777 85.3899321,38.9275759 C86.4260937,39.2309716 87.432215,39.5502164 88.4015708,39.8875744 C97.7767926,43.146588 103.495185,47.9660521 103.495185,51.6792537 C103.495185,55.6347192 97.3190163,60.7698053 87.2914298,64.1257245 L87.2909814,64.1257245 Z M83.1301943,72.4528056 C84.1439378,77.6250238 84.2887583,82.3013938 83.617114,85.9570861 C83.0136206,89.241911 81.8003566,91.4317943 80.3001418,92.308925 C77.1073654,94.1754881 70.2792806,91.7492278 62.9163016,85.3498417 C62.0457602,84.591937 61.1962373,83.8097496 60.3687162,83.0041851 C63.2234287,79.8506807 66.0763476,76.1845733 68.8606674,72.1136364 C73.7585595,71.6748446 78.3856417,70.9571099 82.5818492,69.9776398 C82.7880951,70.8199026 82.971923,71.6454107 83.1301943,72.4528056 L83.1301943,72.4528056 Z M41.0515449,91.9865104 C37.9322996,93.0991125 35.4479331,93.1308105 33.9463732,92.2563968 C30.7504583,90.3952677 29.422414,83.208864 31.2342395,73.5703888 C31.4496947,72.4313236 31.6963879,71.2985125 31.9740346,70.1732621 C36.1236127,71.100204 40.7170678,71.7672218 45.6266172,72.1693344 C48.4293198,76.1528752 51.3647371,79.8144543 54.3230209,83.0209398 C53.6943068,83.6351864 53.0507142,84.2337064 52.3928282,84.8159558 C48.4620501,88.2864409 44.5232016,90.7480219 41.0519932,91.9865104 L41.0515449,91.9865104 Z M26.4381253,64.1012717 C21.4980874,62.395916 17.4184536,60.1797685 14.6220281,57.7616592 C12.1094148,55.5880777 10.8405541,53.4303453 10.8405541,51.6792537 C10.8405541,47.9538257 16.3405945,43.2013804 25.5136056,39.9713478 C26.6649506,39.5677035 27.827749,39.1981873 29.0005066,38.8632741 C30.2684706,43.0279467 31.9314403,47.3823549 33.9383027,51.7856687 C31.9054354,56.2546427 30.2187025,60.6783338 28.9390812,64.891912 C28.0991408,64.6491013 27.265237,64.3854749 26.4381253,64.1012717 L26.4381253,64.1012717 Z M31.3369141,30.4243441 C29.4327263,20.5965861 30.6971034,13.1833149 33.8791191,11.3230914 C37.2687258,9.34150969 44.7630745,12.1671656 52.6622929,19.250777 C53.1671471,19.7036064 53.674243,20.1777189 54.1822356,20.6681332 C51.2391961,23.8601281 48.3306804,27.4940846 45.5521893,31.4545312 C40.7874604,31.9005682 36.2262873,32.6169444 32.0332182,33.57649 C31.7749281,32.5316991 31.542753,31.480499 31.3369141,30.4238913 L31.3369141,30.4243441 Z M75.0372841,41.3225909 C74.04689,39.5947884 73.0197563,37.888735 71.9565979,36.2056179 C75.1892784,36.6176928 78.2861056,37.1656164 81.1941729,37.8362569 C80.3212147,40.6623656 79.2330433,43.6175307 77.9516285,46.6469598 C77.0153694,44.8527543 76.0437276,43.0776108 75.0372841,41.3225909 L75.0372841,41.3225909 Z M57.2162923,23.7917509 C59.2123941,25.9757474 61.2116343,28.4146869 63.1781442,31.0605695 C59.1890841,30.870191 55.1933684,30.8692844 51.204224,31.0578525 C53.1725274,28.4364227 55.1888053,26.0011059 57.2162923,23.7917509 L57.2162923,23.7917509 Z M39.2809685,41.3524777 C38.287126,43.09354 37.3336516,44.8577911 36.4213241,46.64379 C35.1609823,43.624776 34.0826749,40.6564788 33.2020945,37.7900683 C36.0926758,37.1366353 39.1751554,36.6027494 42.3867629,36.197467 C41.3116897,37.891015 40.2761395,39.6098257 39.2809685,41.3524777 L39.2809685,41.3524777 Z M42.4791252,67.47304 C39.1612562,67.0990028 36.0321471,66.5922866 33.1424625,65.9569669 C34.0369421,63.0398395 35.1390126,60.0076933 36.4262561,56.9239246 C37.3424297,58.7112474 38.3000939,60.4765628 39.2984546,62.2184068 C40.31718,63.9952316 41.3777049,65.7472738 42.4791252,67.47304 L42.4791252,67.47304 Z M57.3360046,79.8755863 C55.2847545,77.6399672 53.2388848,75.1675183 51.2405412,72.5080508 C53.1801495,72.5850318 55.1578685,72.6239752 57.1678694,72.6239752 C59.2330186,72.6239752 61.2744048,72.5773337 63.283509,72.4867678 C61.310722,75.1946881 59.3186555,77.6707596 57.3360046,79.8755863 Z M77.9928777,56.7667928 C79.346927,59.8840709 80.4884532,62.8999152 81.3950385,65.7676842 C78.4573794,66.4446642 75.2861243,66.9898709 71.9444922,67.3947005 C73.015335,65.6801586 74.0522995,63.9442707 75.0547702,62.1880672 C76.0738427,60.4032152 77.0534544,58.5956762 77.9928777,56.7667928 L77.9928777,56.7667928 Z M71.3055782,60.0045235 C69.7709293,62.6970277 68.1499962,65.3384192 66.4453485,67.9245109 C63.4395385,68.1414163 60.3332957,68.2532651 57.1678694,68.2532651 C54.0154455,68.2532651 50.9486584,68.1540955 47.9953066,67.9607373 C46.2464473,65.3806669 44.5948508,62.7347038 43.0440597,60.0285235 C41.5005172,57.3367011 40.0587461,54.5866484 38.7218628,51.7843102 C40.0553457,48.9811324 41.4927601,46.2296066 43.0310572,43.5355686 L43.0310572,43.5364742 C44.5688718,40.8418625 46.207466,38.207213 47.9432968,35.6382226 C54.0903064,35.1703029 60.263502,35.1712112 66.4103764,35.6409396 C68.1286495,38.2059767 69.7567635,40.8314554 71.291679,43.5124743 C72.835266,46.2005186 74.2918634,48.938566 75.6591604,51.7222725 C74.3059282,54.5343406 72.8539633,57.2968418 71.3060266,60.0045235 L71.3055782,60.0045235 Z M80.2337844,11.1931294 C83.6260812,13.1692772 84.9456067,21.1377174 82.8141001,31.587663 C82.6743912,32.2684138 82.5225216,32.946561 82.3585656,33.621773 C78.1556326,32.6423029 73.5913209,31.9132474 68.8126929,31.4604179 C66.0288214,27.4569526 63.1445172,23.8166565 60.2490039,20.6658691 C61.0077482,19.9270995 61.7845486,19.2074824 62.578686,18.5076838 C70.0582388,11.9335056 77.0486301,9.33788705 80.2337844,11.1931294 L80.2337844,11.1931294 Z" id="Shape" fill="#FFFFFF"></path>
            <path d="M57.1678694,42.5425135 C62.1644007,42.5425135 66.2144427,46.633375 66.2144427,51.6792537 C66.2144427,56.7255853 62.1644007,60.8164468 57.1678694,60.8164468 C52.1717863,60.8164468 48.121296,56.7255853 48.121296,51.6792537 C48.121296,46.633375 52.1717863,42.5425135 57.1678694,42.5425135" id="Path" fill="#53C1DE"></path>
        </g>
    </g>
</svg>