<?xml version="1.0" encoding="UTF-8"?>
<svg width="279px" height="58px" viewBox="0 0 279 58" version="1.1" xmlns="http://www.w3.org/2000/svg" xmlns:xlink="http://www.w3.org/1999/xlink">
    <title>ecommpay-logo-blue@1,5x</title>
    <g id="Pictures" stroke="none" stroke-width="1" fill="none" fill-rule="evenodd">
        <g id="ecommpay-logo-blue" transform="translate(0.837046, 0.686987)" fill="#167DBD" fill-rule="nonzero">
            <path d="M277.842907,25.8507097 L263.518986,47.085216 C261.607269,49.9175546 259.267626,52.0888612 256.003521,53.7563604 C251.037011,56.3075309 245.535593,56.2719812 245.535593,56.2719812 L248.893888,50.9274647 C248.893888,50.9274647 251.195158,50.3766046 254.095293,48.3682608 C257.219856,46.2015447 257.461728,44.3963305 257.461728,44.3963305 L255.17325,43.2601817 L255.260463,25.7864427 C255.260463,25.7864427 260.590943,26.1720447 261.054918,30.1726657 L261.982868,38.1819409 L271.294929,27.2473694 C273.120595,25.1024582 277.842907,25.8507097 277.842907,25.8507097 Z" id="Shape"></path>
            <path d="M245.153057,25.7243343 C253.279245,25.9969383 251.910078,29.9674746 251.910078,29.9674746 L245.344533,48.2331268 L239.712144,48.2331268 L239.866709,46.1743741 C239.866709,46.1743741 237.14683,48.2331268 232.716356,48.2331268 C228.288189,48.2331268 226.887877,45.8543607 228.288189,41.8660459 C231.347188,33.1213841 244.06995,34.4950712 244.06995,34.4950712 C244.275267,33.7803746 244.375619,33.267168 244.436753,32.8819667 C244.500194,32.5003212 244.518649,32.2466809 244.523263,32.0440058 C244.526723,31.8401454 244.511728,31.6872501 244.457515,31.5462072 C244.410223,31.4063495 244.321406,31.2771589 244.191064,31.1491536 C244.060722,31.0187778 243.885395,30.8848462 243.673156,30.7746194 C243.460918,30.6608369 243.210615,30.5648329 242.970694,30.499645 C242.730772,30.4320866 242.503539,30.3906034 242.299375,30.363343 C242.091751,30.3348973 241.908349,30.3206745 241.649972,30.3135631 C241.389288,30.3064517 241.053629,30.3088222 240.496503,30.3550463 C239.940531,30.4012705 239.160786,30.4937188 238.25416,30.6477993 C237.348687,30.8042503 236.310565,31.0235187 235.202081,31.3245683 L234.971387,27.6515259 C234.971387,27.6491555 237.769703,25.7243343 245.153057,25.7243343 Z M242.032924,40.4082072 C242.493158,39.0843 242.825357,38.1135928 242.825357,38.1135928 C242.825357,38.1135928 240.018967,37.8729901 237.458266,39.6271375 C234.891798,41.3872111 236.21252,43.9449476 239.400708,43.2219544 C241.029406,42.8580873 241.557695,41.6313694 242.032924,40.4082072 Z" id="Shape"></path>
            <path d="M222.166279,25.7243343 C227.822484,25.7243343 230.834943,28.9886484 228.686549,35.3837104 C224.145446,48.9038433 212.659326,47.6349635 212.659326,47.6349635 C212.315269,48.6148335 211.553189,50.7898915 210.84042,52.8221717 C209.553849,56.4860333 201.920718,56.2695638 201.920718,56.2695638 L212.28389,27.2994954 C212.28501,27.298344 216.506711,25.7243343 222.166279,25.7243343 Z M221.399716,35.9709415 C224.084928,27.8867265 217.848197,31.0485631 217.848197,31.0485631 L214.300041,41.6889606 C214.300041,41.6878092 218.98011,43.233033 221.399716,35.9709415 Z" id="Shape"></path>
            <path d="M205.161503,25.734161 C208.062785,25.734161 209.003896,27.1745893 207.984837,30.0554457 L202.138713,46.5407425 C201.777629,47.5556977 200.847981,48.2307498 199.804849,48.2307498 L194.571995,48.2307498 L199.887383,33.2429279 C200.122374,32.5761951 199.791094,31.8334 199.146874,31.5885747 C199.010464,31.5386589 198.86603,31.5101356 198.719304,31.5101356 L198.488898,31.5101356 C196.9242,31.5101356 195.528009,32.5215253 194.988102,34.0427696 L190.557657,46.541931 C190.19772,47.5568861 189.265779,48.2319383 188.221501,48.2319383 L182.99094,48.2319383 L188.304034,33.2441164 C188.541318,32.5773835 188.21233,31.8345884 187.566964,31.5897632 C187.430554,31.5398474 187.283828,31.511324 187.139395,31.511324 L186.724434,31.511324 C185.162029,31.511324 183.764691,32.5227138 183.222492,34.0439581 L178.793194,46.5431194 C178.433256,47.5580746 177.501315,48.2331268 176.458183,48.2331268 L171.228769,48.2331268 L179.203569,25.736538 L186.167333,25.736538 L186.191406,25.7460458 L185.476115,27.760506 C187.734324,26.3486011 190.338714,25.6450256 192.972909,25.736538 C195.260921,25.736538 196.46912,26.4115902 196.594066,27.760506 C199.2317,26.3283971 202.186858,25.6319524 205.161503,25.734161 Z" id="Shape"></path>
            <path d="M171.24157,25.734161 C174.141941,25.734161 175.081982,27.1745893 174.060547,30.0554457 L168.217389,46.5407425 C167.857422,47.5556977 166.923113,48.2307498 165.883336,48.2307498 L160.652352,48.2307498 L165.96473,33.2429279 C166.200887,32.5761951 165.871872,31.8334 165.2276,31.5885747 C165.088887,31.5386589 164.944442,31.5101356 164.797703,31.5101356 L164.567279,31.5101356 C163.002454,31.5101356 161.603857,32.5215253 161.063906,34.0427696 L156.634249,46.541931 C156.275429,47.5568861 155.339973,48.2319383 154.301343,48.2319383 L149.070358,48.2319383 L154.382736,33.2441164 C154.618893,32.5773835 154.288732,31.8345884 153.645607,31.5897632 C153.506893,31.5398474 153.362448,31.511324 153.21571,31.511324 L152.801862,31.511324 C151.240477,31.511324 149.841879,32.5227138 149.300783,34.0439581 L144.871126,46.5431194 C144.511159,47.5580746 143.577996,48.2331268 142.537073,48.2331268 L137.306088,48.2331268 L145.281534,25.736538 L152.247009,25.736538 L152.271083,25.7460458 L151.556881,27.760506 C153.814126,26.3486011 156.417581,25.6450256 159.053135,25.736538 C161.343626,25.736538 162.550776,26.4115902 162.676879,27.760506 C165.311287,26.3283971 168.262099,25.6319524 171.24157,25.734161 Z" id="Shape"></path>
            <path d="M132.107626,25.7243343 C137.206185,25.7243343 140.715009,29.6870496 137.949846,36.8778528 C135.188175,44.0674692 130.411986,48.2331268 123.403649,48.2331268 C116.401132,48.2331268 114.695017,44.6964716 117.779058,36.1408518 C120.853788,27.6018472 127.014886,25.7243343 132.107626,25.7243343 Z M128.004107,42.0060028 C130.025608,39.5932444 131.764308,34.7689145 131.480344,32.3597165 C131.19638,29.9457713 128.890914,29.9457713 126.869413,32.3597165 C124.847911,34.7712881 123.109211,39.5944312 123.392011,42.0060028 C123.675976,44.4163875 125.981442,44.4163875 128.004107,42.0060028 Z" id="Shape"></path>
            <path d="M119.537065,27.346103 L116.230956,31.0645228 C116.230956,31.0645228 113.718674,29.2397427 111.24473,31.0728334 C109.998738,31.9929405 108.921884,34.370972 107.848414,37.3283741 C104.69453,46.0343677 112.813215,41.7365774 112.813215,41.7365774 L113.831434,46.3762914 C113.831434,46.3762914 110.497135,48.2331268 105.427467,48.2331268 C100.356672,48.2331268 98.8152495,44.2879452 101.355721,36.0520966 C103.79922,28.0916865 109.723605,25.7243343 114.135884,25.7243343 C118.543654,25.7207784 119.537065,27.346103 119.537065,27.346103 Z" id="Shape"></path>
            <path d="M94.6798725,25.7243343 C100.926147,25.7243343 100.322988,31.0889891 99.9231535,33.2948271 C99.5165039,35.5030356 98.5066952,38.348934 98.5066952,38.348934 L86.8172229,38.348934 C86.8172229,38.348934 85.5132181,42.7641658 88.4313265,43.4978647 C91.3573862,44.2363049 95.0831145,41.8159281 95.0831145,41.8159281 L95.4852205,46.1280391 C95.4852205,46.1280391 93.2713655,48.2331268 87.4237897,48.2331268 C81.5784856,48.2331268 79.2578567,44.5515939 81.774995,36.8756097 C84.2989487,29.1948843 88.4301906,25.7243343 94.6798725,25.7243343 Z M93.9733472,34.4540476 C93.9733472,34.4540476 95.2830316,30.2474281 92.461474,30.2474281 C89.6433241,30.2474281 88.5312851,34.4540476 88.5312851,34.4540476 L93.9733472,34.4540476 Z" id="Shape"></path>
            <path d="M68.2650801,21.4053844 C69.5282674,22.2929698 69.8403218,24.0483388 68.9617331,25.3249708 L51.4532899,50.7993701 C49.7882318,53.2210105 47.0568916,54.6642104 44.1378582,54.6642104 L0,54.6642104 L20.6036549,24.6901492 L25.3593189,31.5974738 L14.9291,46.773786 L42.7871575,46.773786 C43.1521806,46.773786 43.4941739,46.5932404 43.7014425,46.2892249 L61.1511596,20.9010216 L66.6760205,20.9010216 C67.2437063,20.9010216 67.7987257,21.0769079 68.2650801,21.4053844 Z" id="Shape"></path>
            <path d="M67.7997756,0.475357267 C67.8745679,0.642494232 67.8453611,0.866869885 67.7974383,1.07865303 C67.6069517,1.9166274 67.1371626,2.5531216 66.6673735,3.19762921 C65.4216143,4.91478982 64.1957219,6.67774137 62.9698294,8.44298248 L41.3162914,39.0977336 C41.1269734,39.3633211 40.8897416,39.5934206 40.6104391,39.7720053 C39.4137624,40.5470172 37.8010536,40.2253357 37.0098913,39.0519427 C30.0845923,28.7936252 28.6693818,26.6963997 27.6456623,25.1933118 C26.6196055,23.6890791 25.9862083,22.7778392 25.867008,22.030302 C25.7478078,21.2827647 26.1392987,20.7012197 26.8650177,20.2398758 C27.5883995,19.778532 28.6425034,19.4373894 38.5594942,23.4234916 C44.860745,17.8049421 51.1643331,12.1898269 57.231858,6.22212143 C58.9088415,4.57364724 60.5682956,2.89540895 62.5467855,1.62814442 C63.2164102,1.19770949 63.9245998,0.815355066 64.6491501,0.486805004 C65.3550024,0.169702679 66.0772155,-0.0958848282 66.9408328,0.0334746041 C67.2972648,0.0907132909 67.6805753,0.212059307 67.7997756,0.475357267 Z" id="Shape"></path>
        </g>
    </g>
</svg>