<?xml version="1.0" encoding="UTF-8"?>
<svg width="200px" height="72px" viewBox="0 0 200 72" version="1.1" xmlns="http://www.w3.org/2000/svg" xmlns:xlink="http://www.w3.org/1999/xlink">
    <title>Ford_logo_flat</title>
    <defs>
        <linearGradient x1="50.0004876%" y1="1219.13489%" x2="50.0004876%" y2="-2490.71808%" id="linearGradient-1">
            <stop stop-color="#00053E" offset="0%"></stop>
            <stop stop-color="#00073F" offset="17.48%"></stop>
            <stop stop-color="#001046" offset="32.97%"></stop>
            <stop stop-color="#001950" offset="47.71%"></stop>
            <stop stop-color="#00245D" offset="61.98%"></stop>
            <stop stop-color="#002F6D" offset="75.8%"></stop>
            <stop stop-color="#003475" offset="80.9%"></stop>
            <stop stop-color="#005693" offset="92.26%"></stop>
            <stop stop-color="#006CA9" offset="100%"></stop>
        </linearGradient>
        <linearGradient x1="50.0101063%" y1="971.713259%" x2="50.0101063%" y2="-1125.94538%" id="linearGradient-2">
            <stop stop-color="#00053E" offset="0%"></stop>
            <stop stop-color="#00073F" offset="17.48%"></stop>
            <stop stop-color="#001046" offset="32.97%"></stop>
            <stop stop-color="#001950" offset="47.71%"></stop>
            <stop stop-color="#00245D" offset="61.98%"></stop>
            <stop stop-color="#002F6D" offset="75.8%"></stop>
            <stop stop-color="#003475" offset="80.9%"></stop>
            <stop stop-color="#005693" offset="92.26%"></stop>
            <stop stop-color="#006CA9" offset="100%"></stop>
        </linearGradient>
        <linearGradient x1="50.0372285%" y1="23447.7055%" x2="50.0372285%" y2="-3160.78698%" id="linearGradient-3">
            <stop stop-color="#00053E" offset="0%"></stop>
            <stop stop-color="#00073F" offset="17.48%"></stop>
            <stop stop-color="#001046" offset="32.97%"></stop>
            <stop stop-color="#001950" offset="47.71%"></stop>
            <stop stop-color="#00245D" offset="61.98%"></stop>
            <stop stop-color="#002F6D" offset="75.8%"></stop>
            <stop stop-color="#003475" offset="80.9%"></stop>
            <stop stop-color="#005693" offset="92.26%"></stop>
            <stop stop-color="#006CA9" offset="100%"></stop>
        </linearGradient>
    </defs>
    <g id="Pictures" stroke="none" stroke-width="1" fill="none" fill-rule="evenodd">
        <g id="Ford_logo_flat" fill-rule="nonzero">
            <path d="M100.001054,0 C44.751418,0 0,16.0909852 0,36.0008672 C0,55.9037996 44.751418,72 100.001054,72 C155.255636,72 200,55.9037996 200,36.0008672 C200,16.0909852 155.255636,0 100.001054,0 Z" id="path3014" fill="#2D4185"></path>
            <path d="M140.035869,43.1342714 C140.014614,43.0929185 140.002547,43.0485709 140,43 C140.0024,43.0129442 140.0024,43.016811 140.0024,43.0245446 C140.057113,43.4850758 140.208957,44.3517752 140.332295,45 C140.524283,44.7093423 140.71445,44.4003845 140.91615,44.0731457 C141.068041,43.8248254 140.991998,43.7478321 140.859023,43.7083715 C140.477482,43.5996183 140.088032,43.3710269 140.035783,43.1342632 L140.035869,43.1342714 Z" id="path3098" fill="url(#linearGradient-1)"></path>
            <path d="M145.253125,38.650046 C145.285274,39.0703034 145.563368,39.1214554 145.790794,38.7523499 C145.850765,38.650046 145.918963,38.5252385 146,38.3840582 C145.9357,38.2850238 145.870404,38.188867 145.801857,38.0906534 C145.484467,37.6597575 144.730098,36.7296153 144,36 C144.726166,36.7934532 145.169582,37.7620614 145.253125,38.650046 L145.253125,38.650046 Z" id="path3119" fill="url(#linearGradient-2)"></path>
            <path d="M129.954274,13.925598 C129.987602,13.971962 130.016634,14.021406 130.045726,14.074402 C130.016696,14.017538 129.987596,13.965254 129.954274,13.925598 Z" id="path3413" fill="url(#linearGradient-3)"></path>
            <path d="M100.50337,70 C47.205149,70 4,55.0019499 4,36.5005258 C4,17.9959228 47.2054936,3 100.50337,3 C153.796277,3 197,17.9959228 197,36.5005258 C197,55.0019499 153.796277,70 100.50337,70 Z M100.50337,5.90129108 C49.0778254,5.90129108 7.3934756,19.5981447 7.3934756,36.5001766 C7.3934756,53.4022025 49.0778254,67.1011833 100.50337,67.1011833 C151.928572,67.1011833 193.61008,53.4022025 193.61008,36.5001766 C193.61008,19.5981447 151.928572,5.90129108 100.50337,5.90129108 Z" id="path3534" fill="#FFFFFF"></path>
            <path d="M160.949626,25.4000163 C161.082474,25.1693301 160.94251,25 160.647815,25 C159.110367,25 157.093615,25.0035162 155.491695,25.0035162 C155.109813,25.0035162 154.912494,25.0494788 154.732537,25.4000183 C154.141644,26.5215214 146.935477,37.2082165 145.593925,39.2836448 C145.368275,39.5998651 145.09231,39.5560422 145.060428,39.195999 C144.924744,37.9633692 143.848885,36.5466792 142.154508,35.8690092 C140.862908,35.3501526 139.600004,35.2561916 138.287504,35.4286823 C135.917924,35.743494 133.806233,36.9817398 131.949608,38.3763435 C129.15173,40.4819235 126.73822,43.2097749 123.621883,45.2256052 C121.920415,46.3225627 119.591568,47.2796485 118.032867,45.8513849 C116.622244,44.5574011 116.781301,41.6819502 118.939393,39.4589365 C119.167178,39.2261446 119.439595,39.4207155 119.396727,39.6300187 C119.193389,40.6358321 119.443841,41.635678 120.214699,42.3368367 C121.156297,43.1715599 122.50351,43.2665699 123.656953,42.7095003 C125.017985,42.0419994 125.817876,40.7532719 126.050978,39.2906553 C126.412317,37.0213612 124.64708,35.0199034 122.438684,34.8596895 C120.644758,34.7352312 118.924514,35.352602 117.248199,36.7223165 C116.408272,37.4119036 115.930036,37.9219956 115.203819,38.9449846 C115.026692,39.1963506 114.754627,39.2222887 114.763134,38.8503283 C114.847443,35.9450835 113.632718,34.3106853 111.205392,34.257045 C109.322195,34.2131921 107.309344,35.2239422 105.740721,36.4618343 C104.02118,37.8283882 102.517749,39.6394845 100.90661,41.3411923 C100.706108,41.5508411 100.530757,41.5410216 100.474784,41.1343545 C100.426261,39.2096743 99.9370275,37.3449436 99.03688,36.0215094 C98.7184065,35.5608483 98.0485199,35.3326195 97.4852556,35.6442846 C97.2252413,35.7852192 96.319425,36.1968011 95.6615757,36.7219629 C95.3342492,36.9884066 95.207784,37.3736887 95.3509038,37.8683613 C96.2205864,40.7434545 96.0289298,44.012952 94.8506962,46.7744593 C93.7684647,49.3031926 91.6645619,51.5847555 89.1922495,52.3563765 C87.5634084,52.8671757 85.8693818,52.6172103 84.8218609,51.1882514 C83.3825416,49.2155468 83.9638638,45.7858354 86.1085038,42.9373775 C88.0023204,40.4300352 90.7399721,38.836659 93.4715951,37.810863 C93.7932608,37.6881569 93.8591539,37.4841201 93.7684647,37.2138264 C93.6196741,36.7685948 93.3837423,36.1641981 93.2863269,35.8875833 C93.0358753,35.2281497 92.3341026,35.1205153 91.4782363,35.2130739 C89.4937165,35.4416543 87.703338,36.1147652 85.9349191,37.0515088 C81.3045063,39.5055604 78.9827455,44.2555534 77.9646261,46.7965475 C77.4750525,48.0165628 77.0559714,48.778718 76.514327,49.4539406 C75.7842162,50.3619372 74.8684774,51.1882514 73.1921569,52.6449065 C73.0409017,52.778481 72.927887,53.0571916 73.0550717,53.3159116 C73.2261719,53.666495 74.0976274,54.884055 74.3434816,54.9927322 C74.6166026,55.1256015 74.9333091,54.9401527 75.0597742,54.8496979 C76.2326988,54.062999 77.6351788,52.816694 78.3220718,51.9710944 C78.562601,51.6815155 78.8098704,51.8031728 78.9373989,52.2427865 C79.5782418,54.5050781 81.2563233,56.351922 83.5759592,57.1242563 C87.8220095,58.5416435 92.2267628,56.4900576 95.5507018,52.9194096 C97.6638075,50.6501156 98.4261503,49.1902999 99.2352608,48.1981677 C100.60727,46.515036 103.31481,42.7505143 106.538845,40.3332811 C107.721333,39.4424582 109.120982,38.7626825 109.824522,39.2138757 C110.389203,39.5753274 110.571641,40.4177664 109.665465,42.0486583 C106.378373,47.9892182 101.54108,54.9692434 100.654032,56.6621887 C100.492142,56.9559751 100.633115,57.1866552 100.943815,57.1866552 C102.663699,57.1785639 104.369415,57.1824398 105.930948,57.1824398 C106.19097,57.1701929 106.307521,57.0530687 106.437534,56.8714698 C108.96015,52.9632186 111.334696,49.2428794 113.879627,45.3973767 C114.022037,45.1709 114.15346,45.3462057 114.159129,45.4453811 C114.211595,46.3376046 114.432977,47.5583251 114.967887,48.3597422 C115.929684,49.8416381 117.293192,50.4782942 118.805133,50.487762 C120.008168,50.5014273 120.616412,50.3205376 121.91368,49.8412865 C122.969351,49.4538987 123.817068,48.9448616 124.467481,48.4848977 C124.847236,48.2240719 124.913829,48.6608926 124.903913,48.7278507 C124.320809,51.8304755 125.041006,55.5066401 128.157357,57.0309605 C131.885839,58.8501221 135.982747,56.2933469 138.339932,53.9847851 C138.570195,53.7621662 138.818176,53.785655 138.841555,54.2648961 C138.891485,55.1462533 139.293931,56.1923774 140.030775,56.924387 C142.006069,58.8862233 145.992103,58.1089903 149.991954,55.0449321 C152.560268,53.0830938 155.24761,50.3114214 157.675287,47.376023 C157.765275,47.2631363 157.832226,47.0794256 157.658677,46.8953794 C157.289194,46.5125446 156.753572,46.0743234 156.387625,45.7367121 C156.220067,45.5964808 155.975278,45.6367975 155.833931,45.7423461 C153.346028,48.0842142 151.106103,50.7545733 147.868956,52.9635662 C146.777159,53.7173104 145.037788,54.325565 144.255952,53.2790892 C143.951655,52.8731193 143.986014,52.3100862 144.286375,51.5728203 C145.23117,49.2425298 160.173813,26.7283492 160.949628,25.4000083 L160.949626,25.4000163 Z M141.197325,44.2811439 C141.227748,44.4536266 141.454862,44.6201477 141.677328,44.6993826 C141.754914,44.7281696 141.799195,44.7842194 141.710639,44.9651211 C141.074761,46.3127413 140.490955,47.0899723 139.694597,48.2605627 C138.962711,49.3424444 138.137318,50.1866435 137.137974,50.9982256 C135.630992,52.2326194 133.538075,53.5763898 131.807557,52.6729464 C131.038834,52.2778429 130.706902,51.213834 130.722136,50.3517641 C130.762135,47.9285614 131.847945,45.440852 133.859022,42.9959146 C136.311151,40.0086319 139.021874,38.4590726 140.800929,39.3060727 C142.641257,40.175161 142.053901,42.2838956 141.230628,43.9396747 C141.168937,44.0676393 141.164713,44.1763165 141.197319,44.2811439 L141.197325,44.2811439 Z" id="path3549" fill="#FFFFFF"></path>
            <path d="M52.0534658,55.9996634 C46.5063253,56.0390943 41.6197425,52.6122304 41.0593511,46.6808592 C40.7475907,43.3942264 41.6772244,40.4646772 43.5375563,38.0518733 C45.1887617,35.9016796 47.9826037,34.1152546 50.3475982,33.6788674 C51.1174802,33.5378712 52.151499,33.6277708 52.5785872,34.1367543 C53.2493634,34.9168188 53.0561029,35.7733726 52.3863834,36.1152882 C50.5821245,37.036349 48.4107426,38.6123351 47.3368611,40.7642925 C46.4647173,42.5211145 46.2890798,44.6388809 47.6200576,46.6554807 C49.8478627,50.0171866 56.056962,50.109541 61.8301515,44.7484965 C63.2595267,43.4368882 64.5393587,42.1763745 65.8396553,40.6832173 C68.3823967,37.777283 69.228096,36.7184038 72.6080814,32.0320307 C72.6486745,31.9784573 72.6595397,31.9068935 72.6419425,31.872351 C72.6140393,31.8124078 72.5668217,31.7958617 72.4684243,31.7898676 C70.2123997,31.851934 68.2448649,32.524462 66.3333952,33.9531042 C65.7825257,34.3538943 64.9904299,34.2974886 64.6434075,33.7694621 C64.2575849,33.1726942 64.5337291,32.3940378 65.1695856,31.9555354 C68.2452152,29.8173299 71.6054502,29.4295826 75.0369157,28.8504454 C75.0341099,28.8504454 75.2756786,28.862056 75.4717569,28.6012317 C76.8799668,26.7947152 77.9443205,25.1644466 79.4452823,23.3371235 C80.9578814,21.4830198 82.9134287,19.7808479 84.4066297,18.5020044 C86.4909092,16.7102924 87.8271643,16.1078919 89.1856513,15.368358 C89.5432623,15.1822452 89.1394505,14.9580585 89.031183,14.9580585 C81.4463279,13.5336467 73.5631148,11.690109 66.0297478,14.4776153 C60.8137737,16.4237219 58.5281207,20.5584417 59.6277463,23.3212705 C60.4092615,25.2807654 62.9886838,25.5994177 65.4027049,24.4185711 C67.4083294,23.4361811 69.2630178,21.8541989 70.5788222,19.8160975 C71.3155515,18.6849474 72.8658841,19.5009706 72.0286481,21.4657525 C69.8244678,26.6441995 65.6132481,30.751781 60.483668,30.9245035 C56.1186844,31.0662069 53.3019182,27.8567723 53.3110879,23.8965307 C53.3273458,16.0860307 62.0287212,10.9410717 71.1709593,10.1719348 C82.1816424,9.26250865 92.6097142,12.193468 103.542106,13.5191958 C111.918003,14.5326049 119.948275,14.5544521 128.366846,12.6206892 C129.362081,12.4049654 130.060712,13.0394476 129.995828,14.0440464 C129.913303,15.496665 128.788283,16.8949971 126.015242,18.4068317 C122.862032,20.1354508 119.563163,20.6596024 116.117941,20.6878033 C107.786131,20.7568762 100.02529,17.5111576 91.9943085,15.7670249 C92.0059497,16.1181125 92.0962241,16.5379235 91.8013962,16.7589404 C87.3531808,20.03887 83.3320536,23.3688558 80.6387204,28.046057 C80.5477257,28.1542724 80.5971462,28.2575484 80.7540343,28.2462753 C83.0922341,28.1221987 85.1955476,28.0619161 87.3785746,27.8874379 C87.7594601,27.8557318 87.7739171,27.7608926 87.740062,27.4820779 C87.5478601,25.8697756 88.0183155,24.0315329 89.4374623,22.7667948 C90.8893956,21.4650435 92.7084697,21.3169985 93.9131809,22.2546274 C95.284716,23.3223251 95.1633924,25.2419905 94.4132726,26.6815663 C93.6500908,28.1426377 92.3903594,28.9230558 91.1799968,29.3026917 C91.1799968,29.3026917 90.9271351,29.3583884 90.96381,29.5885632 C91.0121142,29.9576191 92.6597934,30.8705685 92.8008653,31.1134326 C92.936644,31.34467 92.8671189,31.7035054 92.6164164,31.9780977 C92.4407869,32.1776069 92.1685271,32.3658349 91.818679,32.3587862 C91.5354884,32.3531216 91.3633791,32.2555103 91.0029584,32.05988 C90.2623447,31.6590899 89.3387068,31.0009927 88.7229488,30.2251607 C88.5120553,29.9629041 88.4062554,29.9572655 87.881128,29.9854664 C85.5189512,30.1218767 81.8349682,30.4775442 79.3391301,30.7894933 C78.7350055,30.8645744 78.6457838,30.9773758 78.5212862,31.186752 C74.5428257,37.7448557 70.2942227,44.8168824 65.6301727,49.55155 C60.6268572,54.6284766 56.4678261,55.9647705 52.0534738,55.9996634 L52.0534658,55.9996634 Z M89.9692779,26.8595778 C90.0320949,27.1961984 90.1635971,27.261059 90.3155919,27.2328581 C91.0731302,27.0812878 91.9033138,26.4577331 92.3931692,25.7361815 C92.8414087,25.0816098 93.0509013,24.136225 92.6072387,23.7576497 C92.2097868,23.4174977 91.5651029,23.5140785 91.0875872,23.9360067 C90.136086,24.7760003 89.845837,25.9691806 89.9692779,26.8595778 L89.9692779,26.8595778" id="path3564" fill="#FFFFFF"></path>
        </g>
    </g>
</svg>