<?xml version="1.0" encoding="UTF-8"?>
<svg width="224px" height="47px" viewBox="0 0 224 47" version="1.1" xmlns="http://www.w3.org/2000/svg" xmlns:xlink="http://www.w3.org/1999/xlink">
    <title>Group 2@1,5x</title>
    <g id="Pictures" stroke="none" stroke-width="1" fill="none" fill-rule="evenodd">
        <g id="Group-2" transform="translate(0.445487, 0.962485)" fill="#312E2A" fill-rule="nonzero">
            <polygon id="Shape" points="90.6264336 8.14771912 103.960655 8.14771912 103.960655 44.0880924 112.824758 44.0880924 112.824758 8.14771912 126.229675 8.14771912 126.229675 0 90.6264336 0"></polygon>
            <path d="M72.0510011,27.5710652 C72.0510011,33.8443193 68.8855434,37.7768898 63.1148377,37.7768898 C57.344132,37.7768898 54.1786742,33.8443193 54.1786742,27.5710652 L54.1786742,0 L45.3132168,0 L45.3132168,27.0343418 C45.3132168,38.8764263 52.4762888,45.7209848 63.1148377,45.7209848 C73.7533865,45.7209848 80.9164585,38.8764263 80.9164585,27.0343418 L80.9164585,0 L72.0510011,0 L72.0510011,27.5710652 Z" id="Shape"></path>
            <path d="M25.3419385,20.394825 C27.3854716,18.7945905 28.7850789,15.926143 28.7850789,12.2847932 C28.7797572,4.65918607 22.8141307,0 15.4329319,0 L0,0 L0,44.0880924 L18.5301617,44.0880924 C26.294523,44.0880924 32.3665834,39.1513147 32.3665834,31.1392564 C32.3612617,25.2336292 29.0618073,21.7718975 25.3419385,20.394825 Z M8.64244187,7.73990956 L14.6719287,7.73990956 C18.0565303,7.73990956 20.1532804,9.50343326 20.1532804,12.747446 C20.1532804,15.6594373 18.4130843,17.8964997 14.6719287,17.8964997 L8.64244187,17.8964997 L8.64244187,7.73990956 Z M17.8117321,36.315525 L8.64244187,36.315525 L8.64244187,25.1628705 L17.8117321,25.1628705 C21.3985584,25.1628705 23.8039671,27.2312008 23.8039671,30.7800201 C23.8039671,34.3288394 21.547566,36.320968 17.8117321,36.320968 L17.8117321,36.315525 Z" id="Shape"></path>
            <polygon id="Rectangle-path" points="139.176309 0 148.886284 0 148.886284 44.0880924 139.176309 44.0880924"></polygon>
            <path d="M215.340543,29.3927247 C212.058841,29.3506644 209.077023,31.3129515 207.792181,34.3601823 C206.507338,37.4074131 207.174008,40.9359101 209.47983,43.2924428 C211.785652,45.6489755 215.273827,46.3666984 218.310018,45.109332 C221.346208,43.8519656 223.328923,40.8686028 223.329188,37.5570588 C223.345597,35.4046543 222.512496,33.3341273 221.013737,31.8024062 C219.514977,30.2706851 217.473759,29.4036804 215.340543,29.3927247 Z" id="Shape"></path>
            <g id="Group-3" transform="translate(163.451246, 0.000000)">
                <polygon id="Shape" points="26.3482275 0 9.3936201 21.919918 26.3482275 43.834421 37.0727954 43.834421 19.5953097 21.919918 37.0727954 0"></polygon>
                <rect id="Rectangle-path" x="0.269871959" y="0" width="8.30375258" height="43.834421"></rect>
            </g>
        </g>
    </g>
</svg>