<?xml version="1.0" encoding="UTF-8"?>
<svg width="1197px" height="512px" viewBox="0 0 1197 512" version="1.1" xmlns="http://www.w3.org/2000/svg" xmlns:xlink="http://www.w3.org/1999/xlink">
    <title>Group 9</title>
    <g id="Pictures" stroke="none" stroke-width="1" fill="none" fill-rule="evenodd">
        <g id="Group-9">
            <path d="M104.954336,447.66886 C202.727981,471.622749 399.438748,414.323486 637.650697,401.675607 C777.297611,394.261045 937.363453,443.299854 1083.73729,423.654578 C1246.043,401.871037 1185.40305,101.60115 1083.73729,54.0552025 C949.767536,-8.59833042 760.7729,176.574712 564.823538,140.246778 C99.3373806,53.9482042 -17.8214343,126.993064 19.435014,228.221604 C56.6914623,329.450145 -50.1371212,409.672491 104.954336,447.66886 Z" id="Path-Copy-2" fill="#FFFFFF" fill-rule="nonzero" transform="translate(598.500000, 247.229639) scale(-1, -1) rotate(-4.000000) translate(-598.500000, -247.229639) "></path>
            <g id="Group-5-Copy" transform="translate(825.040396, 106.659950)">
                <ellipse id="Oval" fill="#F5F5F5" fill-rule="nonzero" cx="218.5" cy="386" rx="55.5" ry="7"></ellipse>
                <ellipse id="Oval" fill="#F5F5F5" fill-rule="nonzero" cx="62" cy="384" rx="62" ry="8"></ellipse>
                <ellipse id="Oval" fill="#F5F5F5" fill-rule="nonzero" cx="145" cy="399.5" rx="62" ry="5.5"></ellipse>
                <g id="Group" transform="translate(166.000000, 21.000000)">
                    <path d="M10.8706052,30.2314986 C10.8706052,30.2314986 8.41186368,22.3117296 8.62779576,21.2741159 C8.76023916,20.6358469 10.2918769,16.7083878 10.8064707,15.4204725 C10.9977357,14.9411071 11.1916571,14.4533983 11.2379554,13.9376254 C11.2853921,13.4100959 11.1760979,12.8799116 11.0463109,12.364518 C10.6869301,10.9340066 10.1658849,9.54748764 9.64673711,8.16514038 C9.5086013,7.79765217 9.36894751,7.42750925 9.16212329,7.09339459 C8.91127776,6.6887404 8.56935368,6.34855782 8.22894758,6.0148224 C6.2844204,4.1072211 4.28069215,2.26029896 2.2207988,0.476710704 C2.11188403,0.382657995 1.9934819,0.284054349 1.85041267,0.268884558 C1.50924758,0.232097813 0.347236997,2.51818542 0.31422102,3.04647342 C0.178362173,5.25102339 0.657283583,7.49691105 1.68381481,9.47050095 C1.88798258,9.86339856 2.11643796,10.2525037 2.21358842,10.6833258 C2.47126483,11.8263696 1.76806248,12.9231455 1.41551257,14.0335743 C1.09711711,15.037056 0.768095826,16.1099395 0.632616474,17.1551382 C0.384047913,19.0710829 2.05951386,20.3730302 2.30846191,20.7257279 C2.44659772,20.921039 2.48834206,21.1648934 2.52970691,21.3988874 C2.80066561,22.9261062 3.30235666,28.6390497 3.30235666,28.6390497" id="Path" fill="#FCD2B1" fill-rule="nonzero"></path>
                    <path d="M42.9731399,45.5321298 C40.7808032,47.0286297 40.5307166,50.5776025 40.413453,52.9873239 C40.2715222,55.8900635 40.6794783,58.7935616 41.2559296,61.6322089 C41.6570548,63.607695 42.1815155,65.6533414 43.5180933,67.1634942 C44.200803,67.9344989 45.0599773,68.5238453 45.9108029,69.1048483 C46.3927602,69.434412 46.8853434,69.7689059 47.446615,69.9293265 C48.0082661,70.0893678 48.6598573,70.0484093 49.1118346,69.6790249 C49.7710157,69.1393596 49.782021,68.1540816 49.7391382,67.3038148 C49.4594511,61.7607729 49.2913353,56.1183689 50.7030529,50.7501588" id="Path" fill="#212121" fill-rule="nonzero"></path>
                    <g transform="translate(12.143808, 346.250495)" fill-rule="nonzero" id="Path">
                        <path d="M16.0977554,2.6797437 C16.0977554,2.6797437 16.0506981,7.9087709 16.4207047,9.76403642 C16.7910909,11.6193019 22.775711,11.0216122 23.3498854,9.96503616 C23.9236803,8.90883941 23.2083342,0.266988334 23.2083342,0.266988334" fill="#FCD2B1"></path>
                        <path d="M25.081896,11.7497622 C25.2454579,13.7100785 25.2346074,17.4126454 25.2346074,17.4126454 L19.0984143,18.8909416 L18.3177952,17.8487769 C18.3177952,17.8487769 16.6032414,19.3126618 14.7122228,19.8128857 C13.3084746,20.1837871 10.3742271,20.4678414 8.92531904,20.3703755 C3.85603838,20.0313307 0.35900131,18.4521554 0.185193065,17.711111 C-0.541537917,14.6145773 6.1956188,15.002924 7.56635108,14.8887713 C11.5028422,14.5607246 14.1551257,11.7376263 14.922842,9.72687043 C15.4799392,8.26829496 15.1520564,7.9375935 15.9884611,8.13252532 C15.9884611,8.13252532 16.7345463,8.22430256 17.2961974,9.0518147 C18.1580282,10.3219055 19.655891,11.0959441 21.1791798,10.7045635 C22.050498,10.4808091 22.9092929,10.0803266 23.4959906,9.37910296 C23.4959906,9.37910296 24.9183341,9.78944582 25.081896,11.7497622 Z" fill="#0B4870"></path>
                    </g>
                    <path d="M39.9584397,284.753298 C39.3766754,275.566092 46.8022342,263.270976 46.8022342,263.270976 C46.8022342,263.270976 26.752808,252.263396 26.4511103,248.839195 C26.4511103,248.839195 23.7062303,267.74341 22.7210639,274.413947 C21.010305,285.999117 26.7945523,352.085176 26.7945523,352.085176 C26.7945523,352.085176 30.9906173,353.248699 36.5634865,352.220567 C36.5634865,352.220567 37.6051975,326.693979 41.7819083,309.403071 C43.7617284,301.203799 40.6502572,287.025353 39.9584397,284.753298 Z" id="Path" fill="#212121" fill-rule="nonzero"></path>
                    <path d="M41.5682532,178.83364 C34.0413695,195.619394 25.867069,249.783894 23.9073621,268.48142 C23.0766498,276.409912 29.6840195,285.701789 37.3782601,278.532545 C46.563153,269.974886 59.4845437,230.768939 64.1014675,223.84848 C68.7180119,216.928021 85.9929576,210.583635 74.1948691,175.46898" id="Path" fill="#212121" fill-rule="nonzero"></path>
                    <g transform="translate(60.339544, 348.905209)" fill-rule="nonzero" id="Path">
                        <path d="M15.0264438,0.353076902 C15.0264438,0.353076902 15.7042201,7.72559566 15.9706249,9.59868569 C16.2366502,11.4717757 22.2455579,11.2082006 22.8777949,10.1857566 C23.5100319,9.16293342 23.2774021,0.494155964 23.2774021,0.494155964" fill="#FCD2B1"></path>
                        <path d="M24.574892,11.7399018 C24.7073354,13.7024936 24.3752782,16.9359347 24.3752782,16.9359347 L17.4612773,17.4001303 L17.0430749,16.2696016 C17.0430749,16.2696016 14.8795797,17.5734452 13.1179686,17.6917696 L7.28211008,18.0835294 C3.01052579,18.3706177 0.548368809,17.989856 0.389360829,17.2457777 C-0.272856175,14.1363496 4.84006629,13.9364876 6.16905423,13.8473651 C9.98448675,13.5909956 13.9957382,11.5286624 14.7657315,9.5326971 C15.3243466,8.08436124 15.0116436,7.74835035 15.8188273,7.95807272 C15.8188273,7.95807272 16.5398659,8.06350277 17.0722959,8.90049603 C17.889726,10.1861359 19.3299056,10.9878594 20.8099322,10.6237844 C21.6562038,10.4159582 22.493747,10.0310248 23.0709573,9.34079923 C23.0713368,9.34079923 24.4432076,9.77693074 24.574892,11.7399018 Z" fill="#0B4870"></path>
                    </g>
                    <path d="M60.3365077,283.669037 C61.6108485,290.201149 78.6858009,287.761088 78.3173122,281.976088 C77.793231,273.751785 83.5604011,263.122312 85.7717126,223.975148 C86.0244556,219.502714 90.5085565,218.846241 92.273583,206.683482 C94.0158399,194.498726 86.7948284,181.012402 86.7948284,181.012402 L60.5224598,177.254465 C60.5224598,177.254465 50.4260223,200.020909 52.5139982,222.721744 C54.6019741,245.422579 58.8265011,275.977194 60.3365077,283.669037 Z" id="Path" fill="#212121" fill-rule="nonzero"></path>
                    <path d="M78.271773,280.602842 C78.271773,280.602842 84.2446288,292.427316 84.9455542,300.974356 C85.9713264,313.480711 84.703437,354.641286 84.703437,354.641286 C84.703437,354.641286 78.2417929,356.043734 74.7925721,355.027357 C74.7925721,355.027357 59.626854,281.998463 59.0705158,274.145441 C58.5141776,266.293178 78.271773,280.602842 78.271773,280.602842 Z" id="Path" fill="#212121" fill-rule="nonzero"></path>
                    <path d="M31.3943989,99.6791842 C34.3639394,96.2747037 43.7901905,90.663777 56.3882523,91.0612255 C65.0680387,91.334661 88.7067191,92.7666894 91.3483767,98.5695139 C92.6982368,101.535587 94.1482833,131.912337 92.1711197,142.386319 C90.6846417,150.261717 86.8817325,169.771965 86.8817325,174.480669 C86.8817325,179.189372 89.4125779,181.207333 88.2315926,182.57489 C85.5865195,185.637292 67.4990772,186.923311 59.0075198,186.923311 C51.4491381,186.923311 38.5846715,184.909521 37.9319418,182.48956 C36.9630937,178.897733 39.4066554,179.032365 39.7379537,175.266843 C40.0692519,171.50208 41.8498377,146.668752 39.6366288,143.059479 C36.1240325,137.330986 32.6353443,122.241974 32.365524,117.924651 C32.0957038,113.607708 28.4248585,103.083285 31.3943989,99.6791842 Z" id="Path" fill="#3274DC" fill-rule="nonzero"></path>
                    <path d="M53.6297105,82.0389919 C53.6297105,82.0389919 53.5450834,92.5156293 53.1223271,92.9384873 C53.0517412,93.0090268 52.935616,93.0947361 52.7906493,93.1887888 C51.4540715,94.0580179 50.8533325,95.7024233 51.2320675,97.2501213 C51.8680994,99.8490859 52.9731859,103.186819 54.388319,102.767754 C55.9685319,102.299766 63.6779523,98.5103517 68.2743834,96.2219887 C69.49939,95.612163 69.9441569,94.2260233 69.6242435,92.8960118 C69.6139972,92.8539157 69.6086843,92.8114403 69.6086843,92.7693441 C69.6086843,91.9243867 71.6374591,75.4488552 71.6374591,75.4488552" id="Path" fill="#FCD2B1" fill-rule="nonzero"></path>
                    <path d="M52.653652,43.5354059 C50.7546641,44.7910854 44.8793382,45.4653827 44.1120014,48.2399376 C43.345044,51.0141132 43.8300373,56.9481565 43.7613489,58.6521033 C43.6243516,62.0440688 43.9499574,65.5134001 44.1537457,68.8962637 C44.419012,73.3049844 45.1013422,81.3157721 50.189977,83.4004807 C51.6517879,83.998929 52.2677066,84.1540401 53.7651899,83.944697 C55.7563948,83.6659521 57.7540511,83.4346128 59.7448766,83.1528339 C62.8301627,82.7159439 66.2573729,82.2623671 68.8409679,80.3703149 C72.2924657,77.8426483 72.6605749,71.8338938 72.4643765,67.8996083 L71.3403153,45.365262 L52.653652,43.5354059 Z" id="Path" fill="#FFE3CA" fill-rule="nonzero"></path>
                    <path d="M52.3443644,112.4366 C52.7978597,103.668839 22.5635739,69.2880235 22.9316831,67.7956953 C23.2997922,66.3037463 9.36667055,22.5203142 9.36667055,22.5203142 L1.44852854,23.1331738 C1.44852854,23.1331738 4.03743651,60.1577052 7.57280248,72.5336005 C10.061524,81.2456118 29.4608771,106.909865 29.4608771,106.909865 C29.4608771,106.909865 51.8912486,121.203981 52.3443644,112.4366 Z" id="Path" fill="#3274DC" fill-rule="nonzero"></path>
                    <g transform="translate(64.134484, 170.280912)" id="Path">
                        <path d="M8.87484634,0.157007344 L54.4767411,8.75979621 C55.7199634,8.99416949 56.4983055,10.2392301 56.1635919,11.4585022 L50.0544977,42.9798123 C49.7558359,44.0667279 48.6727601,44.7425421 47.5646376,44.5335782 L1.96274289,35.9311686 C0.719520596,35.6967953 -0.0584420737,34.4517347 0.276271621,33.2324626 L6.3849863,1.7111525 C6.68326858,0.623857683 7.7667239,-0.0519565365 8.87484634,0.157007344 Z" fill="#212121" fill-rule="nonzero"></path>
                        <polygon fill="#F7F7F7" fill-rule="nonzero" points="9.41296881 2.57734761 53.0745108 10.813786 47.0265152 42.1132379 3.36497317 33.8767996"></polygon>
                        <g transform="translate(7.969374, 5.309427)" stroke="#D3D3D3" stroke-linecap="round" stroke-linejoin="round" stroke-width="0.5282">
                            <line x1="0.283861501" y1="26.9271387" x2="5.0537214" y2="0.282916615"></line>
                            <line x1="4.40213023" y1="27.7250698" x2="9.17161064" y2="1.08084766"></line>
                            <line x1="10.3275493" y1="28.9378946" x2="15.0970297" y2="2.2936725"></line>
                            <line x1="16.2525889" y1="30.1503402" x2="21.0224488" y2="3.50649735"></line>
                            <line x1="22.1776285" y1="31.3631651" x2="27.5254577" y2="4.71894295"></line>
                            <line x1="28.1030476" y1="32.5759899" x2="33.4508768" y2="5.93176779"></line>
                            <line x1="34.0284667" y1="33.7884355" x2="39.5948845" y2="7.14459264"></line>
                        </g>
                    </g>
                    <g transform="translate(83.109183, 94.811198)" fill-rule="nonzero" id="Path">
                        <path d="M14.0765704,98.5406913 C14.0765704,98.5406913 12.2728355,102.216711 11.3070233,104.084112 C10.6770633,105.302247 5.8867107,109.378749 3.96609164,112.626981 C3.03936733,114.194399 2.22307577,115.964714 2.45950052,117.770299 C2.69592527,119.575883 4.39378136,121.286277 6.17512613,120.904377 C6.68250959,120.795534 7.26313539,120.547508 7.67298889,120.865315 C7.88095159,121.026494 7.97240964,121.291207 8.10029912,121.52103 C8.49421387,122.227183 9.34314192,122.650421 10.1442537,122.54006 C10.945745,122.430079 11.6485679,121.794086 11.8371764,121.007911 C13.0618035,122.151714 15.1930417,122.1282 16.3918632,120.957851 C15.678794,120.370022 15.1463639,119.46211 15.2924691,118.549647 C15.4328819,117.669799 16.1417767,117.012567 16.6855915,116.306414 C17.6438139,115.06287 18.1572692,113.484453 18.1151454,111.915138 C18.0851654,110.796366 17.7834676,109.703003 17.6601321,108.590678 C17.4070096,106.308383 17.9322293,103.947205 19.1283943,101.986889" fill="#FCD2B1"></path>
                        <path d="M0.340026611,24.9091772 C1.71834877,29.8188803 22.7081611,62.1081611 22.7081611,62.1081611 L11.4717237,103.037018 L17.8775822,107.04336 C17.8775822,107.04336 37.8556635,73.8693006 37.9177135,64.5019543 C37.9789991,55.1342286 23.3028282,20.790958 12.5737742,6.74866108 C9.15832835,2.27888196 2.31301584,0.0227546875 2.31301584,0.0227546875" fill="#3274DC"></path>
                    </g>
                    <path d="M73.4176654,63.613763 C71.8533912,63.279269 70.5809479,62.8010414 70.1414938,64.3381205 C69.908105,65.1531176 69.9369466,66.1630464 69.2401956,66.6465836 C68.5457216,67.1278452 67.5214673,66.6992986 67.0748029,65.9825259 C66.6281385,65.2657533 66.6004354,64.374528 66.5856352,63.5303291 C66.5537577,61.6621693 66.5215007,59.7940094 66.4896232,57.9258496 C66.4581252,56.0963727 66.3681851,54.104579 65.178851,52.7135091 C64.578112,52.0111478 63.7500561,51.5378503 62.8946767,51.1862904 C60.1080523,50.0394541 56.9787449,50.0694144 53.9856759,50.4202159 C50.9926068,50.7710173 48.0249638,51.4240768 45.0117816,51.464656 C43.7454102,51.4813428 42.4532332,51.3838769 41.2798377,50.9083039 C39.3846448,50.1403332 37.9668553,48.4178034 37.3053972,46.4836549 C36.6439392,44.5495065 36.6837861,42.4261149 37.1289325,40.4312873 C37.5547248,41.0301148 38.0492055,41.580399 38.5994717,42.0677286 C38.6469085,41.0634884 38.900031,40.0694878 39.3391055,39.1646097 C41.6570548,43.4466626 60.3323333,35.609569 65.4737178,36.140891 C69.0375458,36.5087584 71.9065203,36.5720923 73.4707945,41.6323556 C73.6685109,41.9300627 74.0165069,42.0847946 74.3421127,42.2323208 C77.9271924,43.8532131 80.132432,46.533336 81.9832241,50.9822567 C84.2472853,56.4251779 82.9877447,63.540948 81.3172122,69.1935916 C80.8974918,70.6142426 80.7221656,71.5824545 79.8827249,72.8036228 C79.0432842,74.0244117 77.2281645,75.0859179 75.7580048,75.2770573 C74.2882246,75.4685759 71.6029252,76.484952 71.1126189,75.0866764 C70.7619665,74.0862286 72.3224457,71.5809375 72.6510875,70.5736634" id="Path" fill="#212121" fill-rule="nonzero"></path>
                    <path d="M70.1361809,70.5414276 C70.1361809,70.5414276 70.2192901,71.5517357 71.0469665,72.0955727 C71.7729385,72.5726627 72.7839104,72.1361519 73.4225988,71.6693016 C75.242652,70.3392901 75.9932911,67.8924027 75.7010807,65.7174338 C75.3565002,63.1541183 73.2624524,61.1668756 71.2583446,62.5230549 C70.0857082,63.3168143 69.7616203,65.0492045 70.2185311,66.3886971" id="Path" fill="#FFE3CA" fill-rule="nonzero"></path>
                    <g transform="translate(59.960050, 179.382787)" fill="#212121" fill-rule="nonzero">
                        <polygon id="Path" points="5.60133122 14.7723431 9.54844816 15.7064231 12.3980685 0.959110079 8.44032573 0.123254557"></polygon>
                        <path d="M2.96954044,10.2346792 C3.90005969,10.4102695 7.49197026,11.0887385 7.49197026,11.0887385 L8.82589162,4.03592308 L4.30346179,3.18186381 C2.35476018,2.81361711 0.476264952,4.09394753 0.107776292,6.04174878 C-0.260712368,7.98917079 1.02007983,9.86643251 2.96954044,10.2346792 Z M3.30766958,8.69494535 C2.21396791,8.48863618 1.4952063,7.4354734 1.70165103,6.3424899 C1.90847525,5.24988566 2.96233005,4.53159602 4.05565222,4.73790519 C5.14935389,4.94421436 5.8681155,5.99775639 5.66129127,7.09036063 C5.45446705,8.18334413 4.40099175,8.90163376 3.30766958,8.69494535 Z" id="Shape"></path>
                    </g>
                </g>
                <path d="M149.922771,29.3934546 C150.250618,26.6132667 143.903465,24.7319788 143.266707,27.0303323 C143.198391,27.2766781 142.649257,27.9535674 142.500371,28.9876206 C142.373391,29.8692988 141.990965,30.8969875 141.87995,31.7839071 C141.779331,32.589585 141.970173,36.3600231 140.104455,36.762862 C137.245173,37.3805984 139.057425,32.3642049 137.041337,31.2388016 C136.408663,30.8857559 135.736634,34.7748742 135.688738,36.9747643 C135.641213,39.1739057 135.629332,40.2760971 135.834282,41.5710971 C136.012871,42.8668459 136.723515,44.6994637 136.623639,45.484176 C136.463242,46.7473533 135,49.3422203 135,49.3422203 L142.223019,51 C142.223019,51 143.930197,46.9970685 144.802722,46.0659714 C146.995915,43.860091 148.368564,41.3281208 149.175742,38.2656461 C149.681435,36.3472939 149.854455,34.344705 150,32.3709438 C150.00037,32.3705694 149.888984,29.6802341 149.922771,29.3934546 Z" id="Path" fill="#FCD2B1" fill-rule="nonzero"></path>
                <path d="M81.4334966,90.7152701 C81.4334966,90.7152701 104.657318,90.5089994 117.265106,76.3020558 C127.324383,62.1318246 137.041474,46.454871 137.766877,45 C139.746208,45.7607416 144,47.7174749 144,47.7174749 C144,47.7174749 130.711606,77.6112126 125.535531,84.4389628 C120.359081,91.2663346 110.176707,102.448857 88.654779,108 C78.3451684,96.0998823 81.4334966,90.7152701 81.4334966,90.7152701 Z" id="Path" fill="#FCD2B1" fill-rule="nonzero"></path>
                <g id="Group" transform="translate(9.000000, 174.000000)" fill-rule="nonzero">
                    <g transform="translate(79.222182, 190.670755)" id="Path">
                        <path d="M7.92297629,4.10017787 C7.92297629,4.10017787 9.26823717,7.16339435 9.20076565,9.21991464 C9.13291507,11.2760566 2.59689554,11.6967429 1.79216496,10.6650779 C0.987813425,9.63341293 0.21871387,0.233798664 0.21871387,0.233798664" fill="#FCD2B1"></path>
                        <path d="M0.137975475,12.5445468 C0.226294941,14.6820265 0.965828322,18.1390689 0.965828322,18.1390689 L8.50520247,17.8292289 L8.82474457,16.5580905 C8.82474457,16.5580905 11.3208119,17.7138428 13.241476,17.634775 L19.6054052,17.3733593 C24.2639727,17.1819319 26.8843696,16.4809143 26.9685195,15.6580792 C27.319523,12.2184393 21.7607034,12.6028073 20.3119609,12.6622027 C16.1507116,12.8332011 11.5656804,11.0740364 10.4971286,9.00654499 C9.7212061,7.50614774 10.0206584,7.10589048 9.17157853,7.42783653 C9.17157853,7.42783653 8.40323708,7.62607359 7.92525061,8.59380333 C7.19178209,10.0798246 5.72711936,11.1152727 4.08202716,10.8958501 C3.14159542,10.7702495 2.18979208,10.4528432 1.48361541,9.77414611 C1.48323635,9.77414611 0.0500350622,10.4070671 0.137975475,12.5445468 Z" fill="#0B4870"></path>
                    </g>
                    <g transform="translate(0.000000, 186.130976)" id="Path">
                        <path d="M13.4992324,4.5575607 C13.4992324,4.5575607 12.3317476,10.1237092 11.5054109,12.0088528 C10.6798324,13.8939964 4.45198338,11.8684979 4.08771296,10.6128704 C3.72268444,9.35724299 6.49697702,0.341996752 6.49697702,0.341996752" fill="#FCD2B1"></path>
                        <path d="M1.85357162,11.7474371 C1.14246725,13.7653693 0.125845763,17.661257 0.125845763,17.661257 L5.9810852,20.8277535 L7.06745254,19.9372 C7.06745254,19.9372 8.41195531,21.9267586 10.2037412,22.9489657 C11.534219,23.7082439 14.4514148,24.7777403 15.9577734,25.0565585 C21.2281333,26.0318545 25.2373821,25.2903571 25.6206052,24.5571827 C27.2232434,21.4920746 20.2357712,20.130519 18.867388,19.6504373 C14.9388776,18.2711008 13.0144229,14.6056069 12.788507,12.2899408 C12.6247559,10.6098439 13.0511911,10.3484283 12.1429789,10.3332957 C12.1429789,10.3332957 11.3556848,10.2337988 10.5524704,10.9563805 C9.31978845,12.0652217 7.57462612,12.4855296 6.12815796,11.6736657 C5.30106322,11.2094732 4.53461704,10.5629329 4.13054601,9.67124443 C4.13130411,9.67124443 2.56467599,9.72912662 1.85357162,11.7474371 Z" fill="#0B4870"></path>
                    </g>
                    <g transform="translate(3.790535, 0.000000)" fill="#9B9B9B" id="Path">
                        <path d="M30.1468831,42.8339582 C30.1468831,42.8339582 18.8924056,18.7700983 36.0290353,0.259524084 C36.0290353,0.259524084 51.5580992,6.4453525 63.8019063,6.7657853 C73.4431322,7.0181214 78.2844035,5.82340266 78.2844035,5.82340266 C78.2844035,5.82340266 81.1837837,23.5542697 81.1492229,51.5427693 L30.1468831,42.8339582 Z"></path>
                        <path d="M75.0234062,197.47929 C75.333472,197.488748 75.6427796,197.476264 75.9297231,197.464158 C82.290999,197.268947 85.8813938,196.371206 85.8813938,196.371206 L85.8059621,194.542053 C84.296192,166.527449 85.8063412,120.575419 85.8715384,106.070822 C85.8738127,105.055425 85.8135432,104.131201 85.6691238,103.298152 C84.1278923,92.7442984 73.2119095,94.5832875 68.999488,104.512921 C68.0112955,106.827074 67.2535675,109.374269 66.7031819,112.111756 C66.0208855,115.40688 65.6152983,118.977038 65.4394175,122.759053 C64.295055,147.042336 72.4014931,179.487386 75.0234062,197.47929 Z"></path>
                        <path d="M50.0126981,53.3337125 C50.0684189,53.6182054 50.1476411,53.9242622 50.2264842,54.2299407 C53.1812063,66.8887386 62.4862116,101.050582 66.7012866,112.090192 L66.7024237,112.112134 C67.3191438,113.654146 69.2500423,114.898803 71.6831868,115.439036 C77.2647496,116.710931 85.415537,114.323007 85.6683657,103.29853 C85.7062711,102.082626 85.6300813,100.76155 85.4606444,99.3337889 C84.3640426,90.4392251 80.3642701,41.2041772 79.7706723,36.4612422 C79.1990596,31.7167939 78.0516646,24.8110321 75.4983603,24.0332164 C62.7564768,20.2084519 45.9867708,35.620248 50.0126981,53.3337125 Z"></path>
                        <path d="M27.0958815,105.519239 C35.2716864,97.1845814 47.2577372,100.478192 42.2432384,113.097267 C36.8800104,126.589871 20.1258457,164.126662 11.3022383,190.75512 L10.6889297,192.488559 C10.6889297,192.488559 6.68043891,191.965728 0.181945681,189.562671 C4.19346889,172.348204 6.41168998,142.873683 15.3653127,122.03004 C18.2442241,115.328947 22.8584424,109.839218 27.0958815,105.519239 Z"></path>
                        <path d="M71.76999,25.0977948 C72.6084564,5.3172172 48.5302198,19.4204217 36.9918312,26.4150876 C32.1350187,29.3583782 30.5422359,34.9150688 30.0885089,40.1021457 C29.6309913,45.2896008 25.4432082,98.6732509 24.5622879,108.417888 C22.5749103,130.385883 41.2042528,117.652179 42.7617836,111.523476 C46.6899151,96.0511497 71.3132305,35.8763672 71.76999,25.0977948 Z"></path>
                    </g>
                </g>
                <g id="Group" transform="translate(42.000000, 41.000000)" fill-rule="nonzero">
                    <g id="XMLID_34_">
                        <path d="M39.8059874,33.3363412 C39.8564558,34.8171958 39.9133269,40.6067088 36.8340029,41.9890153 C33.7539256,43.3927615 31.7785031,43.9817933 31.8673877,44.4568554 C31.9020377,44.6723824 32.2063544,45.6913397 32.5328923,46.6899855 C33.2409561,48.9249964 34.3143506,49.4801758 34.3143506,49.4801758 L34.7599034,56.8919712 L29.2257074,62.4031423 L27.4182617,64.1988241 L24.7020087,61.7155624 L15.8466924,53.6605713 C15.8466924,53.6605713 19.4958571,49.1706143 16.9762047,44.3586834 C16.6157702,43.680507 12.5805601,39.2176319 9.36225978,34.7220329 C7.48928054,32.0781603 5.89463061,29.4451957 5.47355867,27.5641305 C4.31881217,22.4185654 3.34635442,17.0018049 6.30327378,13.7707811 C9.23872525,10.5393813 29.514959,-2.74505369 33.5738967,12.842473 C33.5742733,12.8428492 39.7551424,31.8554867 39.8059874,33.3363412 Z" id="Path" fill="#FFE3CA"></path>
                        <path d="M15.820705,28.8392377 C15.820705,28.8392377 20.6909029,30.5946728 20.1903621,23.9938305 C20.1632448,23.6331143 20.4212361,23.3103881 20.8031386,23.1971706 C22.2286818,22.7762724 25.3727861,21.1118626 23.7717335,14.7389598 C23.6380299,14.207101 24.0278416,13.6838933 24.627436,13.6026475 C26.6955094,13.322801 30.9668662,12.7717591 31.9152197,12.8567663 C31.9152197,12.8567663 32.3841236,12.8105013 33.0861613,12.927104 C33.3147755,12.9650939 33.5128827,13.0941092 33.6168324,13.2806736 C33.94676,13.8708338 35.8351811,19.8864057 35.8351811,19.8864057 C35.8351811,19.8864057 38.0862965,18.1915287 37.8452535,17.0480698 C37.6042105,15.9046109 36.5428682,13.4796505 36.6645196,12.8710595 C36.7861709,12.2620924 38.5179141,11.545926 38.5307195,10.1764083 C38.5589667,7.07966574 37.3488556,-4.77431714 27.9342443,2.51410508 C26.703042,3.46723827 25.6104394,4.6137063 24.5193433,5.01429306 C23.0956832,5.53674847 21.487098,4.52907529 18.3881893,4.74723522 C14.0584549,5.0515307 -4.54893288,9.39780302 1.40859488,25.9234174 C7.36536939,42.4490318 17.1690391,44.8066636 17.1690391,44.8066636 C17.1690391,44.8066636 13.9545051,30.9407196 15.820705,28.8392377 Z" id="XMLID_35_" fill="#212121"></path>
                    </g>
                    <path d="M15.820705,28.8392377 C15.820705,28.8392377 14.8994689,25.998645 12.520676,26.8171208 C9.32723322,27.9161955 9.61497827,35.9256739 16.5705746,34.8706073 C16.5705746,34.8709835 15.6399227,31.5963278 15.820705,28.8392377 Z" id="XMLID_5_" fill="#FFE3CA"></path>
                </g>
                <path d="M102,197.063691 C102,197.063691 66.7409207,203.390919 35,197.469497 C36.5392653,187.612364 42.5606202,159.759563 42.9681172,148.516308 L43.0119666,147.370324 C43.2641007,140.191587 43.3948929,135.065057 43.553658,134.854935 C43.8723222,134.412652 42.742444,111.504376 44.6139819,102.52573 C44.9568389,100.871728 45.4112095,99.698387 45.98919,99.222667 C49.705049,96.1179477 54.0726009,92.8650408 58.947067,90.4332451 C58.947067,90.4332451 70.3048188,102.714574 76.1001224,89.123495 C82.4768087,88.5463235 85.7231767,89.8404948 87.5678757,96.2558761 C97.7764707,131.898403 102,197.063691 102,197.063691 Z" id="Path" fill="#3274DC" fill-rule="nonzero"></path>
                <path d="M81,89.583658 C81,89.583658 91.5679583,89.7627366 102.3481,85 C108.363376,92.0504185 112,104.900344 112,104.900344 C112,104.900344 97.4569069,114.114032 86.8261633,115 C84.5458505,99.5551311 81,89.583658 81,89.583658 Z" id="Path" fill="#3274DC" fill-rule="nonzero"></path>
                <g id="Group" transform="translate(39.000000, 92.000000)" fill-rule="nonzero">
                    <polygon id="Path" fill="#0B4870" points="60.3033634 20.0386529 61.5569184 22.5504766 59.1287666 21.1790764 40.3130344 1.33220645 41.4876312 0.191402412"></polygon>
                    <path d="M0.0545187374,42.9053431 C0.0545187374,42.9053431 4.91646214,59.8819379 17.5606733,67.8747961 C21.243884,70.2032083 25.8666969,68.9014436 28.7614539,65.6243908 C37.4171494,55.8270987 46.070589,33.75646 48.8390129,25.4230349 C43.7642584,22.696597 42.142232,23.1212592 42.142232,23.1212592 C42.142232,23.1212592 29.8661163,40.3695465 22.8230474,51.9115305 L17.5625533,42.6271817" id="Path" fill="#FCD2B1"></path>
                    <path d="M41.7809044,23.7647213 C41.7809044,23.7647213 44.0379801,20.0736609 44.1436336,17.277207 C44.2496632,14.4807531 42.9400855,9.64660546 45.6246633,7.13059602 C46.6236722,6.19413213 50.1196392,4.76032639 54.0558921,5.41938996 C59.9108285,6.39999437 55.2808717,16.6752217 55.0142939,19.0089612 C54.6138632,22.5169907 49.7816231,24.0010253 48.7307274,25.7495225 C47.9828807,26.9926869 41.7809044,23.7647213 41.7809044,23.7647213 Z" id="Path" fill="#FCD2B1"></path>
                </g>
                <path d="M48.7709733,97 C48.7709733,97 35.5819099,105.575825 35.0182357,120.175505 C34.5824444,131.464237 42.1020336,147.935487 42.1020336,147.935487 C42.1020336,147.935487 55.1510347,149.36391 62,138.777867 C59.9713818,133.635394 58.1962457,129.067917 54.2984822,122.997594" id="Path" fill="#3274DC" fill-rule="nonzero"></path>
                <g id="Group" transform="translate(135.000000, 0.000000)">
                    <path d="M0.079576246,7.67741849 L4.1839757,51.4026151 C4.29560873,52.5946853 5.39421349,53.4365041 6.56447458,53.227569 L36.5334168,47.8750293 C37.5769593,47.688887 38.3033283,46.7270254 38.2037637,45.664495 L34.0993642,1.93929843 C33.9873541,0.747228212 32.8891265,-0.0945906582 31.7188654,0.114344531 L1.74992313,5.46650431 C0.70638061,5.65302645 -0.0203654848,6.6145082 0.079576246,7.67741849 Z" id="Path" fill="#212121" fill-rule="nonzero"></path>
                    <polygon id="Path" fill="#F7F7F7" fill-rule="nonzero" points="2.29828267 8.39577565 6.22844409 50.2603094 35.9846801 44.9453781 32.0548959 3.08122421"></polygon>
                    <g transform="translate(4.525663, 6.837879)" id="Path" stroke="#D3D3D3" stroke-linecap="round" stroke-linejoin="round" stroke-width="0.5282">
                        <line x1="25.4572331" y1="0.110545709" x2="0.170089512" y2="4.62696473"></line>
                        <line x1="25.8475715" y1="4.06132019" x2="0.560805108" y2="8.57773921"></line>
                        <line x1="16.7928507" y1="10.4467594" x2="0.990743119" y2="13.2692839"></line>
                        <line x1="16.7551369" y1="13.9667476" x2="0.95265212" y2="16.789272"></line>
                        <line x1="16.7166687" y1="17.4863558" x2="0.914183982" y2="20.3088802"></line>
                        <line x1="27.9663362" y1="33.1363612" x2="12.1638515" y2="35.9588857"></line>
                    </g>
                </g>
                <path d="M156.454302,180.684933 C158.305819,179.774769 159.681453,178.090349 160.997694,176.45521 C162.296228,174.841632 163.594762,173.228439 164.893295,171.614476 C165.4057,170.978054 165.942082,170.281956 166,169.453029 C163.823112,169.268224 162.420548,172.219713 160.242922,172.394507 C161.257401,168.652977 162.713456,165.042351 164.568293,161.670046 C165.020935,160.847279 165.51305,159.887449 165.192106,159 C162.838882,159.937885 160.857512,161.684292 159.143226,163.610113 C157.938762,164.963424 156.840911,166.420688 155.865535,167.961884 C152.992161,172.500385 151.211842,177.709189 150,183" id="Path" fill="#FCD2B1" fill-rule="nonzero"></path>
                <g id="Group" transform="translate(114.000000, 199.000000)" fill-rule="nonzero">
                    <path d="M32.2472318,20.1825662 L8.13527123,0.00907098614 C8.13527123,0.00907098614 -3.0860291,15.1016801 1.14111043,29.6621247 C3.21980658,36.8221564 5.82942017,40.3723136 6.96252682,43.7697759 C8.02093151,46.9434872 15.2784548,91.8705697 14.7368657,95.1554005 C14.1952765,98.4402314 10.2985788,107.630652 8.81140012,117.295788 C7.02274574,128.919879 7.32650826,166.793892 5.9391863,176.835851 C4.55224547,186.877811 13.9033291,188.576731 14.4178578,185.179269 C18.8130768,156.141908 30.4219887,110.89205 32.0463751,96.3750702 C33.6703803,81.8573349 33.0110212,55.2740541 32.2472318,20.1825662 Z" id="Path" fill="#FCD2B1"></path>
                    <path d="M16.0414819,175.853539 C16.0414819,175.853539 13.796612,186.389489 14.4007069,187.732373 C15.0048017,189.075635 17.1768753,192.978427 19.4011641,194.388965 C21.7356001,195.869426 26.9048989,197.629197 27.3188087,198.270969 C27.7323373,198.91312 26.4692646,198.12092 25.7317733,198.695038 C23.8276358,200.1789 20.2076402,200.214428 18.0458572,199.86066 C11.0368322,198.71318 11.9164858,198.0544 7.83303323,197.562299 C7.12793828,197.477258 5.82179752,198.510973 3.87192413,197.521479 C1.92128846,196.531986 0.974174433,194.743868 1.14187269,193.0612 C1.43077106,190.158862 3.07459513,187.767145 4.24467162,185.620345 C5.41474811,183.473923 6.23875637,173.651557 6.23875637,173.651557" id="Path" fill="#FCD2B1"></path>
                    <path d="M27.7334807,198.431223 C27.771594,197.64167 24.7293951,196.447323 23.3702769,195.827095 C22.0107777,195.206488 19.8547116,194.659205 20.6143085,195.066644 C21.3735243,195.473704 19.9701947,197.055457 18.7033106,196.916747 C0.151004434,194.885602 3.44200677,188.009794 3.28345569,187.324179 C2.60046641,187.754673 1.01152541,191.158938 0.689468525,192.229693 C0.398664498,193.197642 0.232490768,194.932469 0.153977493,195.974876 C-0.177988834,200.384131 27.3999899,205.365614 27.7334807,198.431223 Z" id="Path" fill="#0B4870"></path>
                </g>
                <g id="Group" transform="translate(122.000000, 196.000000)" fill-rule="nonzero">
                    <path d="M56.7395818,203.808354 C56.2251223,203.238787 50.6818217,202.334762 48.0815318,201.246064 C45.6041826,200.208559 42.6029169,196.871933 42.0192324,195.45674 C41.4355479,194.041546 41.5690804,186.868502 41.6439796,183.857234 C42.1626001,163.112437 45.9862444,112.418777 46.5400448,100.278524 C47.5023866,79.1772751 44.7696991,57.3972486 36.6711237,23.5228533 L6.51358627,0.32232437 C6.51358627,0.32232437 -1.9318709,16.061613 0.895386416,31.110369 C2.5356042,39.8411882 9.760355,41.1843328 10.9814396,44.5774604 C12.2029026,47.9702088 30.448434,102.681168 30.448434,102.681168 C30.448434,102.681168 26.8986638,114.508197 26.6925018,127.466775 C26.5162237,138.527809 31.5204767,171.895207 32.4487734,184.607301 C32.5580961,187.091474 32.9844165,193.03779 32.2547163,194.930403 C31.3597082,197.25038 29.0794423,199.97459 29.1940608,202.900536 C29.2602597,204.596721 29.4425901,204.18718 31.5798666,204.851547 C33.7167647,205.515914 35.9489891,206.306936 36.6828504,206.2766 C40.9347065,206.09989 42.144821,206.151462 49.4849469,206.149187 C51.7485685,206.148429 54.9979852,207.773323 56.7388252,205.991438 C57.4132967,205.301663 57.2536629,204.37792 56.7395818,203.808354 Z" id="Path" fill="#FCD2B1"></path>
                    <path d="M57.3709294,206.40553 C57.6020579,205.406324 57.7189461,204.140158 57.1870858,203.899742 C56.4494418,203.566042 53.8302379,202.420463 52.3500321,202.026469 C50.8698264,201.632095 48.5850211,201.440218 49.4202612,201.72045 C50.2555013,202.000683 49.0453867,203.866751 47.7248147,203.866751 C31.1573289,203.866751 31.5794883,197.514686 31.3199889,196.860178 C30.6814539,197.39827 28.7923285,201.03371 28.6137808,202.148193 C28.452634,203.155362 28.4325852,204.916391 28.5948669,205.950483 C28.8842503,207.794937 56.6805702,209.39177 57.3709294,206.40553 Z" id="Path" fill="#0B4870"></path>
                </g>
                <path d="M123.415261,196.271365 C121.369723,198.512555 114.079139,210.630901 114.00125,220.494855 C113.924117,230.358432 117.44161,236.683703 117.757326,238.742717 C120.069805,253.810593 122.305529,271.98302 122.305529,272.96934 C122.305529,273.95566 130.879773,279.660851 142.410784,278.93667 C163.716139,277.59882 172,272.032053 172,272.032053 C172,272.032053 170.991221,235.532557 167.706639,217.535141 C166.060378,208.515311 158.893433,194 158.893433,194" id="Path" fill="#0E538C" fill-rule="nonzero"></path>
                <path d="M104,156.706313 C104,156.706313 107.411967,173.853865 108.307162,176.905987 C109.202733,179.958108 113.629454,199.332956 117.824952,198.995648 C122.020825,198.658341 145,179.254211 145,179.254211 L141.745566,172.670817 L121.518148,182.423839 C121.518148,182.423839 119.690536,160.275234 118.088134,155" id="Path" fill="#FFBE9D" fill-rule="nonzero"></path>
                <path d="M117.259795,133 C117.259795,133 110.684582,133.713693 107.350536,136.312044 C98.8488297,142.938009 105.428097,166.989186 105.428097,166.989186 C105.428097,166.989186 105.009038,168.273157 110.716278,167.946908 C116.423888,167.620659 121,165.966514 121,165.966514 L119.350668,146.259064" id="Path" fill="#FFBE55" fill-rule="nonzero"></path>
                <path d="M149.961598,88.348032 C153.98456,93.5914006 153.188126,100.964994 152.195953,107.510647 C151.694439,110.820149 151.192926,114.130028 150.691038,117.439531 C150.452632,119.011902 150.135256,120.729849 148.916653,121.744367 C147.687196,122.76716 145.930776,122.749857 144.336037,122.681019 C144.352131,125.419878 144.368598,128.158738 144.384692,130.897974 C139.722861,131.011576 135.05841,131.030384 130.395457,130.954023 C130.392837,129.036332 129.977404,127.120146 129.185836,125.375115 C126.904698,125.330351 125.380695,123.031229 124.487702,120.921317 C123.457728,118.487527 122.707703,115.945402 121.983128,113.402901 C121.021644,110.029074 120.094218,106.602207 120.006266,103.093713 C119.918314,99.5852191 120.748806,95.9382962 122.965571,93.2268964 C124.477223,91.3780438 126.537919,90.0663552 128.649142,88.9589245 C131.541079,87.4422258 135.014622,86.2448915 137.99713,87.5731314" id="Path" fill="#FFE3CA" fill-rule="nonzero"></path>
                <path d="M145.516147,112.845887 C144.953029,110.092253 144.992815,108.53922 145.909795,106.705595 C146.213542,106.097772 146.61484,105.524929 147.162274,105.14692 C147.90328,104.635762 148.888354,104.535336 149.709313,104.887392 C150.24527,105.117206 150.686354,105.545616 150.989336,106.060535 C151.961022,102.362068 152.164922,98.4206208 151.884128,94.5799764 C151.439219,88.4889574 147.704734,83.7805855 142.252203,81.5787314 C132.156624,77.5011263 117.652884,81.5294586 113.552679,91.2726818 C110.45591,98.6316287 112.025909,109.252735 117.953953,115.421612 C123.202201,120.882993 130.751506,121.685274 137.718183,120.560275 C141.282814,119.984799 146.784694,120.329708 148.629366,115.563413 C148.771675,115.195183 148.451478,114.828835 148.072751,114.85742 C146.625934,114.966497 145.620202,113.355165 145.516147,112.845887 Z" id="Path" fill="#212121" fill-rule="nonzero"></path>
                <path d="M145.915844,99.8939497 C146.280378,100.47145 146.194825,101.247713 146.53704,101.83874 C147.112483,102.831425 147.877261,103.19025 148.909859,103.674193 C150.575928,104.454214 150.185728,106.904364 150.138116,108 C151.394642,107.156105 151.598855,104.858502 151.902386,103.691101 C152.243486,102.380547 152.46109,101.0358 152.839015,99.7357664 C153.206897,98.4710512 153.843344,97.2792281 153.961259,95.9487598 C154.368198,91.3512984 151.512558,85.9475154 148.061388,83.3669854 C145.549451,81.4883236 141.714776,81.5661002 138.876246,83.4766993 C137.681095,84.281518 136.782407,85.4970123 136.253461,86.8455158 C136.026557,87.4248951 135.869584,88.0993347 136.15154,88.6531642" id="Path" fill="#212121" fill-rule="nonzero"></path>
                <g id="Group" transform="translate(155.000000, 125.000000)">
                    <g transform="translate(1.875090, 0.000000)" id="Path">
                        <path d="M9.94060169,1.90433556 L0.31614016,44.8570471 C0.0536275717,46.02792 0.831039852,47.1770749 2.00109596,47.3481527 L31.9590326,51.7188276 C33.0019576,51.8712354 33.9852547,51.1842572 34.2192659,50.1406447 L43.8437275,7.18793324 C44.1062401,6.01706026 43.3288278,4.86790539 42.1587717,4.69720864 L12.2008351,0.326533729 C11.1579101,0.174125921 10.1746129,0.860723095 9.94060169,1.90433556 Z" fill="#212121" fill-rule="nonzero"></path>
                        <polygon fill="#F7F7F7" fill-rule="nonzero" points="11.8145666 3.29010355 2.59962466 44.4150644 32.3453011 48.7544957 41.560243 7.62991589"></polygon>
                        <g transform="translate(8.625414, 6.858351)" stroke="#D3D3D3" stroke-linecap="round" stroke-linejoin="round" stroke-width="0.5282">
                            <line x1="29.7839283" y1="3.80105073" x2="4.50584107" y2="0.113162797"></line>
                            <line x1="28.9326374" y1="7.68821187" x2="3.65492527" y2="4.00032394"></line>
                            <line x1="18.4088828" y1="10.910494" x2="2.61237527" y2="8.60570688"></line>
                            <line x1="17.2860789" y1="14.2516541" x2="1.48957143" y2="11.946867"></line>
                            <line x1="16.1632751" y1="17.5928143" x2="0.366767588" y2="15.2880272"></line>
                            <line x1="21.9561779" y1="36.0566392" x2="6.15929536" y2="33.7522331"></line>
                        </g>
                    </g>
                    <path d="M0.023251115,35.838696 C0.023251115,35.838696 13.7144077,69.4552862 19.6546925,69.4552862 C23.9756497,69.4552862 34.5710328,38.4231514 34.5710328,38.4231514 L27.8765868,35.2035365 L20.4111038,48.1997313 L12.8518663,23.9600315" id="Path" fill="#FFE3CA" fill-rule="nonzero"></path>
                    <path d="M26.5475231,37.515944 C26.5475231,37.515944 28.7672545,33.9656041 28.6044967,31.4474461 C28.5426187,30.4868959 27.9812168,25.9169477 28.4503643,25.0185037 C28.9195118,24.1200597 30.0449408,21.1797321 30.6880966,20.6078218 C31.3312525,20.0362925 33.7096165,19.1168924 34.2912694,19.5253453 C34.8729223,19.9337982 35.6938367,18.6779579 36.5608782,18.2184483 C42.1752725,15.244591 46.0979606,27.3366265 40.1685512,32.128709 C39.099,32.9932423 38.1970817,34.8869093 36.4344972,35.9705288 C35.5644555,36.5054802 35.0878076,37.4397401 34.2567677,39.0255433" id="Path" fill="#FFE3CA" fill-rule="nonzero"></path>
                </g>
                <g id="Group" transform="translate(110.000000, 130.000000)" fill="#9B9B9B" fill-rule="nonzero">
                    <path d="M52.1420879,61.9375175 C51.5017855,60.9812443 50.0241934,59.8378246 49.494249,58.7856959 C48.222307,56.2607391 47.110064,45.6291418 47.5477296,42.9128543 C48.0166569,40.0014323 50.5676972,38.4354113 51.7191117,31.9552721 C53.2023534,23.6078516 49.8128936,17.1204852 47.9183517,14.3414351 C45.2403809,10.4117381 46.8279543,10.4345609 45.9119451,5.62048233 C45.7465964,4.75321787 45.5529991,3.8277554 44.9661808,3.22333293 C44.387272,2.62689842 40.3951746,0.784341809 39.6109924,0.662240102 C32.1665349,-0.502480858 27.7917626,0.406625312 20.2663257,0.739457069 C16.5435319,0.903780863 12.8263879,1.3427384 9.17101424,2.15713016 C5.12580939,3.05824837 1.60188606,4.1415682 0.769869527,9.68559432 C-0.516761737,18.2601011 0.564972745,26.9285616 3.14614489,35.0610679 C4.85725901,40.4514208 15.0719662,59.0995087 12.5408883,62.7085461 C11.9623563,63.5335884 10.5145194,65.0999898 10.3393779,66.1289154 C9.69869879,69.8980924 18.1307287,71.2233334 21.7397746,71.5226918 C27.2380893,71.9787664 33.5473283,71.6725611 39.0588257,71.4127622 C43.234351,71.2157258 52.3677004,69.7436585 53.0166657,64.5328445 C53.1439729,63.5096246 52.6430304,62.6849626 52.1420879,61.9375175 Z" id="Path"></path>
                    <path d="M32.5740686,0.144544077 C36.1548658,0.332451378 46.5804962,-1.51466978 52.3737267,4.60487 C57.2272193,9.73200058 60.0083918,23.1726979 61.9616909,28.6239115 C57.0999121,33.6293207 52.4155347,37.6659043 45.0482901,36.0409246 C44.7707002,35.8320964 41.1153265,24.2145564 38.4543049,23.1810662" id="Path"></path>
                </g>
                <path d="M147.598972,115.83573 C147.598972,115.83573 160.017477,131.563952 153.025842,149.081806 C144.472471,170.511696 143.711868,171.647498 153.025842,184.279556 C162.339815,196.911614 154.076594,212.420003 140.70923,216.440067 C127.341866,220.460131 93.0147464,218.521299 95.0901159,188.511143 C95.9389758,176.239428 104.213939,174.334969 100.818878,162.063254 C97.4238176,149.79154 96.6904876,142.174458 102.998414,129.056275 C109.30634,115.938092 102.725309,79.7680932 136.463794,81.0323189 C136.463794,81.0319411 130.300186,119.753432 147.598972,115.83573 Z" id="Path" fill="#212121" fill-rule="nonzero"></path>
            </g>
        </g>
    </g>
</svg>