<?xml version="1.0" encoding="UTF-8"?>
<svg width="286px" height="47px" viewBox="0 0 286 47" version="1.1" xmlns="http://www.w3.org/2000/svg" xmlns:xlink="http://www.w3.org/1999/xlink">
    <title>Group 8</title>
    <g id="Pictures" stroke="none" stroke-width="1" fill="none" fill-rule="evenodd">
        <g id="Group-8" transform="translate(0.792497, 0.753810)">
            <g id="Ready-Copy-3" fill="#007AFF">
                <path d="M11.2488419,0 C20.6956059,0 30.14237,0 39.5891339,0 L39.5891339,0 C39.8192863,0 40.0058617,0.179187189 40.0058617,0.400225789 L40.0058617,7.52424483 C40.0058617,7.74528343 39.8192863,7.92447062 39.5891339,7.92447062 C30.7221779,7.92447062 21.8552219,7.92447062 12.988266,7.92447062 C10.1892311,7.92447062 8.25120897,10.0828211 8.25120897,12.4084699 C8.25120897,18.5623142 8.25120897,22.4319179 8.25120897,24.0172811 C8.25120897,24.4655672 8.63861656,24.8139989 9.08013609,24.8139989 C14.9436155,24.8139989 20.807095,24.8139989 26.6705744,24.8139989 L26.6705744,24.8139989 C26.9007268,24.8139989 27.0873022,24.9931861 27.0873022,25.2142247 L27.0873019,32.3382438 C27.0873019,32.5592823 26.9007267,32.7384829 26.6705744,32.7384829 L0.416728159,32.7384829 C0.18657567,32.7384829 0,32.5592958 0,32.3382571 C0,32.338257 0,32.338257 0,32.3382569 C0,23.9815138 0,16.8187268 0,10.8498957 C0,5.17381072 4.58435301,0 11.2488419,0 Z" id="Rectangle-Copy-9"></path>
                <path d="M11.2488419,12.9825018 C20.6956059,12.9825018 30.14237,12.9825018 39.5891339,12.9825018 L39.5891339,12.9825018 C39.8192863,12.9825018 40.0058617,13.161689 40.0058617,13.3827276 L40.0058617,20.5067467 C40.0058617,20.7277853 39.8192863,20.9069725 39.5891339,20.9069725 C30.7221779,20.9069725 21.8552219,20.9069725 12.988266,20.9069725 C10.1892311,20.9069725 8.25120897,23.0653229 8.25120897,25.3909717 C8.25120897,31.544816 8.25120897,35.4144197 8.25120897,36.9997829 C8.25120897,37.448069 8.63861656,37.7965008 9.08013609,37.7965008 C14.9436155,37.7965008 20.807095,37.7965008 26.6705744,37.7965008 L26.6705744,37.7965008 C26.9007268,37.7965008 27.0873022,37.9756879 27.0873022,38.1967266 L27.0873019,45.3207456 C27.0873019,45.5417841 26.9007267,45.7209848 26.6705744,45.7209848 L0.416728159,45.7209848 C0.18657567,45.7209848 0,45.5417977 0,45.320759 C0,45.3207589 0,45.3207588 0,45.3207587 C0,36.9640157 0,29.8012287 0,23.8323976 C0,18.1563126 4.58435301,12.9825018 11.2488419,12.9825018 Z" id="Rectangle-Copy-10" transform="translate(20.002931, 29.351743) rotate(180.000000) translate(-20.002931, -29.351743) "></path>
            </g>
            <path d="M103.591286,9.58021978 C103.272171,10.0715156 102.937104,10.4399819 102.586077,10.6856297 C102.235049,10.9312776 101.782975,11.0540997 101.229841,11.0540997 C100.74053,11.0540997 100.213997,10.9056897 99.6502257,10.6088652 C99.0864544,10.3120406 98.4482323,9.97939744 97.7355403,9.61092561 C97.0228483,9.24245377 96.2091152,8.90981058 95.2943165,8.61298605 C94.3795178,8.31616152 93.3370884,8.16775147 92.166997,8.16775147 C90.1459302,8.16775147 88.6407898,8.58227607 87.6515307,9.4113377 C86.6622717,10.2403993 86.1676495,11.361151 86.1676495,12.7736264 C86.1676495,13.6743353 86.4654865,14.4215031 87.0611694,15.0151521 C87.6568523,15.6088012 88.4386743,16.12056 89.406659,16.5504438 C90.3746436,16.9803276 91.4808952,17.3743818 92.7254469,17.7326183 C93.9699987,18.0908548 95.2411243,18.4900267 96.538862,18.9301458 C97.8365997,19.3702649 99.1077253,19.8871413 100.352277,20.4807904 C101.596829,21.0744394 102.70308,21.8318424 103.671065,22.753022 C104.63905,23.6742015 105.420872,24.7949532 106.016555,26.1153106 C106.612237,27.435668 106.910074,29.0272378 106.910074,30.8900676 C106.910074,32.957604 106.537778,34.8920521 105.793175,36.69347 C105.048571,38.4948878 103.968912,40.0659872 102.554165,41.4068153 C101.139418,42.7476433 99.3949447,43.8018664 97.3206918,44.569516 C95.246439,45.3371657 92.8903358,45.7209848 90.2523117,45.7209848 C88.8056533,45.7209848 87.332424,45.5776923 85.8325796,45.2911031 C84.3327352,45.0045139 82.88078,44.6002245 81.4766704,44.0782227 C80.0725608,43.556221 78.7535685,42.9369929 77.5196539,42.2205198 C76.2857394,41.5040468 75.2113989,40.7057032 74.2966002,39.8254649 L77.4877425,34.9739433 C77.7430352,34.6259422 78.0781018,34.3342397 78.4929523,34.0988271 C78.9078029,33.8634146 79.3598769,33.74571 79.8491878,33.74571 C80.4874195,33.74571 81.1309601,33.9401784 81.7798289,34.3291209 C82.4286977,34.7180634 83.1626531,35.1479407 83.9817171,35.6187658 C84.800781,36.089591 85.7421586,36.5194683 86.805878,36.9084108 C87.8695974,37.2973533 89.1247675,37.4918216 90.5714259,37.4918216 C92.5286696,37.4918216 94.0497656,37.077297 95.1347594,36.2482354 C96.2197532,35.4191738 96.7622419,34.1039538 96.7622419,32.3025359 C96.7622419,31.2585324 96.464405,30.4090128 95.8687221,29.7539518 C95.2730392,29.0988908 94.4912172,28.5564265 93.5232325,28.1265427 C92.5552479,27.6966589 91.4543148,27.3179574 90.2204003,26.9904269 C88.9864857,26.6628963 87.7206786,26.2995476 86.4229409,25.9003698 C85.1252032,25.501192 83.8593961,25.0099036 82.6254816,24.4264898 C81.3915671,23.8430761 80.290634,23.075438 79.3226493,22.1235524 C78.3546647,21.1716668 77.5728426,19.9843865 76.9771598,18.5616758 C76.3814769,17.1389651 76.0836399,15.3836326 76.0836399,13.2956255 C76.0836399,11.6170316 76.4346621,9.97940358 77.1367169,8.3826923 C77.8387717,6.78598102 78.870564,5.36329167 80.2321249,4.11458157 C81.5936857,2.86587147 83.2637002,1.86794189 85.2422183,1.12076289 C87.2207364,0.373583894 89.4864248,0 92.0393514,0 C93.4647354,0 94.8528684,0.107469339 96.203792,0.322411242 C97.5547157,0.537353145 98.8364784,0.854643576 100.049118,1.27429205 C101.261759,1.69394053 102.394603,2.19546411 103.447685,2.77887785 C104.500767,3.36229159 105.442145,4.02246039 106.271846,4.75940405 L103.591286,9.58021978 Z M154.199612,0.326578463 L154.199612,45.3944063 L143.21564,45.3944063 L143.21564,26.340335 L124.090606,26.340335 L124.090606,45.3944063 L113.106635,45.3944063 L113.106635,0.326578463 L124.090606,0.326578463 L124.090606,19.1641263 L143.21564,19.1641263 L143.21564,0.326578463 L154.199612,0.326578463 Z M188.117625,28.0857478 L183.814118,15.9239658 C183.495338,15.1517853 183.155311,14.2424549 182.794027,13.1959471 C182.432743,12.1494393 182.071465,11.0165862 181.710181,9.79735388 C181.391401,11.0369068 181.051374,12.185 180.69009,13.2416681 C180.328806,14.2983361 179.98878,15.2127467 179.67,15.9849271 L175.39837,28.0857478 L188.117625,28.0857478 Z M205.076632,45.3944063 L196.671029,45.3944063 C195.729939,45.3944063 194.970662,45.1830402 194.393174,44.7603017 C193.815687,44.3375631 193.377232,43.7962597 193.077794,43.1363751 L190.318703,35.2796639 L172.545023,35.2796639 L169.785932,43.1363751 C169.55066,43.7137741 169.128245,44.2344565 168.518675,44.6984378 C167.909105,45.1624191 167.155175,45.3944063 166.256862,45.3944063 L157.787094,45.3944063 L175.881598,0.326578463 L186.982128,0.326578463 L205.076632,45.3944063 Z M220.136854,18.5764195 L221.865568,18.5764195 C223.466237,18.5764195 224.618702,18.0918241 225.322996,17.1226186 L235.823335,2.39901804 C236.44226,1.61540513 237.109196,1.0741017 237.824161,0.775091506 C238.539127,0.476081315 239.430153,0.326578463 240.497266,0.326578463 L249.909154,0.326578463 L236.07944,18.5454876 C235.097697,19.8033925 234.041271,20.7107202 232.910131,21.2674978 C233.721137,21.5561973 234.457434,21.9583084 235.119044,22.4738432 C235.780654,22.989378 236.39957,23.6595632 236.975811,24.4844189 L251.06163,45.3944063 L241.393636,45.3944063 C240.774711,45.3944063 240.246498,45.3531641 239.808981,45.2706786 C239.371465,45.188193 238.992646,45.0644665 238.672512,44.8994954 C238.352378,44.7345242 238.074933,44.5334687 237.840168,44.2963226 C237.605403,44.0591766 237.381313,43.7859473 237.16789,43.4766264 L226.603525,27.7941359 C226.219365,27.2167369 225.733836,26.8094705 225.146924,26.5723245 C224.560012,26.3351784 223.765024,26.2166072 222.761938,26.2166072 L220.136854,26.2166072 L220.136854,45.3944063 L209.316383,45.3944063 L209.316383,0.326578463 L220.136854,0.326578463 L220.136854,18.5764195 Z M264.990852,8.3688813 L264.990852,18.8857389 L279.800429,18.8857389 L279.800429,26.6187224 L264.990852,26.6187224 L264.990852,37.3521035 L284.327374,37.3521035 L284.327374,45.3944063 L253.996843,45.3944063 L253.996843,0.326578463 L284.327374,0.326578463 L284.327374,8.3688813 L264.990852,8.3688813 Z" id="SHAKE-Copy" fill="#212121"></path>
        </g>
    </g>
</svg>