<?xml version="1.0" encoding="UTF-8"?>
<svg width="749px" height="492px" viewBox="0 0 749 492" version="1.1" xmlns="http://www.w3.org/2000/svg" xmlns:xlink="http://www.w3.org/1999/xlink">
    <title>Group 3</title>
    <g id="Pictures" stroke="none" stroke-width="1" fill="none" fill-rule="evenodd">
        <g id="Group-3">
            <path d="M180.923619,282.773448 C196.910588,319.895231 287.989022,428.206909 420.29153,417.221628 C497.851187,410.781731 564.386842,378.685687 641.814429,293.381006 C684.725691,246.104167 696.043926,87.6142689 639.578936,46.3183641 C565.172363,-8.09919289 370.839902,78.3845948 262.009962,46.8320656 C3.4797469,-28.1223279 0.0557708157,89.873517 20.7479384,177.795293 C41.440106,265.717068 143.575333,196.050632 180.923619,282.773448 Z" id="Path-Copy-2" fill="#F5F5F5" fill-rule="nonzero" transform="translate(345.540176, 220.500000) scale(-1, -1) rotate(-4.000000) translate(-345.540176, -220.500000) "></path>
            <ellipse id="Oval" fill="#D3D3D3" fill-rule="nonzero" cx="381" cy="470.372738" rx="368" ry="21"></ellipse>
            <path d="M661.060366,376.314635 C661.060366,376.314635 639.577353,464.269045 692.268376,467.26638 C744.959399,470.263715 736.760896,409.107502 727.606085,385.132023 C718.451274,361.156545 787.90605,276.699293 712.335611,231.112882 C636.766556,185.529676 610.442496,355.27081 661.060366,376.314635 Z" id="Path" fill="#3274DC" fill-rule="nonzero"></path>
            <path d="M570.445493,406.525444 C570.445493,406.525444 555.149921,462.655353 585.864561,467.039675 C616.579202,471.425762 613.688041,431.326416 609.080296,415.331138 C604.472551,399.335861 647.70961,347.697897 604.940461,314.594059 C562.171312,281.490221 541.503696,390.514287 570.445493,406.525444 Z" id="Path" fill="#3274DC" fill-rule="nonzero"></path>
            <line x1="589.316" y1="345.372738" x2="589.684" y2="470.372738" id="Path" stroke="#FFFFFF"></line>
            <polyline id="Path" stroke="#FFFFFF" points="602 376.372738 588.406347 392.372738 574 378.079037"></polyline>
            <line x1="689" y1="277.372738" x2="691" y2="467.372738" id="Path" stroke="#FFFFFF"></line>
            <polyline id="Path" stroke="#FFFFFF" points="713 301.372738 689.386983 323.372738 668 303.181248"></polyline>
            <polyline id="Path" stroke="#FFFFFF" points="713 341.372738 689.386983 363.372738 668 343.181132"></polyline>
            <g id="Group-4" transform="translate(110.938748, 60.363922)">
                <polygon id="Path" fill="#FCD2B1" fill-rule="nonzero" points="136.394048 90.0229592 192.570416 53.5945408 198.559718 36.3062755 198.189293 55.5906122 150.659085 96.9166837"></polygon>
                <polygon id="Path" fill="#FFFFFF" fill-rule="nonzero" points="115.012808 102.838316 150.580497 80.8158673 157.775289 107.174388 117.603945 133.533367"></polygon>
                <polygon id="Path" fill="#9B9B9B" fill-rule="nonzero" points="115.012808 102.838316 150.580497 80.8158673 157.775289 107.174388 117.603945 133.533367"></polygon>
                <polygon id="Path" fill="#FCD2B1" fill-rule="nonzero" points="42.5850808 267.214133 27.6495104 297.010561 25.5363418 267.672398 32.584067 264.397041 24.8612125 263.233469 24.8874088 259.048929 42.5147644 258.658163"></polygon>
                <path d="M99.4738037,174.335051 C99.4738037,174.335051 116.557931,239.018878 111.612344,247.553265 C106.666758,256.087653 41.6406351,270.136378 41.6406351,270.136378 L41.4774827,257.435357 C41.4774827,257.435357 86.9248545,236.39602 92.3199145,237.743724 C81.5297945,227.861633 70.8518129,177.479082 70.8518129,177.479082 L99.4738037,174.335051 Z" id="Path" fill="#212121" fill-rule="nonzero"></path>
                <polygon id="Path" fill="#FCD2B1" fill-rule="nonzero" points="32.0072887 319.929796 44.8067113 350.702449 21.2075173 333.11801 23.3344734 325.648469 17.4044573 330.726122 14.2521686 327.970561 25.4816513 314.388827"></polygon>
                <path d="M96.2534965,174.914541 C96.2534965,174.914541 58.3230855,264.820867 35.6228383,325.648469 C21.6845658,325.648469 23.4020323,312.111276 23.4020323,312.111276 C23.4020323,312.111276 50.9182633,184.575765 66.5868707,165.771735 C90.6856328,167.410561 96.2534965,174.914541 96.2534965,174.914541 Z" id="Path" fill="#212121" fill-rule="nonzero"></path>
                <polygon id="Path" fill="#FCD2B1" fill-rule="nonzero" points="70.8518129 133.533367 24.9944919 175.900408 0.242200924 180.35449 24.8000878 181.976327 73.5978291 149.125867"></polygon>
                <ellipse id="Oval" fill="#3274DC" fill-rule="nonzero" cx="112.149139" cy="72.302602" rx="18.921545" ry="19.962551"></ellipse>
                <path d="M130.021912,58.9536735 C130.021912,58.9536735 135.095263,90.5840816 129.209827,96.9162245 C111.354517,95.6998469 106.891035,88.9567347 102.427552,79.6316327 C97.9631501,70.3065306 108.108473,51.2504082 130.021912,58.9536735 Z" id="Path" fill="#FCD2B1" fill-rule="nonzero"></path>
                <path d="M134.49045,58.9270408 C133.580933,65.8584184 106.680545,83.5443367 100.7827,80.4577041 C99.9402818,67.8306122 106.991684,44.8604082 134.49045,58.9270408 Z" id="Path" fill="#212121" fill-rule="nonzero"></path>
                <path d="M105.151508,81.140051 C102.9046,78.8482653 100.734903,78.5819388 100.375968,81.5197959 C100.051501,84.1766327 103.536529,88.0796939 106.064242,87.4639286 C108.591956,86.8481633 105.151508,81.140051 105.151508,81.140051 Z" id="Path" fill="#FCD2B1" fill-rule="nonzero"></path>
                <path d="M106.081247,55.5355102 C99.9724527,47.1356633 89.2609215,42.3142347 78.9165982,43.3079082 C75.4118083,43.6444898 71.8674942,44.6546939 69.140321,46.8794388 C66.4131478,49.1041837 64.6465058,52.7046429 65.266485,56.1678061 C66.285843,61.8644388 73.1428406,65.8285714 72.4948268,71.5793878 C72.2108037,74.0998469 70.4257783,76.2547959 68.2822771,77.6139796 C66.138776,78.9731633 63.6492079,79.6619388 61.2010023,80.3328061 C55.7002379,81.8398469 50.0280485,83.4313776 45.5857067,87.0056633 C41.1433649,90.5804082 38.2314388,96.7040816 40.1290624,102.078367 C41.3625866,105.571378 44.4932748,108.735612 43.7372587,112.361786 C42.9578037,116.099082 38.5177598,117.813673 36.6017529,121.116582 C34.7248106,124.351531 35.7051039,128.699082 38.1960508,131.49 C40.6869977,134.280918 44.3779192,135.727806 48.0578106,136.410153 C53.9905843,137.510357 61.1623972,136.258163 64.10006,130.992245 C66.1461293,127.324286 65.5376397,122.723724 64.0545612,118.79449 C62.5714827,114.865255 60.2919446,111.257449 59.0115427,107.257959 C57.7311409,103.258469 57.6157852,98.5279592 60.1981894,95.214949 C62.908358,91.7384694 67.6747067,90.8077041 71.9800924,89.8512245 C76.2854781,88.8947449 81.0550439,87.2462755 82.846963,83.2192347 C84.4660785,79.5802041 83.1723487,74.8556633 85.6835173,71.7630612 C87.9428337,68.9808673 92.0767945,68.950102 95.4827737,67.8287755 C100.170533,66.2854592 103.91063,62.1555612 104.980543,57.3414796 L106.081247,55.5355102 Z" id="Path" fill="#212121" fill-rule="nonzero"></path>
                <polygon id="Path" fill="#FCD2B1" fill-rule="nonzero" points="117.603945 91.422551 116.723841 102.063214 123.94437 119.439184 106.991684 102.538929 106.081247 86.2379082"></polygon>
                <path d="M127.200524,139.494031 L115.009591,151.906224 L103.671187,181.975867 L71.0379446,170.415 L59.9964319,166.499082 L70.8504342,157.015561 C70.8504342,157.015561 59.6283048,145.332092 57.4393048,136.777959 C77.8949423,119.462602 93.5984781,105.559898 106.989845,102.540765 L110.560356,102.540765 L123.945748,119.436888 L127.200524,139.494031 Z" id="Path" fill="#9B9B9B" fill-rule="nonzero"></path>
                <polygon id="Path" fill="#9B9B9B" fill-rule="nonzero" opacity="0.5" points="92.3199145 138.100867 71.0379446 170.415459 59.9964319 166.499541 70.8508938 157.01602"></polygon>
                <polygon id="Path" fill="#212121" fill-rule="nonzero" points="329.541165 267.260064 353.402568 298.709339 344.542273 249.486584 326.148369 252.906451"></polygon>
                <path d="M271.886653,186.667481 C264.848398,207.570137 256.402767,237.217403 267.211665,254.062326 C278.020563,270.907249 331.548216,268.263476 331.548216,268.263476 L329.434852,252.719545 C329.434852,252.719545 292.349278,245.169386 293.960074,240.357142 C295.57133,235.544438 304.869761,200.818575 303.462847,196.147313 C302.055932,191.476052 300.132182,177.405781 300.132182,177.405781 L271.886653,186.667481 Z" id="Path" fill="#9B9B9B" fill-rule="nonzero"></path>
                <polygon id="Path" fill="#212121" fill-rule="nonzero" points="337.642085 328.540296 309.879795 356.621137 357.424955 340.800292 351.390915 323.127841"></polygon>
                <path d="M274.544466,182.719043 C274.920011,190.166335 335.035358,329.60203 335.035358,329.60203 L352.665744,325.384026 C352.665744,325.384026 320.74392,197.334876 317.473545,180.563429 C314.20317,163.791983 274.544466,182.719043 274.544466,182.719043 Z" id="Path" fill="#9B9B9B" fill-rule="nonzero"></path>
                <polygon id="Path" fill="#FFE3CA" fill-rule="nonzero" points="340.665318 139.143408 345.669369 145.384768 357.734227 187.360455 360.998619 205.05403 352.348188 202.5517 350.594722 191.161481 348.348352 195.655021 345.881534 196.110116 348.937903 186.449348 335.068955 152.061017 326.307608 146.206785"></polygon>
                <polygon id="Path" fill="#FFE3CA" fill-rule="nonzero" points="264.654642 87.1074249 206.635631 53.5429485 199.479557 36.3063047 199.108614 55.5924807 250.735068 94.7094764"></polygon>
                <polygon id="Path" fill="#3274DC" fill-rule="nonzero" points="284.934097 98.1458755 257.430915 78.2507639 242.907063 93.891133 275.879125 122.388494"></polygon>
                <path d="M284.934097,98.1458755 C283.831392,99.1263262 273.225915,107.183472 268.341523,116.379043 C263.457131,125.574155 268.684852,190.479528 268.684852,190.479528 L325.496227,187.626807 L314.156227,139.678867 L325.477358,151.877785 L345.1645,135.371773 C345.1645,135.371773 324.219097,106.851451 319.776062,103.884382 C311.445028,98.3213004 284.934097,98.1458755 284.934097,98.1458755 Z" id="Path" fill="#3274DC" fill-rule="nonzero"></path>
                <path d="M286.372767,52.9891202 C290.91383,53.3252747 313.256023,56.8902575 294.769614,83.8707897 C290.886676,90.977794 286.372767,52.9891202 286.372767,52.9891202 Z" id="Path" fill="#212121" fill-rule="nonzero"></path>
                <path d="M266.953017,59.3214077 C266.953017,59.3214077 264.120318,87.6961545 270.326023,93.7258112 C274.77504,93.1976996 281.670165,93.0548798 284.622063,91.9564077 C293.477295,88.6609914 292.145398,82.5275494 295.598483,78.3453648 C302.185716,70.3662876 288.481528,50.5262833 266.953017,59.3214077 Z" id="Path" fill="#FFE3CA" fill-rule="nonzero"></path>
                <path d="M283.517977,87.5620601 L284.446716,98.5532103 L282.538614,104.834064 C281.677989,107.236283 284.753687,109.07503 286.470795,107.184391 L295.847926,98.6390858 L295.137795,78.3683262 L283.517977,87.5620601 Z" id="Path" fill="#FFE3CA" fill-rule="nonzero"></path>
                <path d="M276.973085,67.1737382 C274.823824,67.0580129 272.71046,67.5558155 270.597557,67.9663648 C268.484653,68.3769142 266.133352,68.4986094 264.342608,67.3073734 C261.886375,65.6739013 261.418784,62.2746996 259.597205,59.9569785 C258.300744,58.3074335 256.382057,57.2865708 254.773562,55.938279 C254.537006,55.7398927 254.299528,55.5240558 254.18033,55.239794 C253.911097,54.5968755 254.332665,53.8836953 254.776324,53.3459399 C256.356284,51.4323391 258.51383,49.9646481 260.92542,49.3685708 C263.337011,48.7720343 265.995284,49.0866052 268.115551,50.3797897 C270.048506,51.5590858 271.562193,53.5199871 273.758858,54.072897 C277.073875,54.9073133 280.187773,52.2180773 283.550193,51.6008755 C284.71917,51.3864163 285.934631,51.4286652 287.085659,51.7234893 C287.817881,51.9113133 288.533994,52.2061373 289.120784,52.6809785 C290.733881,53.986103 291.097,56.3759227 292.647506,57.7545236 C294.262443,59.1905279 296.796455,59.2070601 298.397585,60.6582189 C299.514557,61.6703562 299.976165,63.1977468 300.374722,64.649824 C300.872687,66.4660687 301.311284,68.5403991 300.29142,70.1247339 C299.846841,70.815412 298.709159,76.9571202 298.006852,77.3846609 C293.967437,79.8452017 289.756358,74.9603991 285.905636,73.058279 C284.512989,72.3703562 283.395557,71.2530558 282.524807,69.9685966 C281.80317,68.9018112 280.205261,67.3477854 276.973085,67.1737382 Z" id="Path" fill="#212121" fill-rule="nonzero"></path>
                <polygon id="Path" fill="#212121" fill-rule="nonzero" points="290.728818 69.8542489 290.83467 80.1262489 292.886824 80.023382 296.222551 69.5782532"></polygon>
                <path d="M293.54725,71.1400858 C297.57746,68.0830086 298.865176,69.1686223 298.524148,73.7494163 C298.183119,78.3302103 292.886824,80.023382 292.886824,80.023382 L293.54725,71.1400858 Z" id="Path" fill="#FFE3CA" fill-rule="nonzero"></path>
                <ellipse id="Oval" fill="#F2F0F0" fill-rule="nonzero" transform="translate(275.140712, 134.998103) rotate(-2.883293) translate(-275.140712, -134.998103) " cx="275.140712" cy="134.998103" rx="5.85662046" ry="12.5765029"></ellipse>
                <line x1="192" y1="41" x2="183" y2="32" id="Path" stroke="#3274DC" stroke-width="2" stroke-linecap="round"></line>
                <line x1="205" y1="41" x2="214" y2="32" id="Path" stroke="#3274DC" stroke-width="2" stroke-linecap="round"></line>
                <line x1="208" y1="25" x2="209" y2="24" id="Path" stroke="#3274DC" stroke-width="2" stroke-linecap="round"></line>
                <line x1="204" y1="29" x2="207" y2="26" id="Path" stroke="#3274DC" stroke-width="2" stroke-linecap="round"></line>
                <line x1="195" y1="29" x2="192" y2="26" id="Path" stroke="#3274DC" stroke-width="2" stroke-linecap="round"></line>
                <path d="M185,16.5 C175.885406,16.5 168.502309,23.8866816 168.502309,33 C168.502309,23.8866816 161.114594,16.5 152,16.5 C161.114594,16.5 168.502309,9.11331841 168.502309,0 C168.502309,9.11331841 175.885406,16.5 185,16.5 Z" id="Path" fill="#3274DC" fill-rule="nonzero"></path>
                <path d="M221,84 C216.580612,84 213.001117,87.581676 213.001117,92 C213.001117,87.5812291 209.418941,84 205,84 C209.419388,84 213.001117,80.418324 213.001117,76 C213.001117,80.418324 216.581059,84 221,84 Z" id="Path" fill="#3274DC" fill-rule="nonzero"></path>
                <g id="Group" transform="translate(0.000000, 36.000000)"></g>
            </g>
        </g>
    </g>
</svg>