<?xml version="1.0" encoding="UTF-8"?>
<svg width="203px" height="47px" viewBox="0 0 203 47" version="1.1" xmlns="http://www.w3.org/2000/svg" xmlns:xlink="http://www.w3.org/1999/xlink">
    <title>Group Copy 4@1,5x</title>
    <g id="Pictures" stroke="none" stroke-width="1" fill="none" fill-rule="evenodd">
        <g id="Group-Copy-4" transform="translate(0.051583, 0.962485)">
            <path d="M109.628262,20.6807546 C109.770922,20.8401718 109.870785,20.9633578 109.984913,21.0648051 C112.816725,23.6806959 114.214799,26.919763 114.1934,30.8109912 C114.172001,35.7384309 111.140464,40.6006546 106.204408,42.4267058 C104.891931,42.9122036 103.529522,43.173068 102.138582,43.1803143 C96.6889483,43.1948067 82.479956,43.1803143 82.479956,43.1803143 L82.479956,1.45649323 C82.479956,1.45649323 94.3136499,1.41301582 100.098536,1.52895558 C106.475463,1.72460393 110.733881,5.85495787 111.789569,10.9418148 C112.460074,14.1808819 111.889432,17.2170543 110.077642,19.9923623 C109.934982,20.2097494 109.785188,20.4343827 109.628262,20.6807546 Z M91.3748422,26.3110792 L91.3748422,34.3906312 C91.3748422,34.3906312 98.2724806,34.3688925 101.482343,34.3906312 C102.809087,34.3761388 104.021701,33.9486109 105.055991,33.0645702 C106.832115,31.5573534 106.853514,29.2168195 105.098789,27.6733714 C104.043101,26.7458533 102.780554,26.3183255 101.40388,26.3110792 C98.2867467,26.2965868 91.3748422,26.3110792 91.3748422,26.3110792 Z M91.2250487,17.5358887 C91.2250487,17.5358887 97.4236502,17.5648736 100.219797,17.5358887 C101.56794,17.5213962 102.673559,16.9054662 103.50099,15.8257772 C104.556679,14.4489926 104.499614,12.5577252 103.372596,11.2316642 C102.509499,10.2244376 101.411013,9.6737237 100.08427,9.6737237 C97.3808521,9.66647747 91.5389019,9.651985 91.2250487,9.6737237 C91.2179156,12.2896145 91.2250487,17.5358887 91.2250487,17.5358887 Z" id="Shape" fill="#5E6486"></path>
            <path d="M137.026223,0.869548198 C125.363722,0.869548198 115.91246,10.4708096 115.91246,22.3184038 C115.91246,34.1659979 125.363722,43.7672593 137.026223,43.7672593 C148.688725,43.7672593 158.139987,34.1659979 158.139987,22.3184038 C158.139987,10.4708096 148.688725,0.869548198 137.026223,0.869548198 Z M137.026223,34.2312141 C130.549434,34.2312141 125.299525,28.8979851 125.299525,22.3184038 C125.299525,15.7388224 130.549434,10.4055934 137.026223,10.4055934 C143.503013,10.4055934 148.752922,15.7388224 148.752922,22.3184038 C148.752922,28.8979851 143.503013,34.2312141 137.026223,34.2312141 Z" id="Shape" fill="#5E6486"></path>
            <polygon id="Shape" fill="#DE8C2E" points="37.7344695 1.449247 1.2133646 1.449247 1.2133646 10.7244278 14.9087789 10.7244278 14.9087789 43.1875605 24.0390551 43.1875605 24.0390551 10.7244278 37.7344695 10.7244278"></polygon>
            <path d="M58.277591,0.869548198 C46.6150897,0.869548198 37.1638272,10.4708096 37.1638272,22.3184038 C37.1638272,34.1659979 46.6150897,43.7672593 58.277591,43.7672593 C69.9400922,43.7672593 79.3913547,34.1659979 79.3913547,22.3184038 C79.3913547,10.4708096 69.9400922,0.869548198 58.277591,0.869548198 Z M58.277591,34.2312141 C51.8008013,34.2312141 46.5508924,28.8979851 46.5508924,22.3184038 C46.5508924,15.7388224 51.8008013,10.4055934 58.277591,10.4055934 C64.7543807,10.4055934 70.0042895,15.7388224 70.0042895,22.3184038 C70.0042895,28.8979851 64.7543807,34.2312141 58.277591,34.2312141 Z" id="Shape" fill="#DE8C2E"></path>
            <polygon id="Shape" fill="#5E6486" points="200.909625 6.74624477 194.283041 0.01449247 178.954164 15.5866515 163.625286 0.01449247 156.998703 6.74624477 172.32758 22.3184038 156.998703 37.8905627 163.625286 44.622315 178.954164 29.0501561 194.283041 44.622315 200.909625 37.8905627 185.580747 22.3184038"></polygon>
        </g>
    </g>
</svg>