<?xml version="1.0" encoding="UTF-8"?>
<svg width="540px" height="505px" viewBox="0 0 540 505" version="1.1" xmlns="http://www.w3.org/2000/svg" xmlns:xlink="http://www.w3.org/1999/xlink">
    <title>Group 4</title>
    <g id="Pictures" stroke="none" stroke-width="1" fill="none" fill-rule="evenodd">
        <g id="Group-4">
            <g id="Group-3">
                <ellipse id="Oval" fill="#D3D3D3" fill-rule="nonzero" cx="272.5" cy="488.5" rx="256.5" ry="16.5"></ellipse>
                <path d="M464.163338,478.751337 C482.51785,469.692733 500.940638,440.001997 515.110099,426.03555 C529.27956,412.069103 538.803979,393.016614 535.87913,374.183974 C533.189774,356.867077 520.575603,341.933718 517.227215,324.712246 C511.480509,295.158693 533.686795,267.411905 538.869362,237.771889 C542.766846,215.482829 536.471043,191.859915 521.789517,173.681549 C508.405801,157.110133 488.706032,145.221967 476.624757,127.839167 C460.345123,104.415014 459.503831,73.3045955 439.623537,52.3145926 C425.223791,37.1107721 403.354831,29.9659571 382.453299,23.5935118 C345.411577,12.2995163 307.607832,1.40620403 268.572815,0.11558219 C229.537798,-1.17503965 188.526845,8.25366988 160.34241,32.8951625 C151.582328,40.554012 144.115429,49.7159508 140.337716,60.2291412 C131.405789,85.0889007 115.192962,111.466512 123.210115,136.583552 C124.778713,141.497194 126.176045,146.681824 124.991061,151.684038 C123.824015,156.610861 120.28353,160.772694 116.552684,164.494304 C99.1679142,181.833871 105.029495,193.281286 82.7017012,205.015506 C60.3739076,216.749199 37.8123575,229.581607 22.7628379,248.648858 C7.71331835,267.716108 1.80749572,294.6009 14.8868648,314.838567 C19.9612319,322.68985 27.70239,329.450326 29.758174,338.367109 C33.3923929,354.129778 18.3145216,367.605388 9.44739794,381.539148 C-5.27463114,404.673334 -2.55750143,435.996747 15.9705922,456.736322 C34.4986859,477.475898 67.6087862,486.256134 95.4570514,477.81437 L464.163338,478.751337 Z" id="Path" fill="#F5F5F5" fill-rule="nonzero"></path>
                <path d="M107.005224,474.267297 C109.226119,434.420721 79.6141791,380.671196 49.262403,378.029977 C38.1579254,401.215242 57.315,462.55637 85.5879254,473.781667 C113.860851,485.006963 107.005224,474.267297 107.005224,474.267297 Z" id="Path" fill="#D3D3D3" fill-rule="nonzero"></path>
                <path d="M89.4749552,464.984059 C89.330597,461.991416 88.7531642,458.827671 88.0577463,455.71189 C87.3530746,452.585963 86.5026567,449.466493 85.5832985,446.363164 C83.7399552,440.15374 81.6074328,434.003347 79.302791,427.917059 C76.992597,421.831694 74.5024179,415.806744 71.7776567,409.886484 C70.4076418,406.930274 68.9779403,404.000352 67.4274776,401.133612 C66.6399851,399.708543 65.8437015,398.284858 64.9618209,396.915132 C64.0859552,395.544484 63.1712239,394.182598 62.0135821,393.023174 C63.2392388,394.113881 64.2409552,395.429187 65.2010299,396.753256 C66.1685075,398.077785 67.0517761,399.459041 67.9276418,400.844447 C69.6539254,403.630479 71.2626866,406.487073 72.8131493,409.373183 C75.8992687,415.153703 78.7563582,421.055516 81.4413284,427.038037 C84.121209,433.024247 86.6354478,439.089781 88.8799403,445.284447 C90.0005672,448.383164 91.0564179,451.512781 91.9794776,454.710653 C92.8900448,457.917749 93.7085373,461.158973 94.0911791,464.678292 L89.4749552,464.984059 Z" id="Path" fill="#FFFFFF" fill-rule="nonzero"></path>
                <path d="M121.675352,466.346154 C121.675352,466.346154 121.099014,467.924615 118.612394,468.418462 C118.110423,468.52 117.529437,468.575385 116.860141,468.561538 C114.108592,468.52 109.846479,467.352308 103.306901,463.530769 C87.3228169,454.18 87.0207042,416.135385 95.8749296,403.249231 C113.91338,407.638462 126.732254,442.636923 121.675352,466.346154 Z" id="Path" fill="#3274DC" fill-rule="nonzero"></path>
                <path d="M118.612394,468.418462 C118.110423,468.52 117.529437,468.575385 116.860141,468.561538 C116.850845,468.455385 116.836901,468.353846 116.827606,468.247692 C116.241972,462.930769 115.363521,457.627692 114.294507,452.366154 C113.230141,447.1 111.965915,441.870769 110.46,436.710769 C109.702394,434.130769 108.879718,431.564615 107.931549,429.049231 C107.685211,428.426154 107.452817,427.793846 107.187887,427.175385 L106.797465,426.243077 L106.379155,425.329231 C105.798169,424.12 105.193944,422.906154 104.380563,421.826154 C105.231127,422.878462 105.881831,424.069231 106.509296,425.264615 L106.964789,426.169231 L107.387746,427.087692 C107.675915,427.701538 107.931549,428.324615 108.201127,428.943077 C109.242254,431.435385 110.162535,433.978462 111.013099,436.535385 C112.709577,441.663077 114.169014,446.864615 115.433239,452.116923 C116.697465,457.369231 117.766479,462.667692 118.55662,468.030769 C118.575211,468.16 118.593803,468.289231 118.612394,468.418462 Z" id="Path" fill="#FFFFFF" fill-rule="nonzero"></path>
                <path d="M193.603857,477.607152 C193.603857,477.607152 193.103492,478.998224 190.945063,479.432992 C190.509143,479.522544 190.005095,479.571264 189.424175,479.5592 C187.035587,479.522544 183.336016,478.493856 177.659381,475.126144 C163.784492,466.886896 163.522111,433.36336 171.208032,422.008816 C186.86619,425.87672 197.993444,456.716016 193.603857,477.607152 Z" id="Path" fill="#D3D3D3" fill-rule="nonzero"></path>
                <path d="M190.945063,479.433456 C190.509143,479.523008 190.005095,479.571728 189.424175,479.559664 C189.416349,479.465936 189.403921,479.376848 189.396095,479.28312 C188.887905,474.598112 188.125159,469.925168 187.197159,465.28888 C186.273302,460.648416 185.175905,456.040896 183.868603,451.49416 C183.21081,449.221024 182.496857,446.959488 181.67381,444.74296 C181.459762,444.194048 181.258143,443.636784 181.028444,443.092048 L180.689651,442.270304 L180.32646,441.465264 C179.821952,440.39992 179.297651,439.329936 178.591524,438.378272 C179.329873,439.305344 179.894683,440.354912 180.439238,441.408192 L180.834651,442.205344 L181.201984,443.01456 C181.451937,443.555584 181.67427,444.104496 181.908111,444.649232 C182.811714,446.845344 183.610825,449.086 184.349175,451.339184 C185.82173,455.857616 187.088524,460.441008 188.185921,465.068944 C189.283317,469.69688 190.211317,474.365648 190.89719,479.091488 C190.912841,479.205632 190.928952,479.319312 190.945063,479.433456 Z" id="Path" fill="#FFFFFF" fill-rule="nonzero" opacity="0.5"></path>
                <path d="M439.061348,474.267297 C436.856904,434.420721 466.249496,380.671196 496.376444,378.029977 C507.398667,401.215242 488.383496,462.55637 460.32,473.781667 C432.256504,485.006963 439.061348,474.267297 439.061348,474.267297 Z" id="Path" fill="#3274DC" fill-rule="nonzero"></path>
                <path d="M456.461763,464.984059 C456.605052,461.991416 457.178207,458.827671 457.868474,455.71189 C458.567926,452.585963 459.412044,449.466493 460.324593,446.363164 C462.154281,440.15374 464.271007,434.003347 466.558578,427.917059 C468.851659,421.831694 471.323393,415.806744 474.02797,409.886484 C475.387837,406.930274 476.806948,404.000352 478.345467,401.133612 C479.127126,399.708543 479.917511,398.284858 480.792859,396.915132 C481.662237,395.544484 482.570193,394.182598 483.719259,393.023174 C482.502681,394.113881 481.508385,395.429187 480.555422,396.753256 C479.595111,398.077785 478.718385,399.459041 477.849007,400.844447 C476.135511,403.630479 474.538667,406.487073 472.999689,409.373183 C469.93643,415.153703 467.100504,421.055516 464.435422,427.038037 C461.775393,433.024247 459.279778,439.089781 457.051911,445.284447 C455.939585,448.383164 454.891556,451.512781 453.975333,454.710653 C453.071511,457.917749 452.259081,461.158973 451.879274,464.678292 L456.461763,464.984059 Z" id="Path" fill="#FFFFFF" fill-rule="nonzero"></path>
                <path d="M379.093348,475.788027 C380.581152,449.013826 360.742087,412.897154 340.407239,411.122765 C332.967761,426.702067 345.801957,467.919195 364.744413,475.461718 C383.686413,483.004242 379.093348,475.788027 379.093348,475.788027 Z" id="Path" fill="#3274DC" fill-rule="nonzero"></path>
                <path d="M367.348413,469.550282 C367.25163,467.53949 366.864957,465.413235 366.398848,463.320295 C365.926804,461.220054 365.357065,459.123919 364.740761,457.038282 C363.50587,452.866094 362.076957,448.733154 360.533,444.64357 C358.985391,440.554443 357.316804,436.505933 355.491174,432.528161 C354.573565,430.542013 353.615326,428.573208 352.576739,426.646846 C352.049,425.689369 351.515783,424.732349 350.925043,423.812295 C350.337957,422.891329 349.725304,421.976295 348.949674,421.197262 C349.770957,421.930201 350.442043,422.814201 351.085283,423.703678 C351.733543,424.593611 352.325196,425.521879 352.911826,426.45243 C354.068196,428.324483 355.146043,430.243544 356.185087,432.183141 C358.252674,436.067356 360.16687,440.032805 361.966022,444.05302 C363.761522,448.07506 365.446087,452.150953 366.94987,456.313557 C367.700848,458.395544 368.408,460.498523 369.02613,462.647141 C369.636043,464.802148 370.184326,466.979973 370.440891,469.344913 L367.348413,469.550282 Z" id="Path" fill="#FFFFFF" fill-rule="nonzero"></path>
                <path d="M371.664471,474.985912 C372.354824,462.112706 384.060235,445.872809 394.184,446.072029 C397.024471,453.901353 388.502588,472.939912 378.758588,475.568985 C369.015059,478.198515 371.664471,474.985912 371.664471,474.985912 Z" id="Path" fill="#D3D3D3" fill-rule="nonzero"></path>
                <path d="M377.788706,472.609853 C377.943529,471.653868 378.247059,470.657765 378.588235,469.680809 C378.932706,468.701118 379.325176,467.728721 379.740235,466.764074 C380.571294,464.833412 381.495529,462.931926 382.474824,461.056882 C383.455529,459.182294 384.493647,457.333235 385.605647,455.526118 C386.163765,454.623926 386.741176,453.732221 387.355765,452.865132 C387.666824,452.434779 387.980706,452.004882 388.321412,451.5955 C388.659765,451.185662 389.010824,450.779471 389.434824,450.447588 C388.991059,450.755309 388.612706,451.143265 388.248471,451.535324 C387.881412,451.927382 387.540235,452.340412 387.201412,452.755265 C386.531294,453.590441 385.897882,454.452059 385.282353,455.325529 C384.056,457.075662 382.901176,458.872294 381.8,460.700838 C380.700706,462.53075 379.653176,464.392118 378.689882,466.304088 C378.208941,467.260529 377.748235,468.229279 377.328941,469.224471 C376.913412,470.222853 376.527059,471.235824 376.274824,472.352735 L377.788706,472.609853 Z" id="Path" fill="#FFFFFF" fill-rule="nonzero"></path>
                <path d="M184.41262,476.985912 C185.08744,464.112706 196.52948,447.872809 206.42546,448.072029 C209.20248,455.901353 200.87188,474.939912 191.34712,477.568985 C181.82282,480.198515 184.41262,476.985912 184.41262,476.985912 Z" id="Path" fill="#3274DC" fill-rule="nonzero"></path>
                <path d="M190.39906,474.609853 C190.5504,473.653868 190.8471,472.657765 191.1806,471.680809 C191.51732,470.701118 191.90096,469.728721 192.30668,468.764074 C193.11904,466.833412 194.02248,464.931926 194.97974,463.056882 C195.93838,461.182294 196.95314,459.333235 198.04012,457.526118 C198.58568,456.623926 199.1501,455.732221 199.75086,454.865132 C200.05492,454.434779 200.36174,454.004882 200.69478,453.5955 C201.02552,453.185662 201.36868,452.779471 201.78314,452.447588 C201.34936,452.755309 200.97952,453.143265 200.62302,453.535324 C200.26422,453.927382 199.93072,454.340412 199.59952,454.755265 C198.94448,455.590441 198.32532,456.452059 197.72364,457.325529 C196.52488,459.075662 195.39604,460.872294 194.31964,462.700838 C193.24508,464.53075 192.22112,466.392118 191.2795,468.304088 C190.80938,469.260529 190.35904,470.229279 189.94918,471.224471 C189.543,472.222853 189.16534,473.235824 188.91878,474.352735 L190.39906,474.609853 Z" id="Path" fill="#FFFFFF" fill-rule="nonzero"></path>
                <path d="M424.380042,476.346154 C424.380042,476.346154 424.948375,477.924615 427.400458,478.418462 C427.895458,478.52 428.468375,478.575385 429.128375,478.561538 C431.841708,478.52 436.044625,477.352308 442.493375,473.530769 C458.255458,464.18 458.553375,426.135385 449.822125,413.249231 C432.034208,417.638462 419.393375,452.636923 424.380042,476.346154 Z" id="Path" fill="#D3D3D3" fill-rule="nonzero"></path>
                <path d="M427.400458,468.418462 C427.895458,468.52 428.468375,468.575385 429.128375,468.561538 C429.137542,468.455385 429.151292,468.353846 429.160458,468.247692 C429.737958,462.930769 430.604208,457.627692 431.658375,452.366154 C432.707958,447.1 433.954625,441.870769 435.439625,436.710769 C436.186708,434.130769 436.997958,431.564615 437.932958,429.049231 C438.175875,428.426154 438.405042,427.793846 438.666292,427.175385 L439.051292,426.243077 L439.463792,425.329231 C440.036708,424.12 440.632542,422.906154 441.434625,421.826154 C440.595875,422.878462 439.954208,424.069231 439.335458,425.264615 L438.886292,426.169231 L438.469208,427.087692 C438.185042,427.701538 437.932958,428.324615 437.667125,428.943077 C436.640458,431.435385 435.732958,433.978462 434.894208,436.535385 C433.221292,441.663077 431.782125,446.864615 430.535458,452.116923 C429.288792,457.369231 428.234625,462.667692 427.455458,468.030769 C427.437125,468.16 427.418792,468.289231 427.400458,468.418462 Z" id="Path" fill="#FFFFFF" fill-rule="nonzero"></path>
                <g id="Group" transform="translate(46.000000, 378.000000)"></g>
            </g>
            <path d="M260,130.5 C260,132.432554 258.432554,134 256.5,134 C254.567446,134 253,132.432554 253,130.5 C253,128.567446 254.567446,127 256.5,127 C258.432554,127 260,128.567446 260,130.5 Z" id="Path" fill="#212121" fill-rule="nonzero"></path>
            <polygon id="Path" fill="#FAB9AF" fill-rule="nonzero" points="317 303 302.689348 203.299859 266.073274 199 244 302.279349"></polygon>
            <path d="M286.979478,457.392893 L287.01975,468.420914 C287.027804,470.664039 286.724422,472.897716 286.119001,475.057162 L285.165899,478.454241 C284.383281,481.242626 286.468025,484.010766 289.350152,484 C296.820594,483.972975 309.589479,483.99322 312.881038,483.998619 C313.419339,484 313.946901,483.634212 313.993885,483.094351 C314.271761,479.874077 305.0213,477.71868 298.054257,475.007225 C292.74776,472.942255 293.031006,463.351615 293.684753,457.751901 C293.931755,455.635644 292.177241,453.835206 290.06565,454.01201 L290.06565,454.01201 C288.316506,454.157773 286.974108,455.630245 286.979478,457.392893 Z" id="Path" fill="#212121" fill-rule="nonzero"></path>
            <path d="M233.253404,454.822284 L229.341042,468.066297 C229.168764,468.651425 228.910348,469.206801 228.575519,469.714006 L225.802409,473.913328 C224.042124,476.579698 225.309196,480.22081 228.32405,481.158715 C228.32405,481.158715 233.914727,483.164869 239.679071,485.095933 C245.57957,487.072335 253,485.420375 253,483.833587 C253,480.305817 249.775357,483.105364 244.373629,479.421749 C242.563328,478.187738 240.694674,476.895639 239.028863,475.562454 C234.380154,471.840586 238.439786,462.419032 241.285141,457.111792 C242.30908,455.203396 241.222621,452.834548 239.135842,452.38118 L237.788189,452.087908 C235.809778,451.657208 233.836924,452.847299 233.253404,454.822284 Z" id="Path" fill="#212121" fill-rule="nonzero"></path>
            <path d="M273,303.5789 L315.164843,300 C315.164843,300 319.410993,331.030959 308.754606,387.205456 C303.756562,413.547489 293.342148,463.88571 293.342148,463.88571 C290.761101,465.02753 288.136308,465.315059 285.463667,464.640473 C285.463667,464.640473 284.672128,442.435808 284.189548,418.523944 C283.726108,395.590782 283.600337,371.08589 282.155334,363.068269 C279.202441,346.691586 273,303.5789 273,303.5789 Z" id="Path" fill="#FFBE55" fill-rule="nonzero"></path>
            <path d="M273,303.5789 L315.164843,300 C315.164843,300 319.410993,331.030959 308.754606,387.205456 C303.756562,413.547489 293.342148,463.88571 293.342148,463.88571 C290.761101,465.02753 288.136308,465.315059 285.463667,464.640473 C285.463667,464.640473 284.672128,442.435808 284.189548,418.523944 C283.726108,395.590782 283.600337,371.08589 282.155334,363.068269 C279.202441,346.691586 273,303.5789 273,303.5789 Z" id="Path" fill="#3274DC" fill-rule="nonzero"></path>
            <path d="M282.395678,303.392903 C286.867065,327.131538 296.85747,362.628368 277.613933,395.976358 C258.370396,429.322959 238.16068,463.991923 238.16068,463.991923 C235.557052,464.09749 233.194968,463.162668 231,461.515271 C231,461.515271 234.374606,446.396997 239.251844,428.74512 C244.831248,408.551306 251.899242,384.797392 249.885433,372.412742 C246.111998,349.201941 241.77683,318.290321 243.091283,303.277613 C244.404332,288.267684 280.043425,290.911021 282.395678,303.392903 Z" id="Path" fill="#FFBE55" fill-rule="nonzero"></path>
            <path d="M282.395678,303.392903 C286.867065,327.131538 296.85747,362.628368 277.613933,395.976358 C258.370396,429.322959 238.16068,463.991923 238.16068,463.991923 C235.557052,464.09749 233.194968,463.162668 231,461.515271 C231,461.515271 234.374606,446.396997 239.251844,428.74512 C244.831248,408.551306 251.899242,384.797392 249.885433,372.412742 C246.111998,349.201941 241.77683,318.290321 243.091283,303.277613 C244.404332,288.267684 280.043425,290.911021 282.395678,303.392903 Z" id="Path" fill="#3274DC" fill-rule="nonzero"></path>
            <path d="M317.951407,301.437462 L302.219162,203.80712 L266.056985,199 L243.070509,301.619879 C242.68211,303.557368 243.937151,305.438196 245.879148,305.807176 C253.041729,307.164247 270.319278,310 289.654928,310 C304.089284,310 312.201439,307.193268 315.891923,305.417467 C317.386086,304.694709 318.215408,303.075068 317.951407,301.437462 Z" id="Path" fill="#FFFFFF" fill-rule="nonzero"></path>
            <path d="M275,203.516319 C275,210.54324 273.736954,217.503882 271.363794,224.108276 C266.719882,237.029857 259.754698,261.461834 263.893391,282.988597 C269.853601,313.986306 277.516533,326.517119 267.58285,333.740114 C257.649166,340.96449 238.596976,328.910055 238.048063,324.89191 C237.497785,320.873765 241.755273,271.51272 246.58079,250.12818 C251.406307,228.743641 264.920213,198 264.920213,198 L270.645565,198.618601 C273.121134,198.886477 275,200.99911 275,203.516319 L275,203.516319 Z" id="Path" fill="#212121" fill-rule="nonzero"></path>
            <path d="M292,201 C292,201 298.656095,215.43056 296.335356,236.162819 C294.013238,256.895079 288.634032,320.02826 307.442637,329.561033 C313.398235,332.580482 327,319.21081 327,314.252163 C327,309.292134 322.460563,292.690005 318.15968,277.595526 C313.858798,262.501047 302.4123,202.432959 302.4123,202.432959 L292,201 Z" id="Path" fill="#212121" fill-rule="nonzero"></path>
            <path d="M285.737371,157 C277.307227,157 274.161529,163.105625 274.001394,174.400065 C273.941683,178.629266 275.811731,182.821188 277.316726,185.497059 C278.434955,187.485322 278.741654,189.839481 278.103829,192.036235 L276.25278,198.411104 C274.994773,204.324807 277.755061,207.568161 281.828997,208.745931 C283.846966,209.328602 286.266629,208.877101 288.028112,207.718661 C290.123434,206.340685 290.295782,203.37762 289.906302,200.868818 L289.428612,199.051767 C288.784002,196.603718 290.179074,193.963746 292.613665,193.422497 C299.10455,191.978244 300.034146,185.093883 301.773914,174.401445 C303.585608,163.256125 294.167514,157 285.737371,157 Z" id="Path" fill="#FCD2B1" fill-rule="nonzero"></path>
            <path d="M285.772249,150.016122 C279.770086,150.016122 269.855651,153.389115 271.108192,162.008061 L272.21444,168.103848 C272.656103,170.538281 274.697228,172.361333 277.174444,172.572058 L277.174444,172.572058 C277.404332,173.41496 278.172018,174 279.049771,174 C280.122581,174 280.991975,173.134917 280.991975,172.067426 L280.991975,172.067426 C280.991975,169.318292 282.931392,166.972585 285.62735,166.369522 C288.933555,165.630597 292.465468,165.45453 296.161785,166.442999 C302.941387,168.25496 310.988854,157.085127 311,156.972833 C311,156.972833 307.567008,159.587491 300.776261,157.105922 C293.986907,154.624354 296.818011,149.682011 285.772249,150.016122 Z" id="Path" fill="#212121" fill-rule="nonzero"></path>
            <path d="M279,174 C279,176.762085 277.978662,179 275.337071,179 C272.695479,179 271,175.202679 271,172.440594 C271,169.678509 272.695479,169 275.337071,169 C277.978662,169 279,171.237915 279,174 Z" id="Path" fill="#FCD2B1" fill-rule="nonzero"></path>
            <path d="M266.177387,169.491532 C266.177387,169.491532 265.27613,171.648432 263.126243,174.682785 C262.055402,176.206199 260.66454,177.940313 258.957759,179.797797 C257.274228,181.681619 255.371878,183.790002 253.265755,186.04532 C251.176042,188.315887 248.870247,190.723686 246.552144,193.362977 C244.210791,195.97593 241.907731,198.873051 239.757843,201.972554 C237.659925,205.098395 235.62355,208.393351 234.095927,211.760387 C233.350578,213.439054 232.705064,215.135741 232.333074,216.71183 C231.946039,218.27683 231.83663,219.750342 232.033566,220.643043 C232.132035,221.083849 232.277002,221.372175 232.408292,221.537131 C232.560097,221.688225 232.709167,221.749217 232.89106,221.873973 C233.264418,222.095762 234.078148,222.549044 235.410202,222.813805 L236.156919,223.002325 C236.270431,223.027277 236.430442,223.078565 236.50566,223.082724 L236.721743,223.092427 L237.581971,223.158964 L238.587167,223.203322 L239.548599,223.138171 C240.799964,222.962126 241.891319,222.585084 242.829502,222.050018 C244.697661,220.968796 246.062538,219.615882 247.735129,218.251879 C249.369426,216.847676 251.176042,215.238319 252.825383,213.414103 C256.124065,209.760126 258.950921,205.63762 261.06525,202.533958 C262.159341,200.902422 263.019569,199.621589 263.606275,198.748295 C264.022029,198.13745 264.994402,197.682782 266.523393,197.384291 C266.523393,197.384291 266.850252,197.924902 267.37268,198.979787 C267.852713,200.031899 268.533784,201.610761 269.06305,203.701124 C270.114744,207.845809 270.783507,214.218088 268.237012,221.772782 C266.94325,225.501612 264.838494,229.586691 261.229364,233.114525 C259.415909,234.85557 257.231832,236.4275 254.72363,237.608528 C252.225001,238.802031 249.404984,239.5575 246.539835,239.861074 C240.780818,240.444657 234.978037,239.1361 230.365079,236.940388 C229.146536,236.387301 227.729689,235.69421 226.40584,234.819529 C225.058741,233.885242 223.699334,232.819268 222.508144,231.338825 C221.316953,229.898582 220.352786,228.151992 219.756507,226.33748 C219.182109,224.520195 218.979703,222.711227 219.001584,221.050581 C219.082274,217.719585 219.947972,215.024847 220.920345,212.640613 C221.909129,210.252221 223.10032,208.188196 224.335274,206.244768 C226.807918,202.375934 229.482969,199.024145 232.185371,195.937117 C234.856319,192.833455 237.505385,189.972375 239.991705,187.254071 C242.50401,184.562105 244.913744,182.071136 247.246891,179.892057 C249.569097,177.70189 251.801041,175.816682 253.826476,174.205938 C255.827293,172.56747 257.714599,171.306045 259.36394,170.384233 C262.654416,168.529522 264.953374,168 264.953374,168 L266.177387,169.491532 Z" id="Path" fill="#212121" fill-rule="nonzero"></path>
            <path d="M335.877577,310 C335.877577,310 334.594523,308.287964 333.539506,305.18212 C332.979028,303.632672 332.605377,301.719138 332.150675,299.529067 C331.728943,297.334826 331.296222,294.857099 330.930812,292.141743 C330.540676,289.430557 330.164276,286.4873 329.606546,283.400911 C329.044695,280.315911 328.285028,277.090558 327.511623,273.772099 C326.713492,270.457809 325.799968,267.057361 324.809516,263.674979 C324.339704,261.967112 323.762742,260.31761 323.264082,258.634756 C322.709099,256.990813 322.198075,255.427469 321.541437,253.655678 C320.932879,251.981163 320.276241,250.301089 319.625098,248.652976 C318.919006,247.022929 318.217035,245.410947 317.457368,243.85872 C315.961387,240.741759 314.381609,237.812399 313.073828,234.973365 C311.737198,232.13989 310.608001,229.40647 309.531004,226.791168 C308.418291,224.20227 307.355032,221.745387 306.282157,219.470547 C305.205161,217.202656 304.181739,215.06817 303.185792,213.167143 C302.191219,211.268895 301.299675,209.530456 300.507039,208.101907 C299.711655,206.616382 299.086612,205.450475 298.659386,204.654211 C298.221169,203.837103 298,203.363236 298,203.363236 L298.950614,202 C298.950614,202 299.463012,202.066703 300.398515,202.264031 C300.879317,202.34602 301.441168,202.496101 302.09918,202.690651 C302.762687,202.878252 303.537465,203.090867 304.357575,203.411874 C306.025271,204.014977 308.002054,204.894619 310.138189,206.157801 C312.267454,207.422373 314.597283,209.041303 316.865295,211.121593 C319.136053,213.192156 321.424671,215.661546 323.468766,218.518644 C325.533467,221.356288 327.404473,224.558017 328.771324,228.044623 C330.195872,231.513163 331.076426,235.258241 331.851204,238.994982 C332.571034,242.683085 333.301853,246.429553 334.032671,250.177411 C334.373354,251.938084 334.716784,253.944723 335.040982,255.848529 C335.303362,257.741218 335.560248,259.638076 335.738832,261.486297 C336.144079,265.195244 336.410581,268.809697 336.67983,272.296302 C336.983422,275.775959 337.164753,279.138887 337.458729,282.305875 C337.754079,285.472863 338.137346,288.446692 338.417585,291.202347 C338.723925,293.953833 338.879155,296.489925 338.957457,298.742531 C339.008285,300.999305 339.056365,302.964255 338.831075,304.610978 C338.451928,307.894696 337.516425,309.838802 337.516425,309.838802 L335.877577,310 Z" id="Path" fill="#212121" fill-rule="nonzero"></path>
            <path d="M276.446387,169.376285 C274.165752,170.500281 272.005366,171.870523 271.054304,172.22533 C270.658028,172.373607 269.4733,172.457013 269.131683,172.504674 C268.128696,172.643684 266.553158,172.705908 265.77837,173.338735 L262.474251,175.945504 C260.898713,177.231017 259.063546,177.467996 257.736706,175.942857 L257.736706,175.942857 C256.299181,174.290623 257.102664,172.351101 258.962427,171.159586 L261.243063,169.298175 C262.732513,168.343639 263.634382,166.831739 264.601841,165.378091 C266.569556,162.420486 270.279516,160.515386 273.401896,159.256352 C275.361411,158.46598 277.968633,159.603215 281.353374,161.300462 C283.016366,162.134522 285.337995,163.908556 283.030031,164.383838 C281.096478,164.782333 275.800048,162.539637 272.599779,167.116379 C272.442636,167.341443 272.081888,167.946467 272.295057,168.207277 C272.931831,168.985733 274.792961,167.704193 275.958558,167.375864 C277.59422,166.913821 278.780315,167.329527 279.083671,167.927933 C279.40889,168.56076 278.075217,168.572675 276.446387,169.376285 Z" id="Path" fill="#FCD2B1" fill-rule="nonzero"></path>
            <path d="M332.276146,319.567457 C332.326274,317.034747 332.097312,314.491219 332.221954,313.490575 C332.273436,313.072739 332.750326,311.999075 332.868194,311.678599 C333.210958,310.736101 333.891068,309.331143 333.681074,308.34943 L332.870903,304.211633 C332.445496,302.218459 333.089026,300.501138 335.086002,300.077893 L335.086002,300.077893 C337.248264,299.618138 338.624741,301.251621 338.832025,303.448981 L339.447105,306.335973 C339.613745,308.095213 340.556686,309.6097 341.416985,311.153937 C343.167387,314.295147 343.155194,318.44917 342.832751,321.781043 C342.630886,323.871577 340.387336,325.601068 337.27536,327.73893 C335.74579,328.789606 333.060575,329.961981 333.70817,327.719999 C334.251445,325.840411 338.748028,322.296239 336.110231,317.299782 C335.98017,317.053678 335.602181,316.447883 335.267545,316.508733 C334.266348,316.68993 334.55492,318.931913 334.306992,320.106993 C333.960163,321.756703 333.03077,322.592376 332.349305,322.57074 C331.628551,322.545048 332.240921,321.375377 332.276146,319.567457 Z" id="Path" fill="#FCD2B1" fill-rule="nonzero"></path>
            <path d="M278,186 C278,186 284.238356,195.086764 292,193.85582 C292,193.85582 290.387977,194.672176 289.996735,196 C289.99539,196 282.623644,195.422995 278,186 Z" id="Path" fill="#E8948B" fill-rule="nonzero"></path>
            <path d="M285.23089,113.416626 C285.534735,112.163409 286.361044,111.655348 287.593099,111.962067 L296.513911,114.188126 C297.749671,114.496726 298.251756,115.335967 297.946058,116.589184 L295.80247,125.45767 C295.498625,126.710887 294.672315,127.22083 293.436555,126.91223 L284.515742,124.68617 C283.283688,124.37757 282.781603,123.538329 283.087301,122.285112 L285.23089,113.416626 Z M313.466795,53.1746926 C321.97337,55.2989479 325.515991,61.1161394 323.403632,69.8564514 L318.977142,88.1795152 C318.730729,89.2016996 318.298615,89.7845081 317.409389,90.2529336 L303.051419,98.699118 C302.255044,99.1911464 301.82293,99.7721393 301.576518,100.796139 L300.587298,104.886692 C300.296246,106.0977 299.499871,106.587912 298.308879,106.290153 L289.711239,104.142295 C288.523818,103.844536 288.039922,103.034778 288.332759,101.825586 L290.309413,93.6426641 C290.534398,92.7112599 290.964726,92.130267 291.761102,91.6382386 L307.235068,82.1880259 L310.334861,69.3517138 C310.918751,66.9333309 309.859893,65.2902103 307.572546,64.7182954 L303.183553,63.6216713 C300.71229,63.0043664 299.210604,64.0102103 298.626715,66.4285933 L296.875046,73.6837422 C296.650061,74.6133309 295.966178,75.0345507 295.051953,74.8057848 L285.538303,72.4291606 C284.533013,72.1786075 284.20982,71.5068344 284.434805,70.5754302 L286.816789,60.7167068 C288.929148,51.9745791 294.625196,48.4668345 303.222836,50.6146926 L313.466795,53.1746926 Z" id="Shape" fill="#212121" fill-rule="nonzero"></path>
        </g>
    </g>
</svg>