<?xml version="1.0" encoding="UTF-8"?>
<svg width="107px" height="104px" viewBox="0 0 107 104" version="1.1" xmlns="http://www.w3.org/2000/svg" xmlns:xlink="http://www.w3.org/1999/xlink">
    <title>mysql</title>
    <g id="Pictures" stroke="none" stroke-width="1" fill="none" fill-rule="evenodd">
        <g id="mysql" transform="translate(0.363636, 0.181818)" fill="#00546B" fill-rule="nonzero">
            <path d="M97.1881467,80.1291843 C91.4479553,79.9860169 86.9990801,80.5603369 83.2678319,82.1393041 C82.1913914,82.5696315 80.4690865,82.5700441 80.3255611,83.934054 C80.8996627,84.5083739 80.9714254,85.4416438 81.4737644,86.2309211 C82.3357417,87.6663084 83.8415211,89.6046382 85.2050125,90.6101107 C86.7116168,91.758338 88.219046,92.9065653 89.7970007,93.9116252 C92.5957461,95.634585 95.753305,96.6392323 98.4798753,98.3621922 C100.059067,99.3664269 101.636609,100.659472 103.215389,101.735909 C104.004779,102.309404 104.506705,103.243499 105.511795,103.602036 L105.511795,103.387079 C105.009044,102.740557 104.865519,101.807699 104.363592,101.089799 C103.64679,100.371899 102.928338,99.7257894 102.210711,99.0078895 C100.130005,96.208905 97.5469602,93.7680452 94.7486272,91.758338 C92.4526331,90.1789582 87.4292439,88.025671 86.4967412,85.3694412 C86.4967412,85.3694412 86.424566,85.2980638 86.3532158,85.2262738 C87.9315828,85.0826938 89.7970007,84.5083739 91.3044299,84.077634 C93.7439493,83.4311114 95.9681807,83.575104 98.4798753,82.9289941 C99.6276662,82.6418341 100.775869,82.2828841 101.92366,81.9239342 L101.92366,81.2782368 C100.632756,79.9860169 99.6998413,78.2634697 98.3363499,77.0430398 C94.6768645,73.8838676 90.6581531,70.797723 86.4967412,68.2136959 C84.2720974,66.777896 81.4015892,65.8446261 79.0338324,64.6246088 C78.1735049,64.1934563 76.7378384,63.9784989 76.2359119,63.260599 C74.9437708,61.6816317 74.2261438,59.6001345 73.293641,57.7335947 C71.2133475,53.7851451 69.2035794,49.4067807 67.4095118,45.2437863 C66.118608,42.4439766 65.3292183,39.6441669 63.7504388,37.0605523 C56.3597052,24.8574913 48.3231073,17.4639472 35.981572,10.2135705 C33.326352,8.70639326 30.1692055,8.06028333 26.7967708,7.27100599 C25.0035281,7.19880341 23.2090481,7.05563601 21.4153929,6.98343343 C20.2671897,6.48090349 19.1189864,5.11730621 18.1143086,4.47119627 C14.0250718,1.88675653 3.47636682,-3.71162514 0.462745708,3.68191894 C-1.47484728,8.3474433 3.33325384,12.9411777 4.98297116,15.31066 C6.20376198,16.9614173 7.78171659,18.8275445 8.64286903,20.6940843 C9.14520796,21.913689 9.28832093,23.206734 9.79065986,24.4985413 C10.9392755,27.6560633 12.0148912,31.1741855 13.5223204,34.1175752 C14.3117102,35.6247524 15.1724502,37.2037197 16.177128,38.5677296 C16.7512297,39.3570069 17.7554951,39.7163695 17.9711956,41.0081767 C16.9669302,42.4439766 16.8947551,44.5976764 16.320241,46.3920136 C13.7371961,54.5034576 14.7422864,64.5528188 18.4013594,70.5105631 C19.5491502,72.3044877 22.276133,76.2537625 25.9356184,74.7457601 C29.16494,73.4539528 28.447313,69.3623358 29.3794033,65.7732487 C29.5955163,64.9109436 29.4519909,64.3374489 29.8821547,63.7631289 L29.8821547,63.9071215 C30.8868325,65.9164161 31.8910979,67.8551585 32.8240131,69.8648657 C35.0486569,73.3817502 38.923018,77.0430398 42.1519272,79.4838996 C43.8746445,80.7752943 45.2377235,83.0007841 47.3906046,83.790474 L47.3906046,83.5746914 L47.2466667,83.5746914 C46.8160905,82.9285815 46.1702262,82.6418341 45.596537,82.1388916 C44.3052207,80.8474969 42.8695542,79.268117 41.8652888,77.8323172 C38.8520801,73.8120776 36.1964477,69.3619232 33.8286909,64.7677762 C32.6809001,62.5431116 31.6758098,60.1022519 30.7433071,57.8771747 C30.3123184,57.0148696 30.3123184,55.7234749 29.5951038,55.2931475 C28.5186633,56.8721148 26.9402962,58.2361247 26.1509065,60.1740419 C24.78824,63.260599 24.6443022,67.065056 24.1419632,71.0126804 C23.8549124,71.0852956 23.9980254,71.0126804 23.8545,71.1570856 C21.5589184,70.5819405 20.7695286,68.2136959 19.9079637,66.2035761 C17.7550826,61.1073118 17.3962691,52.9240778 19.2625118,47.0381235 C19.7648508,45.5305337 21.9177319,40.7932193 21.0565794,39.3574195 C20.6260032,37.9934096 19.1903367,37.2037197 18.4013594,36.1272824 C17.4688567,34.7632725 16.4637664,33.0411379 15.8183145,31.5331354 C14.0960096,27.5133084 13.2348572,23.0627415 11.3694393,19.0429145 C10.5082869,17.1763747 9.00209498,15.23887 7.78171659,13.5159102 C6.41863766,11.577993 4.91162089,10.2135705 3.83518034,7.91670334 C3.47677925,7.12742601 2.9740279,5.83520614 3.54812952,4.97372622 C3.69165493,4.39940628 3.97829331,4.18444889 4.55280737,4.0408689 C5.48572251,3.2507664 8.14094254,4.2558263 9.07303282,4.68656625 C11.7282528,5.76259097 13.9524842,6.76847604 16.177128,8.2756533 C17.1813934,8.99355323 18.257834,10.3575631 19.5491502,10.7165131 L21.056167,10.7165131 C23.3525735,11.2186304 25.935206,10.860093 28.0880871,11.5057904 C31.8915103,12.7258077 35.3352952,14.5205575 38.4210915,16.4588873 C47.8211808,22.4166315 55.569903,30.8870255 60.8085804,41.0081767 C61.6697328,42.6585214 62.0281339,44.1669364 62.8175236,45.8890711 C64.3249528,49.4067807 66.1903707,52.9958678 67.6965626,56.4413748 C69.2035794,59.8146793 70.638421,63.260599 72.7913021,66.0604087 C73.8677427,67.5671734 78.17268,68.3572759 80.110273,69.1469658 C81.5455271,69.7926631 83.7701709,70.3673957 85.0614871,71.156673 C87.5010066,72.6634377 89.9405261,74.3872227 92.2369326,76.0375673 C93.3851358,76.8990473 96.9724461,78.6937971 97.1881467,80.1291843 Z" id="Path"></path>
            <path d="M23.997613,17.750282 C22.7780594,17.750282 21.9173194,17.8946872 21.056167,18.1096446 L21.056167,18.2532245 L21.1996924,18.2532245 C21.7742065,19.4018644 22.7780594,20.1915543 23.4952741,21.1962017 C24.0697881,22.344429 24.5717146,23.4934814 25.1462287,24.6421213 C25.2175789,24.5699187 25.2893416,24.4985413 25.2893416,24.4985413 C26.2944319,23.7802288 26.7963584,22.6320015 26.7963584,20.9090417 C26.3657822,20.4069243 26.2940195,19.9043944 25.935206,19.4018644 C25.5050422,18.6835519 24.5717146,18.3250145 23.997613,17.750282 L23.997613,17.750282 Z" id="Path"></path>
        </g>
    </g>
</svg>